<svg width="100" height="100" viewBox="0 0 100 100" fill="none" xmlns="http://www.w3.org/2000/svg">
<path fill-rule="evenodd" clip-rule="evenodd" d="M100 50C100 77.6144 77.6142 100 50.0001 100C22.3857 100 3.05176e-05 77.6144 3.05176e-05 50C3.05176e-05 22.3858 22.3857 0 50.0001 0C77.6142 0 100 22.3858 100 50ZM26.395 25.9597L26.3843 25.9489C39.6506 12.6834 61.1589 12.6837 74.4251 25.9498C79.058 30.5827 82.0731 36.2209 83.4701 42.1622L88.7651 42.204C89.0605 42.2065 89.343 42.3246 89.552 42.5336C89.9914 42.973 89.9914 43.685 89.552 44.1246L76.7391 56.9375C76.2995 57.3769 75.5874 57.3769 75.148 56.9375L62.131 43.9205C61.9176 43.7071 61.7991 43.4175 61.8016 43.1161C61.8064 42.4946 62.3141 41.995 62.9351 42L69.1904 42.0494C68.1966 39.6902 66.7388 37.48 64.8169 35.5581C56.898 27.6394 44.0845 27.5986 36.1152 35.4357C36.0804 35.4839 36.0413 35.53 35.9979 35.5735L35.9875 35.5839C35.5481 36.0232 34.8358 36.0232 34.3964 35.5839L26.3791 27.5666C25.9397 27.1272 25.9397 26.4149 26.3791 25.9755L26.3895 25.9651L26.395 25.9597ZM64.8169 64.3831C65.0859 64.1142 65.3457 63.8396 65.5965 63.5597L65.6295 63.5927C66.0695 63.1588 66.7777 63.1605 67.2153 63.5979L75.2328 71.6154C75.672 72.0548 75.672 72.7669 75.2328 73.2063L75.2224 73.2169C75.1626 73.2767 75.0977 73.3284 75.0291 73.372C74.8309 73.5803 74.6296 73.7868 74.4251 73.9913C61.1586 87.2577 39.6497 87.2577 26.3834 73.9913C21.5771 69.1851 18.512 63.2969 17.1883 57.1107L11.1161 57.0627C10.8208 57.0606 10.5383 56.942 10.3295 56.7335C9.8902 56.2937 9.8902 55.5816 10.3295 55.1422L23.1424 42.3295C23.5818 41.8902 24.2941 41.8902 24.7334 42.3295L37.7503 55.3462C37.9637 55.5595 38.0822 55.8495 38.0797 56.151C38.0751 56.772 37.5672 57.272 36.9462 57.267L31.3503 57.2228C32.3421 59.8331 33.8893 62.2806 35.9917 64.3831C43.9515 72.3427 56.8569 72.3427 64.8169 64.3831Z" fill="#949494"/>
</svg>
