<svg width="600" height="600" viewBox="0 0 600 600" fill="none" xmlns="http://www.w3.org/2000/svg">
<g clip-path="url(#clip0_1_88)">
<path d="M126.821 371.478L131.521 374.024L134.458 368.54L129.693 365.995L126.821 371.478ZM138.179 361.687L141.116 356.204L136.351 353.658L133.414 359.141L138.179 361.687ZM527.934 513.124C526.563 503.528 521.471 494.782 513.9 488.711C499.474 477.092 484.918 476.374 468.077 485.317C461.81 488.646 454.369 492.497 447.776 492.04C424.212 490.278 403.651 478.855 382.11 468.737C381.718 468.541 381.718 467.954 382.11 467.758C398.886 460.055 415.727 453.659 432.633 447.327C443.86 443.149 454.826 445.63 465.727 448.894C469.186 449.938 472.711 451.048 476.301 451.766C493.469 455.16 509.33 448.371 517.033 434.468C524.017 421.87 521.21 404.507 509.134 392.627C504.304 387.862 502.672 383.358 502.868 376.7C503.521 356.269 488.769 339.428 468.795 336.948C447.45 334.271 428.912 346.739 424.669 367.561C422.319 379.246 416.64 388.449 406.196 393.214C381.327 404.507 356 414.951 330.804 425.525C324.342 428.201 316.836 427.483 313.702 421.348C311.548 417.105 309.264 409.99 312.201 405.747C313.441 403.919 315.204 402.483 316.509 400.721C319.251 397 319.12 374.089 320.687 367.496C321.209 365.146 320.491 361.295 317.749 360.969C314.42 360.577 311.026 360.381 307.697 360.381C305.608 360.381 300.452 359.663 298.624 360.838C295.882 362.535 296.013 369.259 296.209 372.131C297.057 385.969 298.689 399.807 299.668 413.645C300.713 428.006 311.352 437.993 325.778 436.883C331.457 436.491 337.201 434.925 342.488 432.771C359.721 425.852 376.562 418.084 393.794 411.165C415.204 402.549 431.719 390.277 436.549 365.603C439.291 351.634 456.523 344.193 471.993 348.175C484.722 351.439 494.97 366.125 492.033 378.919C490.074 387.47 491.315 392.627 499.017 397.718C509.33 404.572 512.398 417.953 508.025 428.593C504.174 437.927 492.881 443.41 480.414 441.713C476.497 441.191 472.515 440.538 468.86 439.168C450.322 431.987 432.372 434.794 414.682 442.17C400.648 447.98 386.679 454.181 372.449 459.468C367.946 461.1 361.875 462.079 357.697 460.447C331 449.873 304.368 439.102 277.801 428.201C267.423 423.959 222.579 406.334 219.119 403.528C218.206 402.81 212.2 397.588 212.331 396.674L213.31 391.844L204.367 387.078C207.305 379.507 204.172 370.695 196.796 366.778L156.848 345.433C156.391 345.172 155.803 345.368 155.542 345.825L153.649 349.415L128.845 336.164C128.388 335.903 127.8 336.099 127.539 336.556L107.565 374.024C107.304 374.48 107.5 375.068 107.957 375.329L132.761 388.58L130.868 392.105C130.607 392.562 130.803 393.149 131.26 393.41L171.208 414.755C178.519 418.671 187.527 416.452 192.292 409.794L201.234 414.559L203.78 409.859C203.78 409.859 212.331 412.209 216.639 413.972C252.671 428.789 288.767 443.345 324.799 458.032C333.35 461.557 341.77 465.343 350.321 468.998C335.961 474.808 321.862 481.139 307.305 486.296C304.107 487.471 299.538 486.035 295.948 484.729C283.676 480.225 271.339 475.721 259.459 470.304C248.297 465.212 237.788 465.734 226.822 470.369C211.743 476.831 196.534 483.097 181.326 489.298C166.051 495.565 150.777 496.674 135.307 489.494C130.085 487.079 124.471 485.447 118.858 484.207C102.931 480.813 82.9567 489.821 75.646 503.332C68.5963 516.257 71.86 533.163 84.6538 545.761C90.2022 551.179 92.9437 556.662 93.4006 564.691C94.902 593.085 124.145 609.143 148.427 594.456C156.26 589.756 163.244 581.401 167.226 573.111C174.08 558.816 184.981 550.069 198.623 544.194C231.326 530.095 264.094 516.257 296.992 502.68C300.843 501.113 306.326 500.46 310.047 501.896C343.076 515.212 375.909 528.92 408.677 542.824C422.646 548.764 433.024 558.685 439.487 572.589C441.118 576.179 443.468 579.443 445.622 582.706C454.173 595.827 466.706 601.049 481.784 598.829C490.727 597.524 499.67 593.085 504.631 585.317C510.636 575.853 507.111 564.495 510.766 554.247C513.9 545.565 521.798 543.672 526.041 536.623C529.957 529.834 529.043 520.63 527.934 513.124ZM136.939 382.64L116.834 371.87L131.129 345.172L151.234 355.943L136.939 382.64ZM182.631 389.951C181.782 391.582 179.694 392.17 178.062 391.321C176.691 390.603 176.038 389.102 176.365 387.666L175.19 387.013L169.902 390.473L166.639 388.71C166.117 388.971 165.464 388.971 164.876 388.71C163.962 388.253 163.571 387.078 164.093 386.099C164.615 385.186 165.79 384.859 166.704 385.316C167.03 385.512 167.291 385.773 167.487 386.034V386.099C167.618 386.426 167.748 386.752 167.748 387.078L170.098 388.319L172.383 386.817L173.493 386.099L170.229 384.337L163.44 380.682L162.788 381.857L162.461 382.379L161.417 380.682L159.981 378.397L159.328 377.287L161.286 377.222L164.028 377.157H165.333L164.419 378.919L169.707 381.791L172.122 383.097V381.791V379.05L170.229 378.071L169.968 378.593L167.226 377.157L168.728 374.415L171.469 375.851L171.143 376.439L173.819 377.875L173.884 384.141L177.474 386.034C178.519 385.12 180.02 384.859 181.26 385.577C182.892 386.23 183.545 388.319 182.631 389.951ZM198.232 404.833L194.446 402.81L199.929 392.562L203.715 394.585L198.232 404.833ZM255.608 508.881C235.242 517.628 214.811 526.309 194.38 534.991C177.54 542.171 164.55 552.811 156.978 570.304C154.302 576.505 148.623 582.772 142.683 585.97C122.383 596.936 101.234 581.727 103.453 557.967C104.106 550.591 102.67 546.414 96.2727 542.367C84.5886 534.925 79.8888 520.63 84.2622 509.925C88.4398 499.742 102.8 492.693 115.725 494.782C120.49 495.565 125.32 496.74 129.628 498.829C149.537 508.424 169.184 506.009 188.767 497.915C202.801 492.105 216.9 486.492 230.804 480.421C239.159 476.766 246.926 476.505 255.412 480.291C266.509 485.186 277.997 489.168 289.29 493.672C289.29 494.064 289.29 494.064 289.29 494.455C278.128 499.155 266.9 504.051 255.608 508.881ZM504.043 543.542C498.299 546.61 497.32 550.004 498.299 556.009C499.147 560.97 498.821 566.388 497.711 571.283C495.688 580.161 490.401 586.623 480.805 588.385C471.079 590.213 462.724 587.276 456.066 580.03C453.651 577.354 451.562 574.155 450.192 570.892C441.379 549.677 424.343 537.732 404.042 529.312C378.194 518.607 352.345 507.967 326.496 497.262C325.06 496.674 323.689 495.826 321.405 494.455C320.556 493.998 320.687 492.758 321.535 492.432C335.961 486.361 348.885 480.617 362.071 475.852C365.139 474.742 369.773 476.7 373.298 478.071C389.486 484.338 405.413 491.126 421.601 497.262C439.682 504.116 457.176 505.03 474.865 494.129C493.469 482.575 516.511 495.826 517.751 517.758C518.404 528.92 514.095 538.189 504.043 543.542Z" fill="#333333"/>
<mask id="mask0_1_88" style="mask-type:luminance" maskUnits="userSpaceOnUse" x="186" y="2" width="243" height="352">
<path d="M293.73 316.451C290.401 309.14 289.813 300.785 290.205 292.887C290.401 288.056 290.988 283.095 292.816 278.657C295.427 272.39 312.594 259.466 301.498 252.547C295.753 248.957 288.182 250.197 281.785 250.197C273.952 250.197 266.053 250.262 258.22 250.262C256.784 250.262 255.348 250.262 253.912 250.262C239.617 250.327 225.322 250.327 211.092 250.327C205.283 250.327 201.758 252.025 202.672 258.878C204.891 275.132 206.523 291.45 208.938 307.639C213.181 335.38 232.894 352.547 260.766 353.135C270.166 353.331 279.631 353.135 289.03 353.135C305.479 353.135 306.785 351.96 304.761 335.576C303.978 328.853 296.471 322.521 293.73 316.451ZM320.101 310.968C320.884 302.547 320.754 293.931 320.101 285.51C319.579 278.657 315.205 274.022 308.156 274.153C300.714 274.283 296.602 279.114 295.884 286.359C295.492 290.276 295.819 294.257 295.819 298.239C295.819 302.221 295.492 306.203 295.884 310.119C296.537 316.842 299.539 321.673 307.111 322.064C314.814 322.325 319.448 318.148 320.101 310.968ZM274.604 6.39637C217.424 21.2137 179.304 80.2219 187.267 138.447C191.575 170.04 195.622 201.698 199.473 233.421C200.322 240.471 203.063 243.408 210.439 243.343C243.012 243.082 275.518 243.213 308.09 243.213C339.748 243.213 371.341 242.886 402.999 243.408C412.464 243.539 415.793 240.145 416.707 231.137C419.84 200.262 422.974 169.452 427.151 138.708C438.248 56.3314 363.378 -16.5803 274.604 6.39637ZM402.999 250.262C389.618 250.393 376.237 250.327 362.856 250.327V250.262C349.735 250.262 336.681 249.871 323.626 250.523C317.033 250.85 309.853 254.375 311.289 262.077C312.398 268.082 318.273 271.999 321.145 277.09C325.323 284.597 326.237 293.735 326.041 302.155C325.91 307.247 325.388 312.338 323.495 317.038C318.599 329.44 306.328 330.093 311.811 346.607C312.268 347.913 312.79 349.218 313.834 350.132C315.14 351.307 316.902 351.634 318.599 351.96C331.263 354.049 344.122 353.265 356.916 353.07C383.548 352.678 405.023 332.965 407.83 306.398C409.462 291.255 410.506 276.046 412.791 261.033C414.031 252.416 410.506 250.197 402.999 250.262Z" fill="white"/>
</mask>
<g mask="url(#mask0_1_88)">
<path d="M181.979 64.165C181.979 182.638 181.979 301.046 181.979 419.52C195.165 419.52 208.35 419.52 221.471 419.52C221.471 315.146 221.471 210.837 221.471 106.463C221.471 105.549 221.471 104.635 221.536 103.656C221.275 103.395 221.079 103.069 220.818 102.808C208.22 90.1443 195.557 77.5463 182.893 64.8831C182.632 64.6872 182.306 64.4261 181.979 64.165Z" stroke="#333333" stroke-width="9.13844"/>
<path d="M393.209 419.519C406.263 419.519 419.384 419.519 432.439 419.519C432.439 301.242 432.439 182.964 432.439 64.6865C431.982 64.8823 431.655 65.3393 431.329 65.6656C418.861 78.1331 406.459 90.5353 393.992 103.003C393.665 103.329 393.209 103.655 393.013 104.112C393.339 104.765 393.209 105.483 393.209 106.136C393.209 209.922 393.209 313.709 393.209 417.496C393.143 418.279 393.209 418.932 393.209 419.519Z" stroke="#333333" stroke-width="9.13844"/>
<path d="M221.536 103.721C221.536 104.635 221.471 105.549 221.471 106.528C221.471 210.902 221.471 315.211 221.471 419.585C235.831 419.585 250.257 419.585 264.617 419.585C264.617 418.997 264.552 418.475 264.552 417.888C264.552 328.2 264.552 238.578 264.552 148.891C264.552 148.304 264.552 147.716 264.617 147.064C264.617 146.933 264.617 146.868 264.617 146.737C264.421 146.476 264.226 146.215 263.964 146.019C250.061 132.116 236.223 118.277 222.319 104.374C222.123 104.178 221.797 103.982 221.536 103.721Z" stroke="#333333" stroke-width="9.13844"/>
<path d="M393.208 419.519C393.208 418.867 393.143 418.214 393.143 417.561C393.143 313.774 393.143 209.988 393.143 106.201C393.143 105.548 393.274 104.83 392.947 104.178C392.49 104.439 392.164 104.83 391.838 105.157C378.391 118.603 364.879 132.115 351.433 145.562C351.041 145.953 350.649 146.345 350.323 146.802C350.258 146.867 350.192 146.998 350.127 147.063C350.127 147.716 350.192 148.369 350.192 149.021C350.192 238.448 350.192 327.874 350.192 417.3C350.192 417.953 350.192 418.605 350.192 419.258C350.258 419.389 350.323 419.454 350.388 419.585C364.618 419.519 378.913 419.519 393.208 419.519Z" stroke="#333333" stroke-width="9.13844"/>
<path d="M350.454 419.258C350.454 418.606 350.454 417.953 350.454 417.3C350.454 327.874 350.454 238.448 350.454 149.022C350.454 148.369 350.391 147.716 350.391 147.063C349.83 147.39 349.518 147.847 349.081 148.304C335.921 161.685 322.76 175.066 309.661 188.448C309.287 188.839 308.975 189.296 308.414 189.492C308.414 190.21 308.352 190.993 308.352 191.711C308.352 267.103 308.352 342.496 308.352 417.888C308.352 418.475 308.352 418.997 308.352 419.585C322.386 419.585 336.42 419.585 350.454 419.585C350.391 419.454 350.454 419.324 350.454 419.258Z" stroke="#333333" stroke-width="9.13844"/>
<path d="M264.619 147.129C264.619 147.717 264.552 148.304 264.552 148.957C264.552 238.644 264.552 328.266 264.552 417.953C264.552 418.541 264.552 419.063 264.619 419.65C279.153 419.65 293.687 419.65 308.22 419.65C308.22 374.676 308.22 329.702 308.22 284.728C308.22 252.874 308.22 221.02 308.22 189.166C308.019 188.905 307.817 188.644 307.548 188.448C293.552 174.871 279.624 161.359 265.628 147.782C265.426 147.586 265.157 147.325 264.888 147.129C264.821 147.064 264.754 147.064 264.619 147.129Z" stroke="#333333" stroke-width="9.13844"/>
<path d="M264.943 147.063C265.204 147.259 265.466 147.455 265.661 147.716C279.238 161.293 292.75 174.805 306.327 188.382C306.523 188.578 306.719 188.839 306.98 189.1C307.176 189.166 307.241 189.296 307.372 189.427C307.959 189.296 308.286 188.774 308.677 188.382C322.059 175.001 335.44 161.62 348.821 148.238C349.213 147.847 349.604 147.325 350.127 146.998C350.192 146.933 350.257 146.802 350.323 146.737C350.714 146.345 351.04 145.888 351.432 145.497C364.879 132.05 378.391 118.538 391.837 105.092C392.164 104.765 392.49 104.309 392.947 104.113C393.208 103.656 393.6 103.329 393.926 103.003C406.393 90.5356 418.796 78.1335 431.263 65.666C431.589 65.3396 431.916 64.8827 432.373 64.6869C432.373 54.1124 432.373 43.5379 432.373 32.9634C431.589 33.0287 431.198 33.6815 430.741 34.1384C390.14 74.6739 349.604 115.275 309.004 155.81C307.372 157.442 307.372 157.442 305.805 155.875C277.672 127.742 249.539 99.6088 221.405 71.4754C208.742 58.8122 196.013 46.0836 183.35 33.4204C182.958 33.0287 182.632 32.4413 181.914 32.376C181.914 42.9505 181.914 53.5249 181.914 64.0994C182.24 64.3605 182.567 64.6216 182.828 64.8827C195.491 77.4807 208.089 90.144 220.752 102.807C221.014 103.068 221.209 103.329 221.47 103.656C221.732 103.917 222.058 104.113 222.319 104.374C236.223 118.277 250.061 132.116 263.964 146.019C264.16 146.215 264.356 146.476 264.617 146.737C264.813 146.802 264.878 146.933 264.943 147.063Z" stroke="#333333" stroke-width="9.13844"/>
<path d="M181.979 32.4417C182.698 32.4417 182.959 33.0292 183.416 33.4861C196.144 46.1494 208.807 58.8779 221.471 71.5412C249.604 99.6745 277.737 127.808 305.871 155.941C307.437 157.508 307.437 157.508 309.069 155.876C349.605 115.34 390.205 74.7396 430.806 34.2041C431.263 33.7472 431.589 33.0292 432.438 33.0292C432.438 22.7158 432.438 12.4677 432.438 2.1543C431.785 2.1543 431.133 2.1543 430.48 2.1543C430.545 2.93759 429.892 3.26397 429.435 3.72089C404.109 29.1127 378.717 54.4392 353.391 79.7658C338.443 94.7136 323.56 109.596 308.612 124.544C307.437 125.719 307.437 125.719 306.262 124.544C303.651 121.933 301.04 119.322 298.429 116.711C296.079 114.361 293.795 112.077 291.445 109.727C289.291 107.573 287.202 105.484 285.048 103.33C282.698 100.98 280.348 98.6301 277.998 96.2802C275.779 94.0609 273.625 91.9068 271.406 89.6875C264.356 82.6379 257.372 75.6535 250.387 68.6038C240.335 58.4863 230.152 48.434 220.1 38.2511C217.228 35.3791 214.356 32.507 211.418 29.6349C207.632 25.9142 203.912 22.063 200.126 18.3424C195.1 13.3815 190.139 8.29011 185.047 3.32924C184.721 3.00287 184.329 2.67649 184.46 2.1543C183.611 2.1543 182.763 2.1543 181.979 2.1543C181.979 12.2066 181.979 22.3241 181.979 32.4417Z" stroke="#333333" stroke-width="9.13844"/>
<path d="M184.46 2.15365C184.394 2.67585 184.721 3.00222 185.047 3.32859C190.138 8.28946 195.099 13.3156 200.125 18.3417C203.911 22.0624 207.632 25.9136 211.418 29.6342C214.29 32.5063 217.227 35.3784 220.099 38.2505C230.087 48.4333 240.269 58.4856 250.387 68.6032C257.371 75.6528 264.421 82.6372 271.405 89.6869C273.625 91.9062 275.779 94.0603 277.998 96.2796C280.348 98.6295 282.698 100.979 285.048 103.329C287.202 105.483 289.291 107.572 291.445 109.726C293.794 112.076 296.079 114.361 298.429 116.711C301.04 119.322 303.651 121.933 306.262 124.543C307.437 125.718 307.437 125.718 308.612 124.543C323.56 109.596 338.442 94.713 353.39 79.7651C378.717 54.4386 404.109 29.0468 429.435 3.72024C429.892 3.26332 430.545 2.93695 430.479 2.15365C420.362 2.15365 410.244 2.15365 400.127 2.15365C400.062 2.93695 399.474 3.26332 399.017 3.65497C368.926 33.7465 338.899 63.7729 308.808 93.8644C307.241 95.431 307.633 95.431 306.066 93.8644C285.439 73.2377 264.813 52.6109 244.186 31.9841C234.721 22.5193 225.256 13.0545 215.791 3.52442C215.4 3.13277 214.747 2.8064 214.812 2.08838C204.695 2.15365 194.577 2.15365 184.46 2.15365Z" stroke="#333333" stroke-width="9.13844"/>
<path d="M214.812 2.1543C214.812 2.87232 215.4 3.19869 215.792 3.59034C225.256 13.0552 234.721 22.52 244.186 32.0501C264.813 52.6768 285.44 73.3036 306.066 93.9304C307.568 95.4317 307.241 95.4317 308.808 93.9304C338.899 63.8388 368.926 33.8125 399.017 3.72089C399.474 3.26397 400.127 2.93759 400.127 2.21957C390.14 2.21957 380.088 2.21957 370.101 2.21957C370.101 2.93759 369.513 3.26396 369.122 3.65561C349.017 23.8255 328.847 43.93 308.743 64.0346C307.437 65.3401 307.633 65.3401 306.262 64.0346C295.492 53.2643 284.656 42.4287 273.886 31.6584C264.552 22.3241 255.217 12.9899 245.883 3.59034C245.492 3.19869 244.839 2.87232 244.904 2.1543C234.852 2.1543 224.8 2.1543 214.812 2.1543Z" stroke="#333333" stroke-width="9.13844"/>
<path d="M244.839 2.1543C244.839 2.87232 245.426 3.19869 245.818 3.59034C255.152 12.9246 264.487 22.2589 273.821 31.6584C284.591 42.4287 295.427 53.2643 306.197 64.0346C307.502 65.3401 307.372 65.3401 308.677 64.0346C328.782 43.93 348.952 23.7602 369.056 3.65561C369.448 3.26396 370.036 2.93759 370.036 2.21957C328.325 2.1543 286.615 2.1543 244.839 2.1543Z" stroke="#333333" stroke-width="9.13844"/>
</g>
<path d="M304.956 329.637C303.52 326.96 301.692 324.48 299.93 322.13C299.081 320.955 298.232 319.78 297.449 318.736C296.731 317.626 296.078 316.582 295.621 315.603C294.316 312.731 293.467 309.663 292.945 306.464C292.423 303.266 292.227 299.937 292.227 296.673C292.227 295.433 292.227 294.258 292.292 293.018C292.423 290.668 292.554 288.318 292.945 286.033C293.337 283.749 293.859 281.595 294.773 279.506C294.969 279.114 295.23 278.527 295.687 277.939C296.405 276.829 297.514 275.459 298.755 274.023C300.582 271.803 302.671 269.323 304.303 266.777C305.152 265.472 305.87 264.166 306.457 262.795C306.979 261.425 307.371 259.989 307.371 258.487C307.371 257.769 307.306 257.051 307.11 256.333C306.849 255.289 306.327 254.244 305.543 253.331C304.825 252.417 303.846 251.568 302.671 250.85C300.713 249.61 298.559 248.892 296.47 248.5C294.316 248.109 292.162 247.978 290.073 247.978C287.201 247.978 284.329 248.174 281.849 248.174C274.016 248.174 266.117 248.239 258.284 248.239C256.848 248.239 255.412 248.239 253.976 248.239C243.598 248.305 233.154 248.305 222.775 248.305C218.924 248.305 215.007 248.305 211.156 248.305H211.091C209.72 248.305 208.415 248.37 207.174 248.631C206.261 248.827 205.347 249.088 204.563 249.545C203.911 249.871 203.389 250.263 202.866 250.72C202.083 251.438 201.496 252.417 201.104 253.461C200.712 254.506 200.516 255.681 200.516 256.986C200.516 257.704 200.582 258.487 200.712 259.336C202.932 275.524 204.563 291.843 206.979 308.161C208.088 315.341 210.177 321.804 213.18 327.548C217.684 336.164 224.211 343.083 232.305 347.848C240.399 352.613 250.125 355.224 260.895 355.485C264.224 355.551 267.553 355.551 270.882 355.551C276.953 355.551 283.023 355.485 289.094 355.485H289.225C292.423 355.485 295.165 355.42 297.384 355.224C299.081 355.094 300.582 354.833 301.888 354.376C302.867 354.049 303.781 353.592 304.564 353.005C305.152 352.548 305.674 352.026 306.131 351.373C306.783 350.459 307.175 349.35 307.436 348.24C307.697 347.065 307.763 345.825 307.763 344.454C307.763 342.039 307.501 339.101 307.045 335.577C306.653 333.292 305.87 331.399 304.956 329.637ZM297.253 344.585C297.058 344.585 296.862 344.65 296.601 344.65C295.621 344.78 294.447 344.846 293.141 344.846C291.836 344.911 290.4 344.911 289.029 344.911H288.898C285.83 344.911 282.762 344.911 279.76 344.976C276.757 344.976 273.689 345.041 270.687 345.041C266.966 345.041 263.833 345.041 260.895 344.976C254.825 344.846 249.342 343.867 244.381 342.039C236.94 339.363 230.869 334.924 226.169 328.919C221.535 322.913 218.336 315.407 217.031 306.399C215.595 297.13 214.485 287.6 213.376 278.396C212.592 271.869 211.809 265.145 210.895 258.487C210.96 258.487 210.96 258.487 211.026 258.487H211.091C214.812 258.487 267.358 258.422 271.927 258.357C275.256 258.357 278.52 258.357 281.849 258.292C283.285 258.292 284.655 258.226 286.026 258.161C287.397 258.096 288.768 258.03 290.073 258.03C291.901 258.03 293.402 258.161 294.577 258.357C295.426 258.553 296.144 258.748 296.731 259.01C296.601 259.336 296.34 259.793 296.013 260.315C295.426 261.294 294.708 262.339 293.859 263.383C293.01 264.427 292.097 265.537 291.248 266.647C290.008 268.148 288.898 269.519 287.854 270.955C286.809 272.391 285.961 273.762 285.308 275.328C284.068 278.331 283.285 281.464 282.828 284.336C282.371 287.273 282.175 290.015 282.044 292.365C281.979 293.736 281.979 295.041 281.979 296.347C281.979 300.916 282.305 305.093 283.023 308.945C283.742 312.796 284.851 316.386 286.287 319.65C287.005 321.282 287.984 322.848 288.898 324.284C289.877 325.785 290.922 327.156 291.901 328.527C293.01 330.028 294.185 331.595 295.099 333.031C295.556 333.749 295.883 334.402 296.144 334.989C296.405 335.577 296.535 336.099 296.601 336.36C296.731 337.665 296.927 339.036 297.058 340.342C297.188 341.647 297.253 342.887 297.253 343.867C297.253 343.932 297.253 343.997 297.253 344.062C297.253 344.389 297.253 344.519 297.253 344.585ZM320.099 310.968C320.883 302.548 320.752 293.931 320.099 285.511C319.577 278.788 315.334 274.153 308.415 274.153C308.35 274.153 308.219 274.153 308.154 274.153C300.713 274.284 296.601 279.114 295.883 286.36C295.491 290.276 295.817 294.258 295.817 298.24C295.817 302.221 295.491 306.203 295.883 310.12C296.535 316.843 299.538 321.673 307.11 322.065C307.436 322.065 307.763 322.065 308.024 322.065C315.204 322 319.447 317.822 320.099 310.968ZM314.094 310.381C313.703 314.232 311.875 315.929 308.024 315.929C307.828 315.929 307.567 315.929 307.371 315.929C304.629 315.798 303.846 314.819 303.52 314.493C302.671 313.514 302.149 311.817 301.953 309.532C301.757 307.182 301.823 304.637 301.888 302.026C301.888 300.785 301.953 299.545 301.953 298.305C301.953 296.999 301.953 295.629 301.888 294.388C301.823 291.777 301.757 289.362 302.018 287.078C302.279 284.793 302.932 282.965 303.977 281.856C304.956 280.811 306.392 280.354 308.35 280.289C308.415 280.289 308.481 280.289 308.546 280.289C310.243 280.289 311.614 280.746 312.528 281.66C313.507 282.639 314.029 284.14 314.225 286.033C314.747 295.106 314.747 303.07 314.094 310.381ZM394.839 36.3579C383.807 25.196 370.622 16.1228 355.87 9.79119C341.118 3.45955 324.865 0 307.632 0C296.731 0 285.504 1.37077 274.016 4.3734C260.765 7.83295 248.493 13.5771 237.527 21.149C221.143 32.5067 207.762 47.9115 198.493 65.4704C189.224 83.0293 184.002 102.873 184.002 123.043C184.002 128.265 184.328 133.552 185.046 138.774C189.354 170.367 193.401 202.025 197.253 233.683C197.449 235.576 197.84 237.208 198.428 238.709C198.885 239.819 199.407 240.863 200.125 241.712C200.647 242.365 201.3 242.952 202.018 243.474C203.062 244.192 204.302 244.714 205.673 245.041C207.044 245.367 208.48 245.498 210.177 245.498C210.242 245.498 210.373 245.498 210.438 245.498C225.517 245.367 240.595 245.367 255.608 245.367C273.102 245.367 290.53 245.432 308.024 245.432C308.35 245.432 308.742 245.432 309.068 245.432C326.17 245.432 343.272 245.367 360.374 245.367C374.538 245.367 388.703 245.432 402.868 245.694C403.063 245.694 403.325 245.694 403.52 245.694C405.87 245.694 407.959 245.498 409.852 244.91C411.223 244.519 412.463 243.931 413.573 243.083C414.356 242.495 415.074 241.777 415.727 240.928C416.641 239.688 417.293 238.317 417.75 236.686C418.207 235.119 418.534 233.357 418.729 231.398C421.863 200.524 424.996 169.714 429.173 139.035C429.957 133.421 430.283 127.873 430.283 122.39C430.348 89.2956 416.902 58.6819 394.839 36.3579ZM418.925 137.664C414.617 169.257 411.353 201.764 408.416 230.354C408.22 232.116 407.959 233.226 407.763 233.879C407.633 234.205 407.567 234.466 407.437 234.532C407.372 234.597 407.372 234.662 407.372 234.662C407.306 234.662 407.176 234.727 406.98 234.858C406.588 234.988 406.066 235.119 405.413 235.119C404.761 235.184 404.108 235.184 403.52 235.184C403.39 235.184 403.194 235.184 403.063 235.184C390.661 234.988 377.149 234.858 360.374 234.858C351.823 234.858 343.141 234.858 334.721 234.923C326.301 234.923 317.619 234.989 309.133 234.989H308.089C299.734 234.989 291.248 234.989 283.023 234.989C274.081 234.989 264.812 234.989 255.673 234.989C237.919 234.989 223.493 235.054 210.373 235.119C210.308 235.119 210.242 235.119 210.242 235.119C209.328 235.119 208.61 235.054 208.219 234.989H208.154C208.088 234.923 208.088 234.793 208.023 234.662C207.892 234.205 207.762 233.487 207.631 232.443C203.715 199.805 199.603 167.821 195.425 137.338C194.772 132.573 194.446 127.742 194.446 122.977C194.446 114.426 195.49 105.81 197.514 97.2591C200.647 84.2695 205.999 71.9326 213.376 60.6401C228.65 37.4023 251.104 20.9531 276.627 14.2951C287.005 11.6189 297.384 10.2481 307.632 10.2481C324.277 10.2481 340.204 13.7729 355.021 20.692C362.136 24.0863 368.925 28.1333 375.191 32.8331C381.392 37.5329 387.136 42.8201 392.228 48.6948C397.385 54.5696 401.889 60.9665 405.674 67.755C409.526 74.6088 412.659 81.8543 414.943 89.3609C418.272 100.131 419.97 111.163 419.97 122.325C419.97 127.481 419.643 132.573 418.925 137.664ZM412.528 250.785C411.941 250.263 411.288 249.806 410.635 249.479C409.591 248.957 408.481 248.631 407.241 248.435C406.001 248.239 404.695 248.174 403.325 248.174C403.194 248.174 403.063 248.174 402.933 248.174C397.45 248.239 391.967 248.239 386.484 248.239C379.303 248.239 372.123 248.239 364.943 248.239V248.174H362.789C355.544 248.174 348.233 248.043 340.922 248.043C335.113 248.043 329.303 248.109 323.428 248.435C321.731 248.5 320.099 248.761 318.468 249.284C317.227 249.61 316.052 250.132 314.943 250.72C313.246 251.633 311.744 252.874 310.635 254.44C310.112 255.224 309.656 256.137 309.329 257.117C309.003 258.096 308.872 259.14 308.872 260.25C308.872 260.968 308.938 261.751 309.068 262.534C309.394 264.297 310.112 265.929 310.961 267.365C312.266 269.519 313.833 271.346 315.334 273.109C316.836 274.871 318.272 276.503 319.186 278.2C320.948 281.333 322.123 284.858 322.841 288.514C323.559 292.169 323.82 296.02 323.82 299.806C323.82 300.589 323.82 301.373 323.755 302.156C323.69 304.636 323.494 307.117 323.167 309.467C322.776 311.817 322.254 314.167 321.405 316.321C320.491 318.671 319.316 320.498 317.945 322.195C316.966 323.436 315.857 324.611 314.812 325.785C314.029 326.634 313.18 327.548 312.462 328.462C311.287 329.832 310.243 331.334 309.46 333.096C308.676 334.859 308.219 336.882 308.219 339.232C308.219 341.582 308.676 344.258 309.721 347.326C309.982 348.044 310.243 348.827 310.635 349.545C311.026 350.329 311.548 351.112 312.332 351.765C312.789 352.156 313.311 352.548 313.768 352.809C314.551 353.201 315.334 353.462 316.052 353.658C316.77 353.854 317.488 353.984 318.206 354.115C325.256 355.29 332.371 355.551 339.355 355.551C345.23 355.551 351.105 355.355 356.849 355.29C370.687 355.094 383.22 349.872 392.62 341.19C402.019 332.574 408.351 320.498 409.852 306.725C411.484 291.582 412.528 276.373 414.748 261.49C414.943 260.184 415.074 259.01 415.074 257.965C415.074 256.268 414.813 254.767 414.291 253.461C413.899 252.352 413.312 251.503 412.528 250.785ZM404.63 259.858C403.063 270.302 402.019 280.877 401.105 291.059C400.648 295.824 400.191 300.72 399.669 305.55C398.429 316.843 393.338 326.569 385.766 333.488C378.129 340.472 368.076 344.65 356.784 344.846C354.564 344.846 352.345 344.911 350.256 344.976C346.666 345.041 343.011 345.107 339.421 345.107C331.457 345.107 325.452 344.715 319.969 343.801C319.838 343.801 319.708 343.736 319.577 343.736C318.859 341.517 318.663 340.015 318.663 339.101C318.663 338.579 318.729 338.253 318.794 337.992C318.794 337.861 318.859 337.796 318.859 337.665C318.859 337.6 318.924 337.535 318.924 337.404C319.055 337.143 319.186 336.817 319.381 336.49C319.708 335.968 320.099 335.446 320.622 334.793C321.144 334.141 321.797 333.488 322.515 332.705C325.191 329.832 328.781 325.981 331.131 320.041C332.371 316.843 333.154 313.644 333.546 310.642C334.003 307.639 334.133 304.767 334.199 302.352C334.199 301.438 334.264 300.589 334.264 299.741C334.264 294.388 333.807 289.493 332.828 285.054C331.849 280.615 330.348 276.634 328.324 272.978C326.823 270.237 324.93 268.083 323.167 266.124C322.123 264.884 321.144 263.84 320.491 262.861C320.165 262.404 319.904 261.947 319.708 261.555C319.512 261.164 319.381 260.837 319.316 260.511C319.251 260.315 319.251 260.184 319.251 260.119C319.316 260.054 319.447 259.923 319.643 259.793C320.034 259.532 320.687 259.271 321.47 259.075C322.254 258.879 323.102 258.748 324.016 258.683C328.912 258.422 334.264 258.292 340.922 258.292C344.512 258.292 348.233 258.357 351.823 258.357C355.087 258.357 358.416 258.422 361.745 258.422C362.071 258.487 362.463 258.487 362.854 258.487C366.771 258.487 370.818 258.487 374.669 258.487C378.585 258.487 382.567 258.487 386.549 258.487C392.946 258.487 398.233 258.487 403.129 258.422C403.194 258.422 403.325 258.422 403.39 258.422C403.977 258.422 404.434 258.422 404.761 258.487C404.695 258.879 404.695 259.336 404.63 259.858Z" fill="#333333"/>
</g>
<defs>
<clipPath id="clip0_1_88">
<rect width="600" height="600" fill="white"/>
</clipPath>
</defs>
</svg>
