<svg width="367" height="482" viewBox="0 0 367 482" fill="none" xmlns="http://www.w3.org/2000/svg">
<path d="M44.0355 298.392L47.8106 300.437L50.1701 296.032L46.3425 293.988L44.0355 298.392ZM53.1587 290.527L55.5182 286.123L51.6906 284.078L49.3312 288.482L53.1587 290.527ZM366.232 412.17C365.13 404.462 361.041 397.436 354.959 392.56C343.371 383.227 331.679 382.65 318.151 389.834C313.118 392.508 307.14 395.601 301.845 395.234C282.917 393.819 266.401 384.643 249.098 376.516C248.783 376.359 248.783 375.887 249.098 375.729C262.573 369.542 276.101 364.404 289.68 359.318C298.699 355.962 307.507 357.955 316.264 360.577C319.043 361.415 321.874 362.307 324.758 362.884C338.547 365.61 351.288 360.157 357.475 348.989C363.086 338.87 360.831 324.923 351.131 315.38C347.251 311.552 345.94 307.935 346.098 302.586C346.622 286.175 334.772 272.648 318.728 270.655C301.583 268.506 286.692 278.52 283.284 295.246C281.396 304.631 276.835 312.024 268.445 315.852C248.469 324.923 228.125 333.312 207.886 341.806C202.695 343.955 196.666 343.379 194.149 338.45C192.419 335.042 190.584 329.327 192.943 325.919C193.939 324.451 195.355 323.297 196.404 321.882C198.606 318.893 198.501 300.489 199.759 295.194C200.179 293.306 199.602 290.212 197.4 289.95C194.726 289.636 191.999 289.478 189.325 289.478C187.647 289.478 183.505 288.902 182.037 289.845C179.835 291.209 179.94 296.609 180.097 298.916C180.779 310.032 182.09 321.147 182.876 332.263C183.715 343.798 192.261 351.82 203.849 350.929C208.411 350.614 213.025 349.356 217.272 347.626C231.114 342.068 244.641 335.828 258.483 330.271C275.681 323.35 288.946 313.492 292.826 293.673C295.029 282.452 308.871 276.475 321.297 279.674C331.521 282.295 339.753 294.092 337.394 304.369C335.821 311.238 336.817 315.38 343.004 319.47C351.288 324.975 353.753 335.724 350.24 344.27C347.146 351.768 338.075 356.172 328.061 354.809C324.915 354.39 321.717 353.865 318.78 352.764C303.89 346.997 289.471 349.251 275.262 355.176C263.989 359.842 252.768 364.824 241.338 369.071C237.72 370.381 232.844 371.168 229.488 369.857C208.043 361.363 186.651 352.712 165.311 343.956C156.975 340.547 120.954 326.391 118.175 324.136C117.441 323.559 112.617 319.365 112.722 318.631L113.508 314.751L106.325 310.923C108.684 304.841 106.168 297.763 100.243 294.617L68.1543 277.471C67.7873 277.262 67.3154 277.419 67.1057 277.786L65.5851 280.67L45.6609 270.026C45.2939 269.816 44.822 269.974 44.6123 270.341L28.568 300.437C28.3583 300.804 28.5156 301.276 28.8826 301.485L48.8068 312.129L47.2863 314.96C47.0766 315.328 47.2339 315.799 47.6009 316.009L79.6894 333.154C85.5618 336.3 92.7975 334.518 96.625 329.17L103.808 332.997L105.853 329.222C105.853 329.222 112.722 331.11 116.182 332.525C145.125 344.427 174.12 356.12 203.062 367.917C209.931 370.748 216.695 373.789 223.563 376.726C212.028 381.392 200.703 386.478 189.011 390.62C186.441 391.564 182.771 390.41 179.887 389.362C170.03 385.744 160.12 382.126 150.578 377.774C141.612 373.685 133.17 374.104 124.362 377.827C112.25 383.017 100.033 388.051 87.8164 393.032C75.5473 398.066 63.2781 398.957 50.8517 393.189C46.6571 391.249 42.1479 389.939 37.6388 388.942C24.8453 386.216 8.80105 393.452 2.92864 404.305C-2.73404 414.687 -0.112433 428.266 10.1643 438.386C14.621 442.738 16.8232 447.142 17.1902 453.591C18.3961 476.399 41.8858 489.298 61.3906 477.5C67.6824 473.725 73.2927 467.014 76.491 460.355C81.9964 448.872 90.7526 441.846 101.711 437.128C127.979 425.802 154.3 414.687 180.726 403.781C183.82 402.522 188.224 401.998 191.213 403.151C217.743 413.848 244.117 424.858 270.438 436.026C281.658 440.798 289.995 448.768 295.186 459.936C296.497 462.819 298.384 465.441 300.115 468.063C306.983 478.601 317.05 482.796 329.162 481.013C336.345 479.965 343.528 476.399 347.513 470.16C352.337 462.557 349.506 453.434 352.442 445.202C354.959 438.229 361.303 436.708 364.711 431.045C367.857 425.592 367.123 418.2 366.232 412.17ZM52.1625 307.358L36.0134 298.707L47.496 277.262L63.6451 285.913L52.1625 307.358ZM88.865 313.23C88.1834 314.541 86.5056 315.013 85.1948 314.331C84.0937 313.755 83.5694 312.549 83.8316 311.395L82.8878 310.871L78.6408 313.65L76.0191 312.234C75.5997 312.444 75.0754 312.444 74.6035 312.234C73.8694 311.867 73.5548 310.923 73.9743 310.137C74.3938 309.403 75.3375 309.141 76.0716 309.508C76.3337 309.665 76.5435 309.875 76.7008 310.084V310.137C76.8056 310.399 76.9105 310.661 76.9105 310.923L78.798 311.919L80.6332 310.713L81.5245 310.137L78.9029 308.721L73.45 305.785L72.9257 306.729L72.6635 307.148L71.8246 305.785L70.6711 303.95L70.1467 303.058L71.7197 303.006L73.9219 302.953H74.9705L74.2365 304.369L78.4835 306.676L80.4235 307.725V306.676V304.474L78.9029 303.688L78.6932 304.107L76.491 302.953L77.697 300.751L79.8991 301.905L79.637 302.377L81.7867 303.53L81.8391 308.564L84.7229 310.084C85.5618 309.35 86.7678 309.141 87.764 309.717C89.0748 310.242 89.5991 311.919 88.865 313.23ZM101.396 325.185L98.3553 323.559L102.76 315.327L105.801 316.953L101.396 325.185ZM147.484 408.762C131.125 415.788 114.714 422.761 98.3028 429.735C84.7753 435.502 74.3413 444.049 68.2592 458.1C66.1095 463.082 61.5479 468.115 56.7765 470.684C40.4701 479.493 23.4821 467.276 25.2648 448.191C25.7891 442.266 24.6356 438.91 19.4972 435.659C10.1119 429.682 6.33673 418.2 9.84969 409.601C13.2054 401.421 24.7404 395.759 35.122 397.436C38.9496 398.066 42.8296 399.009 46.2901 400.687C62.2819 408.395 78.064 406.455 93.7937 399.953C105.067 395.287 116.392 390.777 127.56 385.901C134.271 382.965 140.511 382.755 147.327 385.796C156.24 389.729 165.469 392.927 174.539 396.545C174.539 396.86 174.539 396.86 174.539 397.174C165.573 400.949 156.555 404.882 147.484 408.762ZM347.041 436.603C342.427 439.068 341.641 441.794 342.427 446.618C343.109 450.603 342.847 454.955 341.955 458.887C340.33 466.018 336.083 471.208 328.375 472.624C320.563 474.092 313.852 471.733 308.504 465.913C306.564 463.763 304.886 461.194 303.785 458.572C296.706 441.532 283.022 431.937 266.715 425.173C245.952 416.574 225.189 408.028 204.426 399.429C203.272 398.957 202.171 398.275 200.336 397.174C199.654 396.807 199.759 395.811 200.441 395.549C212.028 390.673 222.41 386.059 233.001 382.231C235.466 381.34 239.188 382.913 242.02 384.014C255.023 389.047 267.816 394.5 280.819 399.429C295.343 404.934 309.395 405.668 323.604 396.912C338.547 387.632 357.056 398.275 358.052 415.893C358.576 424.858 355.116 432.304 347.041 436.603Z" fill="white"/>
<mask id="mask0_1_155" style="mask-type:luminance" maskUnits="userSpaceOnUse" x="91" y="1" width="196" height="283">
<path d="M178.105 254.192C175.431 248.319 174.959 241.608 175.273 235.264C175.431 231.384 175.903 227.399 177.371 223.833C179.468 218.8 193.258 208.418 184.344 202.86C179.73 199.977 173.648 200.973 168.51 200.973C162.218 200.973 155.873 201.025 149.582 201.025C148.428 201.025 147.275 201.025 146.121 201.025C134.638 201.078 123.156 201.078 111.726 201.078C107.059 201.078 104.228 202.441 104.962 207.946C106.744 221.002 108.055 234.11 109.995 247.113C113.403 269.397 129.238 283.187 151.626 283.658C159.177 283.816 166.779 283.658 174.33 283.658C187.542 283.658 188.591 282.715 186.966 269.554C186.337 264.154 180.307 259.068 178.105 254.192ZM199.287 249.787C199.916 243.023 199.812 236.102 199.287 229.339C198.868 223.833 195.355 220.111 189.692 220.215C183.715 220.32 180.412 224.2 179.835 230.02C179.52 233.166 179.783 236.365 179.783 239.563C179.783 242.761 179.52 245.96 179.835 249.106C180.359 254.506 182.771 258.386 188.853 258.701C195.04 258.91 198.763 255.555 199.287 249.787ZM162.742 5.13849C116.811 17.0406 86.191 64.4393 92.5877 111.209C96.0483 136.586 99.2991 162.016 102.393 187.498C103.074 193.16 105.276 195.52 111.201 195.467C137.365 195.258 163.476 195.363 189.64 195.363C215.069 195.363 240.447 195.1 265.876 195.52C273.479 195.625 276.153 192.898 276.887 185.663C279.404 160.862 281.92 136.114 285.276 111.419C294.19 45.2491 234.05 -13.3177 162.742 5.13849ZM265.876 201.025C255.128 201.13 244.379 201.078 233.63 201.078V201.025C223.092 201.025 212.605 200.711 202.119 201.235C196.823 201.497 191.055 204.329 192.209 210.516C193.1 215.339 197.819 218.485 200.126 222.575C203.482 228.605 204.216 235.945 204.059 242.709C203.954 246.799 203.534 250.888 202.014 254.663C198.081 264.626 188.224 265.15 192.628 278.415C192.995 279.464 193.415 280.512 194.254 281.247C195.302 282.19 196.718 282.453 198.081 282.715C208.253 284.393 218.582 283.763 228.859 283.606C250.251 283.291 267.502 267.457 269.756 246.117C271.067 233.953 271.906 221.736 273.741 209.677C274.737 202.756 271.906 200.973 265.876 201.025Z" fill="white"/>
</mask>
<g mask="url(#mask0_1_155)">
<path d="M88.3408 51.5405C88.3408 146.705 88.3408 241.817 88.3408 336.982C98.9321 336.982 109.523 336.982 120.062 336.982C120.062 253.142 120.062 169.356 120.062 85.5166C120.062 84.7826 120.062 84.0485 120.115 83.262C119.905 83.0523 119.748 82.7901 119.538 82.5804C109.419 72.4086 99.2467 62.2891 89.0749 52.1173C88.8651 51.96 88.603 51.7503 88.3408 51.5405Z" fill="#E62340"/>
<path d="M258.012 336.982C268.498 336.982 279.037 336.982 289.524 336.982C289.524 241.975 289.524 146.968 289.524 51.9604C289.157 52.1177 288.894 52.4848 288.632 52.7469C278.618 62.7615 268.656 72.7236 258.641 82.7382C258.379 83.0003 258.012 83.2625 257.854 83.6295C258.117 84.1538 258.012 84.7306 258.012 85.2549C258.012 168.622 258.012 251.989 258.012 335.357C257.959 335.986 258.012 336.51 258.012 336.982Z" fill="#874A97"/>
<path d="M120.115 83.3145C120.115 84.0485 120.062 84.7825 120.062 85.569C120.062 169.408 120.062 253.195 120.062 337.034C131.598 337.034 143.185 337.034 154.72 337.034C154.72 336.562 154.668 336.143 154.668 335.671C154.668 263.629 154.668 191.639 154.668 119.598C154.668 119.126 154.668 118.654 154.72 118.129C154.72 118.025 154.72 117.972 154.72 117.867C154.563 117.658 154.406 117.448 154.196 117.291C143.028 106.122 131.912 95.0068 120.744 83.8388C120.587 83.6815 120.325 83.5242 120.115 83.3145Z" fill="#EC681D"/>
<path d="M258.012 336.982C258.012 336.457 257.959 335.933 257.959 335.409C257.959 252.042 257.959 168.674 257.959 85.307C257.959 84.7827 258.064 84.206 257.802 83.6816C257.435 83.8914 257.173 84.206 256.91 84.4681C246.109 95.2692 235.256 106.123 224.455 116.924C224.14 117.238 223.826 117.553 223.564 117.92C223.511 117.972 223.459 118.077 223.406 118.13C223.406 118.654 223.459 119.178 223.459 119.703C223.459 191.535 223.459 263.367 223.459 335.199C223.459 335.723 223.459 336.248 223.459 336.772C223.511 336.877 223.564 336.929 223.616 337.034C235.046 336.982 246.529 336.982 258.012 336.982Z" fill="#2B4798"/>
<path d="M223.669 336.772C223.669 336.248 223.669 335.724 223.669 335.199C223.669 263.367 223.669 191.535 223.669 119.703C223.669 119.179 223.616 118.654 223.616 118.13C223.144 118.392 222.882 118.759 222.515 119.126C211.452 129.875 200.389 140.623 189.378 151.372C189.063 151.687 188.801 152.054 188.329 152.211C188.329 152.788 188.277 153.417 188.277 153.994C188.277 214.553 188.277 275.112 188.277 335.671C188.277 336.143 188.277 336.563 188.277 337.034C200.074 337.034 211.871 337.034 223.669 337.034C223.616 336.93 223.669 336.825 223.669 336.772Z" fill="#44AC34"/>
<path d="M154.72 118.182C154.72 118.654 154.667 119.126 154.667 119.65C154.667 191.692 154.667 263.682 154.667 335.724C154.667 336.196 154.667 336.615 154.72 337.087C166.045 337.087 177.371 337.087 188.696 337.087C188.696 300.961 188.696 264.835 188.696 228.71C188.696 203.123 188.696 177.536 188.696 151.949C188.539 151.739 188.381 151.529 188.172 151.372C177.266 140.466 166.412 129.613 155.506 118.707C155.349 118.549 155.139 118.34 154.93 118.182C154.877 118.13 154.825 118.13 154.72 118.182Z" fill="#FDEB1A"/>
<path d="M154.982 118.13C155.192 118.287 155.402 118.444 155.559 118.654C166.465 129.56 177.318 140.413 188.224 151.319C188.382 151.477 188.539 151.686 188.749 151.896C188.906 151.949 188.958 152.053 189.063 152.158C189.535 152.053 189.797 151.634 190.112 151.319C200.861 140.571 211.609 129.822 222.358 119.074C222.672 118.759 222.987 118.339 223.406 118.077C223.459 118.025 223.511 117.92 223.564 117.868C223.878 117.553 224.14 117.186 224.455 116.871C235.256 106.07 246.11 95.2169 256.911 84.4158C257.173 84.1537 257.435 83.7867 257.802 83.6294C258.012 83.2623 258.326 83.0002 258.588 82.738C268.603 72.7235 278.565 62.7613 288.58 52.7468C288.842 52.4846 289.104 52.1176 289.471 51.9603C289.471 43.4663 289.471 34.9723 289.471 26.4782C288.842 26.5307 288.527 27.055 288.16 27.422C255.547 59.9824 222.987 92.5953 190.374 125.156C189.063 126.466 189.063 126.466 187.805 125.208C165.207 102.61 142.608 80.0115 120.01 57.4132C109.838 47.2414 99.6139 37.0171 89.4421 26.8453C89.1275 26.5307 88.8653 26.0588 88.2886 26.0063C88.2886 34.5004 88.2886 42.9944 88.2886 51.4884C88.5507 51.6981 88.8129 51.9079 89.0226 52.1176C99.1945 62.237 109.314 72.4089 119.486 82.5807C119.695 82.7904 119.853 83.0002 120.063 83.2623C120.272 83.4721 120.534 83.6294 120.744 83.8391C131.912 95.0071 143.028 106.123 154.196 117.291C154.353 117.448 154.51 117.658 154.72 117.868C154.878 117.92 154.93 118.025 154.982 118.13Z" fill="#020203"/>
<path d="M88.3408 26.0585C88.9176 26.0585 89.1273 26.5304 89.4943 26.8974C99.7186 37.0693 109.89 47.2936 120.062 57.4654C142.661 80.0637 165.259 102.662 187.857 125.26C189.116 126.519 189.116 126.519 190.426 125.208C222.987 92.6475 255.6 60.0346 288.212 27.4742C288.579 27.1072 288.842 26.5304 289.523 26.5304C289.523 18.2461 289.523 10.0143 289.523 1.72998C288.999 1.72998 288.475 1.72998 287.95 1.72998C288.003 2.35917 287.478 2.62133 287.111 2.98835C266.768 23.3845 246.372 43.7282 226.028 64.0719C214.021 76.0789 202.066 88.0334 190.059 100.04C189.116 100.984 189.116 100.984 188.172 100.04C186.074 97.9431 183.977 95.8458 181.88 93.7485C179.992 91.861 178.157 90.0258 176.27 88.1383C174.539 86.408 172.862 84.7302 171.131 82.9999C169.244 81.1124 167.356 79.2248 165.469 77.3372C163.686 75.5545 161.956 73.8243 160.173 72.0416C154.51 66.3789 148.9 60.7687 143.29 55.106C135.215 46.979 127.036 38.9044 118.961 30.725C116.654 28.418 114.347 26.111 111.988 23.8039C108.947 20.8153 105.958 17.7218 102.917 14.7332C98.8797 10.7483 94.8949 6.65861 90.8051 2.67376C90.543 2.4116 90.2284 2.14944 90.3332 1.72998C89.6516 1.72998 88.97 1.72998 88.3408 1.72998C88.3408 9.80454 88.3408 17.9315 88.3408 26.0585Z" fill="#5F3914"/>
<path d="M90.3334 1.73017C90.281 2.14962 90.5432 2.41178 90.8053 2.67395C94.895 6.65879 98.8799 10.6961 102.917 14.7334C105.958 17.722 108.947 20.8155 111.988 23.8041C114.295 26.1111 116.654 28.4182 118.961 30.7252C126.984 38.9046 135.163 46.9792 143.29 55.1062C148.9 60.7688 154.563 66.3791 160.173 72.0418C161.956 73.8245 163.686 75.5547 165.469 77.3374C167.356 79.225 169.244 81.1126 171.131 83.0001C172.862 84.7304 174.54 86.4082 176.27 88.1385C178.157 90.026 179.993 91.8612 181.88 93.7487C183.977 95.846 186.075 97.9433 188.172 100.041C189.116 100.984 189.116 100.984 190.059 100.041C202.066 88.0336 214.021 76.0791 226.028 64.0721C246.372 43.7284 266.768 23.3322 287.112 2.98854C287.479 2.62151 288.003 2.35935 287.95 1.73017C279.823 1.73017 271.696 1.73017 263.569 1.73017C263.517 2.35935 263.045 2.62151 262.678 2.93611C238.507 27.1074 214.388 51.2262 190.217 75.3974C188.958 76.6558 189.273 76.6558 188.015 75.3974C171.446 58.8289 154.877 42.2603 138.309 25.6917C130.706 18.089 123.104 10.4863 115.501 2.83124C115.186 2.51665 114.662 2.25449 114.714 1.67773C106.587 1.73017 98.4604 1.73017 90.3334 1.73017Z" fill="#75CAE5"/>
<path d="M114.714 1.72998C114.714 2.30673 115.186 2.5689 115.501 2.88349C123.104 10.4862 130.706 18.0888 138.309 25.7439C154.877 42.3125 171.446 58.8811 188.015 75.4497C189.221 76.6556 188.958 76.6556 190.217 75.4497C214.388 51.2784 238.507 27.1596 262.678 2.98835C263.045 2.62133 263.569 2.35917 263.569 1.78241C255.547 1.78241 247.473 1.78241 239.451 1.78241C239.451 2.35917 238.979 2.62133 238.664 2.93592C222.515 19.1375 206.313 35.2866 190.164 51.4357C189.116 52.4844 189.273 52.4844 188.172 51.4357C179.521 42.7844 170.817 34.0807 162.166 25.4293C154.668 17.9315 147.17 10.4337 139.672 2.88349C139.358 2.5689 138.833 2.30673 138.886 1.72998C130.811 1.72998 122.736 1.72998 114.714 1.72998Z" fill="#F4AEC5"/>
<path d="M138.833 1.72998C138.833 2.30673 139.305 2.5689 139.619 2.88349C147.117 10.3813 154.615 17.8791 162.113 25.4293C170.764 34.0807 179.468 42.7844 188.119 51.4357C189.168 52.4844 189.063 52.4844 190.112 51.4357C206.261 35.2866 222.462 19.085 238.612 2.93592C238.926 2.62133 239.398 2.35917 239.398 1.78241C205.894 1.72998 172.39 1.72998 138.833 1.72998Z" fill="white"/>
<path d="M223.511 117.973C223.459 118.025 223.406 118.13 223.354 118.182C223.406 118.078 223.459 118.025 223.511 117.973Z" fill="#0A5760"/>
</g>
<path d="M187.123 264.783C185.969 262.633 184.501 260.641 183.085 258.753C182.404 257.809 181.722 256.865 181.093 256.027C180.516 255.135 179.992 254.296 179.625 253.51C178.576 251.203 177.895 248.738 177.475 246.169C177.056 243.6 176.898 240.926 176.898 238.304C176.898 237.308 176.898 236.364 176.951 235.368C177.056 233.481 177.161 231.593 177.475 229.758C177.79 227.923 178.209 226.193 178.943 224.515C179.101 224.2 179.31 223.728 179.677 223.256C180.254 222.365 181.145 221.264 182.142 220.11C183.61 218.328 185.288 216.335 186.598 214.29C187.28 213.242 187.857 212.193 188.329 211.092C188.748 209.991 189.063 208.838 189.063 207.632C189.063 207.055 189.01 206.478 188.853 205.901C188.643 205.062 188.224 204.223 187.595 203.489C187.018 202.755 186.231 202.074 185.288 201.497C183.715 200.501 181.984 199.924 180.307 199.609C178.576 199.295 176.846 199.19 175.168 199.19C172.861 199.19 170.554 199.347 168.562 199.347C162.27 199.347 155.926 199.4 149.634 199.4C148.48 199.4 147.327 199.4 146.173 199.4C137.836 199.452 129.447 199.452 121.111 199.452C118.017 199.452 114.871 199.452 111.778 199.452H111.725C110.624 199.452 109.575 199.505 108.579 199.714C107.845 199.872 107.111 200.081 106.482 200.448C105.958 200.711 105.538 201.025 105.119 201.392C104.49 201.969 104.018 202.755 103.703 203.594C103.388 204.433 103.231 205.377 103.231 206.426C103.231 207.002 103.284 207.632 103.388 208.313C105.171 221.316 106.482 234.424 108.422 247.533C109.313 253.3 110.991 258.491 113.403 263.105C117.021 270.026 122.264 275.584 128.766 279.411C135.267 283.239 143.08 285.336 151.731 285.546C154.405 285.598 157.079 285.598 159.753 285.598C164.629 285.598 169.506 285.546 174.382 285.546H174.487C177.056 285.546 179.258 285.493 181.041 285.336C182.404 285.231 183.61 285.022 184.658 284.655C185.445 284.392 186.179 284.025 186.808 283.553C187.28 283.186 187.699 282.767 188.067 282.243C188.591 281.509 188.905 280.617 189.115 279.726C189.325 278.782 189.377 277.786 189.377 276.685C189.377 274.745 189.168 272.385 188.801 269.554C188.486 267.719 187.857 266.198 187.123 264.783ZM180.936 276.79C180.778 276.79 180.621 276.842 180.411 276.842C179.625 276.947 178.681 276.999 177.632 276.999C176.584 277.052 175.43 277.052 174.329 277.052H174.224C171.76 277.052 169.296 277.052 166.884 277.104C164.472 277.104 162.008 277.157 159.596 277.157C156.607 277.157 154.09 277.157 151.731 277.104C146.855 276.999 142.45 276.213 138.466 274.745C132.488 272.595 127.612 269.03 123.837 264.206C120.114 259.382 117.545 253.352 116.497 246.117C115.343 238.671 114.452 231.016 113.56 223.623C112.931 218.38 112.302 212.98 111.568 207.632C111.62 207.632 111.62 207.632 111.673 207.632H111.725C114.714 207.632 156.922 207.579 160.592 207.527C163.266 207.527 165.888 207.527 168.562 207.474C169.715 207.474 170.816 207.422 171.917 207.369C173.018 207.317 174.12 207.265 175.168 207.265C176.636 207.265 177.842 207.369 178.786 207.527C179.468 207.684 180.044 207.841 180.516 208.051C180.411 208.313 180.202 208.68 179.94 209.1C179.468 209.886 178.891 210.725 178.209 211.564C177.528 212.403 176.794 213.294 176.112 214.186C175.116 215.392 174.224 216.493 173.385 217.646C172.547 218.8 171.865 219.901 171.341 221.159C170.344 223.571 169.715 226.088 169.348 228.395C168.981 230.754 168.824 232.956 168.719 234.844C168.667 235.945 168.667 236.994 168.667 238.042C168.667 241.713 168.929 245.068 169.505 248.162C170.082 251.255 170.974 254.139 172.127 256.761C172.704 258.071 173.49 259.33 174.224 260.483C175.011 261.689 175.85 262.79 176.636 263.891C177.528 265.097 178.471 266.356 179.205 267.509C179.572 268.086 179.835 268.61 180.044 269.082C180.254 269.554 180.359 269.974 180.411 270.183C180.516 271.232 180.674 272.333 180.778 273.382C180.883 274.43 180.936 275.426 180.936 276.213C180.936 276.265 180.936 276.318 180.936 276.37C180.936 276.632 180.936 276.737 180.936 276.79ZM199.287 249.787C199.916 243.023 199.811 236.102 199.287 229.339C198.868 223.938 195.459 220.215 189.902 220.215C189.849 220.215 189.744 220.215 189.692 220.215C183.715 220.32 180.411 224.2 179.835 230.02C179.52 233.166 179.782 236.364 179.782 239.563C179.782 242.761 179.52 245.96 179.835 249.105C180.359 254.506 182.771 258.386 188.853 258.701C189.115 258.701 189.377 258.701 189.587 258.701C195.355 258.648 198.763 255.292 199.287 249.787ZM194.463 249.315C194.149 252.409 192.681 253.772 189.587 253.772C189.43 253.772 189.22 253.772 189.063 253.772C186.861 253.667 186.231 252.881 185.969 252.618C185.288 251.832 184.868 250.469 184.711 248.634C184.554 246.746 184.606 244.701 184.658 242.604C184.658 241.608 184.711 240.611 184.711 239.615C184.711 238.567 184.711 237.466 184.658 236.469C184.606 234.372 184.554 232.432 184.763 230.597C184.973 228.762 185.497 227.294 186.336 226.402C187.123 225.563 188.276 225.196 189.849 225.144C189.902 225.144 189.954 225.144 190.007 225.144C191.37 225.144 192.471 225.511 193.205 226.245C193.991 227.032 194.411 228.237 194.568 229.758C194.988 237.046 194.988 243.443 194.463 249.315ZM259.322 29.2047C250.461 20.2388 239.87 12.9508 228.02 7.86483C216.17 2.77891 203.115 0 189.272 0C180.516 0 171.498 1.10108 162.27 3.51296C151.626 6.29187 141.769 10.9059 132.96 16.988C119.8 26.1112 109.051 38.4853 101.606 52.5895C94.1604 66.6938 89.9658 82.6332 89.9658 98.8347C89.9658 103.029 90.228 107.276 90.8047 111.471C94.2653 136.848 97.5161 162.278 100.61 187.707C100.767 189.228 101.081 190.539 101.553 191.745C101.92 192.636 102.34 193.475 102.917 194.157C103.336 194.681 103.86 195.153 104.437 195.572C105.276 196.149 106.272 196.568 107.373 196.831C108.474 197.093 109.628 197.198 110.991 197.198C111.044 197.198 111.148 197.198 111.201 197.198C123.313 197.093 135.425 197.093 147.484 197.093C161.536 197.093 175.535 197.145 189.587 197.145C189.849 197.145 190.164 197.145 190.426 197.145C204.163 197.145 217.9 197.093 231.638 197.093C243.015 197.093 254.393 197.145 265.771 197.355C265.928 197.355 266.138 197.355 266.295 197.355C268.183 197.355 269.861 197.198 271.381 196.726C272.482 196.411 273.479 195.939 274.37 195.258C274.999 194.786 275.576 194.209 276.1 193.527C276.834 192.531 277.359 191.43 277.726 190.119C278.093 188.861 278.355 187.445 278.512 185.872C281.029 161.072 283.546 136.324 286.901 111.681C287.53 107.171 287.793 102.715 287.793 98.3104C287.845 71.7273 277.044 47.1366 259.322 29.2047ZM278.669 110.58C275.209 135.957 272.587 162.068 270.228 185.033C270.071 186.449 269.861 187.34 269.703 187.865C269.599 188.127 269.546 188.337 269.441 188.389C269.389 188.441 269.389 188.494 269.389 188.494C269.336 188.494 269.232 188.546 269.074 188.651C268.76 188.756 268.34 188.861 267.816 188.861C267.292 188.913 266.767 188.913 266.295 188.913C266.191 188.913 266.033 188.913 265.928 188.913C255.966 188.756 245.113 188.651 231.638 188.651C224.769 188.651 217.796 188.651 211.032 188.704C204.268 188.704 197.295 188.756 190.478 188.756H189.639C182.928 188.756 176.112 188.756 169.505 188.756C162.322 188.756 154.877 188.756 147.536 188.756C133.275 188.756 121.687 188.808 111.148 188.861C111.096 188.861 111.044 188.861 111.044 188.861C110.31 188.861 109.733 188.808 109.418 188.756H109.366C109.313 188.704 109.313 188.599 109.261 188.494C109.156 188.127 109.051 187.55 108.946 186.711C105.8 160.495 102.497 134.803 99.1415 110.317C98.6171 106.49 98.355 102.61 98.355 98.7823C98.355 91.9137 99.1939 84.9926 100.819 78.124C103.336 67.69 107.635 57.7803 113.56 48.7095C125.829 30.0437 143.866 16.8307 164.367 11.4827C172.704 9.33293 181.041 8.23186 189.272 8.23186C202.643 8.23186 215.436 11.0632 227.338 16.621C233.053 19.3475 238.506 22.5983 243.54 26.3734C248.521 30.1485 253.135 34.3955 257.225 39.1144C261.367 43.8333 264.985 48.9717 268.026 54.4246C271.119 59.93 273.636 65.75 275.471 71.7797C278.145 80.431 279.508 89.2921 279.508 98.258C279.508 102.4 279.246 106.49 278.669 110.58ZM273.531 201.445C273.059 201.025 272.535 200.658 272.01 200.396C271.172 199.976 270.28 199.714 269.284 199.557C268.288 199.4 267.239 199.347 266.138 199.347C266.033 199.347 265.928 199.347 265.823 199.347C261.419 199.4 257.015 199.4 252.611 199.4C246.843 199.4 241.075 199.4 235.308 199.4V199.347H233.578C227.758 199.347 221.885 199.242 216.013 199.242C211.346 199.242 206.68 199.295 201.961 199.557C200.598 199.609 199.287 199.819 197.976 200.239C196.98 200.501 196.036 200.92 195.145 201.392C193.782 202.126 192.576 203.122 191.684 204.381C191.265 205.01 190.898 205.744 190.636 206.531C190.374 207.317 190.269 208.156 190.269 209.047C190.269 209.624 190.321 210.253 190.426 210.882C190.688 212.298 191.265 213.609 191.946 214.762C192.995 216.493 194.254 217.961 195.459 219.376C196.665 220.792 197.819 222.103 198.553 223.466C199.969 225.983 200.912 228.814 201.489 231.75C202.066 234.687 202.276 237.78 202.276 240.821C202.276 241.45 202.276 242.08 202.223 242.709C202.171 244.701 202.013 246.694 201.751 248.581C201.437 250.469 201.017 252.356 200.336 254.087C199.602 255.974 198.658 257.442 197.557 258.805C196.77 259.802 195.879 260.745 195.04 261.689C194.411 262.371 193.729 263.105 193.152 263.839C192.209 264.94 191.37 266.146 190.741 267.562C190.111 268.977 189.744 270.603 189.744 272.49C189.744 274.378 190.111 276.528 190.95 278.992C191.16 279.569 191.37 280.198 191.684 280.775C191.999 281.404 192.418 282.033 193.048 282.557C193.415 282.872 193.834 283.186 194.201 283.396C194.83 283.711 195.459 283.92 196.036 284.078C196.613 284.235 197.19 284.34 197.766 284.445C203.429 285.389 209.144 285.598 214.754 285.598C219.473 285.598 224.192 285.441 228.806 285.389C239.922 285.231 249.989 281.037 257.539 274.063C265.089 267.142 270.175 257.442 271.381 246.379C272.692 234.215 273.531 221.998 275.314 210.043C275.471 208.995 275.576 208.051 275.576 207.212C275.576 205.849 275.366 204.643 274.947 203.594C274.632 202.703 274.16 202.021 273.531 201.445ZM267.187 208.733C265.928 217.122 265.089 225.616 264.355 233.795C263.988 237.623 263.621 241.555 263.202 245.435C262.206 254.506 258.116 262.318 252.034 267.876C245.899 273.486 237.825 276.842 228.754 276.999C226.971 276.999 225.189 277.052 223.511 277.104C220.627 277.157 217.691 277.209 214.807 277.209C208.41 277.209 203.586 276.895 199.182 276.161C199.077 276.161 198.972 276.108 198.868 276.108C198.291 274.325 198.133 273.119 198.133 272.385C198.133 271.966 198.186 271.704 198.238 271.494C198.238 271.389 198.291 271.337 198.291 271.232C198.291 271.179 198.343 271.127 198.343 271.022C198.448 270.812 198.553 270.55 198.71 270.288C198.972 269.869 199.287 269.449 199.706 268.925C200.126 268.401 200.65 267.876 201.227 267.247C203.377 264.94 206.26 261.846 208.148 257.075C209.144 254.506 209.773 251.937 210.088 249.525C210.455 247.113 210.56 244.806 210.612 242.866C210.612 242.132 210.665 241.45 210.665 240.769C210.665 236.469 210.298 232.537 209.511 228.971C208.725 225.406 207.519 222.208 205.893 219.272C204.688 217.069 203.167 215.339 201.751 213.766C200.912 212.77 200.126 211.931 199.602 211.145C199.339 210.778 199.13 210.41 198.972 210.096C198.815 209.781 198.71 209.519 198.658 209.257C198.605 209.1 198.605 208.995 198.605 208.942C198.658 208.89 198.763 208.785 198.92 208.68C199.235 208.471 199.759 208.261 200.388 208.103C201.017 207.946 201.699 207.841 202.433 207.789C206.365 207.579 210.665 207.474 216.013 207.474C218.897 207.474 221.885 207.527 224.769 207.527C227.391 207.527 230.065 207.579 232.739 207.579C233.001 207.632 233.315 207.632 233.63 207.632C236.776 207.632 240.027 207.632 243.12 207.632C246.266 207.632 249.465 207.632 252.663 207.632C257.801 207.632 262.048 207.632 265.981 207.579C266.033 207.579 266.138 207.579 266.191 207.579C266.662 207.579 267.029 207.579 267.292 207.632C267.239 207.946 267.239 208.313 267.187 208.733Z" fill="white"/>
</svg>
