<svg width="462" height="605" viewBox="0 0 462 605" fill="none" xmlns="http://www.w3.org/2000/svg">
<mask id="path-1-outside-1_109_135" maskUnits="userSpaceOnUse" x="0" y="335.047" width="462" height="269" fill="black">
<rect fill="white" y="335.047" width="462" height="269"/>
<path d="M57.8212 373.478L62.521 376.023L65.4584 370.54L60.6933 367.995L57.8212 373.478ZM69.179 363.686L72.1164 358.203L67.3513 355.658L64.414 361.141L69.179 363.686ZM458.934 515.123C457.563 505.528 452.471 496.781 444.899 490.711C430.474 479.092 415.918 478.374 399.077 487.316C392.81 490.645 385.369 494.497 378.776 494.04C355.212 492.277 334.651 480.854 313.11 470.737C312.718 470.541 312.718 469.953 313.11 469.758C329.886 462.055 346.727 455.658 363.633 449.327C374.86 445.149 385.826 447.63 396.727 450.893C400.186 451.938 403.711 453.047 407.301 453.765C424.469 457.16 440.33 450.371 448.033 436.468C455.017 423.87 452.21 406.507 440.134 394.627C435.304 389.862 433.672 385.358 433.868 378.7C434.521 358.269 419.769 341.428 399.795 338.947C378.45 336.271 359.912 348.739 355.669 369.561C353.319 381.245 347.64 390.449 337.196 395.214C312.327 406.507 287 416.95 261.804 427.525C255.342 430.201 247.836 429.483 244.702 423.347C242.548 419.105 240.264 411.99 243.201 407.747C244.441 405.919 246.204 404.483 247.509 402.721C250.251 399 250.12 376.089 251.687 369.496C252.209 367.146 251.491 363.295 248.749 362.968C245.42 362.577 242.026 362.381 238.697 362.381C236.608 362.381 231.452 361.663 229.624 362.838C226.882 364.535 227.013 371.258 227.209 374.13C228.057 387.969 229.689 401.807 230.668 415.645C231.713 430.005 242.352 439.992 256.778 438.883C262.457 438.491 268.201 436.925 273.488 434.77C290.721 427.851 307.562 420.084 324.794 413.165C346.204 404.548 362.719 392.277 367.549 367.603C370.291 353.634 387.523 346.193 402.993 350.175C415.722 353.438 425.97 368.125 423.033 380.919C421.074 389.47 422.314 394.627 430.017 399.718C440.33 406.572 443.398 419.953 439.025 430.593C435.174 439.927 423.881 445.41 411.414 443.713C407.497 443.191 403.515 442.538 399.86 441.167C381.322 433.987 363.372 436.794 345.682 444.17C331.648 449.979 317.679 456.18 303.449 461.468C298.946 463.1 292.875 464.079 288.697 462.447C262 451.872 235.368 441.102 208.801 430.201C198.423 425.958 153.579 408.334 150.119 405.527C149.206 404.809 143.2 399.587 143.331 398.674L144.31 393.843L135.367 389.078C138.305 381.506 135.172 372.694 127.796 368.778L87.8475 347.433C87.3906 347.172 86.8031 347.368 86.542 347.825L84.6491 351.415L59.8447 338.164C59.3878 337.903 58.8004 338.099 58.5393 338.556L38.5652 376.023C38.3041 376.48 38.5 377.068 38.9569 377.329L63.7612 390.58L61.8683 394.104C61.6072 394.561 61.803 395.149 62.2599 395.41L102.208 416.755C109.519 420.671 118.527 418.452 123.292 411.794L132.234 416.559L134.78 411.859C134.78 411.859 143.331 414.209 147.639 415.971C183.671 430.789 219.767 445.345 255.799 460.032C264.35 463.557 272.77 467.342 281.321 470.998C266.961 476.807 252.862 483.139 238.305 488.296C235.107 489.471 230.538 488.034 226.948 486.729C214.676 482.225 202.339 477.721 190.459 472.303C179.297 467.212 168.788 467.734 157.822 472.369C142.743 478.831 127.534 485.097 112.325 491.298C97.0512 497.565 81.777 498.674 66.3069 491.494C61.085 489.079 55.4713 487.447 49.8577 486.207C33.9307 482.813 13.9567 491.82 6.64596 505.332C-0.403693 518.257 2.86003 535.163 15.6538 547.761C21.2022 553.179 23.9437 558.662 24.4006 566.69C25.902 595.085 55.145 611.142 79.4271 596.456C87.2601 591.756 94.2444 583.401 98.2262 575.111C105.08 560.816 115.981 552.069 129.623 546.194C162.326 532.095 195.094 518.257 227.992 504.68C231.843 503.113 237.326 502.46 241.047 503.896C274.076 517.212 306.909 530.92 339.677 544.823C353.646 550.763 364.024 560.685 370.486 574.589C372.118 578.179 374.468 581.442 376.622 584.706C385.173 597.826 397.706 603.048 412.784 600.829C421.727 599.523 430.67 595.085 435.63 587.317C441.636 577.852 438.111 566.495 441.766 556.246C444.9 547.565 452.798 545.672 457.041 538.622C460.957 531.834 460.043 522.63 458.934 515.123ZM67.9388 384.64L47.8342 373.869L62.1294 347.172L82.2339 357.942L67.9388 384.64ZM113.631 391.95C112.782 393.582 110.694 394.17 109.062 393.321C107.691 392.603 107.038 391.102 107.365 389.666L106.19 389.013L100.902 392.473L97.6387 390.71C97.1165 390.971 96.4638 390.971 95.8763 390.71C94.9625 390.253 94.5708 389.078 95.093 388.099C95.6152 387.185 96.7902 386.859 97.704 387.316C98.0304 387.512 98.2915 387.773 98.4873 388.034V388.099C98.6178 388.425 98.7484 388.752 98.7484 389.078L101.098 390.318L103.383 388.817L104.493 388.099L101.229 386.337L94.4403 382.681L93.7875 383.856L93.4611 384.378L92.4168 382.681L90.9807 380.397L90.328 379.287L92.2862 379.222L95.0277 379.156H96.3332L95.4194 380.919L100.707 383.791L103.122 385.096V383.791V381.049L101.229 380.07L100.968 380.593L98.2262 379.156L99.7275 376.415L102.469 377.851L102.143 378.438L104.819 379.875L104.884 386.141L108.474 388.034C109.519 387.12 111.02 386.859 112.26 387.577C113.892 388.23 114.545 390.318 113.631 391.95ZM129.232 406.833L125.446 404.809L130.929 394.561L134.715 396.585L129.232 406.833ZM186.608 510.881C166.242 519.627 145.811 528.309 125.38 536.99C108.54 544.171 95.5499 554.81 87.9781 572.304C85.3018 578.505 79.6229 584.771 73.6829 587.97C53.3825 598.936 32.2336 583.727 34.4529 559.967C35.1057 552.591 33.6696 548.413 27.2727 544.366C15.5886 536.925 10.8888 522.63 15.2622 511.925C19.4398 501.742 33.8002 494.693 46.7246 496.781C51.4896 497.565 56.3199 498.74 60.628 500.828C80.5368 510.424 100.184 508.009 119.767 499.914C133.801 494.105 147.9 488.491 161.804 482.421C170.159 478.766 177.926 478.504 186.412 482.29C197.509 487.186 208.997 491.168 220.29 495.672C220.29 496.063 220.29 496.063 220.29 496.455C209.128 501.155 197.9 506.05 186.608 510.881ZM435.043 545.541C429.299 548.609 428.32 552.004 429.299 558.009C430.147 562.97 429.821 568.388 428.711 573.283C426.688 582.16 421.401 588.623 411.805 590.385C402.079 592.213 393.724 589.275 387.066 582.03C384.651 579.354 382.562 576.155 381.192 572.891C372.379 551.677 355.343 539.732 335.042 531.312C309.194 520.606 283.345 509.967 257.496 499.262C256.06 498.674 254.689 497.826 252.405 496.455C251.556 495.998 251.687 494.758 252.535 494.431C266.961 488.361 279.885 482.617 293.071 477.852C296.139 476.742 300.773 478.7 304.298 480.071C320.486 486.337 336.413 493.126 352.601 499.262C370.682 506.116 388.176 507.029 405.865 496.129C424.469 484.575 447.51 497.826 448.751 519.758C449.403 530.92 445.095 540.189 435.043 545.541Z"/>
</mask>
<path d="M57.8212 373.478L62.521 376.023L65.4584 370.54L60.6933 367.995L57.8212 373.478ZM69.179 363.686L72.1164 358.203L67.3513 355.658L64.414 361.141L69.179 363.686ZM458.934 515.123C457.563 505.528 452.471 496.781 444.899 490.711C430.474 479.092 415.918 478.374 399.077 487.316C392.81 490.645 385.369 494.497 378.776 494.04C355.212 492.277 334.651 480.854 313.11 470.737C312.718 470.541 312.718 469.953 313.11 469.758C329.886 462.055 346.727 455.658 363.633 449.327C374.86 445.149 385.826 447.63 396.727 450.893C400.186 451.938 403.711 453.047 407.301 453.765C424.469 457.16 440.33 450.371 448.033 436.468C455.017 423.87 452.21 406.507 440.134 394.627C435.304 389.862 433.672 385.358 433.868 378.7C434.521 358.269 419.769 341.428 399.795 338.947C378.45 336.271 359.912 348.739 355.669 369.561C353.319 381.245 347.64 390.449 337.196 395.214C312.327 406.507 287 416.95 261.804 427.525C255.342 430.201 247.836 429.483 244.702 423.347C242.548 419.105 240.264 411.99 243.201 407.747C244.441 405.919 246.204 404.483 247.509 402.721C250.251 399 250.12 376.089 251.687 369.496C252.209 367.146 251.491 363.295 248.749 362.968C245.42 362.577 242.026 362.381 238.697 362.381C236.608 362.381 231.452 361.663 229.624 362.838C226.882 364.535 227.013 371.258 227.209 374.13C228.057 387.969 229.689 401.807 230.668 415.645C231.713 430.005 242.352 439.992 256.778 438.883C262.457 438.491 268.201 436.925 273.488 434.77C290.721 427.851 307.562 420.084 324.794 413.165C346.204 404.548 362.719 392.277 367.549 367.603C370.291 353.634 387.523 346.193 402.993 350.175C415.722 353.438 425.97 368.125 423.033 380.919C421.074 389.47 422.314 394.627 430.017 399.718C440.33 406.572 443.398 419.953 439.025 430.593C435.174 439.927 423.881 445.41 411.414 443.713C407.497 443.191 403.515 442.538 399.86 441.167C381.322 433.987 363.372 436.794 345.682 444.17C331.648 449.979 317.679 456.18 303.449 461.468C298.946 463.1 292.875 464.079 288.697 462.447C262 451.872 235.368 441.102 208.801 430.201C198.423 425.958 153.579 408.334 150.119 405.527C149.206 404.809 143.2 399.587 143.331 398.674L144.31 393.843L135.367 389.078C138.305 381.506 135.172 372.694 127.796 368.778L87.8475 347.433C87.3906 347.172 86.8031 347.368 86.542 347.825L84.6491 351.415L59.8447 338.164C59.3878 337.903 58.8004 338.099 58.5393 338.556L38.5652 376.023C38.3041 376.48 38.5 377.068 38.9569 377.329L63.7612 390.58L61.8683 394.104C61.6072 394.561 61.803 395.149 62.2599 395.41L102.208 416.755C109.519 420.671 118.527 418.452 123.292 411.794L132.234 416.559L134.78 411.859C134.78 411.859 143.331 414.209 147.639 415.971C183.671 430.789 219.767 445.345 255.799 460.032C264.35 463.557 272.77 467.342 281.321 470.998C266.961 476.807 252.862 483.139 238.305 488.296C235.107 489.471 230.538 488.034 226.948 486.729C214.676 482.225 202.339 477.721 190.459 472.303C179.297 467.212 168.788 467.734 157.822 472.369C142.743 478.831 127.534 485.097 112.325 491.298C97.0512 497.565 81.777 498.674 66.3069 491.494C61.085 489.079 55.4713 487.447 49.8577 486.207C33.9307 482.813 13.9567 491.82 6.64596 505.332C-0.403693 518.257 2.86003 535.163 15.6538 547.761C21.2022 553.179 23.9437 558.662 24.4006 566.69C25.902 595.085 55.145 611.142 79.4271 596.456C87.2601 591.756 94.2444 583.401 98.2262 575.111C105.08 560.816 115.981 552.069 129.623 546.194C162.326 532.095 195.094 518.257 227.992 504.68C231.843 503.113 237.326 502.46 241.047 503.896C274.076 517.212 306.909 530.92 339.677 544.823C353.646 550.763 364.024 560.685 370.486 574.589C372.118 578.179 374.468 581.442 376.622 584.706C385.173 597.826 397.706 603.048 412.784 600.829C421.727 599.523 430.67 595.085 435.63 587.317C441.636 577.852 438.111 566.495 441.766 556.246C444.9 547.565 452.798 545.672 457.041 538.622C460.957 531.834 460.043 522.63 458.934 515.123ZM67.9388 384.64L47.8342 373.869L62.1294 347.172L82.2339 357.942L67.9388 384.64ZM113.631 391.95C112.782 393.582 110.694 394.17 109.062 393.321C107.691 392.603 107.038 391.102 107.365 389.666L106.19 389.013L100.902 392.473L97.6387 390.71C97.1165 390.971 96.4638 390.971 95.8763 390.71C94.9625 390.253 94.5708 389.078 95.093 388.099C95.6152 387.185 96.7902 386.859 97.704 387.316C98.0304 387.512 98.2915 387.773 98.4873 388.034V388.099C98.6178 388.425 98.7484 388.752 98.7484 389.078L101.098 390.318L103.383 388.817L104.493 388.099L101.229 386.337L94.4403 382.681L93.7875 383.856L93.4611 384.378L92.4168 382.681L90.9807 380.397L90.328 379.287L92.2862 379.222L95.0277 379.156H96.3332L95.4194 380.919L100.707 383.791L103.122 385.096V383.791V381.049L101.229 380.07L100.968 380.593L98.2262 379.156L99.7275 376.415L102.469 377.851L102.143 378.438L104.819 379.875L104.884 386.141L108.474 388.034C109.519 387.12 111.02 386.859 112.26 387.577C113.892 388.23 114.545 390.318 113.631 391.95ZM129.232 406.833L125.446 404.809L130.929 394.561L134.715 396.585L129.232 406.833ZM186.608 510.881C166.242 519.627 145.811 528.309 125.38 536.99C108.54 544.171 95.5499 554.81 87.9781 572.304C85.3018 578.505 79.6229 584.771 73.6829 587.97C53.3825 598.936 32.2336 583.727 34.4529 559.967C35.1057 552.591 33.6696 548.413 27.2727 544.366C15.5886 536.925 10.8888 522.63 15.2622 511.925C19.4398 501.742 33.8002 494.693 46.7246 496.781C51.4896 497.565 56.3199 498.74 60.628 500.828C80.5368 510.424 100.184 508.009 119.767 499.914C133.801 494.105 147.9 488.491 161.804 482.421C170.159 478.766 177.926 478.504 186.412 482.29C197.509 487.186 208.997 491.168 220.29 495.672C220.29 496.063 220.29 496.063 220.29 496.455C209.128 501.155 197.9 506.05 186.608 510.881ZM435.043 545.541C429.299 548.609 428.32 552.004 429.299 558.009C430.147 562.97 429.821 568.388 428.711 573.283C426.688 582.16 421.401 588.623 411.805 590.385C402.079 592.213 393.724 589.275 387.066 582.03C384.651 579.354 382.562 576.155 381.192 572.891C372.379 551.677 355.343 539.732 335.042 531.312C309.194 520.606 283.345 509.967 257.496 499.262C256.06 498.674 254.689 497.826 252.405 496.455C251.556 495.998 251.687 494.758 252.535 494.431C266.961 488.361 279.885 482.617 293.071 477.852C296.139 476.742 300.773 478.7 304.298 480.071C320.486 486.337 336.413 493.126 352.601 499.262C370.682 506.116 388.176 507.029 405.865 496.129C424.469 484.575 447.51 497.826 448.751 519.758C449.403 530.92 445.095 540.189 435.043 545.541Z" fill="white"/>
<path d="M57.8212 373.478L62.521 376.023L65.4584 370.54L60.6933 367.995L57.8212 373.478ZM69.179 363.686L72.1164 358.203L67.3513 355.658L64.414 361.141L69.179 363.686ZM458.934 515.123C457.563 505.528 452.471 496.781 444.899 490.711C430.474 479.092 415.918 478.374 399.077 487.316C392.81 490.645 385.369 494.497 378.776 494.04C355.212 492.277 334.651 480.854 313.11 470.737C312.718 470.541 312.718 469.953 313.11 469.758C329.886 462.055 346.727 455.658 363.633 449.327C374.86 445.149 385.826 447.63 396.727 450.893C400.186 451.938 403.711 453.047 407.301 453.765C424.469 457.16 440.33 450.371 448.033 436.468C455.017 423.87 452.21 406.507 440.134 394.627C435.304 389.862 433.672 385.358 433.868 378.7C434.521 358.269 419.769 341.428 399.795 338.947C378.45 336.271 359.912 348.739 355.669 369.561C353.319 381.245 347.64 390.449 337.196 395.214C312.327 406.507 287 416.95 261.804 427.525C255.342 430.201 247.836 429.483 244.702 423.347C242.548 419.105 240.264 411.99 243.201 407.747C244.441 405.919 246.204 404.483 247.509 402.721C250.251 399 250.12 376.089 251.687 369.496C252.209 367.146 251.491 363.295 248.749 362.968C245.42 362.577 242.026 362.381 238.697 362.381C236.608 362.381 231.452 361.663 229.624 362.838C226.882 364.535 227.013 371.258 227.209 374.13C228.057 387.969 229.689 401.807 230.668 415.645C231.713 430.005 242.352 439.992 256.778 438.883C262.457 438.491 268.201 436.925 273.488 434.77C290.721 427.851 307.562 420.084 324.794 413.165C346.204 404.548 362.719 392.277 367.549 367.603C370.291 353.634 387.523 346.193 402.993 350.175C415.722 353.438 425.97 368.125 423.033 380.919C421.074 389.47 422.314 394.627 430.017 399.718C440.33 406.572 443.398 419.953 439.025 430.593C435.174 439.927 423.881 445.41 411.414 443.713C407.497 443.191 403.515 442.538 399.86 441.167C381.322 433.987 363.372 436.794 345.682 444.17C331.648 449.979 317.679 456.18 303.449 461.468C298.946 463.1 292.875 464.079 288.697 462.447C262 451.872 235.368 441.102 208.801 430.201C198.423 425.958 153.579 408.334 150.119 405.527C149.206 404.809 143.2 399.587 143.331 398.674L144.31 393.843L135.367 389.078C138.305 381.506 135.172 372.694 127.796 368.778L87.8475 347.433C87.3906 347.172 86.8031 347.368 86.542 347.825L84.6491 351.415L59.8447 338.164C59.3878 337.903 58.8004 338.099 58.5393 338.556L38.5652 376.023C38.3041 376.48 38.5 377.068 38.9569 377.329L63.7612 390.58L61.8683 394.104C61.6072 394.561 61.803 395.149 62.2599 395.41L102.208 416.755C109.519 420.671 118.527 418.452 123.292 411.794L132.234 416.559L134.78 411.859C134.78 411.859 143.331 414.209 147.639 415.971C183.671 430.789 219.767 445.345 255.799 460.032C264.35 463.557 272.77 467.342 281.321 470.998C266.961 476.807 252.862 483.139 238.305 488.296C235.107 489.471 230.538 488.034 226.948 486.729C214.676 482.225 202.339 477.721 190.459 472.303C179.297 467.212 168.788 467.734 157.822 472.369C142.743 478.831 127.534 485.097 112.325 491.298C97.0512 497.565 81.777 498.674 66.3069 491.494C61.085 489.079 55.4713 487.447 49.8577 486.207C33.9307 482.813 13.9567 491.82 6.64596 505.332C-0.403693 518.257 2.86003 535.163 15.6538 547.761C21.2022 553.179 23.9437 558.662 24.4006 566.69C25.902 595.085 55.145 611.142 79.4271 596.456C87.2601 591.756 94.2444 583.401 98.2262 575.111C105.08 560.816 115.981 552.069 129.623 546.194C162.326 532.095 195.094 518.257 227.992 504.68C231.843 503.113 237.326 502.46 241.047 503.896C274.076 517.212 306.909 530.92 339.677 544.823C353.646 550.763 364.024 560.685 370.486 574.589C372.118 578.179 374.468 581.442 376.622 584.706C385.173 597.826 397.706 603.048 412.784 600.829C421.727 599.523 430.67 595.085 435.63 587.317C441.636 577.852 438.111 566.495 441.766 556.246C444.9 547.565 452.798 545.672 457.041 538.622C460.957 531.834 460.043 522.63 458.934 515.123ZM67.9388 384.64L47.8342 373.869L62.1294 347.172L82.2339 357.942L67.9388 384.64ZM113.631 391.95C112.782 393.582 110.694 394.17 109.062 393.321C107.691 392.603 107.038 391.102 107.365 389.666L106.19 389.013L100.902 392.473L97.6387 390.71C97.1165 390.971 96.4638 390.971 95.8763 390.71C94.9625 390.253 94.5708 389.078 95.093 388.099C95.6152 387.185 96.7902 386.859 97.704 387.316C98.0304 387.512 98.2915 387.773 98.4873 388.034V388.099C98.6178 388.425 98.7484 388.752 98.7484 389.078L101.098 390.318L103.383 388.817L104.493 388.099L101.229 386.337L94.4403 382.681L93.7875 383.856L93.4611 384.378L92.4168 382.681L90.9807 380.397L90.328 379.287L92.2862 379.222L95.0277 379.156H96.3332L95.4194 380.919L100.707 383.791L103.122 385.096V383.791V381.049L101.229 380.07L100.968 380.593L98.2262 379.156L99.7275 376.415L102.469 377.851L102.143 378.438L104.819 379.875L104.884 386.141L108.474 388.034C109.519 387.12 111.02 386.859 112.26 387.577C113.892 388.23 114.545 390.318 113.631 391.95ZM129.232 406.833L125.446 404.809L130.929 394.561L134.715 396.585L129.232 406.833ZM186.608 510.881C166.242 519.627 145.811 528.309 125.38 536.99C108.54 544.171 95.5499 554.81 87.9781 572.304C85.3018 578.505 79.6229 584.771 73.6829 587.97C53.3825 598.936 32.2336 583.727 34.4529 559.967C35.1057 552.591 33.6696 548.413 27.2727 544.366C15.5886 536.925 10.8888 522.63 15.2622 511.925C19.4398 501.742 33.8002 494.693 46.7246 496.781C51.4896 497.565 56.3199 498.74 60.628 500.828C80.5368 510.424 100.184 508.009 119.767 499.914C133.801 494.105 147.9 488.491 161.804 482.421C170.159 478.766 177.926 478.504 186.412 482.29C197.509 487.186 208.997 491.168 220.29 495.672C220.29 496.063 220.29 496.063 220.29 496.455C209.128 501.155 197.9 506.05 186.608 510.881ZM435.043 545.541C429.299 548.609 428.32 552.004 429.299 558.009C430.147 562.97 429.821 568.388 428.711 573.283C426.688 582.16 421.401 588.623 411.805 590.385C402.079 592.213 393.724 589.275 387.066 582.03C384.651 579.354 382.562 576.155 381.192 572.891C372.379 551.677 355.343 539.732 335.042 531.312C309.194 520.606 283.345 509.967 257.496 499.262C256.06 498.674 254.689 497.826 252.405 496.455C251.556 495.998 251.687 494.758 252.535 494.431C266.961 488.361 279.885 482.617 293.071 477.852C296.139 476.742 300.773 478.7 304.298 480.071C320.486 486.337 336.413 493.126 352.601 499.262C370.682 506.116 388.176 507.029 405.865 496.129C424.469 484.575 447.51 497.826 448.751 519.758C449.403 530.92 445.095 540.189 435.043 545.541Z" stroke="black" stroke-width="4" mask="url(#path-1-outside-1_109_135)"/>
<mask id="mask0_109_135" style="mask-type:luminance" maskUnits="userSpaceOnUse" x="117" y="4" width="243" height="352">
<path d="M224.73 318.451C221.401 311.14 220.813 302.785 221.205 294.887C221.401 290.057 221.988 285.096 223.816 280.657C226.427 274.391 243.594 261.466 232.498 254.547C226.753 250.957 219.182 252.197 212.785 252.197C204.952 252.197 197.053 252.263 189.22 252.263C187.784 252.263 186.348 252.263 184.912 252.263C170.617 252.328 156.322 252.328 142.092 252.328C136.283 252.328 132.758 254.025 133.672 260.879C135.891 277.132 137.523 293.451 139.938 309.639C144.181 337.381 163.894 354.548 191.766 355.135C201.166 355.331 210.631 355.135 220.03 355.135C236.479 355.135 237.785 353.96 235.761 337.577C234.978 330.853 227.471 324.522 224.73 318.451ZM251.101 312.968C251.884 304.548 251.754 295.931 251.101 287.511C250.579 280.657 246.205 276.023 239.156 276.153C231.714 276.284 227.602 281.114 226.884 288.36C226.492 292.276 226.819 296.258 226.819 300.24C226.819 304.221 226.492 308.203 226.884 312.119C227.537 318.843 230.539 323.673 238.111 324.065C245.814 324.326 250.448 320.148 251.101 312.968ZM205.604 8.39685C148.424 23.2142 110.304 82.2224 118.267 140.447C122.575 172.04 126.622 203.698 130.473 235.422C131.322 242.471 134.063 245.409 141.439 245.344C174.012 245.082 206.518 245.213 239.09 245.213C270.748 245.213 302.341 244.887 333.999 245.409C343.464 245.539 346.793 242.145 347.707 233.137C350.84 202.262 353.974 171.453 358.151 140.708C369.248 58.3319 294.378 -14.5798 205.604 8.39685ZM333.999 252.263C320.618 252.393 307.237 252.328 293.856 252.328V252.263C280.735 252.263 267.681 251.871 254.626 252.524C248.033 252.85 240.853 256.375 242.289 264.077C243.398 270.083 249.273 273.999 252.145 279.091C256.323 286.597 257.237 295.736 257.041 304.156C256.91 309.247 256.388 314.339 254.495 319.039C249.599 331.441 237.328 332.093 242.811 348.608C243.268 349.913 243.79 351.219 244.834 352.133C246.14 353.308 247.902 353.634 249.599 353.96C262.263 356.049 275.122 355.266 287.916 355.07C314.548 354.678 336.023 334.966 338.83 308.399C340.462 293.255 341.506 278.046 343.791 263.033C345.031 254.417 341.506 252.197 333.999 252.263Z" fill="white"/>
</mask>
<g mask="url(#mask0_109_135)">
<path d="M112.979 66.1648C112.979 184.638 112.979 303.046 112.979 421.52C126.165 421.52 139.35 421.52 152.471 421.52C152.471 317.146 152.471 212.837 152.471 108.463C152.471 107.549 152.471 106.635 152.536 105.656C152.275 105.395 152.079 105.068 151.818 104.807C139.22 92.1441 126.557 79.5461 113.893 66.8828C113.632 66.687 113.306 66.4259 112.979 66.1648Z" fill="#E62340"/>
<path d="M324.209 421.52C337.263 421.52 350.384 421.52 363.439 421.52C363.439 303.242 363.439 184.965 363.439 66.687C362.982 66.8828 362.655 67.3398 362.329 67.6661C349.861 80.1336 337.459 92.5357 324.992 105.003C324.665 105.33 324.209 105.656 324.013 106.113C324.339 106.766 324.209 107.484 324.209 108.136C324.209 211.923 324.209 315.71 324.209 419.496C324.143 420.279 324.209 420.932 324.209 421.52Z" fill="#874A97"/>
<path d="M152.535 105.721C152.535 106.635 152.47 107.549 152.47 108.528C152.47 212.902 152.47 317.211 152.47 421.585C166.83 421.585 181.256 421.585 195.616 421.585C195.616 420.998 195.551 420.475 195.551 419.888C195.551 330.201 195.551 240.579 195.551 150.891C195.551 150.304 195.551 149.716 195.616 149.064C195.616 148.933 195.616 148.868 195.616 148.737C195.42 148.476 195.225 148.215 194.963 148.019C181.06 134.116 167.222 120.278 153.318 106.374C153.122 106.178 152.796 105.982 152.535 105.721Z" fill="#EC681D"/>
<path d="M324.208 421.52C324.208 420.867 324.143 420.214 324.143 419.561C324.143 315.775 324.143 211.988 324.143 108.202C324.143 107.549 324.273 106.831 323.947 106.178C323.49 106.439 323.164 106.831 322.837 107.157C309.391 120.604 295.879 134.116 282.432 147.562C282.041 147.954 281.649 148.346 281.323 148.803C281.258 148.868 281.192 148.998 281.127 149.064C281.127 149.716 281.192 150.369 281.192 151.022C281.192 240.448 281.192 329.874 281.192 419.3C281.192 419.953 281.192 420.606 281.192 421.259C281.258 421.389 281.323 421.454 281.388 421.585C295.618 421.52 309.913 421.52 324.208 421.52Z" fill="#2B4798"/>
<path d="M281.453 421.258C281.453 420.606 281.453 419.953 281.453 419.3C281.453 329.874 281.453 240.448 281.453 151.022C281.453 150.369 281.388 149.716 281.388 149.063C280.8 149.39 280.474 149.847 280.017 150.304C266.244 163.685 252.471 177.066 238.763 190.448C238.372 190.839 238.045 191.296 237.458 191.492C237.458 192.21 237.393 192.993 237.393 193.711C237.393 269.103 237.393 344.496 237.393 419.888C237.393 420.475 237.393 420.997 237.393 421.585C252.079 421.585 266.766 421.585 281.453 421.585C281.388 421.454 281.453 421.324 281.453 421.258Z" fill="#44AC34"/>
<path d="M195.617 149.129C195.617 149.716 195.552 150.304 195.552 150.956C195.552 240.644 195.552 330.266 195.552 419.953C195.552 420.54 195.552 421.063 195.617 421.65C209.716 421.65 223.816 421.65 237.915 421.65C237.915 376.676 237.915 331.702 237.915 286.728C237.915 254.874 237.915 223.02 237.915 191.166C237.719 190.905 237.523 190.643 237.262 190.448C223.685 176.87 210.173 163.359 196.596 149.782C196.4 149.586 196.139 149.325 195.878 149.129C195.813 149.064 195.748 149.064 195.617 149.129Z" fill="#FDEB1A"/>
<path d="M195.943 149.064C196.204 149.259 196.466 149.455 196.661 149.716C210.238 163.293 223.75 176.805 237.327 190.382C237.523 190.578 237.719 190.839 237.98 191.1C238.176 191.166 238.241 191.296 238.372 191.427C238.959 191.296 239.286 190.774 239.677 190.382C253.059 177.001 266.44 163.62 279.821 150.238C280.213 149.847 280.604 149.325 281.127 148.998C281.192 148.933 281.257 148.802 281.322 148.737C281.714 148.346 282.04 147.889 282.432 147.497C295.879 134.05 309.391 120.539 322.837 107.092C323.163 106.766 323.49 106.309 323.947 106.113C324.208 105.656 324.6 105.33 324.926 105.003C337.393 92.5357 349.796 80.1336 362.263 67.6661C362.589 67.3398 362.916 66.8828 363.373 66.687C363.373 56.1125 363.373 45.538 363.373 34.9636C362.589 35.0288 362.198 35.6816 361.741 36.1385C321.14 76.674 280.604 117.275 240.004 157.81C238.372 159.442 238.372 159.442 236.805 157.876C208.672 129.742 180.539 101.609 152.405 73.4756C139.742 60.8123 127.013 48.0838 114.35 35.4205C113.958 35.0288 113.632 34.4414 112.914 34.3761C112.914 44.9506 112.914 55.5251 112.914 66.0995C113.24 66.3606 113.567 66.6217 113.828 66.8828C126.491 79.4808 139.089 92.1441 151.752 104.807C152.014 105.068 152.209 105.33 152.47 105.656C152.732 105.917 153.058 106.113 153.319 106.374C167.223 120.277 181.061 134.116 194.964 148.019C195.16 148.215 195.356 148.476 195.617 148.737C195.813 148.802 195.878 148.933 195.943 149.064Z" fill="#020203"/>
<path d="M112.979 34.4413C113.698 34.4413 113.959 35.0288 114.416 35.4857C127.144 48.149 139.807 60.8775 152.471 73.5408C180.604 101.674 208.737 129.807 236.871 157.941C238.437 159.507 238.437 159.507 240.069 157.876C280.605 117.34 321.205 76.7393 361.806 36.2037C362.263 35.7468 362.589 35.0288 363.438 35.0288C363.438 24.7154 363.438 14.4673 363.438 4.15393C362.785 4.15393 362.133 4.15393 361.48 4.15393C361.545 4.93723 360.892 5.2636 360.435 5.72052C335.109 31.1123 309.717 56.4389 284.391 81.7654C269.443 96.7133 254.56 111.596 239.612 126.544C238.437 127.719 238.437 127.719 237.262 126.544C234.651 123.933 232.04 121.322 229.429 118.711C227.079 116.361 224.795 114.076 222.445 111.726C220.291 109.572 218.202 107.484 216.048 105.33C213.698 102.98 211.348 100.63 208.998 98.2799C206.779 96.0605 204.625 93.9065 202.406 91.6871C195.356 84.6375 188.372 77.6531 181.387 70.6035C171.335 60.4859 161.152 50.4336 151.1 40.2508C148.228 37.3787 145.356 34.5066 142.418 31.6345C138.632 27.9139 134.912 24.0627 131.126 20.342C126.1 15.3812 121.139 10.2897 116.047 5.32887C115.721 5.0025 115.329 4.67613 115.46 4.15393C114.611 4.15393 113.763 4.15393 112.979 4.15393C112.979 14.2062 112.979 24.3238 112.979 34.4413Z" fill="#5F3914"/>
<path d="M115.46 4.15402C115.394 4.67622 115.721 5.00259 116.047 5.32896C121.138 10.2898 126.099 15.316 131.125 20.3421C134.911 24.0628 138.632 27.914 142.418 31.6346C145.29 34.5067 148.227 37.3788 151.099 40.2509C161.087 50.4337 171.269 60.486 181.387 70.6035C188.371 77.6532 195.421 84.6376 202.405 91.6872C204.625 93.9066 206.779 96.0606 208.998 98.28C211.348 100.63 213.698 102.98 216.048 105.33C218.202 107.484 220.291 109.572 222.445 111.727C224.795 114.076 227.079 116.361 229.429 118.711C232.04 121.322 234.651 123.933 237.262 126.544C238.437 127.719 238.437 127.719 239.612 126.544C254.56 111.596 269.442 96.7134 284.39 81.7655C309.717 56.439 335.109 31.0471 360.435 5.72061C360.892 5.26369 361.545 4.93731 361.479 4.15402C351.362 4.15402 341.244 4.15402 331.127 4.15402C331.062 4.93731 330.474 5.26369 330.017 5.65533C299.926 35.7469 269.899 65.7732 239.808 95.8648C238.241 97.4314 238.633 97.4314 237.066 95.8648C216.439 75.238 195.813 54.6113 175.186 33.9845C165.721 24.5197 156.256 15.0549 146.791 5.52478C146.4 5.13314 145.747 4.80677 145.812 4.08875C135.695 4.15402 125.577 4.15402 115.46 4.15402Z" fill="#75CAE5"/>
<path d="M145.812 4.15393C145.812 4.87195 146.4 5.19832 146.792 5.58997C156.256 15.0548 165.721 24.5196 175.186 34.0497C195.813 54.6765 216.44 75.3032 237.066 95.93C238.568 97.4313 238.241 97.4313 239.808 95.93C269.899 65.8384 299.926 35.8121 330.017 5.72052C330.474 5.2636 331.127 4.93722 331.127 4.2192C321.14 4.2192 311.088 4.2192 301.101 4.2192C301.101 4.93722 300.513 5.2636 300.122 5.65525C280.017 25.8251 259.847 45.9297 239.743 66.0342C238.437 67.3397 238.633 67.3397 237.262 66.0342C226.492 55.2639 215.656 44.4283 204.886 33.658C195.552 24.3238 186.217 14.9895 176.883 5.58997C176.492 5.19832 175.839 4.87195 175.904 4.15393C165.852 4.15393 155.8 4.15393 145.812 4.15393Z" fill="#F4AEC5"/>
<path d="M175.839 4.15393C175.839 4.87195 176.426 5.19832 176.818 5.58997C186.152 14.9242 195.487 24.2585 204.821 33.658C215.591 44.4283 226.427 55.2639 237.197 66.0342C238.502 67.3397 238.372 67.3397 239.677 66.0342C259.782 45.9297 279.952 25.7598 300.056 5.65525C300.448 5.2636 301.036 4.93722 301.036 4.2192C259.325 4.15393 217.615 4.15393 175.839 4.15393Z" fill="white"/>
<path d="M281.257 148.868C281.192 148.933 281.127 149.064 281.062 149.129C281.127 148.998 281.192 148.933 281.257 148.868Z" fill="#0A5760"/>
</g>
<mask id="path-15-outside-2_109_135" maskUnits="userSpaceOnUse" x="113.002" y="0" width="251" height="360" fill="black">
<rect fill="white" x="113.002" width="251" height="360"/>
<path d="M235.956 331.637C234.52 328.96 232.692 326.48 230.93 324.13C230.081 322.955 229.232 321.78 228.449 320.736C227.731 319.626 227.078 318.582 226.621 317.603C225.316 314.731 224.467 311.663 223.945 308.464C223.423 305.266 223.227 301.937 223.227 298.673C223.227 297.433 223.227 296.258 223.292 295.018C223.423 292.668 223.554 290.318 223.945 288.033C224.337 285.749 224.859 283.595 225.773 281.506C225.969 281.114 226.23 280.527 226.687 279.939C227.405 278.829 228.514 277.459 229.755 276.023C231.582 273.803 233.671 271.323 235.303 268.777C236.152 267.472 236.87 266.166 237.457 264.795C237.979 263.425 238.371 261.989 238.371 260.487C238.371 259.769 238.306 259.051 238.11 258.333C237.849 257.289 237.327 256.244 236.543 255.331C235.825 254.417 234.846 253.568 233.671 252.85C231.713 251.61 229.559 250.892 227.47 250.5C225.316 250.109 223.162 249.978 221.073 249.978C218.201 249.978 215.329 250.174 212.849 250.174C205.016 250.174 197.117 250.239 189.284 250.239C187.848 250.239 186.412 250.239 184.976 250.239C174.598 250.304 164.154 250.304 153.775 250.304C149.924 250.304 146.007 250.304 142.156 250.304H142.091C140.72 250.304 139.415 250.37 138.174 250.631C137.261 250.827 136.347 251.088 135.563 251.545C134.911 251.871 134.388 252.263 133.866 252.72C133.083 253.438 132.496 254.417 132.104 255.461C131.712 256.506 131.516 257.681 131.516 258.986C131.516 259.704 131.582 260.487 131.712 261.336C133.932 277.524 135.563 293.843 137.979 310.161C139.088 317.341 141.177 323.804 144.18 329.548C148.684 338.164 155.211 345.083 163.305 349.848C171.399 354.613 181.125 357.224 191.895 357.485C195.224 357.551 198.553 357.551 201.882 357.551C207.953 357.551 214.023 357.485 220.094 357.485H220.225C223.423 357.485 226.165 357.42 228.384 357.224C230.081 357.094 231.582 356.833 232.888 356.376C233.867 356.049 234.781 355.592 235.564 355.005C236.152 354.548 236.674 354.026 237.131 353.373C237.783 352.459 238.175 351.35 238.436 350.24C238.697 349.065 238.763 347.825 238.763 346.454C238.763 344.039 238.501 341.101 238.045 337.577C237.653 335.292 236.87 333.399 235.956 331.637ZM228.253 346.584C228.058 346.584 227.862 346.65 227.601 346.65C226.621 346.78 225.447 346.846 224.141 346.846C222.836 346.911 221.4 346.911 220.029 346.911H219.898C216.83 346.911 213.762 346.911 210.76 346.976C207.757 346.976 204.689 347.041 201.687 347.041C197.966 347.041 194.833 347.041 191.895 346.976C185.825 346.846 180.342 345.866 175.381 344.039C167.94 341.363 161.869 336.924 157.169 330.919C152.535 324.913 149.336 317.407 148.031 308.399C146.595 299.13 145.485 289.6 144.376 280.396C143.592 273.869 142.809 267.145 141.895 260.487C141.96 260.487 141.96 260.487 142.026 260.487H142.091C145.812 260.487 198.358 260.422 202.927 260.357C206.256 260.357 209.52 260.357 212.849 260.291C214.285 260.291 215.655 260.226 217.026 260.161C218.397 260.096 219.768 260.03 221.073 260.03C222.901 260.03 224.402 260.161 225.577 260.357C226.426 260.553 227.144 260.748 227.731 261.01C227.601 261.336 227.34 261.793 227.013 262.315C226.426 263.294 225.708 264.339 224.859 265.383C224.01 266.427 223.097 267.537 222.248 268.647C221.008 270.148 219.898 271.519 218.854 272.955C217.809 274.391 216.961 275.762 216.308 277.328C215.068 280.331 214.285 283.464 213.828 286.336C213.371 289.273 213.175 292.015 213.044 294.365C212.979 295.736 212.979 297.041 212.979 298.347C212.979 302.916 213.305 307.093 214.023 310.945C214.741 314.796 215.851 318.386 217.287 321.65C218.005 323.281 218.984 324.848 219.898 326.284C220.877 327.785 221.922 329.156 222.901 330.527C224.01 332.028 225.185 333.595 226.099 335.031C226.556 335.749 226.883 336.402 227.144 336.989C227.405 337.577 227.535 338.099 227.601 338.36C227.731 339.665 227.927 341.036 228.058 342.342C228.188 343.647 228.253 344.887 228.253 345.866C228.253 345.932 228.253 345.997 228.253 346.062C228.253 346.389 228.253 346.519 228.253 346.584ZM251.099 312.968C251.883 304.548 251.752 295.931 251.099 287.511C250.577 280.788 246.334 276.153 239.415 276.153C239.35 276.153 239.219 276.153 239.154 276.153C231.713 276.284 227.601 281.114 226.883 288.36C226.491 292.276 226.817 296.258 226.817 300.24C226.817 304.221 226.491 308.203 226.883 312.12C227.535 318.843 230.538 323.673 238.11 324.065C238.436 324.065 238.763 324.065 239.024 324.065C246.204 323.999 250.447 319.822 251.099 312.968ZM245.094 312.381C244.703 316.232 242.875 317.929 239.024 317.929C238.828 317.929 238.567 317.929 238.371 317.929C235.629 317.798 234.846 316.819 234.52 316.493C233.671 315.514 233.149 313.817 232.953 311.532C232.757 309.182 232.823 306.636 232.888 304.025C232.888 302.785 232.953 301.545 232.953 300.305C232.953 298.999 232.953 297.629 232.888 296.388C232.823 293.777 232.757 291.362 233.018 289.078C233.279 286.793 233.932 284.965 234.977 283.856C235.956 282.811 237.392 282.354 239.35 282.289C239.415 282.289 239.481 282.289 239.546 282.289C241.243 282.289 242.614 282.746 243.528 283.66C244.507 284.639 245.029 286.14 245.225 288.033C245.747 297.106 245.747 305.07 245.094 312.381ZM325.839 38.3579C314.807 27.196 301.622 18.1228 286.87 11.7912C272.118 5.45955 255.864 2 238.632 2C227.731 2 216.504 3.37077 205.016 6.3734C191.765 9.83295 179.493 15.5771 168.527 23.149C152.143 34.5067 138.762 49.9115 129.493 67.4704C120.224 85.0293 115.002 104.873 115.002 125.043C115.002 130.265 115.328 135.552 116.046 140.774C120.354 172.367 124.401 204.025 128.253 235.683C128.449 237.576 128.84 239.208 129.428 240.709C129.885 241.819 130.407 242.863 131.125 243.712C131.647 244.365 132.3 244.952 133.018 245.474C134.062 246.192 135.302 246.714 136.673 247.041C138.044 247.367 139.48 247.498 141.177 247.498C141.242 247.498 141.373 247.498 141.438 247.498C156.517 247.367 171.595 247.367 186.608 247.367C204.102 247.367 221.53 247.432 239.024 247.432C239.35 247.432 239.742 247.432 240.068 247.432C257.17 247.432 274.272 247.367 291.374 247.367C305.538 247.367 319.703 247.432 333.868 247.694C334.063 247.694 334.325 247.694 334.52 247.694C336.87 247.694 338.959 247.498 340.852 246.91C342.223 246.519 343.463 245.931 344.573 245.083C345.356 244.495 346.074 243.777 346.727 242.928C347.641 241.688 348.293 240.317 348.75 238.686C349.207 237.119 349.534 235.357 349.729 233.398C352.863 202.524 355.996 171.714 360.173 141.035C360.957 135.421 361.283 129.873 361.283 124.39C361.348 91.2956 347.902 60.6818 325.839 38.3579ZM349.925 139.664C345.617 171.257 342.353 203.764 339.416 232.354C339.22 234.116 338.959 235.226 338.763 235.879C338.633 236.205 338.567 236.466 338.437 236.532C338.372 236.597 338.372 236.662 338.372 236.662C338.306 236.662 338.176 236.727 337.98 236.858C337.588 236.988 337.066 237.119 336.413 237.119C335.761 237.184 335.108 237.184 334.52 237.184C334.39 237.184 334.194 237.184 334.063 237.184C321.661 236.988 308.149 236.858 291.374 236.858C282.823 236.858 274.141 236.858 265.721 236.923C257.301 236.923 248.619 236.988 240.133 236.988H239.089C230.734 236.988 222.248 236.988 214.023 236.988C205.081 236.988 195.812 236.988 186.673 236.988C168.919 236.988 154.493 237.054 141.373 237.119C141.308 237.119 141.242 237.119 141.242 237.119C140.328 237.119 139.61 237.054 139.219 236.988H139.154C139.088 236.923 139.088 236.793 139.023 236.662C138.892 236.205 138.762 235.487 138.631 234.443C134.715 201.805 130.603 169.821 126.425 139.338C125.772 134.573 125.446 129.742 125.446 124.977C125.446 116.426 126.49 107.81 128.514 99.2591C131.647 86.2695 136.999 73.9326 144.376 62.6401C159.65 39.4023 182.104 22.9531 207.627 16.2951C218.005 13.6189 228.384 12.2481 238.632 12.2481C255.277 12.2481 271.204 15.7729 286.021 22.692C293.136 26.0863 299.925 30.1333 306.191 34.8331C312.392 39.5329 318.136 44.8201 323.228 50.6948C328.385 56.5696 332.888 62.9665 336.674 69.755C340.526 76.6088 343.659 83.8543 345.943 91.3609C349.272 102.131 350.97 113.163 350.97 124.325C350.97 129.481 350.643 134.573 349.925 139.664ZM343.528 252.785C342.941 252.263 342.288 251.806 341.635 251.479C340.591 250.957 339.481 250.631 338.241 250.435C337.001 250.239 335.695 250.174 334.325 250.174C334.194 250.174 334.063 250.174 333.933 250.174C328.45 250.239 322.967 250.239 317.484 250.239C310.303 250.239 303.123 250.239 295.943 250.239V250.174H293.789C286.544 250.174 279.233 250.043 271.922 250.043C266.113 250.043 260.303 250.109 254.428 250.435C252.731 250.5 251.099 250.761 249.468 251.284C248.227 251.61 247.052 252.132 245.943 252.72C244.246 253.633 242.744 254.874 241.635 256.44C241.112 257.224 240.655 258.137 240.329 259.117C240.003 260.096 239.872 261.14 239.872 262.25C239.872 262.968 239.938 263.751 240.068 264.534C240.394 266.297 241.112 267.929 241.961 269.365C243.266 271.519 244.833 273.346 246.334 275.109C247.836 276.871 249.272 278.503 250.186 280.2C251.948 283.333 253.123 286.858 253.841 290.514C254.559 294.169 254.82 298.02 254.82 301.806C254.82 302.589 254.82 303.373 254.755 304.156C254.69 306.636 254.494 309.117 254.167 311.467C253.776 313.817 253.253 316.167 252.405 318.321C251.491 320.67 250.316 322.498 248.945 324.195C247.966 325.436 246.857 326.61 245.812 327.785C245.029 328.634 244.18 329.548 243.462 330.462C242.287 331.832 241.243 333.334 240.46 335.096C239.676 336.859 239.219 338.882 239.219 341.232C239.219 343.582 239.676 346.258 240.721 349.326C240.982 350.044 241.243 350.827 241.635 351.545C242.026 352.329 242.548 353.112 243.332 353.765C243.789 354.156 244.311 354.548 244.768 354.809C245.551 355.201 246.334 355.462 247.052 355.658C247.77 355.853 248.488 355.984 249.206 356.115C256.256 357.29 263.371 357.551 270.355 357.551C276.23 357.551 282.105 357.355 287.849 357.29C301.687 357.094 314.22 351.872 323.62 343.19C333.019 334.574 339.351 322.498 340.852 308.725C342.484 293.582 343.528 278.373 345.748 263.49C345.943 262.184 346.074 261.01 346.074 259.965C346.074 258.268 345.813 256.767 345.291 255.461C344.899 254.352 344.312 253.503 343.528 252.785ZM335.63 261.858C334.063 272.302 333.019 282.877 332.105 293.059C331.648 297.824 331.191 302.72 330.669 307.55C329.429 318.843 324.338 328.569 316.766 335.488C309.129 342.472 299.076 346.65 287.784 346.846C285.564 346.846 283.345 346.911 281.256 346.976C277.666 347.041 274.011 347.107 270.421 347.107C262.457 347.107 256.452 346.715 250.969 345.801C250.838 345.801 250.708 345.736 250.577 345.736C249.859 343.517 249.663 342.015 249.663 341.101C249.663 340.579 249.729 340.253 249.794 339.992C249.794 339.861 249.859 339.796 249.859 339.665C249.859 339.6 249.924 339.535 249.924 339.404C250.055 339.143 250.186 338.817 250.381 338.49C250.708 337.968 251.099 337.446 251.622 336.793C252.144 336.141 252.797 335.488 253.515 334.705C256.191 331.832 259.781 327.981 262.131 322.041C263.371 318.843 264.154 315.644 264.546 312.642C265.003 309.639 265.133 306.767 265.199 304.352C265.199 303.438 265.264 302.589 265.264 301.741C265.264 296.388 264.807 291.493 263.828 287.054C262.849 282.615 261.348 278.634 259.324 274.978C257.823 272.237 255.93 270.083 254.167 268.124C253.123 266.884 252.144 265.84 251.491 264.861C251.165 264.404 250.904 263.947 250.708 263.555C250.512 263.164 250.381 262.837 250.316 262.511C250.251 262.315 250.251 262.184 250.251 262.119C250.316 262.054 250.447 261.923 250.643 261.793C251.034 261.532 251.687 261.271 252.47 261.075C253.254 260.879 254.102 260.748 255.016 260.683C259.911 260.422 265.264 260.291 271.922 260.291C275.512 260.291 279.233 260.357 282.823 260.357C286.087 260.357 289.416 260.422 292.745 260.422C293.071 260.487 293.463 260.487 293.854 260.487C297.771 260.487 301.818 260.487 305.669 260.487C309.585 260.487 313.567 260.487 317.549 260.487C323.946 260.487 329.233 260.487 334.129 260.422C334.194 260.422 334.325 260.422 334.39 260.422C334.977 260.422 335.434 260.422 335.761 260.487C335.695 260.879 335.695 261.336 335.63 261.858Z"/>
</mask>
<path d="M235.956 331.637C234.52 328.96 232.692 326.48 230.93 324.13C230.081 322.955 229.232 321.78 228.449 320.736C227.731 319.626 227.078 318.582 226.621 317.603C225.316 314.731 224.467 311.663 223.945 308.464C223.423 305.266 223.227 301.937 223.227 298.673C223.227 297.433 223.227 296.258 223.292 295.018C223.423 292.668 223.554 290.318 223.945 288.033C224.337 285.749 224.859 283.595 225.773 281.506C225.969 281.114 226.23 280.527 226.687 279.939C227.405 278.829 228.514 277.459 229.755 276.023C231.582 273.803 233.671 271.323 235.303 268.777C236.152 267.472 236.87 266.166 237.457 264.795C237.979 263.425 238.371 261.989 238.371 260.487C238.371 259.769 238.306 259.051 238.11 258.333C237.849 257.289 237.327 256.244 236.543 255.331C235.825 254.417 234.846 253.568 233.671 252.85C231.713 251.61 229.559 250.892 227.47 250.5C225.316 250.109 223.162 249.978 221.073 249.978C218.201 249.978 215.329 250.174 212.849 250.174C205.016 250.174 197.117 250.239 189.284 250.239C187.848 250.239 186.412 250.239 184.976 250.239C174.598 250.304 164.154 250.304 153.775 250.304C149.924 250.304 146.007 250.304 142.156 250.304H142.091C140.72 250.304 139.415 250.37 138.174 250.631C137.261 250.827 136.347 251.088 135.563 251.545C134.911 251.871 134.388 252.263 133.866 252.72C133.083 253.438 132.496 254.417 132.104 255.461C131.712 256.506 131.516 257.681 131.516 258.986C131.516 259.704 131.582 260.487 131.712 261.336C133.932 277.524 135.563 293.843 137.979 310.161C139.088 317.341 141.177 323.804 144.18 329.548C148.684 338.164 155.211 345.083 163.305 349.848C171.399 354.613 181.125 357.224 191.895 357.485C195.224 357.551 198.553 357.551 201.882 357.551C207.953 357.551 214.023 357.485 220.094 357.485H220.225C223.423 357.485 226.165 357.42 228.384 357.224C230.081 357.094 231.582 356.833 232.888 356.376C233.867 356.049 234.781 355.592 235.564 355.005C236.152 354.548 236.674 354.026 237.131 353.373C237.783 352.459 238.175 351.35 238.436 350.24C238.697 349.065 238.763 347.825 238.763 346.454C238.763 344.039 238.501 341.101 238.045 337.577C237.653 335.292 236.87 333.399 235.956 331.637ZM228.253 346.584C228.058 346.584 227.862 346.65 227.601 346.65C226.621 346.78 225.447 346.846 224.141 346.846C222.836 346.911 221.4 346.911 220.029 346.911H219.898C216.83 346.911 213.762 346.911 210.76 346.976C207.757 346.976 204.689 347.041 201.687 347.041C197.966 347.041 194.833 347.041 191.895 346.976C185.825 346.846 180.342 345.866 175.381 344.039C167.94 341.363 161.869 336.924 157.169 330.919C152.535 324.913 149.336 317.407 148.031 308.399C146.595 299.13 145.485 289.6 144.376 280.396C143.592 273.869 142.809 267.145 141.895 260.487C141.96 260.487 141.96 260.487 142.026 260.487H142.091C145.812 260.487 198.358 260.422 202.927 260.357C206.256 260.357 209.52 260.357 212.849 260.291C214.285 260.291 215.655 260.226 217.026 260.161C218.397 260.096 219.768 260.03 221.073 260.03C222.901 260.03 224.402 260.161 225.577 260.357C226.426 260.553 227.144 260.748 227.731 261.01C227.601 261.336 227.34 261.793 227.013 262.315C226.426 263.294 225.708 264.339 224.859 265.383C224.01 266.427 223.097 267.537 222.248 268.647C221.008 270.148 219.898 271.519 218.854 272.955C217.809 274.391 216.961 275.762 216.308 277.328C215.068 280.331 214.285 283.464 213.828 286.336C213.371 289.273 213.175 292.015 213.044 294.365C212.979 295.736 212.979 297.041 212.979 298.347C212.979 302.916 213.305 307.093 214.023 310.945C214.741 314.796 215.851 318.386 217.287 321.65C218.005 323.281 218.984 324.848 219.898 326.284C220.877 327.785 221.922 329.156 222.901 330.527C224.01 332.028 225.185 333.595 226.099 335.031C226.556 335.749 226.883 336.402 227.144 336.989C227.405 337.577 227.535 338.099 227.601 338.36C227.731 339.665 227.927 341.036 228.058 342.342C228.188 343.647 228.253 344.887 228.253 345.866C228.253 345.932 228.253 345.997 228.253 346.062C228.253 346.389 228.253 346.519 228.253 346.584ZM251.099 312.968C251.883 304.548 251.752 295.931 251.099 287.511C250.577 280.788 246.334 276.153 239.415 276.153C239.35 276.153 239.219 276.153 239.154 276.153C231.713 276.284 227.601 281.114 226.883 288.36C226.491 292.276 226.817 296.258 226.817 300.24C226.817 304.221 226.491 308.203 226.883 312.12C227.535 318.843 230.538 323.673 238.11 324.065C238.436 324.065 238.763 324.065 239.024 324.065C246.204 323.999 250.447 319.822 251.099 312.968ZM245.094 312.381C244.703 316.232 242.875 317.929 239.024 317.929C238.828 317.929 238.567 317.929 238.371 317.929C235.629 317.798 234.846 316.819 234.52 316.493C233.671 315.514 233.149 313.817 232.953 311.532C232.757 309.182 232.823 306.636 232.888 304.025C232.888 302.785 232.953 301.545 232.953 300.305C232.953 298.999 232.953 297.629 232.888 296.388C232.823 293.777 232.757 291.362 233.018 289.078C233.279 286.793 233.932 284.965 234.977 283.856C235.956 282.811 237.392 282.354 239.35 282.289C239.415 282.289 239.481 282.289 239.546 282.289C241.243 282.289 242.614 282.746 243.528 283.66C244.507 284.639 245.029 286.14 245.225 288.033C245.747 297.106 245.747 305.07 245.094 312.381ZM325.839 38.3579C314.807 27.196 301.622 18.1228 286.87 11.7912C272.118 5.45955 255.864 2 238.632 2C227.731 2 216.504 3.37077 205.016 6.3734C191.765 9.83295 179.493 15.5771 168.527 23.149C152.143 34.5067 138.762 49.9115 129.493 67.4704C120.224 85.0293 115.002 104.873 115.002 125.043C115.002 130.265 115.328 135.552 116.046 140.774C120.354 172.367 124.401 204.025 128.253 235.683C128.449 237.576 128.84 239.208 129.428 240.709C129.885 241.819 130.407 242.863 131.125 243.712C131.647 244.365 132.3 244.952 133.018 245.474C134.062 246.192 135.302 246.714 136.673 247.041C138.044 247.367 139.48 247.498 141.177 247.498C141.242 247.498 141.373 247.498 141.438 247.498C156.517 247.367 171.595 247.367 186.608 247.367C204.102 247.367 221.53 247.432 239.024 247.432C239.35 247.432 239.742 247.432 240.068 247.432C257.17 247.432 274.272 247.367 291.374 247.367C305.538 247.367 319.703 247.432 333.868 247.694C334.063 247.694 334.325 247.694 334.52 247.694C336.87 247.694 338.959 247.498 340.852 246.91C342.223 246.519 343.463 245.931 344.573 245.083C345.356 244.495 346.074 243.777 346.727 242.928C347.641 241.688 348.293 240.317 348.75 238.686C349.207 237.119 349.534 235.357 349.729 233.398C352.863 202.524 355.996 171.714 360.173 141.035C360.957 135.421 361.283 129.873 361.283 124.39C361.348 91.2956 347.902 60.6818 325.839 38.3579ZM349.925 139.664C345.617 171.257 342.353 203.764 339.416 232.354C339.22 234.116 338.959 235.226 338.763 235.879C338.633 236.205 338.567 236.466 338.437 236.532C338.372 236.597 338.372 236.662 338.372 236.662C338.306 236.662 338.176 236.727 337.98 236.858C337.588 236.988 337.066 237.119 336.413 237.119C335.761 237.184 335.108 237.184 334.52 237.184C334.39 237.184 334.194 237.184 334.063 237.184C321.661 236.988 308.149 236.858 291.374 236.858C282.823 236.858 274.141 236.858 265.721 236.923C257.301 236.923 248.619 236.988 240.133 236.988H239.089C230.734 236.988 222.248 236.988 214.023 236.988C205.081 236.988 195.812 236.988 186.673 236.988C168.919 236.988 154.493 237.054 141.373 237.119C141.308 237.119 141.242 237.119 141.242 237.119C140.328 237.119 139.61 237.054 139.219 236.988H139.154C139.088 236.923 139.088 236.793 139.023 236.662C138.892 236.205 138.762 235.487 138.631 234.443C134.715 201.805 130.603 169.821 126.425 139.338C125.772 134.573 125.446 129.742 125.446 124.977C125.446 116.426 126.49 107.81 128.514 99.2591C131.647 86.2695 136.999 73.9326 144.376 62.6401C159.65 39.4023 182.104 22.9531 207.627 16.2951C218.005 13.6189 228.384 12.2481 238.632 12.2481C255.277 12.2481 271.204 15.7729 286.021 22.692C293.136 26.0863 299.925 30.1333 306.191 34.8331C312.392 39.5329 318.136 44.8201 323.228 50.6948C328.385 56.5696 332.888 62.9665 336.674 69.755C340.526 76.6088 343.659 83.8543 345.943 91.3609C349.272 102.131 350.97 113.163 350.97 124.325C350.97 129.481 350.643 134.573 349.925 139.664ZM343.528 252.785C342.941 252.263 342.288 251.806 341.635 251.479C340.591 250.957 339.481 250.631 338.241 250.435C337.001 250.239 335.695 250.174 334.325 250.174C334.194 250.174 334.063 250.174 333.933 250.174C328.45 250.239 322.967 250.239 317.484 250.239C310.303 250.239 303.123 250.239 295.943 250.239V250.174H293.789C286.544 250.174 279.233 250.043 271.922 250.043C266.113 250.043 260.303 250.109 254.428 250.435C252.731 250.5 251.099 250.761 249.468 251.284C248.227 251.61 247.052 252.132 245.943 252.72C244.246 253.633 242.744 254.874 241.635 256.44C241.112 257.224 240.655 258.137 240.329 259.117C240.003 260.096 239.872 261.14 239.872 262.25C239.872 262.968 239.938 263.751 240.068 264.534C240.394 266.297 241.112 267.929 241.961 269.365C243.266 271.519 244.833 273.346 246.334 275.109C247.836 276.871 249.272 278.503 250.186 280.2C251.948 283.333 253.123 286.858 253.841 290.514C254.559 294.169 254.82 298.02 254.82 301.806C254.82 302.589 254.82 303.373 254.755 304.156C254.69 306.636 254.494 309.117 254.167 311.467C253.776 313.817 253.253 316.167 252.405 318.321C251.491 320.67 250.316 322.498 248.945 324.195C247.966 325.436 246.857 326.61 245.812 327.785C245.029 328.634 244.18 329.548 243.462 330.462C242.287 331.832 241.243 333.334 240.46 335.096C239.676 336.859 239.219 338.882 239.219 341.232C239.219 343.582 239.676 346.258 240.721 349.326C240.982 350.044 241.243 350.827 241.635 351.545C242.026 352.329 242.548 353.112 243.332 353.765C243.789 354.156 244.311 354.548 244.768 354.809C245.551 355.201 246.334 355.462 247.052 355.658C247.77 355.853 248.488 355.984 249.206 356.115C256.256 357.29 263.371 357.551 270.355 357.551C276.23 357.551 282.105 357.355 287.849 357.29C301.687 357.094 314.22 351.872 323.62 343.19C333.019 334.574 339.351 322.498 340.852 308.725C342.484 293.582 343.528 278.373 345.748 263.49C345.943 262.184 346.074 261.01 346.074 259.965C346.074 258.268 345.813 256.767 345.291 255.461C344.899 254.352 344.312 253.503 343.528 252.785ZM335.63 261.858C334.063 272.302 333.019 282.877 332.105 293.059C331.648 297.824 331.191 302.72 330.669 307.55C329.429 318.843 324.338 328.569 316.766 335.488C309.129 342.472 299.076 346.65 287.784 346.846C285.564 346.846 283.345 346.911 281.256 346.976C277.666 347.041 274.011 347.107 270.421 347.107C262.457 347.107 256.452 346.715 250.969 345.801C250.838 345.801 250.708 345.736 250.577 345.736C249.859 343.517 249.663 342.015 249.663 341.101C249.663 340.579 249.729 340.253 249.794 339.992C249.794 339.861 249.859 339.796 249.859 339.665C249.859 339.6 249.924 339.535 249.924 339.404C250.055 339.143 250.186 338.817 250.381 338.49C250.708 337.968 251.099 337.446 251.622 336.793C252.144 336.141 252.797 335.488 253.515 334.705C256.191 331.832 259.781 327.981 262.131 322.041C263.371 318.843 264.154 315.644 264.546 312.642C265.003 309.639 265.133 306.767 265.199 304.352C265.199 303.438 265.264 302.589 265.264 301.741C265.264 296.388 264.807 291.493 263.828 287.054C262.849 282.615 261.348 278.634 259.324 274.978C257.823 272.237 255.93 270.083 254.167 268.124C253.123 266.884 252.144 265.84 251.491 264.861C251.165 264.404 250.904 263.947 250.708 263.555C250.512 263.164 250.381 262.837 250.316 262.511C250.251 262.315 250.251 262.184 250.251 262.119C250.316 262.054 250.447 261.923 250.643 261.793C251.034 261.532 251.687 261.271 252.47 261.075C253.254 260.879 254.102 260.748 255.016 260.683C259.911 260.422 265.264 260.291 271.922 260.291C275.512 260.291 279.233 260.357 282.823 260.357C286.087 260.357 289.416 260.422 292.745 260.422C293.071 260.487 293.463 260.487 293.854 260.487C297.771 260.487 301.818 260.487 305.669 260.487C309.585 260.487 313.567 260.487 317.549 260.487C323.946 260.487 329.233 260.487 334.129 260.422C334.194 260.422 334.325 260.422 334.39 260.422C334.977 260.422 335.434 260.422 335.761 260.487C335.695 260.879 335.695 261.336 335.63 261.858Z" fill="white"/>
<path d="M235.956 331.637C234.52 328.96 232.692 326.48 230.93 324.13C230.081 322.955 229.232 321.78 228.449 320.736C227.731 319.626 227.078 318.582 226.621 317.603C225.316 314.731 224.467 311.663 223.945 308.464C223.423 305.266 223.227 301.937 223.227 298.673C223.227 297.433 223.227 296.258 223.292 295.018C223.423 292.668 223.554 290.318 223.945 288.033C224.337 285.749 224.859 283.595 225.773 281.506C225.969 281.114 226.23 280.527 226.687 279.939C227.405 278.829 228.514 277.459 229.755 276.023C231.582 273.803 233.671 271.323 235.303 268.777C236.152 267.472 236.87 266.166 237.457 264.795C237.979 263.425 238.371 261.989 238.371 260.487C238.371 259.769 238.306 259.051 238.11 258.333C237.849 257.289 237.327 256.244 236.543 255.331C235.825 254.417 234.846 253.568 233.671 252.85C231.713 251.61 229.559 250.892 227.47 250.5C225.316 250.109 223.162 249.978 221.073 249.978C218.201 249.978 215.329 250.174 212.849 250.174C205.016 250.174 197.117 250.239 189.284 250.239C187.848 250.239 186.412 250.239 184.976 250.239C174.598 250.304 164.154 250.304 153.775 250.304C149.924 250.304 146.007 250.304 142.156 250.304H142.091C140.72 250.304 139.415 250.37 138.174 250.631C137.261 250.827 136.347 251.088 135.563 251.545C134.911 251.871 134.388 252.263 133.866 252.72C133.083 253.438 132.496 254.417 132.104 255.461C131.712 256.506 131.516 257.681 131.516 258.986C131.516 259.704 131.582 260.487 131.712 261.336C133.932 277.524 135.563 293.843 137.979 310.161C139.088 317.341 141.177 323.804 144.18 329.548C148.684 338.164 155.211 345.083 163.305 349.848C171.399 354.613 181.125 357.224 191.895 357.485C195.224 357.551 198.553 357.551 201.882 357.551C207.953 357.551 214.023 357.485 220.094 357.485H220.225C223.423 357.485 226.165 357.42 228.384 357.224C230.081 357.094 231.582 356.833 232.888 356.376C233.867 356.049 234.781 355.592 235.564 355.005C236.152 354.548 236.674 354.026 237.131 353.373C237.783 352.459 238.175 351.35 238.436 350.24C238.697 349.065 238.763 347.825 238.763 346.454C238.763 344.039 238.501 341.101 238.045 337.577C237.653 335.292 236.87 333.399 235.956 331.637ZM228.253 346.584C228.058 346.584 227.862 346.65 227.601 346.65C226.621 346.78 225.447 346.846 224.141 346.846C222.836 346.911 221.4 346.911 220.029 346.911H219.898C216.83 346.911 213.762 346.911 210.76 346.976C207.757 346.976 204.689 347.041 201.687 347.041C197.966 347.041 194.833 347.041 191.895 346.976C185.825 346.846 180.342 345.866 175.381 344.039C167.94 341.363 161.869 336.924 157.169 330.919C152.535 324.913 149.336 317.407 148.031 308.399C146.595 299.13 145.485 289.6 144.376 280.396C143.592 273.869 142.809 267.145 141.895 260.487C141.96 260.487 141.96 260.487 142.026 260.487H142.091C145.812 260.487 198.358 260.422 202.927 260.357C206.256 260.357 209.52 260.357 212.849 260.291C214.285 260.291 215.655 260.226 217.026 260.161C218.397 260.096 219.768 260.03 221.073 260.03C222.901 260.03 224.402 260.161 225.577 260.357C226.426 260.553 227.144 260.748 227.731 261.01C227.601 261.336 227.34 261.793 227.013 262.315C226.426 263.294 225.708 264.339 224.859 265.383C224.01 266.427 223.097 267.537 222.248 268.647C221.008 270.148 219.898 271.519 218.854 272.955C217.809 274.391 216.961 275.762 216.308 277.328C215.068 280.331 214.285 283.464 213.828 286.336C213.371 289.273 213.175 292.015 213.044 294.365C212.979 295.736 212.979 297.041 212.979 298.347C212.979 302.916 213.305 307.093 214.023 310.945C214.741 314.796 215.851 318.386 217.287 321.65C218.005 323.281 218.984 324.848 219.898 326.284C220.877 327.785 221.922 329.156 222.901 330.527C224.01 332.028 225.185 333.595 226.099 335.031C226.556 335.749 226.883 336.402 227.144 336.989C227.405 337.577 227.535 338.099 227.601 338.36C227.731 339.665 227.927 341.036 228.058 342.342C228.188 343.647 228.253 344.887 228.253 345.866C228.253 345.932 228.253 345.997 228.253 346.062C228.253 346.389 228.253 346.519 228.253 346.584ZM251.099 312.968C251.883 304.548 251.752 295.931 251.099 287.511C250.577 280.788 246.334 276.153 239.415 276.153C239.35 276.153 239.219 276.153 239.154 276.153C231.713 276.284 227.601 281.114 226.883 288.36C226.491 292.276 226.817 296.258 226.817 300.24C226.817 304.221 226.491 308.203 226.883 312.12C227.535 318.843 230.538 323.673 238.11 324.065C238.436 324.065 238.763 324.065 239.024 324.065C246.204 323.999 250.447 319.822 251.099 312.968ZM245.094 312.381C244.703 316.232 242.875 317.929 239.024 317.929C238.828 317.929 238.567 317.929 238.371 317.929C235.629 317.798 234.846 316.819 234.52 316.493C233.671 315.514 233.149 313.817 232.953 311.532C232.757 309.182 232.823 306.636 232.888 304.025C232.888 302.785 232.953 301.545 232.953 300.305C232.953 298.999 232.953 297.629 232.888 296.388C232.823 293.777 232.757 291.362 233.018 289.078C233.279 286.793 233.932 284.965 234.977 283.856C235.956 282.811 237.392 282.354 239.35 282.289C239.415 282.289 239.481 282.289 239.546 282.289C241.243 282.289 242.614 282.746 243.528 283.66C244.507 284.639 245.029 286.14 245.225 288.033C245.747 297.106 245.747 305.07 245.094 312.381ZM325.839 38.3579C314.807 27.196 301.622 18.1228 286.87 11.7912C272.118 5.45955 255.864 2 238.632 2C227.731 2 216.504 3.37077 205.016 6.3734C191.765 9.83295 179.493 15.5771 168.527 23.149C152.143 34.5067 138.762 49.9115 129.493 67.4704C120.224 85.0293 115.002 104.873 115.002 125.043C115.002 130.265 115.328 135.552 116.046 140.774C120.354 172.367 124.401 204.025 128.253 235.683C128.449 237.576 128.84 239.208 129.428 240.709C129.885 241.819 130.407 242.863 131.125 243.712C131.647 244.365 132.3 244.952 133.018 245.474C134.062 246.192 135.302 246.714 136.673 247.041C138.044 247.367 139.48 247.498 141.177 247.498C141.242 247.498 141.373 247.498 141.438 247.498C156.517 247.367 171.595 247.367 186.608 247.367C204.102 247.367 221.53 247.432 239.024 247.432C239.35 247.432 239.742 247.432 240.068 247.432C257.17 247.432 274.272 247.367 291.374 247.367C305.538 247.367 319.703 247.432 333.868 247.694C334.063 247.694 334.325 247.694 334.52 247.694C336.87 247.694 338.959 247.498 340.852 246.91C342.223 246.519 343.463 245.931 344.573 245.083C345.356 244.495 346.074 243.777 346.727 242.928C347.641 241.688 348.293 240.317 348.75 238.686C349.207 237.119 349.534 235.357 349.729 233.398C352.863 202.524 355.996 171.714 360.173 141.035C360.957 135.421 361.283 129.873 361.283 124.39C361.348 91.2956 347.902 60.6818 325.839 38.3579ZM349.925 139.664C345.617 171.257 342.353 203.764 339.416 232.354C339.22 234.116 338.959 235.226 338.763 235.879C338.633 236.205 338.567 236.466 338.437 236.532C338.372 236.597 338.372 236.662 338.372 236.662C338.306 236.662 338.176 236.727 337.98 236.858C337.588 236.988 337.066 237.119 336.413 237.119C335.761 237.184 335.108 237.184 334.52 237.184C334.39 237.184 334.194 237.184 334.063 237.184C321.661 236.988 308.149 236.858 291.374 236.858C282.823 236.858 274.141 236.858 265.721 236.923C257.301 236.923 248.619 236.988 240.133 236.988H239.089C230.734 236.988 222.248 236.988 214.023 236.988C205.081 236.988 195.812 236.988 186.673 236.988C168.919 236.988 154.493 237.054 141.373 237.119C141.308 237.119 141.242 237.119 141.242 237.119C140.328 237.119 139.61 237.054 139.219 236.988H139.154C139.088 236.923 139.088 236.793 139.023 236.662C138.892 236.205 138.762 235.487 138.631 234.443C134.715 201.805 130.603 169.821 126.425 139.338C125.772 134.573 125.446 129.742 125.446 124.977C125.446 116.426 126.49 107.81 128.514 99.2591C131.647 86.2695 136.999 73.9326 144.376 62.6401C159.65 39.4023 182.104 22.9531 207.627 16.2951C218.005 13.6189 228.384 12.2481 238.632 12.2481C255.277 12.2481 271.204 15.7729 286.021 22.692C293.136 26.0863 299.925 30.1333 306.191 34.8331C312.392 39.5329 318.136 44.8201 323.228 50.6948C328.385 56.5696 332.888 62.9665 336.674 69.755C340.526 76.6088 343.659 83.8543 345.943 91.3609C349.272 102.131 350.97 113.163 350.97 124.325C350.97 129.481 350.643 134.573 349.925 139.664ZM343.528 252.785C342.941 252.263 342.288 251.806 341.635 251.479C340.591 250.957 339.481 250.631 338.241 250.435C337.001 250.239 335.695 250.174 334.325 250.174C334.194 250.174 334.063 250.174 333.933 250.174C328.45 250.239 322.967 250.239 317.484 250.239C310.303 250.239 303.123 250.239 295.943 250.239V250.174H293.789C286.544 250.174 279.233 250.043 271.922 250.043C266.113 250.043 260.303 250.109 254.428 250.435C252.731 250.5 251.099 250.761 249.468 251.284C248.227 251.61 247.052 252.132 245.943 252.72C244.246 253.633 242.744 254.874 241.635 256.44C241.112 257.224 240.655 258.137 240.329 259.117C240.003 260.096 239.872 261.14 239.872 262.25C239.872 262.968 239.938 263.751 240.068 264.534C240.394 266.297 241.112 267.929 241.961 269.365C243.266 271.519 244.833 273.346 246.334 275.109C247.836 276.871 249.272 278.503 250.186 280.2C251.948 283.333 253.123 286.858 253.841 290.514C254.559 294.169 254.82 298.02 254.82 301.806C254.82 302.589 254.82 303.373 254.755 304.156C254.69 306.636 254.494 309.117 254.167 311.467C253.776 313.817 253.253 316.167 252.405 318.321C251.491 320.67 250.316 322.498 248.945 324.195C247.966 325.436 246.857 326.61 245.812 327.785C245.029 328.634 244.18 329.548 243.462 330.462C242.287 331.832 241.243 333.334 240.46 335.096C239.676 336.859 239.219 338.882 239.219 341.232C239.219 343.582 239.676 346.258 240.721 349.326C240.982 350.044 241.243 350.827 241.635 351.545C242.026 352.329 242.548 353.112 243.332 353.765C243.789 354.156 244.311 354.548 244.768 354.809C245.551 355.201 246.334 355.462 247.052 355.658C247.77 355.853 248.488 355.984 249.206 356.115C256.256 357.29 263.371 357.551 270.355 357.551C276.23 357.551 282.105 357.355 287.849 357.29C301.687 357.094 314.22 351.872 323.62 343.19C333.019 334.574 339.351 322.498 340.852 308.725C342.484 293.582 343.528 278.373 345.748 263.49C345.943 262.184 346.074 261.01 346.074 259.965C346.074 258.268 345.813 256.767 345.291 255.461C344.899 254.352 344.312 253.503 343.528 252.785ZM335.63 261.858C334.063 272.302 333.019 282.877 332.105 293.059C331.648 297.824 331.191 302.72 330.669 307.55C329.429 318.843 324.338 328.569 316.766 335.488C309.129 342.472 299.076 346.65 287.784 346.846C285.564 346.846 283.345 346.911 281.256 346.976C277.666 347.041 274.011 347.107 270.421 347.107C262.457 347.107 256.452 346.715 250.969 345.801C250.838 345.801 250.708 345.736 250.577 345.736C249.859 343.517 249.663 342.015 249.663 341.101C249.663 340.579 249.729 340.253 249.794 339.992C249.794 339.861 249.859 339.796 249.859 339.665C249.859 339.6 249.924 339.535 249.924 339.404C250.055 339.143 250.186 338.817 250.381 338.49C250.708 337.968 251.099 337.446 251.622 336.793C252.144 336.141 252.797 335.488 253.515 334.705C256.191 331.832 259.781 327.981 262.131 322.041C263.371 318.843 264.154 315.644 264.546 312.642C265.003 309.639 265.133 306.767 265.199 304.352C265.199 303.438 265.264 302.589 265.264 301.741C265.264 296.388 264.807 291.493 263.828 287.054C262.849 282.615 261.348 278.634 259.324 274.978C257.823 272.237 255.93 270.083 254.167 268.124C253.123 266.884 252.144 265.84 251.491 264.861C251.165 264.404 250.904 263.947 250.708 263.555C250.512 263.164 250.381 262.837 250.316 262.511C250.251 262.315 250.251 262.184 250.251 262.119C250.316 262.054 250.447 261.923 250.643 261.793C251.034 261.532 251.687 261.271 252.47 261.075C253.254 260.879 254.102 260.748 255.016 260.683C259.911 260.422 265.264 260.291 271.922 260.291C275.512 260.291 279.233 260.357 282.823 260.357C286.087 260.357 289.416 260.422 292.745 260.422C293.071 260.487 293.463 260.487 293.854 260.487C297.771 260.487 301.818 260.487 305.669 260.487C309.585 260.487 313.567 260.487 317.549 260.487C323.946 260.487 329.233 260.487 334.129 260.422C334.194 260.422 334.325 260.422 334.39 260.422C334.977 260.422 335.434 260.422 335.761 260.487C335.695 260.879 335.695 261.336 335.63 261.858Z" stroke="black" stroke-width="4" mask="url(#path-15-outside-2_109_135)"/>
<path d="M125.657 568.754L125.579 568.789C125.56 569.29 125.438 569.732 125.21 570.116C124.979 570.492 124.614 570.791 124.116 571.013C123.32 571.367 122.553 571.352 121.816 570.967C121.079 570.583 120.449 569.804 119.927 568.632C119.405 567.46 119.248 566.471 119.456 565.666C119.663 564.861 120.165 564.281 120.961 563.927C121.46 563.705 121.928 563.638 122.365 563.726C122.799 563.806 123.208 564.006 123.592 564.328L123.671 564.293L121.848 560.199L123.279 559.562L127.602 569.272L126.171 569.909L125.657 568.754ZM124.186 569.582C124.396 569.488 124.581 569.374 124.742 569.24C124.902 569.106 125.029 568.955 125.122 568.788C125.215 568.621 125.268 568.445 125.281 568.261C125.298 568.065 125.26 567.862 125.167 567.652L124.162 565.395C124.068 565.185 123.945 565.025 123.791 564.915C123.642 564.793 123.474 564.71 123.288 564.668C123.101 564.625 122.904 564.618 122.697 564.648C122.49 564.677 122.281 564.738 122.071 564.832C121.529 565.073 121.183 565.426 121.034 565.891C120.893 566.352 120.945 566.858 121.191 567.409L121.682 568.512C121.927 569.063 122.268 569.44 122.705 569.644C123.15 569.844 123.644 569.823 124.186 569.582Z" fill="black"/>
<path d="M133.788 565.134L133.709 565.169C133.691 565.67 133.568 566.112 133.341 566.497C133.11 566.872 132.745 567.171 132.246 567.393C131.45 567.747 130.683 567.732 129.946 567.348C129.209 566.963 128.579 566.185 128.058 565.012C127.536 563.84 127.378 562.852 127.586 562.046C127.794 561.241 128.295 560.661 129.091 560.307C129.59 560.085 130.058 560.018 130.496 560.106C130.929 560.186 131.338 560.386 131.723 560.708L131.801 560.673L129.979 556.579L131.409 555.942L135.732 565.652L134.302 566.289L133.788 565.134ZM132.317 565.962C132.527 565.868 132.712 565.755 132.872 565.62C133.032 565.486 133.159 565.335 133.252 565.168C133.346 565.001 133.399 564.825 133.411 564.641C133.428 564.445 133.39 564.242 133.297 564.032L132.292 561.775C132.199 561.565 132.075 561.405 131.921 561.295C131.772 561.173 131.605 561.09 131.418 561.048C131.231 561.005 131.034 560.998 130.827 561.028C130.62 561.057 130.412 561.118 130.202 561.212C129.659 561.453 129.314 561.807 129.164 562.271C129.023 562.732 129.076 563.238 129.321 563.789L129.812 564.892C130.057 565.443 130.398 565.82 130.835 566.024C131.28 566.224 131.774 566.203 132.317 565.962Z" fill="black"/>
<path d="M141.033 563.481C140.534 563.703 140.046 563.82 139.57 563.833C139.102 563.842 138.66 563.756 138.244 563.574C137.837 563.389 137.461 563.111 137.118 562.74C136.774 562.368 136.482 561.912 136.24 561.369C135.999 560.827 135.855 560.304 135.809 559.8C135.763 559.297 135.807 558.831 135.942 558.404C136.086 557.974 136.318 557.588 136.637 557.246C136.966 556.901 137.379 556.617 137.878 556.395C138.376 556.173 138.86 556.057 139.327 556.048C139.804 556.035 140.246 556.122 140.653 556.307C141.069 556.489 141.449 556.765 141.793 557.136C142.136 557.507 142.428 557.964 142.67 558.507C142.911 559.049 143.055 559.572 143.101 560.075C143.147 560.579 143.098 561.046 142.955 561.477C142.82 561.904 142.588 562.29 142.26 562.636C141.94 562.977 141.531 563.259 141.033 563.481ZM140.53 562.352C141.055 562.119 141.4 561.776 141.566 561.325C141.737 560.861 141.682 560.314 141.402 559.684L140.946 558.661C140.666 558.031 140.298 557.629 139.843 557.454C139.393 557.267 138.905 557.29 138.38 557.523C137.855 557.757 137.507 558.106 137.337 558.57C137.171 559.021 137.228 559.562 137.508 560.191L137.964 561.215C138.244 561.845 138.61 562.253 139.06 562.441C139.515 562.615 140.005 562.586 140.53 562.352Z" fill="black"/>
<path d="M149.176 559.855C148.441 560.182 147.754 560.346 147.116 560.348C146.486 560.345 145.921 560.219 145.422 559.97L145.951 558.791C146.392 558.982 146.836 559.084 147.281 559.095C147.731 559.094 148.21 558.98 148.717 558.754C149.181 558.548 149.518 558.304 149.727 558.021C149.946 557.735 149.981 557.426 149.833 557.094C149.771 556.954 149.692 556.848 149.597 556.775C149.502 556.702 149.392 556.656 149.269 556.638C149.145 556.619 149.01 556.622 148.863 556.645C148.725 556.665 148.582 556.697 148.434 556.742L147.283 557.05C147.005 557.132 146.712 557.194 146.406 557.236C146.1 557.278 145.806 557.278 145.525 557.235C145.249 557.18 144.99 557.07 144.749 556.905C144.517 556.736 144.323 556.476 144.167 556.126C143.859 555.435 143.888 554.794 144.253 554.201C144.627 553.605 145.247 553.114 146.113 552.728C146.743 552.448 147.328 552.303 147.869 552.293C148.414 552.27 148.914 552.357 149.368 552.553L148.942 553.749C148.677 553.626 148.346 553.553 147.948 553.531C147.547 553.5 147.079 553.603 146.545 553.841C145.592 554.265 145.25 554.78 145.518 555.383C145.647 555.672 145.837 555.828 146.089 555.852C146.346 555.864 146.622 555.825 146.917 555.735L148.069 555.427C148.36 555.35 148.652 555.288 148.945 555.241C149.248 555.19 149.537 555.192 149.813 555.248C150.094 555.29 150.351 555.396 150.583 555.565C150.825 555.73 151.023 555.988 151.179 556.338C151.483 557.02 151.455 557.677 151.097 558.308C150.744 558.926 150.103 559.442 149.176 559.855Z" fill="black"/>
<path d="M157.437 556.177C156.921 556.407 156.421 556.53 155.936 556.547C155.45 556.564 155 556.481 154.583 556.3C154.167 556.118 153.789 555.846 153.45 555.484C153.106 555.113 152.814 554.656 152.572 554.113C152.331 553.571 152.187 553.048 152.141 552.544C152.104 552.037 152.153 551.57 152.288 551.143C152.427 550.703 152.657 550.313 152.977 549.971C153.296 549.63 153.697 549.352 154.178 549.138C154.65 548.928 155.116 548.82 155.575 548.815C156.03 548.801 156.459 548.882 156.863 549.059C157.266 549.235 157.629 549.498 157.952 549.847C158.284 550.192 158.561 550.614 158.783 551.112L159.023 551.65L154.168 553.812L154.267 554.035C154.505 554.569 154.865 554.932 155.35 555.125C155.83 555.31 156.363 555.271 156.95 555.01C157.387 554.816 157.718 554.558 157.942 554.238C158.171 553.906 158.312 553.539 158.364 553.138L159.607 553.528C159.555 554.023 159.353 554.512 159.002 554.993C158.659 555.471 158.137 555.865 157.437 556.177ZM154.663 550.227C154.409 550.34 154.192 550.489 154.012 550.674C153.841 550.855 153.714 551.063 153.631 551.3C153.552 551.523 153.518 551.764 153.528 552.021C153.538 552.279 153.601 552.539 153.718 552.802L153.759 552.893L157.157 551.38L157.099 551.249C156.861 550.715 156.519 550.359 156.073 550.181C155.631 549.99 155.161 550.005 154.663 550.227Z" fill="black"/>
<path d="M165.673 552.51C165.165 552.736 164.673 552.856 164.197 552.868C163.729 552.878 163.287 552.791 162.871 552.61C162.464 552.424 162.088 552.146 161.745 551.775C161.41 551.4 161.122 550.941 160.881 550.399C160.639 549.856 160.491 549.335 160.436 548.836C160.39 548.332 160.435 547.867 160.569 547.44C160.713 547.009 160.945 546.623 161.264 546.281C161.593 545.936 162.006 545.652 162.505 545.43C163.205 545.119 163.831 545.018 164.383 545.129C164.944 545.235 165.435 545.478 165.855 545.857L165.008 546.957C164.746 546.697 164.447 546.531 164.111 546.46C163.784 546.386 163.424 546.436 163.031 546.611C162.488 546.853 162.142 547.206 161.993 547.671C161.84 548.127 161.884 548.626 162.125 549.168L162.628 550.297C162.865 550.831 163.207 551.197 163.652 551.397C164.098 551.597 164.6 551.573 165.16 551.323C165.58 551.136 165.878 550.888 166.055 550.579C166.241 550.266 166.338 549.908 166.347 549.505L167.683 549.681C167.675 550.251 167.516 550.788 167.206 551.293C166.892 551.789 166.381 552.195 165.673 552.51Z" fill="black"/>
<path d="M170.03 548.998L171.828 548.197L169.842 543.736L168.044 544.536L167.53 543.382L170.758 541.945L171.558 543.742L171.637 543.707C171.593 543.444 171.579 543.177 171.595 542.908C171.612 542.639 171.672 542.386 171.777 542.151C171.878 541.907 172.034 541.68 172.245 541.471C172.452 541.253 172.726 541.068 173.067 540.916L173.881 540.554L174.488 541.919L173.15 542.515C172.625 542.748 172.266 543.097 172.074 543.56C171.878 544.014 171.897 544.503 172.131 545.028L173.258 547.561L175.712 546.468L176.226 547.623L170.544 550.153L170.03 548.998Z" fill="black"/>
<path d="M181.828 545.317C181.312 545.547 180.812 545.67 180.326 545.687C179.841 545.704 179.391 545.622 178.974 545.44C178.558 545.259 178.18 544.987 177.841 544.624C177.497 544.253 177.205 543.796 176.963 543.254C176.722 542.712 176.578 542.189 176.532 541.685C176.495 541.177 176.544 540.71 176.678 540.283C176.818 539.844 177.048 539.453 177.367 539.112C177.687 538.77 178.087 538.492 178.569 538.278C179.041 538.068 179.507 537.96 179.966 537.955C180.421 537.941 180.85 538.023 181.253 538.199C181.657 538.376 182.02 538.639 182.343 538.988C182.675 539.332 182.952 539.754 183.174 540.253L183.414 540.791L178.559 542.952L178.658 543.175C178.895 543.709 179.256 544.072 179.741 544.266C180.221 544.45 180.754 544.412 181.34 544.151C181.778 543.956 182.109 543.699 182.333 543.379C182.562 543.046 182.703 542.679 182.755 542.279L183.998 542.669C183.946 543.164 183.744 543.652 183.392 544.133C183.05 544.611 182.528 545.006 181.828 545.317ZM179.054 539.367C178.8 539.48 178.583 539.629 178.403 539.814C178.232 539.995 178.105 540.204 178.022 540.44C177.943 540.664 177.909 540.904 177.919 541.162C177.929 541.42 177.992 541.68 178.109 541.942L178.15 542.034L181.548 540.521L181.49 540.39C181.252 539.856 180.91 539.5 180.464 539.321C180.022 539.13 179.552 539.145 179.054 539.367Z" fill="black"/>
<path d="M190.151 541.423C189.556 541.688 189.049 541.725 188.628 541.535C188.204 541.336 187.879 540.983 187.654 540.475L185.918 536.578L183.832 537.507L183.318 536.352L184.801 535.692C185.054 535.579 185.212 535.451 185.274 535.308C185.333 535.157 185.303 534.95 185.187 534.687L184.433 532.994L185.771 532.399L186.835 534.787L189.721 533.501L190.236 534.656L187.349 535.941L189.335 540.403L192.222 539.117L192.736 540.272L190.151 541.423Z" fill="black"/>
<path d="M197.958 538.136C197.223 538.463 196.536 538.627 195.897 538.629C195.267 538.626 194.703 538.5 194.204 538.251L194.733 537.072C195.174 537.263 195.617 537.365 196.063 537.376C196.513 537.375 196.992 537.261 197.499 537.035C197.963 536.829 198.299 536.585 198.509 536.302C198.728 536.016 198.763 535.707 198.615 535.375C198.553 535.235 198.474 535.128 198.379 535.056C198.283 534.983 198.174 534.937 198.05 534.919C197.927 534.9 197.792 534.903 197.645 534.926C197.507 534.946 197.364 534.978 197.216 535.023L196.064 535.331C195.786 535.413 195.494 535.475 195.188 535.517C194.882 535.559 194.588 535.559 194.307 535.516C194.031 535.461 193.772 535.351 193.531 535.186C193.299 535.017 193.104 534.757 192.949 534.407C192.641 533.716 192.67 533.074 193.035 532.482C193.409 531.886 194.029 531.395 194.895 531.009C195.525 530.729 196.11 530.584 196.65 530.574C197.196 530.551 197.696 530.638 198.15 530.834L197.723 532.03C197.459 531.907 197.128 531.834 196.73 531.812C196.328 531.781 195.861 531.884 195.327 532.122C194.374 532.546 194.031 533.06 194.3 533.664C194.429 533.953 194.619 534.109 194.871 534.133C195.127 534.145 195.403 534.106 195.699 534.016L196.851 533.708C197.141 533.631 197.434 533.569 197.727 533.522C198.03 533.471 198.319 533.473 198.595 533.529C198.876 533.571 199.133 533.677 199.365 533.846C199.606 534.011 199.805 534.269 199.961 534.619C200.264 535.301 200.237 535.958 199.879 536.589C199.525 537.207 198.885 537.723 197.958 538.136Z" fill="black"/>
<path d="M206.063 534.496C205.643 534.683 205.307 534.728 205.054 534.631C204.81 534.53 204.631 534.352 204.519 534.099L204.367 533.757C204.254 533.504 204.241 533.252 204.33 533.003C204.427 532.751 204.685 532.531 205.105 532.344C205.525 532.157 205.857 532.114 206.101 532.215C206.354 532.312 206.537 532.487 206.65 532.741L206.802 533.082C206.915 533.336 206.923 533.589 206.826 533.842C206.737 534.091 206.483 534.309 206.063 534.496Z" fill="black"/>
<path d="M214.455 530.791C213.947 531.017 213.455 531.136 212.979 531.149C212.511 531.158 212.069 531.072 211.653 530.891C211.246 530.705 210.87 530.427 210.527 530.056C210.192 529.681 209.904 529.222 209.662 528.68C209.421 528.137 209.273 527.616 209.218 527.117C209.172 526.613 209.216 526.148 209.351 525.721C209.495 525.29 209.726 524.904 210.046 524.562C210.375 524.217 210.788 523.933 211.287 523.711C211.986 523.4 212.613 523.299 213.165 523.41C213.726 523.516 214.217 523.759 214.637 524.138L213.79 525.238C213.528 524.978 213.228 524.812 212.893 524.741C212.566 524.667 212.206 524.717 211.812 524.892C211.27 525.134 210.924 525.487 210.775 525.952C210.621 526.408 210.666 526.907 210.907 527.449L211.409 528.578C211.647 529.111 211.989 529.478 212.434 529.678C212.879 529.878 213.382 529.854 213.942 529.604C214.362 529.417 214.66 529.169 214.837 528.86C215.022 528.547 215.12 528.189 215.129 527.786L216.465 527.962C216.457 528.532 216.298 529.069 215.988 529.574C215.674 530.07 215.163 530.476 214.455 530.791Z" fill="black"/>
<path d="M222.336 527.282C221.837 527.504 221.349 527.622 220.873 527.635C220.405 527.644 219.963 527.558 219.547 527.376C219.14 527.191 218.764 526.912 218.421 526.541C218.077 526.17 217.785 525.713 217.543 525.171C217.302 524.628 217.158 524.105 217.112 523.602C217.066 523.098 217.11 522.633 217.245 522.206C217.389 521.775 217.621 521.389 217.94 521.048C218.269 520.702 218.682 520.419 219.181 520.197C219.679 519.975 220.163 519.859 220.63 519.85C221.107 519.837 221.549 519.923 221.956 520.109C222.372 520.29 222.752 520.567 223.096 520.938C223.439 521.309 223.731 521.766 223.973 522.308C224.214 522.85 224.358 523.373 224.404 523.877C224.45 524.381 224.401 524.848 224.258 525.279C224.123 525.706 223.891 526.092 223.563 526.437C223.243 526.779 222.834 527.06 222.336 527.282ZM221.833 526.154C222.358 525.92 222.703 525.578 222.869 525.126C223.04 524.663 222.985 524.116 222.705 523.486L222.249 522.462C221.969 521.833 221.601 521.43 221.146 521.256C220.696 521.068 220.208 521.091 219.683 521.325C219.158 521.559 218.81 521.908 218.64 522.371C218.474 522.823 218.531 523.363 218.811 523.993L219.267 525.017C219.547 525.646 219.913 526.055 220.363 526.242C220.818 526.417 221.308 526.388 221.833 526.154Z" fill="black"/>
<path d="M227.037 525.001L224.022 518.23L225.242 517.686L225.634 518.566L225.699 518.536C225.676 518.201 225.715 517.89 225.818 517.603C225.93 517.312 226.169 517.085 226.537 516.921C226.896 516.762 227.216 516.74 227.498 516.855C227.785 516.958 228.03 517.168 228.235 517.486L228.287 517.463C228.273 517.102 228.329 516.768 228.454 516.461C228.576 516.145 228.842 515.895 229.253 515.712C229.778 515.478 230.223 515.501 230.588 515.778C230.961 516.052 231.306 516.544 231.621 517.252L233.742 522.015L232.521 522.559L230.483 517.979C230.272 517.507 230.071 517.208 229.88 517.084C229.684 516.951 229.459 516.941 229.206 517.054C228.978 517.155 228.821 517.32 228.734 517.547C228.651 517.762 228.678 518.023 228.814 518.329L230.999 523.236L229.779 523.78L227.74 519.2C227.53 518.728 227.329 518.429 227.137 518.305C226.95 518.168 226.73 518.156 226.477 518.269C226.24 518.374 226.079 518.541 225.991 518.768C225.909 518.983 225.936 519.244 226.072 519.55L228.257 524.457L227.037 525.001Z" fill="black"/>
</svg>
