<svg width="1950" height="1950" viewBox="0 0 1950 1950" fill="none" xmlns="http://www.w3.org/2000/svg">
<path d="M1553.13 887.55L1697.46 804.225C1712.07 795.788 1710.18 774.122 1694.32 768.351L1242.49 603.9C1236.97 601.891 1230.85 602.427 1225.76 605.363L1081.44 688.688C1066.83 697.125 1068.72 718.791 1084.58 724.562L1536.41 889.013C1541.92 891.022 1548.05 890.486 1553.13 887.55Z" fill="#ECB9FF" stroke="#6421A6" stroke-width="21.7417" stroke-linejoin="round"/>
<mask id="path-2-outside-1_2_12075" maskUnits="userSpaceOnUse" x="981.187" y="685.759" width="585" height="500" fill="black">
<rect fill="white" x="981.187" y="685.759" width="585" height="500"/>
<path fill-rule="evenodd" clip-rule="evenodd" d="M1492.16 1116.86C1516.02 1041.08 1533.33 962.214 1544.06 880.243L1070.17 707.759C1059.43 789.729 1042.13 868.6 1018.26 944.372L1492.16 1116.86ZM1477.08 1163.23C1482.39 1148 1487.41 1132.54 1492.15 1116.86L1018.25 944.375C1013.52 960.059 1008.5 975.517 1003.19 990.75L1477.08 1163.23Z"/>
</mask>
<path fill-rule="evenodd" clip-rule="evenodd" d="M1492.16 1116.86C1516.02 1041.08 1533.33 962.214 1544.06 880.243L1070.17 707.759C1059.43 789.729 1042.13 868.6 1018.26 944.372L1492.16 1116.86ZM1477.08 1163.23C1482.39 1148 1487.41 1132.54 1492.15 1116.86L1018.25 944.375C1013.52 960.059 1008.5 975.517 1003.19 990.75L1477.08 1163.23Z" fill="#DE86FF"/>
<path d="M1544.06 880.243L1565.62 883.067C1566.95 872.964 1561.08 863.298 1551.5 859.813L1544.06 880.243ZM1492.16 1116.86L1484.72 1137.29C1490.3 1139.32 1496.46 1138.98 1501.78 1136.35C1507.1 1133.73 1511.12 1129.05 1512.9 1123.39L1492.16 1116.86ZM1070.17 707.759L1077.6 687.328C1071.41 685.073 1064.52 685.752 1058.88 689.175C1053.25 692.598 1049.47 698.395 1048.61 704.935L1070.17 707.759ZM1018.26 944.372L997.526 937.841C994.03 948.94 999.893 960.823 1010.83 964.803L1018.26 944.372ZM1492.15 1116.86L1512.96 1123.14C1516.3 1112.1 1510.43 1100.37 1499.59 1096.43L1492.15 1116.86ZM1477.08 1163.23L1469.65 1183.66C1475.11 1185.65 1481.15 1185.37 1486.41 1182.88C1491.66 1180.38 1495.7 1175.88 1497.61 1170.39L1477.08 1163.23ZM1018.25 944.375L1025.69 923.945C1020.07 921.901 1013.86 922.259 1008.52 924.935C1003.17 927.611 999.167 932.369 997.439 938.091L1018.25 944.375ZM1003.19 990.75L982.656 983.596C978.743 994.824 984.577 1007.11 995.751 1011.18L1003.19 990.75ZM1522.51 877.419C1511.93 958.183 1494.89 1035.81 1471.42 1110.33L1512.9 1123.39C1537.16 1046.36 1554.73 966.244 1565.62 883.067L1522.51 877.419ZM1062.73 728.189L1536.63 900.674L1551.5 859.813L1077.6 687.328L1062.73 728.189ZM1039 950.904C1063.26 873.874 1080.83 793.76 1091.73 710.583L1048.61 704.935C1038.03 785.699 1020.99 863.327 997.526 937.841L1039 950.904ZM1499.6 1096.43L1025.7 923.942L1010.83 964.803L1484.72 1137.29L1499.6 1096.43ZM1471.34 1110.58C1466.69 1125.97 1461.76 1141.14 1456.55 1156.08L1497.61 1170.39C1503.02 1154.86 1508.14 1139.12 1512.96 1123.14L1471.34 1110.58ZM1010.82 964.806L1484.71 1137.29L1499.59 1096.43L1025.69 923.945L1010.82 964.806ZM1023.72 997.905C1029.13 982.379 1034.24 966.631 1039.07 950.66L997.439 938.091C992.79 953.487 987.863 968.655 982.656 983.596L1023.72 997.905ZM1484.52 1142.8L1010.62 970.319L995.751 1011.18L1469.65 1183.66L1484.52 1142.8Z" fill="#6421A6" mask="url(#path-2-outside-1_2_12075)"/>
<path d="M1348.78 432.869L886.688 264.68C882.713 262.94 878.657 261.472 874.521 260.278C868.891 258.653 862.986 261.783 861.171 267.355C859.355 272.926 862.282 278.934 867.789 280.938L878.563 284.859C902.819 295.717 925.005 320.434 944.187 361.73C946.393 366.479 950.409 370.277 955.475 372.121L1405.76 536.011C1421.79 541.845 1438.6 525.377 1429.68 508.795L1420.11 513.944L1429.68 508.795C1408.14 468.754 1381.43 442.429 1348.78 432.869Z" fill="#DE86FF" stroke="#6421A6" stroke-width="21.7417" stroke-linejoin="round"/>
<mask id="path-5-outside-2_2_12075" maskUnits="userSpaceOnUse" x="426.95" y="943.11" width="960" height="755" fill="black">
<rect fill="white" x="426.95" y="943.11" width="960" height="755"/>
<path fill-rule="evenodd" clip-rule="evenodd" d="M1080.52 1191.27C1056.75 1174.25 1033.73 1156.36 1011.48 1137.59L537.58 965.11C559.838 983.876 582.854 1001.77 606.628 1018.78L1080.52 1191.27ZM1080.5 1191.27L1364.41 1393.05L1364.45 1393.06L1364.44 1393.07L1364.45 1393.08L1364.44 1393.07C1339.19 1431.64 1311.96 1467.34 1282.74 1500.18L808.847 1327.7C838.062 1294.86 865.295 1259.15 890.546 1220.59L606.6 1018.79L1080.5 1191.27ZM1136.01 1620.05C1189.69 1589.05 1238.61 1549.1 1282.75 1500.2L808.856 1327.71C764.707 1376.62 715.786 1416.58 662.091 1447.58L662.095 1447.58C600.056 1483.4 546.368 1501.99 501.031 1503.37L974.928 1675.86C1020.27 1674.48 1073.96 1655.88 1136.01 1620.05L1136.01 1620.05ZM974.91 1675.85C955.619 1676.15 938.264 1673.5 922.846 1667.88L449.005 1495.42C464.409 1501.02 481.745 1503.67 501.013 1503.37L974.91 1675.85Z"/>
</mask>
<path fill-rule="evenodd" clip-rule="evenodd" d="M1080.52 1191.27C1056.75 1174.25 1033.73 1156.36 1011.48 1137.59L537.58 965.11C559.838 983.876 582.854 1001.77 606.628 1018.78L1080.52 1191.27ZM1080.5 1191.27L1364.41 1393.05L1364.45 1393.06L1364.44 1393.07L1364.45 1393.08L1364.44 1393.07C1339.19 1431.64 1311.96 1467.34 1282.74 1500.18L808.847 1327.7C838.062 1294.86 865.295 1259.15 890.546 1220.59L606.6 1018.79L1080.5 1191.27ZM1136.01 1620.05C1189.69 1589.05 1238.61 1549.1 1282.75 1500.2L808.856 1327.71C764.707 1376.62 715.786 1416.58 662.091 1447.58L662.095 1447.58C600.056 1483.4 546.368 1501.99 501.031 1503.37L974.928 1675.86C1020.27 1674.48 1073.96 1655.88 1136.01 1620.05L1136.01 1620.05ZM974.91 1675.85C955.619 1676.15 938.264 1673.5 922.846 1667.88L449.005 1495.42C464.409 1501.02 481.745 1503.67 501.013 1503.37L974.91 1675.85Z" fill="#DE86FF"/>
<path d="M452.722 1485.2L452.667 1485.18L445.232 1505.61L445.288 1505.63L452.722 1485.2ZM1011.48 1137.59L1025.49 1120.97C1023.54 1119.33 1021.31 1118.04 1018.91 1117.16L1011.48 1137.59ZM1080.52 1191.27L1073.09 1211.7C1083.3 1215.42 1094.69 1211.02 1099.76 1201.41C1104.83 1191.79 1102.02 1179.91 1093.18 1173.59L1080.52 1191.27ZM537.58 965.11L545.016 944.679C535.11 941.074 524.045 945.094 518.764 954.217C513.482 963.34 515.506 974.937 523.565 981.732L537.58 965.11ZM606.628 1018.78L593.973 1036.46C595.58 1037.61 597.335 1038.54 599.191 1039.21L606.628 1018.78ZM1364.41 1393.05L1351.82 1410.77C1353.41 1411.91 1355.15 1412.82 1356.99 1413.49L1364.41 1393.05ZM1080.5 1191.27L1093.09 1173.55C1091.5 1172.42 1089.77 1171.51 1087.93 1170.84L1080.5 1191.27ZM1364.45 1393.06L1382.6 1405.03C1386.26 1399.47 1387.18 1392.55 1385.09 1386.23C1383 1379.92 1378.13 1374.9 1371.88 1372.63L1364.45 1393.06ZM1364.44 1393.07L1346.29 1381.11C1339.84 1390.89 1342.31 1404.03 1351.86 1410.81L1364.44 1393.07ZM1364.45 1393.08L1356.99 1413.5C1367.22 1417.24 1378.64 1412.83 1383.7 1403.19C1388.76 1393.54 1385.91 1381.64 1377.03 1375.34L1364.45 1393.08ZM1364.44 1393.07L1371.9 1372.65C1362.41 1369.19 1351.79 1372.71 1346.25 1381.16L1364.44 1393.07ZM1282.74 1500.18L1275.31 1520.61C1283.68 1523.66 1293.07 1521.29 1298.99 1514.63L1282.74 1500.18ZM808.847 1327.7L792.602 1313.25C787.814 1318.63 786.003 1326.04 787.768 1333.02C789.532 1340.01 794.641 1345.67 801.411 1348.13L808.847 1327.7ZM890.546 1220.59L908.735 1232.5C915.137 1222.72 912.666 1209.64 903.141 1202.87L890.546 1220.59ZM606.6 1018.79L614.037 998.36C603.811 994.638 592.409 999.049 587.351 1008.68C582.292 1018.32 585.136 1030.21 594.006 1036.51L606.6 1018.79ZM1282.75 1500.2L1298.89 1514.77C1303.74 1509.4 1305.6 1501.97 1303.85 1494.95C1302.11 1487.93 1296.99 1482.24 1290.19 1479.77L1282.75 1500.2ZM1136.01 1620.05L1125.14 1601.22C1117.84 1605.44 1113.63 1613.48 1114.34 1621.88C1115.05 1630.27 1120.55 1637.51 1128.45 1640.44L1136.01 1620.05ZM808.856 1327.71L816.292 1307.28C807.973 1304.26 798.649 1306.57 792.717 1313.15L808.856 1327.71ZM662.091 1447.58L651.22 1428.75C643.915 1432.97 639.708 1441.03 640.429 1449.43C641.149 1457.84 646.666 1465.07 654.582 1467.98L662.091 1447.58ZM662.095 1447.58L672.965 1466.41C680.271 1462.19 684.477 1454.13 683.757 1445.72C683.037 1437.32 677.52 1430.09 669.603 1427.18L662.095 1447.58ZM501.031 1503.37L500.37 1481.64C489.948 1481.96 481.219 1489.63 479.565 1499.92C477.911 1510.22 483.798 1520.24 493.595 1523.8L501.031 1503.37ZM974.928 1675.86L967.492 1696.29C970.084 1697.23 972.832 1697.67 975.59 1697.59L974.928 1675.86ZM1136.01 1620.05L1146.88 1638.88C1154.18 1634.67 1158.38 1626.62 1157.68 1618.22C1156.97 1609.83 1151.47 1602.6 1143.57 1599.67L1136.01 1620.05ZM922.846 1667.88L930.288 1647.45L930.283 1647.45L922.846 1667.88ZM974.91 1675.85L975.25 1697.59C985.736 1697.43 994.61 1689.8 996.35 1679.46C998.09 1669.12 992.2 1659.01 982.346 1655.42L974.91 1675.85ZM449.005 1495.42L456.436 1474.99C445.153 1470.88 432.679 1476.7 428.574 1487.98C424.469 1499.27 430.287 1511.74 441.569 1515.85L449.005 1495.42ZM501.013 1503.37L508.449 1482.94C505.958 1482.03 503.323 1481.59 500.672 1481.63L501.013 1503.37ZM997.462 1154.22C1020.16 1173.35 1043.63 1191.6 1067.87 1208.95L1093.18 1173.59C1069.87 1156.91 1047.31 1139.37 1025.49 1120.97L997.462 1154.22ZM530.144 985.54L1004.04 1158.02L1018.91 1117.16L545.016 944.679L530.144 985.54ZM619.282 1001.1C595.973 984.421 573.411 966.882 551.595 948.488L523.565 981.732C546.264 1000.87 569.734 1019.11 593.973 1036.46L619.282 1001.1ZM1087.96 1170.84L614.064 998.354L599.191 1039.21L1073.09 1211.7L1087.96 1170.84ZM1377.01 1375.33L1093.09 1173.55L1067.9 1209L1351.82 1410.77L1377.01 1375.33ZM1371.88 1372.63L1371.84 1372.62L1356.99 1413.49L1357.02 1413.5L1371.88 1372.63ZM1382.6 1405.04L1382.6 1405.03L1346.29 1381.1L1346.29 1381.11L1382.6 1405.04ZM1377.03 1375.34L1377.02 1375.34L1351.86 1410.81L1351.87 1410.81L1377.03 1375.34ZM1356.98 1413.5L1356.99 1413.5L1371.91 1372.66L1371.9 1372.65L1356.98 1413.5ZM1298.99 1514.63C1328.95 1480.95 1356.82 1444.4 1382.63 1404.99L1346.25 1381.16C1321.56 1418.88 1294.97 1453.73 1266.5 1485.73L1298.99 1514.63ZM801.411 1348.13L1275.31 1520.61L1290.18 1479.75L816.283 1307.27L801.411 1348.13ZM872.357 1208.68C847.662 1246.39 821.074 1281.24 792.602 1313.25L825.092 1342.15C855.05 1308.47 882.927 1271.91 908.735 1232.5L872.357 1208.68ZM594.006 1036.51L877.951 1238.31L903.141 1202.87L619.195 1001.07L594.006 1036.51ZM1087.93 1170.84L614.037 998.36L599.164 1039.22L1073.06 1211.71L1087.93 1170.84ZM1266.61 1485.63C1223.9 1532.95 1176.74 1571.43 1125.14 1601.22L1146.88 1638.88C1202.65 1606.68 1253.32 1565.25 1298.89 1514.77L1266.61 1485.63ZM801.42 1348.14L1275.32 1520.63L1290.19 1479.77L816.292 1307.28L801.42 1348.14ZM672.962 1466.41C728.744 1434.2 779.419 1392.77 824.995 1342.28L792.717 1313.15C749.995 1360.47 702.827 1398.95 651.22 1428.75L672.962 1466.41ZM669.603 1427.18L669.6 1427.17L654.582 1467.98L654.586 1467.98L669.603 1427.18ZM501.693 1525.1C552.118 1523.57 609.441 1503.08 672.965 1466.41L651.225 1428.75C590.672 1463.71 540.619 1480.42 500.37 1481.64L501.693 1525.1ZM982.364 1655.43L508.467 1482.94L493.595 1523.8L967.492 1696.29L982.364 1655.43ZM1125.14 1601.22C1064.58 1636.19 1014.52 1652.9 974.266 1654.13L975.59 1697.59C1026.02 1696.05 1083.35 1675.56 1146.88 1638.88L1125.14 1601.22ZM1128.45 1640.44L1128.45 1640.44L1143.57 1599.67L1143.57 1599.67L1128.45 1640.44ZM915.405 1688.31C933.712 1694.98 953.765 1697.93 975.25 1697.59L974.569 1654.11C957.473 1654.38 942.817 1652.02 930.288 1647.45L915.405 1688.31ZM441.569 1515.85L915.41 1688.31L930.283 1647.45L456.441 1474.99L441.569 1515.85ZM500.672 1481.63C483.597 1481.9 468.956 1479.54 456.436 1474.99L441.574 1515.85C459.863 1522.5 479.894 1525.44 501.354 1525.11L500.672 1481.63ZM982.346 1655.42L508.449 1482.94L493.577 1523.8L967.474 1696.28L982.346 1655.42Z" fill="#6421A6" mask="url(#path-5-outside-2_2_12075)"/>
<mask id="path-7-outside-3_2_12075" maskUnits="userSpaceOnUse" x="146.088" y="839.456" width="791" height="1076" fill="black">
<rect fill="white" x="146.088" y="839.456" width="791" height="1076"/>
<path fill-rule="evenodd" clip-rule="evenodd" d="M914.461 1033.94C830.592 1123.95 765.42 1217.73 718.947 1315.29L245.051 1142.8C291.523 1045.24 356.695 951.462 440.565 861.456L914.461 1033.94ZM641.985 1642.82C641.986 1533.99 667.64 1424.82 718.947 1315.29L245.05 1142.81C193.743 1252.33 168.089 1361.51 168.088 1470.34C168.088 1470.34 168.088 1470.34 168.088 1470.34C168.088 1470.34 168.088 1470.34 168.088 1470.34M168.088 1470.35C168.089 1553 188.374 1617.75 228.942 1664.58L702.838 1837.07C662.271 1790.23 641.986 1725.49 641.985 1642.83M787.338 1893.05C754.745 1881.17 726.583 1862.52 702.852 1837.08L228.955 1664.59C252.713 1690.06 280.913 1708.73 313.553 1720.6L787.338 1893.05Z"/>
</mask>
<path fill-rule="evenodd" clip-rule="evenodd" d="M914.461 1033.94C830.592 1123.95 765.42 1217.73 718.947 1315.29L245.051 1142.8C291.523 1045.24 356.695 951.462 440.565 861.456L914.461 1033.94ZM641.985 1642.82C641.986 1533.99 667.64 1424.82 718.947 1315.29L245.05 1142.81C193.743 1252.33 168.089 1361.51 168.088 1470.34C168.088 1470.34 168.088 1470.34 168.088 1470.34C168.088 1470.34 168.088 1470.34 168.088 1470.34M168.088 1470.35C168.089 1553 188.374 1617.75 228.942 1664.58L702.838 1837.07C662.271 1790.23 641.986 1725.49 641.985 1642.83M787.338 1893.05C754.745 1881.17 726.583 1862.52 702.852 1837.08L228.955 1664.59C252.713 1690.06 280.913 1708.73 313.553 1720.6L787.338 1893.05Z" fill="#ECB9FF"/>
<path d="M164.37 1480.56L638.267 1653.04L645.703 1632.61L171.806 1460.13L164.37 1480.56ZM645.703 1632.62L171.806 1460.13L164.37 1480.56L638.267 1653.05L645.703 1632.62ZM791.169 1882.87L791.058 1882.83L783.619 1903.26L783.73 1903.3L791.169 1882.87ZM718.947 1315.29L711.511 1335.72C722.04 1339.55 733.757 1334.75 738.576 1324.64L718.947 1315.29ZM914.461 1033.94L930.368 1048.76C935.34 1043.43 937.305 1035.95 935.601 1028.86C933.897 1021.77 928.751 1016 921.897 1013.51L914.461 1033.94ZM245.051 1142.8L225.422 1133.45C222.787 1138.99 222.609 1145.37 224.93 1151.04C227.251 1156.71 231.857 1161.14 237.615 1163.23L245.051 1142.8ZM440.565 861.456L448.001 841.026C439.799 838.041 430.608 840.249 424.658 846.634L440.565 861.456ZM718.947 1315.29L738.635 1324.52C741.224 1318.99 741.371 1312.63 739.041 1306.99C736.711 1301.35 732.117 1296.95 726.383 1294.86L718.947 1315.29ZM245.05 1142.81L252.486 1122.38C241.907 1118.53 230.138 1123.39 225.362 1133.59L245.05 1142.81ZM168.088 1470.34L146.346 1470.35C146.346 1482.35 156.08 1492.09 168.088 1492.09C180.095 1492.09 189.829 1482.35 189.83 1470.35L168.088 1470.34ZM228.942 1664.58L212.508 1678.82C214.931 1681.62 218.028 1683.75 221.506 1685.01L228.942 1664.58ZM702.838 1837.07L695.402 1857.5C704.709 1860.89 715.129 1857.56 720.745 1849.4C726.362 1841.24 725.757 1830.32 719.272 1822.83L702.838 1837.07ZM702.852 1837.08L718.75 1822.25C716.411 1819.74 713.511 1817.82 710.288 1816.65L702.852 1837.08ZM787.338 1893.05L779.902 1913.48C791.185 1917.58 803.66 1911.77 807.768 1900.49C811.876 1889.2 806.061 1876.73 794.78 1872.62L787.338 1893.05ZM228.955 1664.59L236.391 1644.16C226.945 1640.72 216.372 1644.21 210.824 1652.59C205.276 1660.98 206.199 1672.07 213.057 1679.42L228.955 1664.59ZM313.553 1720.6L320.989 1700.17L320.983 1700.17L313.553 1720.6ZM738.576 1324.64C783.973 1229.34 847.805 1137.37 930.368 1048.76L898.555 1019.12C813.378 1110.53 746.868 1206.12 699.319 1305.94L738.576 1324.64ZM237.615 1163.23L711.511 1335.72L726.383 1294.86L252.487 1122.37L237.615 1163.23ZM424.658 846.634C339.482 938.042 272.971 1033.64 225.422 1133.45L264.679 1152.15C310.076 1056.85 373.908 964.881 456.471 876.278L424.658 846.634ZM921.897 1013.51L448.001 841.026L433.128 881.887L907.025 1054.37L921.897 1013.51ZM699.258 1306.07C646.751 1418.16 620.244 1530.47 620.243 1642.82L663.726 1642.83C663.728 1537.52 688.529 1431.48 738.635 1324.52L699.258 1306.07ZM237.614 1163.24L711.511 1335.72L726.383 1294.86L252.486 1122.38L237.614 1163.24ZM189.83 1470.34C189.831 1365.04 214.632 1258.99 264.739 1152.03L225.362 1133.59C172.854 1245.67 146.348 1357.98 146.346 1470.34L189.83 1470.34ZM189.83 1470.35C189.83 1470.34 189.83 1470.34 189.83 1470.34L146.346 1470.34C146.346 1470.34 146.346 1470.34 146.346 1470.34C146.346 1470.34 146.346 1470.34 146.346 1470.34L189.83 1470.35ZM189.83 1470.34C189.83 1470.34 189.83 1470.34 189.83 1470.34H146.346C146.346 1470.34 146.346 1470.34 146.346 1470.35L189.83 1470.34ZM245.376 1650.35C209.233 1608.62 189.831 1549.54 189.83 1470.35L146.346 1470.35C146.348 1556.47 167.515 1626.87 212.508 1678.82L245.376 1650.35ZM710.274 1816.64L236.378 1644.15L221.506 1685.01L695.402 1857.5L710.274 1816.64ZM620.243 1642.83C620.244 1728.95 641.411 1799.36 686.404 1851.3L719.272 1822.83C683.13 1781.11 663.728 1722.03 663.726 1642.83L620.243 1642.83ZM686.953 1851.91C713.016 1879.85 744.073 1900.43 779.897 1913.47L794.78 1872.62C765.418 1861.92 740.151 1845.19 718.75 1822.25L686.953 1851.91ZM221.519 1685.02L695.416 1857.51L710.288 1816.65L236.391 1644.16L221.519 1685.02ZM320.983 1700.17C291.578 1689.48 266.278 1672.73 244.854 1649.76L213.057 1679.42C239.149 1707.39 270.247 1727.99 306.122 1741.03L320.983 1700.17ZM794.774 1872.62L320.989 1700.17L306.116 1741.03L779.902 1913.48L794.774 1872.62Z" fill="#6421A6" mask="url(#path-7-outside-3_2_12075)"/>
<mask id="path-9-outside-4_2_12075" maskUnits="userSpaceOnUse" x="357.296" y="30.4331" width="1126" height="1026" fill="black">
<rect fill="white" x="357.296" y="30.4331" width="1126" height="1026"/>
<path fill-rule="evenodd" clip-rule="evenodd" d="M1460.67 235.309C1434.89 225.931 1406 222.9 1374.01 226.217L1374.01 226.218C1327.48 229.665 1277.36 246.889 1223.67 277.889L1223.68 277.895C1150.9 319.918 1086.46 372.962 1030.38 437.026L1030.38 437.024C975.49 500.398 931.938 569.627 899.722 644.71L425.825 472.226C458.042 397.142 501.594 327.913 556.482 264.538L556.488 264.54C612.568 200.476 677.001 147.434 749.786 105.411L749.772 105.405C803.466 74.4045 853.581 57.1806 900.116 53.7334L900.113 53.7329C932.102 50.4162 960.99 53.4469 986.777 62.8252L1460.67 235.309ZM871.081 956.751C882.724 983.024 897.183 1008.75 914.46 1033.94L440.563 861.458C423.286 836.27 408.827 810.538 397.184 784.265L397.193 784.268C385.262 752.584 379.296 720.21 379.296 687.148V687.147C379.296 616.887 394.808 545.249 425.831 472.232L899.728 644.716C868.704 717.733 853.193 789.372 853.193 859.632C853.193 892.695 859.159 925.069 871.091 956.754L871.081 956.751Z"/>
</mask>
<path fill-rule="evenodd" clip-rule="evenodd" d="M1460.67 235.309C1434.89 225.931 1406 222.9 1374.01 226.217L1374.01 226.218C1327.48 229.665 1277.36 246.889 1223.67 277.889L1223.68 277.895C1150.9 319.918 1086.46 372.962 1030.38 437.026L1030.38 437.024C975.49 500.398 931.938 569.627 899.722 644.71L425.825 472.226C458.042 397.142 501.594 327.913 556.482 264.538L556.488 264.54C612.568 200.476 677.001 147.434 749.786 105.411L749.772 105.405C803.466 74.4045 853.581 57.1806 900.116 53.7334L900.113 53.7329C932.102 50.4162 960.99 53.4469 986.777 62.8252L1460.67 235.309ZM871.081 956.751C882.724 983.024 897.183 1008.75 914.46 1033.94L440.563 861.458C423.286 836.27 408.827 810.538 397.184 784.265L397.193 784.268C385.262 752.584 379.296 720.21 379.296 687.148V687.147C379.296 616.887 394.808 545.249 425.831 472.232L899.728 644.716C868.704 717.733 853.193 789.372 853.193 859.632C853.193 892.695 859.159 925.069 871.091 956.754L871.081 956.751Z" fill="#ECB9FF"/>
<path d="M1374.01 226.217L1371.77 204.591C1360.78 205.73 1352.4 214.924 1352.27 225.967C1352.14 237.01 1360.31 246.394 1371.27 247.786L1374.01 226.217ZM1460.67 235.309L1453.24 255.742C1464.53 259.845 1477 254.026 1481.11 242.743C1485.21 231.46 1479.39 218.985 1468.11 214.879L1460.67 235.309ZM1374.01 226.218L1375.62 247.9C1386.75 247.075 1395.45 237.949 1395.75 226.788C1396.04 215.626 1387.83 206.057 1376.75 204.649L1374.01 226.218ZM1223.67 277.889L1212.8 259.06C1205.57 263.232 1201.37 271.17 1201.99 279.49C1202.6 287.81 1207.92 295.045 1215.68 298.11L1223.67 277.889ZM1223.68 277.895L1234.55 296.724C1241.78 292.553 1245.98 284.615 1245.37 276.295C1244.75 267.975 1239.43 260.74 1231.67 257.674L1223.68 277.895ZM1030.38 437.026L1022.94 457.452C1031.37 460.528 1040.83 458.102 1046.74 451.346L1030.38 437.026ZM1030.38 437.024L1037.82 416.597C1029.35 413.508 1019.85 415.972 1013.94 422.79L1030.38 437.024ZM899.722 644.71L892.286 665.141C903.123 669.085 915.154 663.882 919.702 653.283L899.722 644.71ZM425.825 472.226L405.845 463.653C403.488 469.147 403.496 475.369 405.87 480.857C408.243 486.344 412.771 490.612 418.389 492.657L425.825 472.226ZM556.482 264.538L563.929 244.111C555.454 241.021 545.952 243.485 540.047 250.304L556.482 264.538ZM556.488 264.54L549.04 284.966C557.475 288.041 566.933 285.616 572.847 278.86L556.488 264.54ZM749.786 105.411L760.657 124.24C767.884 120.068 772.085 112.127 771.469 103.806C770.853 95.4839 765.528 88.249 757.766 85.1865L749.786 105.411ZM749.772 105.405L738.901 86.5762C731.674 90.7485 727.473 98.6886 728.089 107.01C728.705 115.332 734.03 122.567 741.792 125.63L749.772 105.405ZM900.116 53.7334L901.723 75.4157C912.877 74.5893 921.585 65.434 921.852 54.2517C922.119 43.0693 913.857 33.5094 902.754 32.1523L900.116 53.7334ZM900.113 53.7329L897.87 32.1072C886.866 33.2481 878.473 42.4709 878.372 53.5339C878.27 64.5968 886.493 73.9717 897.475 75.314L900.113 53.7329ZM986.777 62.8252L994.213 42.3947L994.208 42.3928L986.777 62.8252ZM914.46 1033.94L907.023 1054.37C915.904 1057.61 925.855 1054.73 931.644 1047.26C937.433 1039.79 937.734 1029.44 932.389 1021.65L914.46 1033.94ZM871.081 956.751L878.511 936.318C870.319 933.339 861.14 935.541 855.191 941.912C849.241 948.282 847.672 957.59 851.204 965.56L871.081 956.751ZM440.563 861.458L422.633 873.756C425.198 877.495 428.867 880.338 433.127 881.889L440.563 861.458ZM397.184 784.265L404.672 763.854C396.478 760.847 387.281 763.032 381.315 769.403C375.349 775.773 373.77 785.094 377.306 793.073L397.184 784.265ZM397.193 784.268L389.705 804.68C397.688 807.609 406.645 805.615 412.632 799.577C418.619 793.538 420.537 784.564 417.54 776.606L397.193 784.268ZM425.831 472.232L433.267 451.801C422.402 447.847 410.342 453.088 405.821 463.73L425.831 472.232ZM899.728 644.716L919.738 653.218C922.071 647.728 922.045 641.521 919.668 636.05C917.29 630.579 912.769 626.326 907.164 624.285L899.728 644.716ZM871.091 956.754L863.661 977.187C871.641 980.089 880.581 978.079 886.552 972.04C892.522 966.001 894.43 957.039 891.438 949.092L871.091 956.754ZM1376.25 247.843C1405.53 244.807 1431.04 247.666 1453.24 255.742L1468.1 214.877C1438.74 204.196 1406.47 200.993 1371.77 204.591L1376.25 247.843ZM1376.75 204.649L1376.75 204.649L1371.27 247.786L1371.27 247.786L1376.75 204.649ZM1234.54 296.718C1286.29 266.84 1333.24 251.04 1375.62 247.9L1372.41 204.535C1321.72 208.29 1268.44 226.937 1212.8 259.06L1234.54 296.718ZM1231.67 257.674L1231.66 257.668L1215.68 298.11L1215.69 298.116L1231.67 257.674ZM1046.74 451.346C1101.27 389.052 1163.86 337.54 1234.55 296.724L1212.81 259.066C1137.93 302.297 1071.65 356.872 1014.02 422.705L1046.74 451.346ZM1022.93 457.45L1022.94 457.452L1037.83 416.599L1037.82 416.597L1022.93 457.45ZM919.702 653.283C951.012 580.312 993.352 512.984 1046.81 451.257L1013.94 422.79C957.628 487.813 912.864 558.942 879.742 636.137L919.702 653.283ZM418.389 492.657L892.286 665.141L907.158 624.28L433.261 451.796L418.389 492.657ZM540.047 250.304C483.732 315.327 438.968 386.457 405.845 463.653L445.805 480.799C477.116 407.827 519.456 340.498 572.917 278.771L540.047 250.304ZM563.935 244.113L563.929 244.111L549.035 284.964L549.04 284.966L563.935 244.113ZM738.916 86.5821C664.039 129.812 597.758 184.386 540.129 250.219L572.847 278.86C627.378 216.567 689.963 165.055 760.657 124.24L738.916 86.5821ZM741.792 125.63L741.807 125.635L757.766 85.1865L757.751 85.1806L741.792 125.63ZM898.51 32.0511C847.822 35.806 794.54 54.4529 738.901 86.5762L760.642 124.234C812.392 94.3561 859.34 78.5553 901.723 75.4157L898.51 32.0511ZM897.475 75.314L897.479 75.3145L902.754 32.1523L902.75 32.1518L897.475 75.314ZM994.208 42.3928C964.839 31.712 932.572 28.5091 897.87 32.1072L902.355 75.3587C931.631 72.3232 957.141 75.1819 979.346 83.2576L994.208 42.3928ZM1468.11 214.879L994.213 42.3947L979.341 83.2557L1453.24 255.74L1468.11 214.879ZM932.389 1021.65C915.821 997.489 902.028 972.921 890.958 947.942L851.204 965.56C863.42 993.126 878.546 1020.02 896.53 1046.24L932.389 1021.65ZM433.127 881.889L907.023 1054.37L921.896 1013.51L447.999 841.028L433.127 881.889ZM377.306 793.073C389.523 820.641 404.649 847.535 422.633 873.756L458.493 849.161C441.924 825.004 428.131 800.436 417.061 775.456L377.306 793.073ZM404.682 763.857L404.672 763.854L389.695 804.676L389.705 804.68L404.682 763.857ZM357.554 687.148C357.554 722.891 364.015 757.857 376.847 791.931L417.54 776.606C406.508 747.311 401.038 717.53 401.038 687.148H357.554ZM401.038 687.148V687.147H357.554V687.148H401.038ZM401.038 687.147C401.038 620.163 415.813 551.408 445.842 480.734L405.821 463.73C373.802 539.089 357.554 613.611 357.554 687.147H401.038ZM418.395 492.662L892.292 665.146L907.164 624.285L433.267 451.801L418.395 492.662ZM879.717 636.214C847.699 711.573 831.451 786.096 831.451 859.632H874.934C874.934 792.647 889.71 723.893 919.738 653.218L879.717 636.214ZM891.438 949.092C880.405 919.797 874.934 890.015 874.934 859.632H831.451C831.451 895.376 837.912 930.342 850.744 964.417L891.438 949.092ZM863.651 977.184L863.661 977.187L878.521 936.322L878.511 936.318L863.651 977.184Z" fill="#6421A6" mask="url(#path-9-outside-4_2_12075)"/>
<g filter="url(#filter0_ii_2_12075)">
<path fill-rule="evenodd" clip-rule="evenodd" d="M1462.21 1484.03C1468.24 1474.77 1477.15 1470.13 1482.51 1473.63L1577.33 1535.59C1580.08 1537.38 1583.92 1537.09 1587.95 1534.76L1788.38 1419.04C1801.05 1411.73 1807.67 1390.52 1799.11 1384.68L1597.09 1246.86C1592.61 1243.81 1592.01 1235.76 1595.5 1227.25C1619.3 1169.3 1639.74 1109.77 1656.82 1048.65C1679.98 969.061 1696.51 888.003 1706.42 805.475C1707.71 794.686 1700.92 789.673 1692.13 794.749L1556.43 873.096C1549.29 877.215 1543.22 886.689 1541.97 895.519C1531.14 972.022 1514.53 1045.8 1492.15 1116.85C1490.24 1123.17 1488.29 1129.45 1486.29 1135.69C1482.05 1148.92 1469.69 1157.97 1462.84 1153.11L1264.85 1012.51C1246.95 999.424 1226.07 983.927 1202.2 966.019C1178.34 948.111 1155.07 927.104 1132.4 902.997C1109.73 878.89 1090.64 853.405 1075.12 826.542C1060.81 797.612 1053.65 767.993 1053.65 737.685C1053.65 700.489 1060.21 665.703 1073.33 633.327C1086.46 600.952 1105.55 571.331 1130.61 544.466C1155.67 516.222 1186.69 491.423 1223.68 470.067C1272.6 441.822 1313.17 432.864 1345.39 443.194C1375.47 451.874 1401.19 477.023 1422.57 518.641C1426.34 525.99 1436.53 523.827 1444.17 513.763L1559.58 361.721C1565.19 354.331 1567.67 344.86 1565.35 338.993C1549.67 299.451 1525.87 270.466 1493.94 252.037C1460.53 229.997 1420.56 221.389 1374.02 226.214C1327.49 229.661 1277.37 246.885 1223.68 277.886C1150.89 319.909 1086.46 372.952 1030.38 437.016C975.492 500.391 931.939 569.621 899.723 644.705C868.699 717.722 853.187 789.36 853.187 859.62C853.187 892.683 859.153 925.057 871.085 956.742C880.908 978.908 892.735 1000.69 906.567 1022.08C910.711 1028.49 907.484 1041.41 899.601 1050.14C822.858 1135.19 762.641 1223.57 718.951 1315.28C667.643 1424.81 641.989 1533.99 641.989 1642.82C641.989 1725.48 662.273 1790.23 702.843 1837.07C744.605 1881.84 800.089 1905.6 869.296 1908.35C938.502 1909.72 1015.46 1885.95 1100.18 1837.04C1165.81 1799.15 1227.26 1753.34 1284.53 1699.61C1341.81 1644.5 1393.71 1583.53 1440.25 1516.72C1447.72 1505.94 1455.04 1495.04 1462.21 1484.03ZM1352.54 1410.84C1359.13 1401.24 1359.84 1389.8 1354.31 1385.87L1080.49 1191.27C1058.97 1175.87 1038.07 1159.75 1017.79 1142.91C1013.96 1139.73 1007.65 1141.21 1001.96 1146.83C955.448 1192.8 918.983 1239.65 892.563 1287.38C855.574 1352.82 837.079 1423.42 837.079 1499.19C837.079 1557.05 849.011 1601.14 872.875 1631.44C896.74 1661.75 930.746 1676.56 974.895 1675.86C1020.24 1674.48 1073.93 1655.88 1135.98 1620.06C1189.67 1589.06 1238.59 1549.1 1282.74 1500.19C1307.42 1472.45 1330.69 1442.66 1352.54 1410.84Z" fill="white"/>
</g>
<path d="M1481.78 1113.59L1481.76 1113.65L1481.75 1113.71C1479.86 1119.97 1477.92 1126.19 1475.94 1132.38C1474.48 1136.91 1471.65 1140.55 1469.08 1142.44C1468.57 1142.82 1468.13 1143.09 1467.76 1143.27L1271.2 1003.69C1253.36 990.647 1232.54 975.193 1208.73 957.324C1185.41 939.83 1162.61 919.25 1140.32 895.549C1118.27 872.103 1099.75 847.388 1084.71 821.409C1071.19 793.979 1064.52 766.105 1064.52 737.685C1064.52 701.797 1070.84 668.407 1083.41 637.412C1096.01 606.329 1114.36 577.826 1138.56 551.88L1138.65 551.781L1138.74 551.68C1162.93 524.416 1193.01 500.329 1229.12 479.481C1277.09 451.784 1314.23 444.62 1342.07 453.546L1342.22 453.595L1342.37 453.639C1368.41 461.151 1392.21 483.338 1412.89 523.608C1414.9 527.512 1418.08 530.669 1422.25 532.42C1426.33 534.127 1430.55 534.17 1434.27 533.346C1441.51 531.742 1447.99 526.706 1452.83 520.336L1568.24 368.294C1571.88 363.493 1574.56 357.97 1575.97 352.485C1577.32 347.199 1577.76 340.823 1575.45 334.987C1559.06 293.648 1533.88 262.63 1499.66 242.784C1463.9 219.293 1421.47 210.395 1373.06 215.385C1324.5 219.013 1272.85 236.944 1218.24 268.471C1144.41 311.098 1079.06 364.907 1022.2 429.856L1022.18 429.878L1022.16 429.899C966.56 494.099 922.402 564.278 889.732 640.418L889.725 640.436L889.717 640.454C858.196 714.642 842.316 787.722 842.316 859.62C842.316 894.024 848.53 927.694 860.912 960.574L861.021 960.864L861.147 961.147C871.205 983.845 883.3 1006.11 897.415 1027.95C897.393 1027.91 897.381 1027.9 897.377 1027.9C897.343 1027.91 897.872 1029.29 897.045 1032.62C896.196 1036.03 894.261 1039.84 891.531 1042.86C814.172 1128.59 753.333 1217.83 709.137 1310.61L709.122 1310.64L709.107 1310.67C657.198 1421.48 631.118 1532.23 631.118 1642.82C631.118 1727.21 651.844 1794.79 694.626 1844.18L694.757 1844.34L694.893 1844.48C738.872 1891.63 797.204 1916.36 868.864 1919.21L868.972 1919.22L869.08 1919.22C940.923 1920.64 1019.86 1895.97 1105.62 1846.45C1171.99 1808.13 1234.11 1761.82 1291.97 1707.54L1292.02 1707.49L1292.07 1707.44C1349.87 1651.83 1402.24 1590.32 1449.17 1522.93L1449.18 1522.92L1449.18 1522.91C1456.71 1512.04 1464.09 1501.06 1471.32 1489.96C1473.53 1486.57 1475.95 1484.56 1477.59 1483.71C1477.68 1483.66 1477.77 1483.62 1477.85 1483.58L1571.38 1544.69C1578.93 1549.62 1587.48 1547.58 1593.38 1544.18L1793.82 1428.46C1803.08 1423.11 1809.32 1413.4 1812.08 1404.55C1813.5 1400.02 1814.25 1394.96 1813.61 1390.06C1812.96 1385.13 1810.7 1379.42 1805.24 1375.7L1604.17 1238.54C1604.16 1238.45 1604.15 1238.35 1604.15 1238.24C1604.03 1236.84 1604.31 1234.42 1605.56 1231.38C1629.51 1173.05 1650.08 1113.13 1667.27 1051.62C1690.59 971.485 1707.24 889.866 1717.21 806.771C1718.1 799.396 1716.58 790.693 1709.56 785.451C1702.17 779.933 1693.25 781.551 1686.69 785.335L1550.99 863.682C1540.66 869.647 1532.88 882.218 1531.21 893.995C1520.45 969.929 1503.98 1043.12 1481.78 1113.59ZM1478.58 1483.31C1478.58 1483.32 1478.54 1483.33 1478.46 1483.34C1478.54 1483.32 1478.58 1483.31 1478.58 1483.31ZM1604.28 1239.06C1604.28 1239.07 1604.27 1239.04 1604.26 1238.99C1604.28 1239.04 1604.29 1239.06 1604.28 1239.06ZM1074.17 1200.11L1074.18 1200.12L1074.2 1200.13L1347.12 1394.09C1347.15 1394.39 1347.17 1394.85 1347.12 1395.49C1346.96 1397.88 1345.9 1401.3 1343.58 1404.68C1321.98 1436.14 1299 1465.56 1274.65 1492.94C1231.22 1541.04 1183.18 1580.25 1130.54 1610.64C1069.28 1646.02 1017.42 1663.67 974.642 1665C933.368 1665.62 902.845 1651.93 881.416 1624.72C859.652 1597.08 847.95 1555.78 847.95 1499.19C847.95 1425.28 865.967 1356.52 902.027 1292.72L902.051 1292.68L902.074 1292.64C927.904 1245.98 963.685 1199.94 1009.6 1154.56C1010.73 1153.45 1011.66 1152.82 1012.31 1152.48C1032.33 1169.05 1052.95 1184.93 1074.17 1200.11ZM1347.01 1393.6C1347.01 1393.6 1347.03 1393.63 1347.05 1393.73C1347.01 1393.65 1347 1393.61 1347.01 1393.6Z" stroke="#6421A6" stroke-width="21.7417"/>
<path d="M1228.64 690.199C1225.73 689.141 1223.55 687.916 1222.1 686.527C1220.69 685.149 1220.06 683.743 1220.22 682.308L1227.61 681.168C1227.72 682.301 1228.19 683.333 1229.02 684.266C1229.91 685.187 1231.23 685.968 1232.99 686.608C1234.48 687.15 1235.82 687.424 1237.03 687.431C1238.26 687.415 1239.26 687.083 1240.04 686.435C1240.64 685.926 1240.77 685.474 1240.41 685.08C1240.09 684.662 1239.48 684.211 1238.61 683.726L1234.93 681.742C1233.89 681.195 1232.99 680.621 1232.26 680.02C1231.54 679.397 1231.06 678.741 1230.82 678.053C1230.57 677.366 1230.58 676.642 1230.86 675.88C1231.14 675.118 1231.79 674.309 1232.81 673.453C1235.04 671.579 1237.84 670.491 1241.21 670.19C1244.57 669.889 1248.15 670.428 1251.94 671.807C1254.51 672.742 1256.4 673.78 1257.62 674.918C1258.89 676.046 1259.55 677.246 1259.58 678.52L1252.35 680.069C1252.26 679.207 1251.84 678.358 1251.09 677.521C1250.35 676.685 1249.11 675.952 1247.38 675.324C1244.47 674.265 1242.3 674.338 1240.87 675.541C1240.23 676.073 1240.08 676.548 1240.41 676.966C1240.76 677.36 1241.38 677.8 1242.25 678.285L1245.88 680.251C1246.92 680.797 1247.8 681.383 1248.51 682.006C1249.25 682.607 1249.75 683.251 1249.99 683.939C1250.28 684.638 1250.28 685.369 1250 686.131C1249.72 686.893 1249.08 687.702 1248.05 688.558C1245.82 690.432 1242.99 691.525 1239.56 691.837C1236.17 692.161 1232.53 691.615 1228.64 690.199Z" fill="#6421A6"/>
<path d="M1262.46 702.511C1260.4 701.76 1258.79 700.875 1257.63 699.855C1256.53 698.824 1255.88 697.694 1255.7 696.466C1255.55 695.25 1255.86 693.952 1256.63 692.574C1257.4 691.195 1258.65 689.777 1260.39 688.319C1262.13 686.861 1263.99 685.664 1265.98 684.729C1267.96 683.794 1270 683.124 1272.08 682.721C1274.2 682.329 1276.31 682.221 1278.43 682.395C1280.61 682.559 1282.72 683.01 1284.75 683.749C1287.63 684.796 1289.44 686.038 1290.2 687.476C1291.03 688.903 1291.11 690.442 1290.45 692.093L1282.1 692.14C1282.45 691.273 1282.52 690.467 1282.29 689.721C1282.1 688.987 1281.29 688.362 1279.87 687.845C1278.14 687.217 1276.39 687.078 1274.62 687.427C1272.91 687.766 1271.35 688.525 1269.94 689.705L1266.47 692.621C1265.06 693.801 1264.4 694.905 1264.48 695.931C1264.63 696.947 1265.6 697.781 1267.4 698.434C1268.85 698.963 1270.26 699.144 1271.62 698.977C1273.02 698.822 1274.45 698.479 1275.9 697.948L1278.94 702.238C1276.42 703.212 1273.77 703.772 1270.97 703.917C1268.24 704.051 1265.41 703.582 1262.46 702.511Z" fill="#6421A6"/>
<path d="M1320.05 693.909C1318.36 693.294 1317.45 692.631 1317.32 691.922C1317.26 691.202 1317.63 690.507 1318.43 689.836L1319.63 688.829C1320.46 688.135 1321.47 687.673 1322.66 687.445C1323.89 687.228 1325.35 687.428 1327.04 688.043C1328.73 688.659 1329.62 689.315 1329.71 690.012C1329.84 690.721 1329.49 691.422 1328.66 692.117L1327.46 693.123C1326.66 693.794 1325.63 694.25 1324.38 694.489C1323.18 694.718 1321.74 694.525 1320.05 693.909ZM1288.65 705.723L1296.98 708.752L1308.81 698.825L1300.48 695.796L1305.24 691.805L1321.07 697.567L1304.49 711.486L1312.2 714.293L1307.44 718.285L1283.9 709.715L1288.65 705.723Z" fill="#6421A6"/>
<path d="M1335.41 723.788L1335.06 723.658C1333.09 724.5 1331.08 725.046 1329.03 725.297C1327.05 725.537 1325.01 725.275 1322.91 724.512C1321.46 723.982 1320.34 723.311 1319.56 722.497C1318.82 721.696 1318.46 720.754 1318.49 719.67C1318.56 718.599 1319.04 717.38 1319.94 716.016C1320.87 714.663 1322.3 713.177 1324.23 711.557C1326.16 709.937 1328.07 708.623 1329.95 707.616C1331.86 706.62 1333.7 705.895 1335.45 705.439C1337.24 704.995 1338.95 704.804 1340.58 704.865C1342.24 704.938 1343.79 705.239 1345.25 705.768C1346.3 706.15 1347.12 706.581 1347.71 707.062C1348.3 707.542 1348.71 708.055 1348.93 708.601C1349.19 709.159 1349.26 709.749 1349.15 710.372C1349.1 710.984 1348.92 711.618 1348.63 712.273L1348.98 712.403L1362.14 701.365L1369.65 704.098L1339.04 729.784L1331.53 727.05L1335.41 723.788ZM1330.91 721.702C1332.23 722.182 1333.63 722.375 1335.1 722.28C1336.61 722.198 1337.92 721.682 1339.05 720.733L1345.34 715.457C1346.47 714.508 1346.81 713.636 1346.35 712.839C1345.93 712.054 1345.06 711.422 1343.74 710.942C1342.05 710.326 1340.32 710.211 1338.55 710.596C1336.81 710.958 1335.19 711.763 1333.7 713.013L1330.39 715.79C1328.91 717.039 1328.19 718.189 1328.25 719.239C1328.33 720.265 1329.22 721.087 1330.91 721.702Z" fill="#6421A6"/>
<path d="M1358.46 737.452C1355.55 736.393 1353.37 735.168 1351.92 733.779C1350.51 732.401 1349.88 730.995 1350.04 729.56L1357.44 728.42C1357.54 729.553 1358.01 730.585 1358.84 731.518C1359.73 732.439 1361.05 733.22 1362.81 733.86C1364.3 734.402 1365.65 734.676 1366.85 734.683C1368.08 734.667 1369.09 734.335 1369.86 733.687C1370.47 733.178 1370.59 732.726 1370.24 732.332C1369.91 731.914 1369.31 731.463 1368.43 730.978L1364.76 728.994C1363.71 728.447 1362.82 727.873 1362.08 727.272C1361.37 726.649 1360.89 725.993 1360.64 725.305C1360.39 724.618 1360.41 723.894 1360.68 723.132C1360.96 722.37 1361.61 721.561 1362.63 720.705C1364.86 718.831 1367.66 717.743 1371.03 717.442C1374.4 717.141 1377.97 717.68 1381.76 719.059C1384.33 719.994 1386.23 721.032 1387.44 722.17C1388.72 723.298 1389.37 724.498 1389.4 725.772L1382.18 727.321C1382.09 726.459 1381.67 725.61 1380.92 724.773C1380.17 723.937 1378.93 723.204 1377.21 722.576C1374.3 721.517 1372.13 721.59 1370.69 722.793C1370.06 723.325 1369.9 723.8 1370.23 724.218C1370.59 724.612 1371.2 725.052 1372.08 725.537L1375.7 727.503C1376.75 728.049 1377.63 728.635 1378.34 729.258C1379.08 729.859 1379.57 730.503 1379.82 731.191C1380.1 731.89 1380.1 732.621 1379.82 733.383C1379.55 734.145 1378.9 734.954 1377.88 735.81C1375.64 737.684 1372.81 738.777 1369.39 739.089C1365.99 739.413 1362.35 738.867 1358.46 737.452Z" fill="#6421A6"/>
<path d="M1403.93 755.99C1401.67 757.888 1398.83 758.863 1395.42 758.916C1392.01 758.969 1387.8 758.084 1382.8 756.262C1380.29 755.351 1378.35 754.496 1376.98 753.696C1375.57 752.92 1374.6 752.169 1374.06 751.441C1373.56 750.726 1373.4 750.04 1373.61 749.383C1373.84 748.739 1374.32 748.116 1375.03 747.514C1376.25 746.496 1377.61 745.881 1379.12 745.669C1380.61 745.48 1382.31 745.536 1384.23 745.837L1384.48 745.629C1383.64 744.991 1383.13 744.341 1382.95 743.678C1382.83 743.004 1383.24 742.274 1384.18 741.487C1385.23 740.608 1386.42 740.114 1387.76 740.005C1389.14 739.909 1390.68 740.003 1392.37 740.289L1392.62 740.081C1391.67 739.005 1391.31 737.845 1391.53 736.599C1391.79 735.366 1392.7 734.089 1394.28 732.77C1395.52 731.729 1396.88 730.914 1398.36 730.324C1399.86 729.711 1401.42 729.317 1403.04 729.142C1404.69 728.979 1406.37 729.011 1408.09 729.238C1409.81 729.465 1411.53 729.893 1413.25 730.521C1414.91 731.124 1416.3 731.812 1417.42 732.583L1418.58 731.611C1419.4 730.917 1420.45 730.468 1421.71 730.264C1422.97 730.06 1424.23 730.185 1425.48 730.641L1430.1 732.321L1425.63 736.07L1419.34 733.78L1418.97 734.092C1419.78 735.119 1420.04 736.225 1419.74 737.41C1419.5 738.585 1418.63 739.809 1417.11 741.082C1415.87 742.123 1414.51 742.938 1413.03 743.528C1411.55 744.118 1409.97 744.506 1408.3 744.692C1406.65 744.855 1404.95 744.816 1403.2 744.577C1401.48 744.35 1399.76 743.922 1398.03 743.294C1397.25 743.011 1396.54 742.717 1395.88 742.412C1395.25 742.084 1394.69 741.745 1394.18 741.396C1393.65 741.399 1393.12 741.456 1392.6 741.566C1392.11 741.688 1391.68 741.911 1391.29 742.235C1390.96 742.512 1390.8 742.769 1390.81 743.005C1390.82 743.241 1390.94 743.467 1391.17 743.682C1391.46 743.887 1391.82 744.087 1392.27 744.283C1392.72 744.478 1393.19 744.668 1393.7 744.853L1399.69 747.032C1401.55 747.71 1402.99 748.416 1404 749.15C1405.02 749.885 1405.67 750.638 1405.97 751.408C1406.26 752.179 1406.22 752.944 1405.85 753.705C1405.48 754.465 1404.84 755.227 1403.93 755.99ZM1396.37 753.787C1396.92 753.324 1397.09 752.855 1396.88 752.38C1396.64 751.929 1395.76 751.426 1394.24 750.872L1385.26 747.603C1384.11 747.75 1383.2 748.113 1382.51 748.691C1381.84 749.247 1381.64 749.821 1381.91 750.414C1382.18 751.043 1383.14 751.659 1384.8 752.263L1389.21 753.87C1390.94 754.497 1392.38 754.791 1393.55 754.75C1394.71 754.709 1395.65 754.388 1396.37 753.787ZM1401.92 740.032C1403.44 740.586 1404.85 740.731 1406.13 740.468C1407.45 740.218 1408.57 739.699 1409.51 738.912L1410.5 738.079C1411.44 737.293 1411.86 736.515 1411.75 735.748C1411.68 734.992 1410.89 734.338 1409.37 733.784C1407.88 733.242 1406.49 733.102 1405.21 733.365C1403.93 733.628 1402.81 734.153 1401.88 734.94L1400.88 735.773C1399.95 736.559 1399.51 737.331 1399.58 738.086C1399.65 738.841 1400.43 739.49 1401.92 740.032Z" fill="#6421A6"/>
<path d="M1423.68 761.188C1421.78 760.499 1420.74 759.722 1420.56 758.859C1420.44 757.985 1420.85 757.155 1421.78 756.368L1423.23 755.153C1424.17 754.366 1425.37 753.843 1426.85 753.583C1428.38 753.313 1430.1 753.522 1431.99 754.211C1433.89 754.901 1434.89 755.683 1435.02 756.557C1435.2 757.42 1434.82 758.245 1433.89 759.032L1432.44 760.247C1431.5 761.033 1430.26 761.562 1428.73 761.833C1427.26 762.093 1425.57 761.878 1423.68 761.188Z" fill="#6421A6"/>
<path d="M1456.13 773.001C1454.1 772.263 1452.52 771.389 1451.4 770.382C1450.3 769.351 1449.66 768.222 1449.47 766.993C1449.32 765.777 1449.63 764.479 1450.4 763.101C1451.17 761.722 1452.42 760.304 1454.16 758.846C1455.9 757.388 1457.76 756.192 1459.75 755.256C1461.74 754.321 1463.77 753.651 1465.85 753.248C1467.97 752.856 1470.08 752.748 1472.2 752.922C1474.35 753.074 1476.44 753.519 1478.47 754.258C1480.5 754.996 1482.07 755.881 1483.17 756.912C1484.29 757.919 1484.93 759.031 1485.08 760.247C1485.27 761.476 1484.98 762.78 1484.21 764.158C1483.44 765.537 1482.18 766.955 1480.44 768.413C1478.71 769.871 1476.84 771.067 1474.86 772.003C1472.87 772.938 1470.82 773.602 1468.7 773.993C1466.62 774.396 1464.51 774.523 1462.36 774.371C1460.24 774.197 1458.16 773.74 1456.13 773.001ZM1460.68 769.183C1462.38 769.799 1464.12 769.92 1465.92 769.548C1467.73 769.175 1469.41 768.329 1470.99 767.01L1474.38 764.164C1475.95 762.845 1476.69 761.655 1476.6 760.592C1476.5 759.53 1475.61 758.691 1473.92 758.076C1472.23 757.46 1470.48 757.339 1468.68 757.711C1466.88 758.084 1465.19 758.93 1463.62 760.249L1460.23 763.095C1458.66 764.414 1457.92 765.604 1458.01 766.667C1458.1 767.729 1458.99 768.568 1460.68 769.183Z" fill="#6421A6"/>
<path d="M1482.37 776.232L1488.41 778.43L1500.24 768.503L1494.21 766.305L1498.96 762.313L1512.51 767.244L1506.47 772.312L1506.83 772.441C1507.84 771.88 1508.9 771.372 1510.02 770.918C1511.21 770.453 1512.4 770.106 1513.59 769.878C1514.85 769.638 1516.12 769.552 1517.39 769.619C1518.67 769.686 1519.95 769.953 1521.24 770.421L1523.73 771.326L1518.1 776.047L1512.52 774.015C1510.66 773.338 1508.8 773.209 1506.94 773.628C1505.11 774.023 1503.55 774.765 1502.25 775.853L1495.92 781.163L1504.55 784.303L1499.79 788.295L1477.62 780.224L1482.37 776.232Z" fill="#6421A6"/>
<path d="M1533.75 803.242C1531.49 805.14 1528.65 806.115 1525.24 806.168C1521.83 806.221 1517.63 805.336 1512.62 803.514C1510.12 802.603 1508.18 801.748 1506.8 800.948C1505.4 800.172 1504.43 799.421 1503.89 798.693C1503.38 797.978 1503.23 797.292 1503.43 796.635C1503.66 795.991 1504.14 795.368 1504.86 794.766C1506.07 793.748 1507.43 793.133 1508.95 792.921C1510.43 792.732 1512.14 792.788 1514.06 793.089L1514.31 792.881C1513.47 792.243 1512.96 791.593 1512.78 790.93C1512.66 790.256 1513.07 789.526 1514 788.739C1515.05 787.86 1516.25 787.366 1517.59 787.257C1518.96 787.161 1520.5 787.255 1522.2 787.541L1522.45 787.333C1521.5 786.257 1521.13 785.097 1521.36 783.851C1521.61 782.618 1522.53 781.341 1524.1 780.022C1525.34 778.981 1526.7 778.166 1528.18 777.576C1529.69 776.963 1531.25 776.569 1532.86 776.394C1534.51 776.231 1536.2 776.263 1537.91 776.49C1539.63 776.717 1541.35 777.145 1543.08 777.773C1544.74 778.376 1546.12 779.064 1547.24 779.835L1548.4 778.863C1549.23 778.169 1550.27 777.72 1551.53 777.516C1552.8 777.312 1554.05 777.437 1555.3 777.893L1559.92 779.573L1555.45 783.322L1549.16 781.032L1548.79 781.344C1549.6 782.371 1549.86 783.477 1549.56 784.662C1549.33 785.837 1548.45 787.061 1546.94 788.334C1545.69 789.375 1544.33 790.19 1542.86 790.78C1541.38 791.37 1539.8 791.758 1538.12 791.944C1536.47 792.107 1534.77 792.068 1533.02 791.829C1531.3 791.602 1529.58 791.174 1527.86 790.546C1527.08 790.263 1526.36 789.969 1525.71 789.664C1525.08 789.336 1524.51 788.997 1524.01 788.648C1523.47 788.651 1522.94 788.708 1522.42 788.818C1521.94 788.94 1521.5 789.163 1521.12 789.487C1520.78 789.764 1520.62 790.021 1520.63 790.257C1520.64 790.493 1520.76 790.719 1520.99 790.934C1521.28 791.139 1521.65 791.339 1522.09 791.535C1522.54 791.73 1523.02 791.92 1523.52 792.105L1529.51 794.284C1531.37 794.962 1532.81 795.668 1533.83 796.402C1534.84 797.137 1535.5 797.89 1535.79 798.66C1536.09 799.431 1536.05 800.196 1535.67 800.957C1535.3 801.717 1534.66 802.479 1533.75 803.242ZM1526.19 801.039C1526.74 800.576 1526.91 800.107 1526.7 799.632C1526.47 799.181 1525.59 798.678 1524.06 798.124L1515.08 794.855C1513.94 795.002 1513.02 795.365 1512.33 795.943C1511.67 796.499 1511.47 797.073 1511.73 797.666C1512 798.295 1512.96 798.911 1514.62 799.515L1519.04 801.121C1520.76 801.749 1522.21 802.043 1523.37 802.002C1524.53 801.961 1525.47 801.64 1526.19 801.039ZM1531.74 787.284C1533.27 787.838 1534.67 787.983 1535.95 787.72C1537.27 787.47 1538.4 786.951 1539.33 786.164L1540.33 785.331C1541.27 784.545 1541.68 783.767 1541.58 783C1541.51 782.244 1540.71 781.59 1539.19 781.036C1537.7 780.494 1536.32 780.354 1535.03 780.617C1533.75 780.88 1532.64 781.405 1531.7 782.192L1530.71 783.025C1529.77 783.811 1529.34 784.583 1529.41 785.338C1529.48 786.093 1530.26 786.742 1531.74 787.284Z" fill="#6421A6"/>
<path fill-rule="evenodd" clip-rule="evenodd" d="M1221.57 686.76L1221.57 686.759C1220.11 685.341 1219.45 683.873 1219.61 682.355L1219.65 682.038L1228.19 680.722L1228.22 681.079C1228.32 682.164 1228.77 683.152 1229.56 684.045C1230.41 684.919 1231.67 685.668 1233.37 686.287C1234.82 686.814 1236.07 687.06 1237.14 687.068C1237.67 687.06 1238.11 686.986 1238.5 686.859C1238.88 686.732 1239.24 686.539 1239.57 686.264C1239.82 686.05 1239.95 685.872 1239.99 685.725C1240.03 685.581 1240 685.441 1239.87 685.298L1239.86 685.291L1239.86 685.284C1239.56 684.913 1239.01 684.489 1238.15 684.016C1238.15 684.016 1238.15 684.015 1238.15 684.015L1234.49 682.036C1234.49 682.036 1234.49 682.035 1234.49 682.035C1233.42 681.477 1232.5 680.889 1231.74 680.272L1231.74 680.268L1231.73 680.264C1230.99 679.613 1230.49 678.924 1230.22 678.194C1229.96 677.458 1229.97 676.683 1230.27 675.871C1230.57 675.039 1231.27 674.175 1232.34 673.282C1234.69 671.312 1237.67 670.149 1241.23 669.83C1244.78 669.513 1248.48 670.086 1252.32 671.486C1254.93 672.435 1256.88 673.498 1258.14 674.68C1259.46 675.846 1260.15 677.101 1260.19 678.444L1260.2 678.751L1251.79 680.552L1251.75 680.161C1251.66 679.352 1251.27 678.545 1250.55 677.739C1249.85 676.956 1248.68 676.256 1247 675.646C1245.58 675.128 1244.41 674.917 1243.49 674.948C1242.62 674.977 1241.93 675.218 1241.34 675.712C1240.82 676.15 1240.75 676.475 1240.96 676.755C1241.28 677.11 1241.85 677.523 1242.71 677.996C1242.71 677.996 1242.71 677.996 1242.71 677.996L1246.33 679.959C1247.39 680.517 1248.3 681.117 1249.03 681.76C1249.8 682.387 1250.32 683.065 1250.59 683.795C1250.89 684.543 1250.89 685.326 1250.59 686.141C1250.29 686.972 1249.59 687.836 1248.52 688.729C1246.17 690.701 1243.16 691.867 1239.54 692.197C1235.96 692.538 1232.2 691.957 1228.25 690.521C1225.3 689.446 1223.06 688.194 1221.57 686.76ZM1249.99 683.939C1249.75 683.252 1249.25 682.608 1248.51 682.007C1247.8 681.383 1246.92 680.798 1245.88 680.251L1242.25 678.285C1241.38 677.8 1240.76 677.36 1240.41 676.966C1240.08 676.548 1240.23 676.074 1240.87 675.541C1242.3 674.338 1244.47 674.266 1247.38 675.325C1249.11 675.953 1250.35 676.685 1251.09 677.522C1251.74 678.245 1252.14 678.977 1252.3 679.719C1252.32 679.835 1252.34 679.952 1252.35 680.069L1259.58 678.52C1259.55 677.247 1258.89 676.046 1257.62 674.919C1256.4 673.78 1254.51 672.743 1251.94 671.807C1248.15 670.428 1244.57 669.889 1241.21 670.19C1237.84 670.491 1235.04 671.579 1232.81 673.453C1231.79 674.31 1231.14 675.118 1230.86 675.88C1230.58 676.642 1230.57 677.366 1230.82 678.054C1231.06 678.741 1231.54 679.397 1232.26 680.021C1233 680.622 1233.89 681.195 1234.93 681.742L1238.61 683.726C1239.48 684.211 1240.09 684.663 1240.41 685.08C1240.77 685.475 1240.64 685.926 1240.04 686.435C1239.26 687.083 1238.26 687.415 1237.03 687.432C1235.82 687.425 1234.48 687.15 1232.99 686.608C1231.23 685.968 1229.91 685.187 1229.02 684.266C1228.23 683.384 1227.77 682.411 1227.63 681.349C1227.63 681.289 1227.62 681.229 1227.61 681.168L1220.22 682.308C1220.06 683.743 1220.69 685.15 1222.1 686.527C1223.55 687.917 1225.73 689.141 1228.64 690.2C1232.53 691.616 1236.17 692.162 1239.56 691.838C1242.99 691.526 1245.82 690.433 1248.05 688.558C1249.08 687.702 1249.72 686.893 1250 686.131C1250.28 685.37 1250.28 684.639 1249.99 683.939ZM1257.1 700.091C1255.96 699.023 1255.29 697.848 1255.1 696.568L1255.09 696.562C1254.94 695.293 1255.26 693.945 1256.06 692.522C1256.85 691.095 1258.14 689.637 1259.92 688.148C1261.69 686.66 1263.61 685.428 1265.66 684.46C1267.72 683.494 1269.83 682.797 1272 682.376L1272.01 682.374C1274.22 681.966 1276.42 681.854 1278.62 682.035C1280.89 682.204 1283.05 682.671 1285.13 683.428C1288.07 684.496 1289.98 685.782 1290.78 687.304C1291.64 688.79 1291.72 690.395 1291.04 692.111L1290.9 692.455L1281.35 692.508L1281.51 692.121C1281.85 691.301 1281.9 690.546 1281.69 689.852L1281.69 689.844C1281.53 689.225 1280.84 688.659 1279.49 688.167C1277.86 687.574 1276.27 687.463 1274.7 687.772C1273.18 688.073 1271.75 688.754 1270.41 689.877L1266.94 692.792C1265.6 693.912 1265.02 694.921 1265.09 695.837C1265.22 696.728 1266.07 697.493 1267.78 698.113C1269.16 698.617 1270.44 698.765 1271.62 698.621L1271.63 698.62C1272.93 698.475 1274.28 698.153 1275.67 697.646L1276.25 697.436L1279.71 702.333L1279.19 702.533C1276.57 703.547 1273.81 704.129 1270.91 704.28L1270.91 704.28C1268.02 704.422 1265.08 703.925 1262.08 702.833C1259.97 702.065 1258.31 701.155 1257.1 700.098L1257.1 700.091ZM1264.48 695.932C1264.4 694.905 1265.06 693.802 1266.47 692.621L1269.94 689.706C1271.35 688.526 1272.91 687.766 1274.62 687.428C1276.39 687.078 1278.14 687.217 1279.87 687.845C1281.29 688.362 1282.1 688.988 1282.29 689.721C1282.48 690.362 1282.46 691.047 1282.23 691.776C1282.19 691.896 1282.15 692.018 1282.1 692.14L1290.45 692.094C1291.11 690.442 1291.03 688.903 1290.2 687.476C1289.44 686.038 1287.63 684.796 1284.75 683.749C1282.72 683.011 1280.62 682.559 1278.43 682.396C1276.31 682.221 1274.2 682.33 1272.08 682.721C1270 683.125 1267.96 683.794 1265.98 684.729C1263.99 685.665 1262.13 686.861 1260.39 688.319C1258.65 689.777 1257.4 691.195 1256.63 692.574C1255.86 693.953 1255.55 695.25 1255.7 696.466C1255.88 697.695 1256.53 698.825 1257.63 699.855C1258.79 700.875 1260.4 701.76 1262.46 702.512C1265.41 703.583 1268.24 704.051 1270.97 703.917C1273.77 703.772 1276.42 703.212 1278.94 702.238L1275.9 697.948C1275.72 698.017 1275.53 698.082 1275.34 698.145C1274.08 698.565 1272.84 698.842 1271.62 698.977C1270.26 699.145 1268.85 698.964 1267.4 698.434C1265.6 697.782 1264.63 696.947 1264.48 695.932ZM1316.72 692.02L1316.72 692.011C1316.65 691.202 1317.07 690.414 1317.96 689.665L1319.16 688.659C1320.07 687.89 1321.22 687.361 1322.58 687.1L1322.6 687.097C1324.07 686.837 1325.7 687.093 1327.42 687.722C1329.14 688.349 1330.2 689.066 1330.32 689.91C1330.46 690.716 1330.05 691.516 1329.13 692.288L1327.93 693.295C1327.03 694.048 1325.86 694.566 1324.45 694.835C1323 695.113 1321.39 694.859 1319.67 694.231C1317.94 693.602 1316.87 692.88 1316.72 692.029L1316.72 692.02ZM1324.38 694.49C1325.63 694.25 1326.66 693.795 1327.46 693.124L1328.66 692.117C1329.49 691.423 1329.84 690.721 1329.71 690.012C1329.62 689.315 1328.73 688.659 1327.04 688.044C1325.35 687.428 1323.89 687.228 1322.66 687.445C1321.47 687.674 1320.46 688.135 1319.63 688.83L1318.43 689.836C1317.63 690.507 1317.26 691.203 1317.32 691.923C1317.45 692.632 1318.36 693.294 1320.05 693.91C1321.74 694.525 1323.18 694.719 1324.38 694.49ZM1288.57 705.231L1296.89 708.26L1307.95 698.976L1299.63 695.947L1305.16 691.313L1321.93 697.417L1305.34 711.336L1313.05 714.143L1307.53 718.778L1283.04 709.866L1288.57 705.231ZM1304.49 711.486L1321.07 697.567L1305.24 691.805L1300.48 695.797L1308.81 698.826L1296.98 708.753L1288.65 705.724L1283.9 709.716L1307.44 718.285L1312.2 714.294L1304.49 711.486ZM1329.04 725.654L1329.04 725.654C1326.87 725.916 1324.69 725.622 1322.53 724.834C1321.01 724.283 1319.84 723.579 1319.02 722.722L1319.02 722.719C1318.23 721.868 1317.86 720.87 1317.89 719.735L1317.89 719.728C1317.96 718.603 1318.46 717.339 1319.38 715.943L1319.39 715.936C1320.35 714.543 1321.81 713.026 1323.76 711.386C1325.72 709.747 1327.66 708.404 1329.6 707.366L1329.61 707.361C1331.57 706.343 1333.47 705.587 1335.31 705.109L1335.32 705.106C1337.2 704.641 1339 704.437 1340.73 704.502L1340.74 704.502C1342.48 704.579 1344.12 704.896 1345.63 705.447C1346.72 705.843 1347.59 706.297 1348.22 706.811C1348.84 707.317 1349.28 707.863 1349.52 708.448C1349.79 709.042 1349.87 709.67 1349.75 710.33C1349.72 710.665 1349.66 711.006 1349.56 711.352L1362.05 700.873L1370.5 703.948L1339.12 730.277L1330.67 727.201L1333.88 724.512C1332.29 725.07 1330.68 725.452 1329.04 725.654ZM1334.73 723.796C1334.84 723.751 1334.95 723.705 1335.06 723.659L1335.41 723.788L1331.53 727.051L1339.04 729.784L1369.65 704.098L1362.14 701.365L1348.98 712.403L1348.63 712.274C1348.66 712.201 1348.69 712.129 1348.72 712.057C1348.96 711.479 1349.1 710.917 1349.15 710.373C1349.26 709.75 1349.19 709.159 1348.93 708.601C1348.71 708.056 1348.3 707.543 1347.71 707.062C1347.12 706.581 1346.3 706.15 1345.25 705.769C1343.79 705.239 1342.24 704.938 1340.58 704.865C1338.95 704.804 1337.24 704.996 1335.45 705.439C1333.7 705.895 1331.86 706.621 1329.95 707.616C1328.07 708.624 1326.16 709.938 1324.23 711.557C1322.3 713.177 1320.87 714.663 1319.94 716.016C1319.04 717.381 1318.56 718.599 1318.49 719.67C1318.46 720.754 1318.82 721.697 1319.56 722.498C1320.34 723.311 1321.46 723.983 1322.91 724.512C1325.01 725.276 1327.05 725.537 1329.03 725.297C1330.96 725.06 1332.86 724.56 1334.73 723.796ZM1335.16 721.918C1336.43 721.849 1337.56 721.426 1338.58 720.562L1344.87 715.286C1345.9 714.423 1346.16 713.683 1345.77 713.014L1345.77 713.009C1345.39 712.299 1344.6 711.715 1343.36 711.264C1341.77 710.686 1340.21 710.597 1338.65 710.936L1338.64 710.938C1337.09 711.26 1335.6 711.987 1334.17 713.184L1330.86 715.961C1329.44 717.157 1328.8 718.215 1328.85 719.154C1328.93 720.056 1329.71 720.802 1331.3 721.381C1332.54 721.833 1333.82 722.005 1335.15 721.919L1335.16 721.918ZM1328.25 719.239C1328.19 718.189 1328.91 717.04 1330.39 715.79L1333.7 713.013C1335.19 711.764 1336.81 710.958 1338.55 710.596C1340.32 710.211 1342.05 710.327 1343.74 710.942C1345.06 711.423 1345.93 712.055 1346.35 712.839C1346.81 713.636 1346.47 714.509 1345.34 715.458L1339.05 720.734C1337.92 721.682 1336.61 722.198 1335.1 722.281C1333.63 722.375 1332.23 722.183 1330.91 721.703C1329.22 721.087 1328.33 720.266 1328.25 719.239ZM1351.39 734.012L1351.39 734.011C1349.94 732.593 1349.27 731.125 1349.44 729.607L1349.47 729.29L1358.01 727.974L1358.04 728.331C1358.14 729.416 1358.59 730.404 1359.38 731.297C1360.23 732.171 1361.5 732.92 1363.2 733.539C1364.64 734.066 1365.9 734.312 1366.97 734.32C1367.49 734.312 1367.94 734.238 1368.32 734.111C1368.7 733.984 1369.06 733.791 1369.39 733.516C1369.64 733.302 1369.77 733.124 1369.81 732.977C1369.85 732.833 1369.82 732.693 1369.69 732.55L1369.68 732.543L1369.68 732.536C1369.39 732.165 1368.83 731.741 1367.98 731.268C1367.98 731.268 1367.98 731.268 1367.98 731.267L1364.31 729.288C1364.31 729.288 1364.31 729.287 1364.31 729.287C1363.24 728.729 1362.33 728.142 1361.57 727.524L1361.56 727.52L1361.56 727.516C1360.82 726.865 1360.31 726.176 1360.05 725.446C1359.78 724.71 1359.8 723.935 1360.09 723.123C1360.4 722.291 1361.1 721.427 1362.16 720.534C1364.51 718.564 1367.49 717.401 1371.06 717.082C1374.6 716.765 1378.3 717.338 1382.15 718.738C1384.76 719.687 1386.7 720.75 1387.97 721.932C1389.28 723.098 1389.97 724.353 1390.01 725.696L1390.02 726.003L1381.61 727.804L1381.57 727.413C1381.49 726.604 1381.09 725.797 1380.37 724.991C1379.67 724.208 1378.5 723.508 1376.82 722.898C1375.4 722.38 1374.24 722.169 1373.31 722.2C1372.45 722.229 1371.75 722.47 1371.16 722.964C1370.64 723.402 1370.57 723.727 1370.78 724.007C1371.11 724.362 1371.68 724.775 1372.53 725.248C1372.53 725.248 1372.53 725.248 1372.53 725.248L1376.15 727.209C1376.15 727.21 1376.15 727.21 1376.15 727.211C1377.22 727.769 1378.12 728.369 1378.85 729.012C1379.63 729.639 1380.15 730.317 1380.41 731.047C1380.71 731.795 1380.71 732.578 1380.42 733.393C1380.11 734.224 1379.41 735.088 1378.35 735.981C1376 737.953 1372.99 739.119 1369.36 739.449C1365.79 739.79 1362.02 739.209 1358.08 737.773C1355.12 736.698 1352.89 735.446 1351.39 734.012ZM1379.82 731.191C1379.57 730.504 1379.08 729.86 1378.34 729.259C1377.63 728.635 1376.75 728.05 1375.7 727.503L1372.08 725.537C1371.2 725.052 1370.59 724.612 1370.23 724.218C1369.9 723.8 1370.06 723.326 1370.69 722.793C1372.13 721.59 1374.3 721.518 1377.21 722.577C1378.93 723.205 1380.17 723.937 1380.92 724.774C1381.57 725.497 1381.97 726.229 1382.12 726.971C1382.15 727.087 1382.16 727.204 1382.18 727.321L1389.41 725.772C1389.37 724.499 1388.72 723.298 1387.44 722.171C1386.23 721.032 1384.33 719.995 1381.76 719.059C1377.97 717.68 1374.4 717.141 1371.03 717.442C1367.66 717.743 1364.87 718.831 1362.63 720.705C1361.61 721.562 1360.96 722.37 1360.68 723.132C1360.41 723.894 1360.39 724.618 1360.64 725.306C1360.89 725.993 1361.37 726.649 1362.08 727.273C1362.82 727.874 1363.71 728.447 1364.76 728.994L1368.43 730.978C1369.31 731.463 1369.91 731.915 1370.24 732.332C1370.59 732.727 1370.47 733.178 1369.86 733.687C1369.09 734.335 1368.08 734.667 1366.85 734.684C1365.65 734.677 1364.3 734.402 1362.81 733.86C1361.05 733.22 1359.73 732.439 1358.84 731.518C1358.05 730.636 1357.59 729.663 1357.46 728.601C1357.45 728.541 1357.44 728.481 1357.44 728.42L1350.04 729.56C1349.88 730.995 1350.51 732.402 1351.93 733.779C1353.37 735.169 1355.55 736.393 1358.46 737.452C1362.35 738.868 1365.99 739.414 1369.39 739.09C1372.81 738.778 1375.64 737.685 1377.88 735.81C1378.9 734.954 1379.55 734.145 1379.83 733.383C1380.1 732.622 1380.1 731.891 1379.82 731.191ZM1373.5 751.64L1373.5 751.636C1372.96 750.88 1372.78 750.129 1373.01 749.388L1373.01 749.381L1373.01 749.375C1373.27 748.67 1373.79 747.992 1374.56 747.344C1375.85 746.26 1377.37 745.558 1379.1 745.315L1379.11 745.313C1380.4 745.15 1381.81 745.159 1383.33 745.327C1382.82 744.835 1382.49 744.327 1382.35 743.803L1382.35 743.794L1382.35 743.785C1382.21 742.996 1382.7 742.165 1383.71 741.317C1384.85 740.361 1386.22 739.773 1387.8 739.645L1387.81 739.644C1389.01 739.56 1390.3 739.613 1391.67 739.793C1390.98 738.809 1390.73 737.754 1390.93 736.631L1390.93 736.625C1391.21 735.31 1392.18 733.966 1393.81 732.6C1395.09 731.521 1396.52 730.661 1398.09 730.034C1399.68 729.388 1401.33 728.97 1403.05 728.784L1403.06 728.783C1404.79 728.612 1406.55 728.647 1408.33 728.882C1410.11 729.117 1411.88 729.559 1413.64 730.2C1415.11 730.734 1416.37 731.335 1417.43 732.004L1418.11 731.441C1419.03 730.662 1420.23 730.146 1421.66 729.913C1423.12 729.678 1424.53 729.833 1425.86 730.32L1430.95 732.171L1425.72 736.563L1419.91 734.45C1420.46 735.369 1420.6 736.35 1420.34 737.389C1420.09 738.645 1419.15 739.935 1417.58 741.253C1416.3 742.332 1414.87 743.193 1413.29 743.82C1411.73 744.444 1410.06 744.854 1408.29 745.05L1408.28 745.051C1406.54 745.223 1404.77 745.181 1402.96 744.934C1402.96 744.934 1402.96 744.933 1402.96 744.933L1403.2 744.577L1402.96 744.934C1402.96 744.934 1402.96 744.934 1402.96 744.934C1401.18 744.698 1399.41 744.257 1397.65 743.616C1396.86 743.328 1396.13 743.028 1395.46 742.716L1395.45 742.712L1395.44 742.707C1394.86 742.403 1394.32 742.089 1393.84 741.765C1393.92 741.762 1394 741.761 1394.07 741.76L1394.18 741.396L1393.69 741.663C1393.74 741.698 1393.79 741.732 1393.84 741.765C1393.46 741.78 1393.08 741.826 1392.72 741.903C1392.72 741.901 1392.73 741.9 1392.73 741.898L1392.6 741.566L1392.7 741.907C1392.7 741.906 1392.71 741.904 1392.72 741.903C1392.4 741.986 1392.08 742.142 1391.76 742.406C1391.49 742.631 1391.41 742.798 1391.42 742.926C1391.42 743.091 1391.5 743.259 1391.68 743.432C1391.67 743.427 1391.67 743.422 1391.66 743.418L1391.17 743.683L1391.7 743.448C1391.69 743.443 1391.69 743.437 1391.68 743.432C1391.94 743.613 1392.27 743.794 1392.69 743.975C1393.12 744.165 1393.59 744.351 1394.08 744.532L1400.07 746.711C1401.96 747.399 1403.44 748.123 1404.5 748.888C1405.55 749.648 1406.25 750.439 1406.56 751.265C1406.87 752.087 1406.84 752.914 1406.43 753.742C1406.03 754.555 1405.35 755.362 1404.4 756.162C1402 758.17 1398.95 759.224 1395.32 759.28C1391.75 759.336 1387.44 758.414 1382.41 756.584C1379.9 755.668 1377.93 754.801 1376.52 753.983C1376.52 753.984 1376.52 753.985 1376.52 753.986L1376.98 753.697L1376.51 753.981C1376.52 753.982 1376.52 753.983 1376.52 753.983C1375.09 753.194 1374.07 752.414 1373.5 751.64ZM1374.06 751.442C1373.56 750.727 1373.4 750.041 1373.61 749.384C1373.84 748.739 1374.32 748.116 1375.03 747.515C1376.25 746.496 1377.61 745.881 1379.12 745.669C1380.51 745.493 1382.08 745.53 1383.84 745.778C1383.93 745.791 1384.02 745.805 1384.11 745.819C1384.15 745.825 1384.19 745.831 1384.23 745.837L1384.48 745.629C1384.46 745.613 1384.44 745.597 1384.42 745.581C1384.36 745.536 1384.31 745.492 1384.25 745.448C1383.55 744.868 1383.11 744.278 1382.95 743.678C1382.83 743.005 1383.24 742.274 1384.18 741.488C1385.23 740.608 1386.42 740.114 1387.76 740.006C1389.04 739.916 1390.46 739.991 1392.02 740.232C1392.07 740.24 1392.12 740.249 1392.18 740.257C1392.24 740.268 1392.31 740.278 1392.37 740.29L1392.62 740.081C1392.61 740.062 1392.59 740.043 1392.57 740.024C1392.54 739.987 1392.51 739.949 1392.48 739.911C1391.64 738.883 1391.32 737.78 1391.53 736.6C1391.79 735.366 1392.71 734.09 1394.28 732.771C1395.52 731.73 1396.88 730.914 1398.36 730.324C1399.86 729.711 1401.42 729.317 1403.04 729.142C1404.69 728.979 1406.37 729.011 1408.09 729.239C1409.81 729.466 1411.53 729.893 1413.25 730.521C1414.73 731.059 1415.99 731.663 1417.04 732.334C1417.17 732.416 1417.3 732.499 1417.42 732.584L1418.58 731.612C1419.4 730.918 1420.45 730.468 1421.71 730.264C1422.97 730.06 1424.23 730.186 1425.48 730.641L1430.1 732.322L1425.63 736.071L1419.34 733.78L1418.97 734.093C1418.97 734.099 1418.98 734.105 1418.98 734.111C1419.78 735.132 1420.04 736.232 1419.74 737.411C1419.5 738.585 1418.63 739.809 1417.11 741.082C1415.87 742.123 1414.51 742.939 1413.03 743.529C1411.55 744.118 1409.97 744.506 1408.3 744.692M1382.5 750.26L1382.5 750.263C1382.72 750.779 1383.55 751.348 1385.18 751.942L1389.6 753.549C1391.3 754.169 1392.64 754.422 1393.63 754.387C1394.59 754.353 1395.32 754.101 1395.9 753.616C1396.33 753.257 1396.45 752.911 1396.29 752.542C1396.21 752.383 1395.99 752.184 1395.58 751.951C1395.17 751.717 1394.6 751.465 1393.86 751.194L1385.05 747.99C1384.18 748.13 1383.5 748.42 1382.98 748.863C1382.44 749.312 1382.28 749.766 1382.5 750.26ZM1396.88 752.381C1397.09 752.855 1396.92 753.324 1396.37 753.787C1395.65 754.389 1394.71 754.71 1393.55 754.751C1392.38 754.791 1390.94 754.498 1389.21 753.87L1384.8 752.263C1383.14 751.66 1382.18 751.044 1381.91 750.415C1381.64 749.822 1381.84 749.247 1382.51 748.692C1383.2 748.113 1384.11 747.75 1385.26 747.603L1394.24 750.872C1395.76 751.426 1396.64 751.929 1396.88 752.381ZM1406.05 740.123C1407.2 739.906 1408.19 739.457 1409.04 738.742L1410.03 737.909C1410.89 737.194 1411.24 736.513 1411.15 735.846L1411.15 735.838C1411.09 735.223 1410.44 734.636 1408.98 734.105C1407.56 733.589 1406.35 733.494 1405.3 733.708C1404.19 733.936 1403.2 734.392 1402.35 735.111L1401.35 735.944C1400.5 736.663 1400.13 737.342 1400.19 737.997C1400.25 738.613 1400.88 739.194 1402.3 739.711C1403.76 740.241 1405 740.34 1406.04 740.126L1406.05 740.123ZM1419.96 758.966L1419.96 758.959C1419.82 757.996 1420.27 757.069 1421.31 756.197L1422.76 754.983C1423.8 754.111 1425.15 753.524 1426.79 753.235C1428.55 752.924 1430.43 753.181 1432.38 753.891C1434.32 754.597 1435.47 755.44 1435.62 756.451C1435.82 757.404 1435.4 758.329 1434.36 759.203L1432.91 760.418C1431.87 761.294 1430.48 761.884 1428.79 762.181C1427.08 762.483 1425.24 762.217 1423.29 761.51C1421.35 760.802 1420.17 759.967 1419.96 758.973L1419.96 758.966ZM1448.87 767.095L1448.87 767.09C1448.71 765.82 1449.03 764.472 1449.83 763.049C1450.62 761.622 1451.92 760.164 1453.69 758.675C1455.46 757.187 1457.38 755.955 1459.44 754.987C1461.49 754.021 1463.6 753.324 1465.77 752.903L1465.78 752.901C1467.99 752.493 1470.19 752.381 1472.39 752.561C1474.62 752.719 1476.78 753.18 1478.85 753.937C1480.93 754.693 1482.55 755.604 1483.69 756.674C1484.86 757.719 1485.53 758.878 1485.69 760.149C1485.88 761.431 1485.57 762.786 1484.78 764.211C1483.98 765.638 1482.69 767.096 1480.91 768.584C1479.14 770.073 1477.23 771.305 1475.17 772.273C1473.12 773.239 1470.98 773.93 1468.78 774.339C1466.6 774.76 1464.4 774.89 1462.18 774.733L1462.16 774.733C1459.96 774.552 1457.83 774.079 1455.75 773.323C1453.67 772.567 1452.04 771.668 1450.87 770.623L1450.87 770.618C1449.73 769.551 1449.06 768.376 1448.87 767.095ZM1468.7 773.993C1470.82 773.602 1472.87 772.939 1474.86 772.003C1476.84 771.068 1478.71 769.871 1480.44 768.413C1482.18 766.956 1483.44 765.537 1484.21 764.159C1484.98 762.78 1485.27 761.476 1485.08 760.248C1484.93 759.032 1484.29 757.92 1483.17 756.912C1482.07 755.882 1480.5 754.997 1478.47 754.258C1476.44 753.519 1474.35 753.074 1472.21 752.923C1470.08 752.748 1467.97 752.857 1465.85 753.248C1463.77 753.652 1461.74 754.321 1459.75 755.257C1457.76 756.192 1455.9 757.389 1454.16 758.846C1452.42 760.304 1451.17 761.722 1450.4 763.101C1449.63 764.48 1449.32 765.777 1449.47 766.993C1449.66 768.222 1450.3 769.352 1451.4 770.382C1452.53 771.39 1454.1 772.263 1456.13 773.002C1458.16 773.74 1460.24 774.197 1462.36 774.372C1464.51 774.523 1466.62 774.397 1468.7 773.993ZM1461.07 768.862C1462.65 769.44 1464.23 769.536 1465.83 769.206C1467.44 768.874 1469 768.108 1470.52 766.84L1473.91 763.993C1475.42 762.725 1476.07 761.628 1475.99 760.681C1475.91 759.739 1475.13 758.975 1473.54 758.398C1471.95 757.82 1470.37 757.723 1468.77 758.054C1467.17 758.386 1465.6 759.151 1464.09 760.42L1460.7 763.266C1459.19 764.535 1458.53 765.631 1458.61 766.578C1458.7 767.521 1459.48 768.285 1461.07 768.862ZM1482.29 775.74L1488.33 777.938L1499.39 768.653L1493.35 766.456L1498.88 761.821L1513.36 767.094L1508.52 771.162C1508.92 770.977 1509.34 770.799 1509.76 770.628L1509.77 770.625C1511 770.14 1512.25 769.774 1513.52 769.533C1514.86 769.277 1516.21 769.185 1517.56 769.256C1518.93 769.328 1520.29 769.615 1521.62 770.1L1524.58 771.176L1518.19 776.539L1512.14 774.337C1510.37 773.695 1508.69 773.597 1507.05 773.966L1507.04 773.968C1505.37 774.329 1503.94 775.005 1502.72 776.024L1496.78 781.013L1505.4 784.153L1499.88 788.788L1476.76 780.375L1482.29 775.74ZM1495.92 781.164L1502.25 775.853C1503.55 774.765 1505.11 774.024 1506.94 773.628C1508.8 773.209 1510.66 773.338 1512.52 774.015L1518.1 776.047L1523.73 771.326L1521.24 770.421C1519.95 769.954 1518.67 769.686 1517.39 769.619C1516.12 769.552 1514.85 769.638 1513.59 769.878C1512.4 770.107 1511.21 770.454 1510.02 770.918C1509.07 771.303 1508.16 771.726 1507.29 772.188C1507.14 772.271 1506.98 772.356 1506.83 772.442L1506.47 772.313L1512.51 767.245L1498.96 762.314L1494.21 766.305L1500.24 768.503L1488.41 778.43L1482.37 776.232L1477.62 780.224L1499.79 788.295L1504.55 784.303L1495.92 781.164ZM1503.32 798.892L1503.32 798.888C1502.79 798.132 1502.61 797.381 1502.83 796.64L1502.84 796.633L1502.84 796.627C1503.09 795.922 1503.61 795.244 1504.39 794.596C1505.68 793.512 1507.19 792.81 1508.92 792.567L1508.94 792.565C1510.22 792.402 1511.63 792.411 1513.15 792.579C1512.65 792.087 1512.32 791.579 1512.18 791.055L1512.17 791.046L1512.17 791.037C1512.03 790.248 1512.52 789.417 1513.53 788.569C1514.67 787.613 1516.04 787.025 1517.62 786.897L1517.64 786.896C1518.83 786.812 1520.12 786.865 1521.5 787.045C1520.8 786.061 1520.55 785.006 1520.75 783.883L1520.76 783.877C1521.03 782.562 1522 781.218 1523.63 779.852C1524.92 778.773 1526.34 777.913 1527.92 777.286C1529.5 776.64 1531.16 776.222 1532.87 776.036L1532.88 776.035C1534.61 775.864 1536.37 775.899 1538.15 776.134C1539.93 776.369 1541.7 776.811 1543.46 777.452C1544.93 777.986 1546.2 778.587 1547.26 779.256L1547.93 778.693C1548.86 777.914 1550.05 777.398 1551.49 777.165C1552.94 776.93 1554.35 777.085 1555.69 777.572L1560.77 779.423L1555.54 783.815L1549.74 781.702C1550.28 782.621 1550.42 783.602 1550.17 784.641C1549.91 785.897 1548.98 787.187 1547.41 788.505C1546.12 789.584 1544.69 790.445 1543.12 791.072C1541.55 791.696 1539.88 792.106 1538.12 792.302L1538.1 792.303C1536.37 792.475 1534.59 792.433 1532.78 792.186C1531 791.95 1529.23 791.509 1527.47 790.868C1526.68 790.58 1525.95 790.28 1525.28 789.968L1525.27 789.964L1525.26 789.959C1524.68 789.655 1524.15 789.341 1523.67 789.017C1523.28 789.032 1522.91 789.078 1522.54 789.155C1522.22 789.238 1521.9 789.394 1521.59 789.658C1521.32 789.883 1521.24 790.05 1521.24 790.178C1521.25 790.343 1521.33 790.511 1521.51 790.684C1521.76 790.865 1522.1 791.046 1522.51 791.227C1522.94 791.417 1523.41 791.603 1523.91 791.784L1529.9 793.963C1531.78 794.651 1533.27 795.375 1534.32 796.14C1535.37 796.9 1536.07 797.691 1536.38 798.517C1536.7 799.339 1536.66 800.166 1536.25 800.994C1535.86 801.807 1535.17 802.614 1534.22 803.414C1531.83 805.422 1528.78 806.476 1525.14 806.532C1521.57 806.588 1517.27 805.666 1512.24 803.836C1509.72 802.92 1507.75 802.053 1506.34 801.235C1504.92 800.446 1503.9 799.666 1503.32 798.892ZM1506.8 800.949C1508.18 801.748 1510.12 802.603 1512.62 803.514C1517.63 805.337 1521.83 806.221 1525.24 806.169C1528.65 806.116 1531.49 805.14 1533.75 803.243C1534.66 802.479 1535.3 801.717 1535.67 800.957C1536.05 800.197 1536.09 799.431 1535.79 798.661C1535.5 797.89 1534.84 797.138 1533.83 796.403C1532.81 795.668 1531.37 794.962 1529.51 794.285L1523.52 792.106C1523.02 791.921 1522.54 791.731 1522.09 791.535C1521.65 791.34 1521.28 791.139 1520.99 790.935C1520.76 790.719 1520.64 790.493 1520.63 790.257C1520.62 790.021 1520.78 789.765 1521.12 789.487C1521.5 789.163 1521.94 788.94 1522.42 788.818C1522.94 788.708 1523.47 788.652 1524.01 788.648C1524.51 788.998 1525.08 789.337 1525.71 789.665C1526.36 789.969 1527.08 790.264 1527.86 790.547C1529.58 791.175 1531.3 791.602 1533.02 791.829C1534.77 792.069 1536.47 792.107 1538.12 791.944C1539.8 791.758 1541.38 791.37 1542.86 790.781C1544.33 790.191 1545.69 789.375 1546.94 788.334C1548.45 787.061 1549.33 785.837 1549.56 784.663C1549.86 783.484 1549.61 782.384 1548.8 781.363C1548.8 781.357 1548.79 781.351 1548.79 781.345L1549.16 781.032L1555.45 783.323L1559.92 779.574L1555.3 777.893C1554.05 777.438 1552.8 777.312 1551.53 777.516C1550.27 777.72 1549.23 778.17 1548.4 778.864L1547.24 779.836C1547.12 779.751 1546.99 779.668 1546.87 779.586C1545.82 778.915 1544.56 778.311 1543.08 777.773C1541.35 777.145 1539.63 776.718 1537.91 776.491C1536.2 776.263 1534.51 776.231 1532.86 776.394C1531.25 776.569 1529.69 776.963 1528.18 777.576C1526.7 778.166 1525.34 778.982 1524.1 780.023C1522.53 781.342 1521.61 782.618 1521.36 783.852C1521.15 785.032 1521.46 786.135 1522.3 787.163C1522.33 787.201 1522.36 787.239 1522.4 787.276C1522.41 787.295 1522.43 787.314 1522.45 787.333L1522.2 787.542C1522.13 787.53 1522.07 787.52 1522 787.509C1521.95 787.501 1521.89 787.492 1521.84 787.484C1520.28 787.243 1518.87 787.168 1517.59 787.258C1516.25 787.366 1515.05 787.86 1514 788.74C1513.07 789.526 1512.66 790.257 1512.78 790.93C1512.94 791.53 1513.37 792.12 1514.08 792.7C1514.13 792.744 1514.19 792.788 1514.24 792.833C1514.26 792.849 1514.29 792.865 1514.31 792.881L1514.06 793.089C1514.02 793.083 1513.98 793.077 1513.94 793.071C1513.85 793.057 1513.75 793.043 1513.66 793.03C1511.9 792.782 1510.33 792.745 1508.95 792.921C1507.43 793.133 1506.07 793.748 1504.86 794.767C1504.14 795.368 1503.66 795.991 1503.43 796.636C1503.23 797.293 1503.38 797.979 1503.89 798.694C1504.43 799.421 1505.4 800.173 1506.8 800.949ZM1511.73 797.667C1511.47 797.074 1511.67 796.499 1512.33 795.944C1513.02 795.365 1513.94 795.002 1515.08 794.855L1524.06 798.124C1525.59 798.678 1526.47 799.181 1526.7 799.633C1526.91 800.107 1526.74 800.576 1526.19 801.039C1525.47 801.641 1524.53 801.962 1523.37 802.003C1522.21 802.043 1520.76 801.75 1519.04 801.122L1514.62 799.515C1512.96 798.912 1512 798.296 1511.73 797.667ZM1526.12 799.794C1526.03 799.635 1525.81 799.436 1525.4 799.203C1525 798.969 1524.42 798.717 1523.68 798.446L1514.88 795.242C1514.01 795.382 1513.33 795.672 1512.8 796.115C1512.26 796.564 1512.1 797.018 1512.32 797.512L1512.32 797.515C1512.54 798.031 1513.37 798.6 1515 799.194L1519.42 800.801C1521.12 801.421 1522.46 801.674 1523.45 801.639C1524.42 801.605 1525.14 801.353 1525.72 800.868C1526.15 800.509 1526.28 800.163 1526.12 799.794ZM1535.86 787.378L1535.88 787.375C1537.02 787.158 1538.01 786.709 1538.87 785.994L1539.86 785.161C1540.71 784.446 1541.06 783.765 1540.97 783.098L1540.97 783.09C1540.92 782.475 1540.27 781.888 1538.81 781.357C1537.39 780.841 1536.17 780.746 1535.12 780.96C1534.01 781.188 1533.03 781.644 1532.17 782.363L1531.18 783.196C1530.32 783.915 1529.95 784.594 1530.01 785.249C1530.07 785.865 1530.71 786.446 1532.13 786.963C1533.59 787.493 1534.82 787.592 1535.86 787.378ZM1406.13 740.469C1404.85 740.732 1403.44 740.586 1401.92 740.032C1400.43 739.49 1399.65 738.842 1399.58 738.086C1399.51 737.331 1399.95 736.56 1400.88 735.773L1401.88 734.94C1402.82 734.153 1403.93 733.628 1405.21 733.366C1406.49 733.103 1407.88 733.242 1409.37 733.784C1410.89 734.338 1411.68 734.993 1411.75 735.748C1411.86 736.516 1411.44 737.293 1410.5 738.08L1409.51 738.913C1408.57 739.7 1407.45 740.218 1406.13 740.469ZM1420.56 758.86C1420.74 759.723 1421.78 760.499 1423.68 761.189C1425.57 761.878 1427.26 762.093 1428.73 761.833C1430.26 761.563 1431.5 761.034 1432.44 760.247L1433.89 759.032C1434.82 758.245 1435.2 757.42 1435.02 756.557C1434.9 755.683 1433.89 754.901 1431.99 754.212C1430.1 753.522 1428.38 753.313 1426.85 753.584C1425.37 753.844 1424.17 754.367 1423.23 755.154L1421.78 756.368C1420.85 757.155 1420.44 757.986 1420.56 758.86ZM1465.92 769.548C1464.12 769.921 1462.38 769.799 1460.68 769.184C1458.99 768.568 1458.1 767.729 1458.01 766.667C1457.92 765.605 1458.66 764.414 1460.23 763.095L1463.62 760.249C1465.19 758.93 1466.88 758.084 1468.68 757.712C1470.48 757.339 1472.23 757.461 1473.92 758.076C1475.61 758.692 1476.5 759.531 1476.6 760.593C1476.69 761.655 1475.95 762.845 1474.38 764.164L1470.99 767.011C1469.41 768.33 1467.73 769.176 1465.92 769.548ZM1535.95 787.721C1534.67 787.984 1533.27 787.838 1531.74 787.284C1530.26 786.742 1529.48 786.094 1529.41 785.338C1529.34 784.583 1529.77 783.812 1530.71 783.025L1531.7 782.192C1532.64 781.405 1533.75 780.88 1535.03 780.618C1536.32 780.355 1537.7 780.494 1539.19 781.036C1540.71 781.59 1541.51 782.245 1541.58 783C1541.68 783.768 1541.27 784.545 1540.33 785.332L1539.33 786.165C1538.4 786.952 1537.27 787.47 1535.95 787.721Z" fill="#6421A6"/>
<defs>
<filter id="filter0_ii_2_12075" x="620.247" y="199.576" width="1204.46" height="1734.17" filterUnits="userSpaceOnUse" color-interpolation-filters="sRGB">
<feFlood flood-opacity="0" result="BackgroundImageFix"/>
<feBlend mode="normal" in="SourceGraphic" in2="BackgroundImageFix" result="shape"/>
<feColorMatrix in="SourceAlpha" type="matrix" values="0 0 0 0 0 0 0 0 0 0 0 0 0 0 0 0 0 0 127 0" result="hardAlpha"/>
<feOffset dy="-7.19725"/>
<feGaussianBlur stdDeviation="1.79931"/>
<feComposite in2="hardAlpha" operator="arithmetic" k2="-1" k3="1"/>
<feColorMatrix type="matrix" values="0 0 0 0 0 0 0 0 0 0 0 0 0 0 0 0 0 0 0.25 0"/>
<feBlend mode="normal" in2="shape" result="effect1_innerShadow_2_12075"/>
<feColorMatrix in="SourceAlpha" type="matrix" values="0 0 0 0 0 0 0 0 0 0 0 0 0 0 0 0 0 0 127 0" result="hardAlpha"/>
<feOffset dy="7.19725"/>
<feGaussianBlur stdDeviation="1.79931"/>
<feComposite in2="hardAlpha" operator="arithmetic" k2="-1" k3="1"/>
<feColorMatrix type="matrix" values="0 0 0 0 1 0 0 0 0 1 0 0 0 0 1 0 0 0 0.45 0"/>
<feBlend mode="normal" in2="effect1_innerShadow_2_12075" result="effect2_innerShadow_2_12075"/>
</filter>
</defs>
</svg>
