<svg width="945" height="945" viewBox="0 0 945 945" fill="none" xmlns="http://www.w3.org/2000/svg">
<ellipse cx="472.46" cy="472.456" rx="472.457" ry="472.456" fill="url(#paint0_radial_4_13435)"/>
<ellipse cx="80.4596" cy="116.616" rx="80.4596" ry="116.616" transform="matrix(0.983028 0.183458 -0.186664 0.982424 232.421 184.631)" fill="black"/>
<mask id="mask0_4_13435" style="mask-type:alpha" maskUnits="userSpaceOnUse" x="0" y="0" width="945" height="945">
<ellipse cx="472.457" cy="472.456" rx="472.457" ry="472.456" fill="#F7C75E"/>
</mask>
<g mask="url(#mask0_4_13435)">
<path d="M123.823 147.255C592.589 96.2654 826.415 267.639 950.899 433.082" stroke="black" stroke-width="24.7643" stroke-linecap="round" stroke-linejoin="round"/>
</g>
<path d="M470.521 312.926C455.663 258.931 472.585 188.165 482.904 159.531C690.924 198.8 792.458 282.247 817.223 319.062C757.788 446.686 660.382 449.959 619.108 435.642C544.815 406.19 489.095 345.65 470.521 312.926Z" fill="black" stroke="black" stroke-width="12.3822"/>
<path fill-rule="evenodd" clip-rule="evenodd" d="M146.971 456.708C140.679 456.708 135.361 461.425 134.862 467.698C134.2 476.024 133.863 484.439 133.863 492.929C133.863 672.972 285.457 818.925 472.457 818.925C659.458 818.925 811.052 672.972 811.052 492.929C811.052 484.439 810.714 476.024 810.052 467.698C809.554 461.425 804.235 456.708 797.943 456.708H146.971ZM177.747 600.039C183.584 614.833 190.599 629.075 198.684 642.659L184.45 528.588L177.747 600.039ZM220.246 674.148C230.97 687.865 242.884 700.68 255.843 712.451L238.439 528.351L220.246 674.148ZM277.744 730.599C290.025 739.869 303.044 748.283 316.704 755.745L295.838 539.193L277.744 730.599ZM338.046 766.387C353.049 773.181 368.705 778.873 384.901 783.354L360.173 536.749L338.046 766.387ZM406.884 788.616C424.49 792.187 442.643 794.349 461.21 794.973L432.621 531.95L406.884 788.616ZM483.703 794.973C502.27 794.349 520.423 792.187 538.029 788.617L512.292 531.95L483.703 794.973ZM560.012 783.354C576.208 778.874 591.863 773.182 606.867 766.388L584.74 536.748L560.012 783.354ZM628.208 755.746C641.869 748.284 654.888 739.87 667.169 730.6L649.075 539.193L628.208 755.746ZM689.07 712.453C702.029 700.681 713.943 687.866 724.667 674.15L706.474 528.351L689.07 712.453ZM746.228 642.662C754.313 629.078 761.329 614.836 767.167 600.042L760.463 528.588L746.228 642.662ZM783.258 480.19H772.056L777.657 539.89L783.258 480.19ZM750.314 480.19H716.652L733.483 615.074L750.314 480.19ZM694.892 480.19H659.632L677.262 666.686L694.892 480.19ZM638.623 480.19H595.427L617.025 704.332L638.623 480.19ZM574.267 480.19H523.246L548.757 734.604L574.267 480.19ZM501.761 480.19H443.152L472.456 749.789L501.761 480.19ZM421.667 480.19H370.646L396.156 734.604L421.667 480.19ZM349.486 480.19H306.29L327.888 704.332L349.486 480.19ZM285.281 480.19H250.021L267.651 666.686L285.281 480.19ZM228.261 480.19H194.599L211.43 615.074L228.261 480.19ZM172.857 480.19H161.655L167.256 539.89L172.857 480.19Z" fill="black"/>
<path fill-rule="evenodd" clip-rule="evenodd" d="M177.747 600.039C183.584 614.833 190.599 629.074 198.684 642.658L184.45 528.588L177.747 600.039ZM220.246 674.147C230.97 687.864 242.884 700.679 255.843 712.451L238.439 528.35L220.246 674.147ZM277.744 730.598C290.025 739.868 303.044 748.282 316.704 755.745L295.838 539.192L277.744 730.598ZM338.046 766.387C353.049 773.181 368.705 778.873 384.901 783.353L360.173 536.748L338.046 766.387ZM406.884 788.616C424.49 792.186 442.643 794.349 461.21 794.972L432.621 531.949L406.884 788.616ZM483.703 794.972C502.27 794.349 520.423 792.187 538.029 788.616L512.292 531.95L483.703 794.972ZM560.012 783.354C576.208 778.873 591.864 773.181 606.867 766.387L584.74 536.748L560.012 783.354ZM628.208 755.746C641.869 748.283 654.888 739.869 667.169 730.599L649.075 539.192L628.208 755.746ZM689.07 712.452C702.029 700.681 713.943 687.866 724.667 674.149L706.474 528.351L689.07 712.452ZM746.228 642.661C754.314 629.077 761.329 614.836 767.167 600.042L760.463 528.588L746.228 642.661ZM157.778 480.331H157.778C157.584 484.686 157.486 489.065 157.486 493.468C157.486 659.893 298.219 795.303 472.457 795.303C573.189 795.303 662.722 750.044 720.337 679.7C662.722 750.044 573.188 795.302 472.457 795.302C298.219 795.302 157.486 659.892 157.486 493.468C157.486 489.065 157.584 484.685 157.778 480.331ZM161.668 480.331L167.256 539.89L172.844 480.331H161.668ZM194.617 480.331L211.43 615.073L228.243 480.331H194.617ZM250.035 480.331L267.651 666.685L285.268 480.331H250.035ZM750.297 480.331L733.483 615.073L716.67 480.331H750.297ZM772.069 480.331L777.657 539.89L783.245 480.331H772.069ZM694.878 480.331L677.262 666.685L659.645 480.331H694.878ZM327.888 704.331L306.304 480.331H349.472L327.888 704.331ZM396.156 734.603L370.66 480.331H421.653L396.156 734.603ZM472.457 749.788L443.168 480.331H501.745L472.457 749.788ZM548.757 734.603L523.26 480.331H574.253L548.757 734.603ZM617.025 704.331L595.441 480.331H638.609L617.025 704.331Z" fill="white"/>
<defs>
<radialGradient id="paint0_radial_4_13435" cx="0" cy="0" r="1" gradientUnits="userSpaceOnUse" gradientTransform="translate(-1.80987e-06 -0.00140709) rotate(44.9999) scale(1335.41)">
<stop stop-color="#FAC760"/>
<stop offset="0.495868" stop-color="#FAC760"/>
<stop offset="1" stop-color="#9B7246"/>
</radialGradient>
</defs>
</svg>
