<svg width="100" height="122" viewBox="0 0 100 122" fill="none" xmlns="http://www.w3.org/2000/svg">
<path d="M50 100C77.6142 100 100 77.6144 100 50C100 22.3858 77.6142 0 50 0C22.3856 0 0 22.3858 0 50C0 77.6144 22.3856 100 50 100Z" fill="#4E064F"/>
<path fill-rule="evenodd" clip-rule="evenodd" d="M26.3843 25.9489L26.395 25.9597L26.3895 25.9651L26.3791 25.9755C25.9397 26.4149 25.9397 27.1272 26.3791 27.5666L34.3964 35.5839C34.8358 36.0232 35.548 36.0232 35.9874 35.5839L35.9978 35.5735C36.0413 35.53 36.0804 35.4839 36.1152 35.4357C44.0844 27.5986 56.8979 27.6394 64.8169 35.5581C66.7387 37.48 68.1966 39.6902 69.1903 42.0494L62.9351 42C62.3141 41.995 61.8063 42.4946 61.8016 43.1161C61.7991 43.4175 61.9176 43.7071 62.1309 43.9205L75.148 56.9375C75.5874 57.3769 76.2995 57.3769 76.7391 56.9375L89.552 44.1246C89.9913 43.685 89.9913 42.973 89.552 42.5336C89.343 42.3246 89.0605 42.2065 88.7651 42.204L83.4701 42.1622C82.073 36.2209 79.058 30.5827 74.425 25.9498C61.1589 12.6837 39.6506 12.6834 26.3843 25.9489ZM65.5965 63.5597C65.3457 63.8396 65.0858 64.1142 64.8169 64.3831C56.8569 72.3427 43.9515 72.3427 35.9917 64.3831C33.8892 62.2806 32.3421 59.8331 31.3503 57.2228L36.9461 57.267C37.5672 57.272 38.0751 56.772 38.0797 56.151C38.0822 55.8495 37.9636 55.5595 37.7503 55.3462L24.7334 42.3295C24.294 41.8902 23.5817 41.8902 23.1424 42.3295L10.3295 55.1422C9.89017 55.5816 9.89017 56.2937 10.3295 56.7335C10.5383 56.942 10.8208 57.0606 11.1161 57.0627L17.1883 57.1107C18.512 63.2969 21.577 69.1851 26.3834 73.9913C39.6496 87.2577 61.1586 87.2577 74.425 73.9913C74.6295 73.7868 74.8309 73.5803 75.0291 73.372C75.0977 73.3284 75.1626 73.2767 75.2224 73.2169L75.2328 73.2063C75.672 72.7669 75.672 72.0548 75.2328 71.6154L67.2153 63.5979C66.7777 63.1605 66.0695 63.1588 65.6295 63.5927L65.5965 63.5597Z" fill="white"/>
<path d="M6.03711 121.896C5.21094 121.896 4.46973 121.737 3.81348 121.421C3.15723 121.104 2.59766 120.659 2.13477 120.085C1.67773 119.505 1.32617 118.819 1.08008 118.028C0.839844 117.237 0.719727 116.364 0.719727 115.409V115.225C0.719727 114.275 0.839844 113.405 1.08008 112.614C1.32617 111.817 1.67773 111.129 2.13477 110.549C2.59766 109.969 3.15723 109.521 3.81348 109.204C4.46973 108.888 5.21094 108.729 6.03711 108.729C6.91016 108.729 7.67773 108.888 8.33984 109.204C9.00195 109.521 9.55566 109.969 10.001 110.549C10.4521 111.129 10.792 111.817 11.0205 112.614C11.249 113.405 11.3633 114.275 11.3633 115.225V115.409C11.3633 116.364 11.249 117.237 11.0205 118.028C10.792 118.819 10.4521 119.505 10.001 120.085C9.55566 120.659 9.00195 121.104 8.33984 121.421C7.67773 121.737 6.91016 121.896 6.03711 121.896ZM6.03711 120.454C6.88672 120.454 7.57227 120.243 8.09375 119.821C8.62109 119.399 9.00781 118.811 9.25391 118.055C9.5 117.293 9.62305 116.411 9.62305 115.409V115.207C9.62305 114.211 9.49707 113.338 9.24512 112.588C8.99902 111.832 8.6123 111.243 8.08496 110.821C7.55762 110.394 6.875 110.18 6.03711 110.18C5.26953 110.18 4.61914 110.394 4.08594 110.821C3.55273 111.249 3.14844 111.841 2.87305 112.597C2.59766 113.347 2.45996 114.217 2.45996 115.207V115.409C2.45996 116.405 2.59766 117.284 2.87305 118.046C3.14844 118.802 3.55273 119.394 4.08594 119.821C4.61914 120.243 5.26953 120.454 6.03711 120.454Z" fill="#333333"/>
<path d="M12.6377 121.711V120.604L14.0703 120.357V113.563L12.6377 113.317V112.201H15.6172L15.7402 113.616C16.0566 113.112 16.4521 112.723 16.9268 112.447C17.4072 112.166 17.9521 112.025 18.5615 112.025C19.5869 112.025 20.3809 112.327 20.9434 112.931C21.5059 113.528 21.7871 114.454 21.7871 115.708V120.357L23.2197 120.604V121.711H18.623V120.604L20.0557 120.357V115.743C20.0557 114.905 19.8887 114.311 19.5547 113.959C19.2266 113.607 18.7227 113.432 18.043 113.432C17.5449 113.432 17.1025 113.552 16.7158 113.792C16.335 114.032 16.0303 114.36 15.8018 114.776V120.357L17.2344 120.604V121.711H12.6377Z" fill="#333333"/>
<path d="M24.3887 121.711V120.604L25.8213 120.357V113.563L24.3887 113.317V112.201H27.5527V120.357L28.9854 120.604V121.711H24.3887ZM25.7334 109.854V108H27.5527V109.854H25.7334Z" fill="#333333"/>
<path d="M34.4785 121.896C33.5996 121.896 32.8408 121.69 32.2021 121.28C31.5693 120.864 31.0801 120.293 30.7344 119.566C30.3887 118.834 30.2158 117.999 30.2158 117.062V116.868C30.2158 115.931 30.3887 115.099 30.7344 114.372C31.0801 113.64 31.5693 113.065 32.2021 112.649C32.8408 112.233 33.5938 112.025 34.4609 112.025C35.3398 112.025 36.0957 112.233 36.7285 112.649C37.3672 113.065 37.8594 113.637 38.2051 114.363C38.5508 115.09 38.7236 115.925 38.7236 116.868V117.062C38.7236 118.005 38.5508 118.843 38.2051 119.575C37.8594 120.302 37.3701 120.87 36.7373 121.28C36.1045 121.69 35.3516 121.896 34.4785 121.896ZM34.4785 120.542C35.0293 120.542 35.4893 120.393 35.8584 120.094C36.2334 119.789 36.5146 119.376 36.7021 118.854C36.8955 118.327 36.9922 117.729 36.9922 117.062V116.868C36.9922 116.2 36.8955 115.605 36.7021 115.084C36.5146 114.557 36.2334 114.144 35.8584 113.845C35.4834 113.54 35.0176 113.388 34.4609 113.388C33.9102 113.388 33.4473 113.54 33.0723 113.845C32.6973 114.144 32.416 114.557 32.2285 115.084C32.041 115.605 31.9473 116.2 31.9473 116.868V117.062C31.9473 117.729 32.041 118.327 32.2285 118.854C32.416 119.376 32.6973 119.789 33.0723 120.094C33.4531 120.393 33.9219 120.542 34.4785 120.542Z" fill="#333333"/>
<path d="M40.0596 121.711V120.604L41.4922 120.357V113.563L40.0596 113.317V112.201H43.0391L43.1621 113.616C43.4785 113.112 43.874 112.723 44.3486 112.447C44.8291 112.166 45.374 112.025 45.9834 112.025C47.0088 112.025 47.8027 112.327 48.3652 112.931C48.9277 113.528 49.209 114.454 49.209 115.708V120.357L50.6416 120.604V121.711H46.0449V120.604L47.4775 120.357V115.743C47.4775 114.905 47.3105 114.311 46.9766 113.959C46.6484 113.607 46.1445 113.432 45.4648 113.432C44.9668 113.432 44.5244 113.552 44.1377 113.792C43.7568 114.032 43.4521 114.36 43.2236 114.776V120.357L44.6562 120.604V121.711H40.0596Z" fill="#333333"/>
<path d="M56.5479 121.896C55.7686 121.896 55.0186 121.781 54.2979 121.553C53.5771 121.324 52.8887 120.973 52.2324 120.498V117.765H53.5771L53.8672 119.777C54.248 120.012 54.6611 120.193 55.1064 120.322C55.5518 120.451 56.0322 120.516 56.5479 120.516C57.1338 120.516 57.6289 120.428 58.0332 120.252C58.4434 120.07 58.7568 119.821 58.9736 119.505C59.1904 119.188 59.2988 118.819 59.2988 118.397C59.2988 118.005 59.2051 117.659 59.0176 117.36C58.8301 117.062 58.5195 116.801 58.0859 116.578C57.6582 116.35 57.0723 116.15 56.3281 115.98C55.4492 115.775 54.7051 115.503 54.0957 115.163C53.4922 114.817 53.0322 114.401 52.7158 113.915C52.4053 113.423 52.25 112.86 52.25 112.228C52.25 111.56 52.4258 110.962 52.7773 110.435C53.1348 109.907 53.6299 109.491 54.2627 109.187C54.8955 108.882 55.6338 108.729 56.4775 108.729C57.374 108.729 58.165 108.867 58.8506 109.143C59.542 109.412 60.1104 109.74 60.5557 110.127V112.685H59.2109L58.9209 110.856C58.6572 110.646 58.3291 110.47 57.9365 110.329C57.5439 110.188 57.0576 110.118 56.4775 110.118C55.9854 110.118 55.5518 110.206 55.1768 110.382C54.8018 110.552 54.5088 110.792 54.2979 111.103C54.0869 111.413 53.9814 111.779 53.9814 112.201C53.9814 112.57 54.0752 112.893 54.2627 113.168C54.4561 113.443 54.7666 113.687 55.1943 113.897C55.6279 114.103 56.2051 114.296 56.9258 114.478C58.2734 114.812 59.293 115.307 59.9844 115.963C60.6816 116.613 61.0303 117.419 61.0303 118.38C61.0303 119.065 60.8457 119.675 60.4766 120.208C60.1074 120.735 59.5859 121.148 58.9121 121.447C58.2441 121.746 57.4561 121.896 56.5479 121.896Z" fill="#333333"/>
<path d="M62.252 121.711V120.604L63.6846 120.357V109.362L62.252 109.116V108H65.416V113.467C65.7441 113.01 66.1455 112.655 66.6201 112.403C67.0947 112.151 67.6221 112.025 68.2021 112.025C69.2217 112.025 70.0127 112.33 70.5752 112.939C71.1377 113.549 71.4189 114.486 71.4189 115.752V120.357L72.8516 120.604V121.711H68.2549V120.604L69.6875 120.357V115.734C69.6875 114.949 69.5176 114.369 69.1777 113.994C68.8438 113.619 68.3428 113.432 67.6748 113.432C67.2002 113.432 66.7666 113.546 66.374 113.774C65.9873 113.997 65.668 114.302 65.416 114.688V120.357L66.8486 120.604V121.711H62.252Z" fill="#333333"/>
<path d="M77.1143 121.896C76.124 121.896 75.3711 121.655 74.8555 121.175C74.3398 120.688 74.082 120.006 74.082 119.127C74.082 118.523 74.2461 117.999 74.5742 117.554C74.9082 117.103 75.3887 116.754 76.0156 116.508C76.6426 116.256 77.3926 116.13 78.2656 116.13H79.9619V115.198C79.9619 114.624 79.7861 114.179 79.4346 113.862C79.0889 113.546 78.5996 113.388 77.9668 113.388C77.5684 113.388 77.2227 113.438 76.9297 113.537C76.6367 113.631 76.3701 113.763 76.1299 113.933L75.9453 115.26H74.6094V113.08C75.0371 112.734 75.5352 112.474 76.1035 112.298C76.6719 112.116 77.3018 112.025 77.9932 112.025C79.1475 112.025 80.0527 112.301 80.709 112.852C81.3652 113.402 81.6934 114.19 81.6934 115.216V119.795C81.6934 119.918 81.6934 120.038 81.6934 120.155C81.6992 120.272 81.708 120.39 81.7197 120.507L82.6426 120.604V121.711H80.1553C80.1025 121.453 80.0615 121.222 80.0322 121.017C80.0029 120.812 79.9824 120.606 79.9707 120.401C79.6367 120.829 79.2178 121.187 78.7139 121.474C78.2158 121.755 77.6826 121.896 77.1143 121.896ZM77.3691 120.445C77.9434 120.445 78.4678 120.308 78.9424 120.032C79.417 119.757 79.7568 119.426 79.9619 119.039V117.316H78.2041C77.4072 117.316 76.8096 117.507 76.4111 117.888C76.0127 118.269 75.8135 118.693 75.8135 119.162C75.8135 119.578 75.9424 119.897 76.2002 120.12C76.458 120.337 76.8477 120.445 77.3691 120.445Z" fill="#333333"/>
<path d="M83.9697 121.711V120.604L85.4023 120.357V113.563L83.9697 113.317V112.201H86.9492L87.0986 113.414L87.1162 113.581C87.3857 113.095 87.7168 112.714 88.1094 112.438C88.5078 112.163 88.9619 112.025 89.4717 112.025C89.6533 112.025 89.8379 112.043 90.0254 112.078C90.2188 112.107 90.3564 112.137 90.4385 112.166L90.21 113.774L89.0059 113.704C88.5488 113.675 88.165 113.78 87.8545 114.021C87.5439 114.255 87.3037 114.571 87.1338 114.97V120.357L88.5664 120.604V121.711H83.9697Z" fill="#333333"/>
<path d="M95.6504 121.896C94.7715 121.896 94.0068 121.696 93.3564 121.298C92.7061 120.894 92.2021 120.334 91.8447 119.619C91.4932 118.904 91.3174 118.078 91.3174 117.141V116.754C91.3174 115.852 91.502 115.046 91.8711 114.337C92.2461 113.622 92.7412 113.06 93.3564 112.649C93.9775 112.233 94.6543 112.025 95.3867 112.025C96.2422 112.025 96.957 112.201 97.5312 112.553C98.1113 112.904 98.5479 113.399 98.8408 114.038C99.1338 114.671 99.2803 115.418 99.2803 116.279V117.36H93.1104L93.084 117.404C93.0957 118.014 93.2012 118.556 93.4004 119.03C93.6055 119.499 93.8984 119.868 94.2793 120.138C94.6602 120.407 95.1172 120.542 95.6504 120.542C96.2363 120.542 96.749 120.46 97.1885 120.296C97.6338 120.126 98.0176 119.895 98.3398 119.602L99.0166 120.727C98.6768 121.055 98.2256 121.333 97.6631 121.562C97.1064 121.784 96.4355 121.896 95.6504 121.896ZM93.1631 116.007H97.5488V115.778C97.5488 115.321 97.4668 114.914 97.3027 114.557C97.1445 114.193 96.9043 113.909 96.582 113.704C96.2656 113.493 95.8672 113.388 95.3867 113.388C95 113.388 94.6484 113.502 94.332 113.73C94.0156 113.953 93.7549 114.258 93.5498 114.645C93.3447 115.031 93.21 115.471 93.1455 115.963L93.1631 116.007Z" fill="#333333"/>
</svg>
