<svg width="3146" height="3572" viewBox="0 0 3146 3572" fill="none" xmlns="http://www.w3.org/2000/svg">
<path fill-rule="evenodd" clip-rule="evenodd" d="M1433.07 0.780363C1339.85 6.50436 1260.74 28.7183 1167.57 75.3233C1141.65 88.2934 1085.46 119.787 1068.57 130.814C1063.9 133.867 1058.95 136.952 1057.57 137.67C1056.2 138.388 1052.6 140.741 1049.57 142.899C1046.55 145.057 1038.45 150.519 1031.57 155.036C1004.47 172.841 983.473 187.889 948.67 214.439C932.796 226.549 929.876 228.873 917.399 239.327C913.371 242.702 907.825 247.159 905.075 249.231C902.325 251.304 896.7 256.002 892.575 259.673C888.45 263.344 881.7 269.27 877.575 272.842C873.45 276.414 868.704 280.653 867.029 282.263C865.353 283.874 859.278 289.466 853.529 294.69C835.555 311.023 795.607 350.487 777.606 369.691C771.945 375.731 727.353 426.348 718.575 436.699C715.55 440.266 712.023 444.31 710.738 445.687C709.453 447.064 707.289 449.911 705.929 452.014C704.57 454.117 701.572 457.723 699.266 460.029C696.961 462.334 692.375 467.993 689.075 472.604C685.775 477.214 681.811 482.383 680.267 484.089C678.723 485.795 676.703 488.316 675.78 489.691C674.856 491.066 670.27 497.31 665.588 503.567C660.906 509.824 655.402 517.249 653.357 520.067C651.312 522.885 648.712 526.381 647.579 527.835C644.117 532.278 640.857 536.973 637.969 541.676C636.455 544.142 634.396 547.04 633.395 548.114C632.394 549.189 631.575 550.376 631.575 550.752C631.575 551.128 628.088 556.192 623.825 562.005C619.563 567.818 614.275 575.405 612.075 578.864C605.373 589.401 598.737 600.003 596.533 603.691C595.383 605.616 593.46 608.834 592.259 610.843C591.058 612.851 588.333 617.523 586.203 621.223C584.073 624.924 581.081 629.806 579.554 632.072C578.026 634.337 575.956 637.991 574.953 640.191C573.951 642.391 571.896 646.049 570.388 648.319C568.88 650.59 564.89 657.79 561.521 664.319C558.152 670.849 554.745 676.919 553.95 677.809C553.155 678.699 550.536 683.448 548.13 688.361C545.724 693.275 543.04 697.89 542.165 698.616C541.291 699.342 540.575 700.79 540.575 701.833C540.575 702.877 539.444 705.522 538.062 707.711C536.681 709.9 535.788 711.691 536.079 711.691C536.88 711.691 531.768 721.452 530.76 721.847C530.279 722.036 526.04 730.066 521.341 739.691C484.34 815.48 453.93 894.877 434.659 966.007C410.058 1056.81 398.585 1139.46 398.578 1225.93C398.574 1269.67 401.029 1297.33 408.19 1334.19C414.659 1367.5 427.569 1410.55 438.272 1434.52C452.919 1467.33 479.891 1516.81 500.536 1548.75C502.757 1552.19 504.575 1555.44 504.575 1555.98C504.575 1556.72 489.978 1573.48 486.542 1576.69C485.168 1577.98 456.455 1610.98 443.481 1626.19C350.752 1734.9 261.988 1862.14 200.074 1975.11C197.989 1978.91 193.184 1987.69 189.397 1994.61C181.691 2008.69 148.802 2074.08 143.587 2085.69C141.734 2089.82 138.548 2096.79 136.507 2101.19C100.388 2179.05 63.8496 2282.96 42.2016 2369.37C20.4086 2456.36 9.04263 2527.94 1.89563 2623.19C-0.62737 2656.82 -0.633372 2752.05 1.88663 2779.69C4.82663 2811.95 7.77164 2833.5 13.0966 2861.69C31.5746 2959.52 74.3256 3047.52 132.05 3106.56C163.557 3138.78 195.246 3162.67 236.075 3184.99C262.032 3199.18 274.649 3204.2 381.075 3242.71C391.525 3246.49 408.625 3252.69 419.075 3256.49C429.525 3260.29 453.825 3269.12 473.075 3276.1C492.325 3283.08 509.8 3289.46 511.908 3290.27C514.016 3291.08 533.666 3298.24 555.575 3306.19C577.484 3314.14 597.134 3321.31 599.242 3322.12C601.35 3322.93 620.4 3329.87 641.575 3337.55C662.75 3345.22 736.55 3372.07 805.575 3397.2C874.6 3422.34 935.125 3444.37 940.075 3446.16C968.961 3456.63 1020.37 3475.33 1028.07 3478.18C1033.02 3480.01 1053.5 3487.44 1073.57 3494.71C1093.65 3501.97 1113.45 3509.68 1117.57 3511.84C1158.77 3533.42 1187.69 3544.95 1225.04 3554.65C1269.28 3566.15 1308.46 3571.05 1356.07 3571.03C1434.48 3571.01 1507.54 3556.78 1601.57 3523.22C1647.18 3506.94 1706.3 3479.61 1765.07 3447.64C1805.96 3425.41 1866.6 3387.81 1915.07 3354.64C1963.08 3321.79 2037.54 3264.74 2073.07 3233.58C2074.72 3232.14 2083.72 3224.3 2093.07 3216.16C2131.07 3183.1 2151.48 3163.76 2196.58 3118.02C2239.47 3074.54 2278.14 3032.19 2310.58 2993.19C2317.44 2984.94 2323.3 2977.97 2323.61 2977.69C2324.24 2977.13 2354 2940.32 2365.65 2925.69C2397.46 2885.76 2445.25 2819.53 2478.07 2769.9C2486.5 2757.16 2492.57 2748.91 2493.32 2749.18C2494.89 2749.74 2509.98 2759.5 2562.6 2793.98C2603.68 2820.9 2611.63 2826.09 2653.57 2853.4C2665.4 2861.1 2676.6 2867.91 2678.47 2868.54C2683.1 2870.11 2690.95 2869.97 2697.56 2868.21C2705.07 2866.21 2708.26 2864.5 2752.57 2838.7C2756.15 2836.62 2766.5 2830.65 2775.57 2825.43C2784.65 2820.21 2802.2 2810.09 2814.57 2802.93C2845.84 2784.86 2883.39 2763.17 2907.07 2749.5C2964.62 2716.27 3021.3 2683.56 3047.57 2668.41C3098.44 2639.08 3097.26 2639.84 3107.3 2630.28C3122.84 2615.49 3133.52 2598.21 3140.1 2577.19C3147.62 2553.2 3146.5 2532.64 3137 2520.18C3134.51 2516.92 3125.4 2510.55 3036.57 2449.98C3015.95 2435.92 2989.17 2417.65 2977.07 2409.38C2945.58 2387.86 2929.55 2376.93 2900.07 2356.85C2842.08 2317.33 2822.72 2304.12 2815.57 2299.2C2809.46 2294.99 2753.76 2256.92 2750.19 2254.51C2749.57 2254.09 2751.15 2248.93 2754.32 2241.01C2803.59 2118.08 2832.61 2032.1 2873.57 1887.69C2897.63 1802.86 2917.98 1715.06 2936.49 1616.19C2941.15 1591.29 2949.51 1539.53 2954.08 1507.19C2956.24 1491.92 2957.31 1484.01 2960.64 1458.69C2964.05 1432.82 2963.66 1422.1 2958.95 1411.6C2956.49 1406.12 2949.03 1397.69 2946.63 1397.69C2946.09 1397.69 2943.84 1395.03 2941.63 1391.77C2934.97 1381.97 2927.8 1377.08 2911.57 1371.28C2906.35 1369.42 2877.77 1359.02 2848.07 1348.19C2818.37 1337.35 2789.35 1326.78 2783.57 1324.7C2777.8 1322.61 2763.06 1317.26 2750.82 1312.8C2738.59 1308.34 2718.56 1301.04 2706.32 1296.58C2694.09 1292.12 2679.35 1286.77 2673.57 1284.69C2667.8 1282.61 2631.35 1269.34 2592.57 1255.19C2553.8 1241.05 2517.35 1227.77 2511.57 1225.69C2505.8 1223.6 2486 1216.42 2467.57 1209.72C2449.15 1203.02 2426.65 1194.84 2417.57 1191.55C2408.5 1188.25 2398.82 1184.7 2396.07 1183.65C2393.32 1182.61 2349.45 1166.62 2298.57 1148.13C2247.7 1129.63 2172.77 1102.32 2132.07 1087.44L2058.07 1060.37L2047.07 1060.28C2033.59 1060.17 2031.59 1060.86 2011.07 1072.68C2002.82 1077.43 1985.27 1087.56 1972.07 1095.19C1943.31 1111.81 1923.74 1123.1 1901.57 1135.89C1892.5 1141.13 1880.8 1147.88 1875.57 1150.9C1870.35 1153.92 1856.85 1161.71 1845.57 1168.22C1824.35 1180.48 1807.21 1190.37 1778.07 1207.21C1768.72 1212.61 1757.92 1218.81 1754.07 1220.97C1750.22 1223.14 1744.47 1226.93 1741.28 1229.4C1736.09 1233.43 1735.54 1233.65 1736 1231.54C1736.29 1230.25 1737.68 1222.89 1739.1 1215.19C1752.89 1140.09 1787.59 1067.97 1840.22 1004.98C1880.33 956.965 1924.18 917.169 1975.07 882.563C1995.22 868.866 2027.3 849.374 2041.33 842.302L2046.58 839.655L2064.83 846.282C2074.86 849.926 2087.8 854.614 2093.57 856.698C2116.36 864.922 2212.37 899.872 2217.07 901.657C2219.82 902.7 2229.5 906.25 2238.57 909.545C2295.24 930.121 2335.52 944.796 2352.07 950.889C2368.54 956.952 2372.21 957.95 2379.57 958.381C2384.56 958.672 2389.94 958.393 2392.57 957.705C2395.05 957.06 2399.99 956.086 2403.56 955.539C2416.22 953.597 2426.03 948.904 2438.02 939.04C2444.92 933.362 2450.9 926.515 2463.31 910.093C2467.84 904.097 2486.29 879.768 2504.31 856.028C2522.33 832.289 2552.82 792.09 2572.07 766.698C2591.32 741.305 2614.72 710.471 2624.07 698.178C2682.59 621.237 2680.76 623.803 2687.66 609.186C2692.4 599.148 2695.99 586.836 2697.57 575.164C2699.72 559.346 2697.12 549.599 2682.63 519.191C2652.95 456.895 2611.64 410.081 2557.07 376.894C2537.35 364.9 2532.74 362.269 2521.63 356.698C2494.57 343.132 2467.07 333.988 2436.03 328.241C2428.85 326.913 2419.85 324.643 2416.03 323.197C2412.2 321.751 2400.97 317.635 2391.07 314.051C2381.17 310.466 2364.07 304.236 2353.07 300.205C2342.07 296.174 2322.27 288.97 2309.07 284.196C2295.87 279.422 2276.07 272.215 2265.07 268.18C2240.98 259.34 2188.04 240.091 2119.07 215.096C2091.02 204.929 2066.28 195.914 2064.08 195.062C2060.67 193.739 2023.55 180.195 2008.07 174.629C2005.32 173.639 1989.35 167.81 1972.57 161.674C1955.8 155.539 1933.52 147.451 1923.07 143.703C1912.62 139.954 1902.27 136.2 1900.07 135.36C1897.87 134.521 1888.65 131.14 1879.57 127.848C1870.5 124.555 1853.85 118.49 1842.57 114.369C1831.3 110.248 1811.27 102.97 1798.07 98.1964C1784.87 93.4224 1765.07 86.2174 1754.07 82.1864C1743.07 78.1544 1721.47 70.2774 1706.07 64.6814C1690.67 59.0863 1656.68 46.7184 1630.53 37.1974C1570.41 15.3094 1558.42 11.5544 1533.57 6.81737C1502.05 0.806366 1466.96 -1.30164 1433.07 0.780363ZM1505.57 34.1444C1524.37 36.6244 1543.95 40.7124 1559.57 45.4174C1564.25 46.8254 1584.72 54.0203 1605.07 61.4053C1625.42 68.7914 1644.32 75.6444 1647.07 76.6364C1659.35 81.0584 1700 95.8704 1703.36 97.1414C1705.4 97.9154 1714.5 101.241 1723.57 104.532C1732.65 107.823 1747.05 113.064 1755.57 116.178C1764.1 119.293 1796.5 131.053 1827.57 142.313C1858.65 153.573 1885.87 163.479 1888.07 164.327C1892.81 166.16 1949.64 186.834 2018.07 211.621C2033.47 217.2 2047.65 222.371 2049.57 223.114C2051.5 223.856 2076.25 232.865 2104.57 243.133C2132.9 253.402 2157.87 262.493 2160.07 263.336C2162.26 264.178 2174.54 268.663 2187.35 273.301C2200.16 277.939 2212.31 282.367 2214.36 283.141C2216.4 283.915 2225.5 287.246 2234.57 290.544C2243.65 293.842 2260.52 299.979 2272.07 304.182C2283.62 308.385 2300.18 314.38 2308.86 317.504C2319.44 321.312 2324.05 323.399 2322.86 323.838C2321.88 324.198 2315 325.018 2307.57 325.66C2249.95 330.64 2179.63 350.376 2112.62 380.382C2034.18 415.501 1939.21 474.206 1855.07 539.586C1835.8 554.561 1800.69 583.67 1786.08 596.781C1728.2 648.718 1679.44 698.246 1637.49 747.713C1497.23 913.115 1393.83 1100.08 1339 1287.41C1325.25 1334.4 1312.18 1395.13 1306.55 1438.19C1306.05 1442.04 1305.2 1448.57 1304.66 1452.69C1295.96 1519.79 1295.18 1594.91 1302.65 1648.19C1308.16 1687.45 1321.67 1738.97 1334.12 1768.19C1342.68 1788.26 1365.93 1833.36 1379.89 1856.94C1382.41 1861.2 1384.36 1864.69 1384.22 1864.69C1384.07 1864.69 1353.61 1853.63 1316.52 1840.12C1279.42 1826.6 1243 1813.36 1235.57 1810.69C1228.15 1808.02 1217.8 1804.28 1212.57 1802.37C1207.35 1800.46 1190.47 1794.33 1175.07 1788.74C1159.67 1783.16 1144.82 1777.73 1142.07 1776.67C1137.54 1774.93 990.972 1721.59 925.075 1697.69C854.391 1672.05 797.235 1651.25 789.075 1648.18C784.125 1646.32 771.75 1641.8 761.575 1638.13C751.401 1634.47 741.501 1630.87 739.575 1630.12C737.65 1629.37 723.475 1624.2 708.075 1618.63C692.675 1613.06 676.025 1607.02 671.075 1605.22C666.125 1603.42 656.225 1599.84 649.075 1597.26C641.925 1594.69 634.5 1591.98 632.575 1591.25C630.65 1590.51 613.325 1584.21 594.075 1577.23C574.825 1570.25 555.887 1563.35 551.99 1561.89L544.906 1559.24L535.045 1544.22C509.272 1504.94 483.781 1459.04 467.284 1422.19C452.728 1389.68 439.107 1338.44 433.658 1295.69C425.467 1231.44 429.857 1143.99 445.532 1059.19C464.657 955.726 499.794 854.029 553.502 746.691C661.696 530.459 818.48 345.758 1011.07 207.639C1098.31 145.08 1189.54 94.5274 1263.87 67.5654C1321.37 46.7044 1366.04 37.2854 1431.07 32.3044C1443.72 31.3364 1493.63 32.5684 1505.57 34.1444ZM2390.07 358.794C2443.63 363.67 2487.53 378.859 2536.32 409.398C2567.28 428.773 2585.24 443.65 2606.55 467.572C2629.74 493.596 2653.37 532.546 2667.6 568.191C2670.57 575.652 2670.76 576.798 2670.29 585.191C2669.47 599.728 2666.65 605.142 2645.05 633.508C2637.65 643.234 2608.19 682.016 2579.59 719.691C2550.99 757.366 2518.03 800.781 2506.33 816.169C2479.36 851.664 2451.61 888.294 2445.34 896.691C2431.71 914.92 2419.49 922.63 2408.79 919.749C2403.71 918.381 2400.9 915.111 2394.57 903.191C2363.33 844.338 2324.51 802.225 2281.67 780.739C2261.31 770.524 2239.41 764.594 2214.39 762.521C2177.27 759.444 2130.3 769.616 2081.32 791.335C2007.64 824.011 1922.79 882.987 1869.07 938.856C1814.68 995.434 1783.47 1038.41 1755.55 1095.19C1728.55 1150.1 1713.2 1203.93 1705.94 1269.19C1703.37 1292.31 1703.32 1351.9 1705.86 1369.69C1711.84 1411.6 1722.49 1448.02 1739.1 1483.34C1752.33 1511.48 1786.62 1561.66 1819.3 1600.69C1847.45 1634.31 1875.53 1663.32 1917.07 1701.68C1941.02 1723.79 1975.09 1750.64 2042.07 1800.19C2050.87 1806.7 2063.02 1815.69 2069.07 1820.18C2094.38 1838.93 2101.9 1844.36 2139.57 1871.08C2198.54 1912.91 2256.04 1953.74 2303.07 1987.18C2326.17 2003.6 2364.2 2030.6 2387.57 2047.17C2410.95 2063.74 2440.23 2084.53 2452.65 2093.37C2465.07 2102.21 2476.26 2109.99 2477.52 2110.66C2481.4 2112.74 2489.08 2112.09 2494.33 2109.22C2502.41 2104.83 2511.24 2095.36 2515.86 2086.17C2520.48 2076.96 2548.4 1984.75 2561.57 1935.19C2587.73 1836.8 2607.4 1740.91 2623.04 1635.57C2626.31 1613.61 2628.99 1605.9 2637.16 1595.1C2644.49 1585.41 2644.42 1585.46 2682.57 1563.45C2695.5 1555.99 2720.7 1541.45 2738.57 1531.14C2756.45 1520.83 2781.09 1506.61 2793.32 1499.54C2821.82 1483.09 2853.74 1464.66 2884.07 1447.15C2913.98 1429.9 2914.42 1429.69 2920.38 1429.69C2926.5 1429.69 2931.34 1432.72 2933.91 1438.15C2936.99 1444.65 2936.69 1449.08 2929.59 1502.19C2919.4 1578.33 2898.53 1691.29 2881.47 1762.63C2868.08 1818.61 2856.13 1864.23 2842.02 1913.19C2837.27 1929.69 2832.35 1946.79 2831.09 1951.19C2827.46 1963.9 2820.58 1986.96 2819.6 1989.69C2819.11 1991.07 2816.4 1999.62 2813.58 2008.69C2791.95 2078.25 2759.15 2169.72 2732.52 2234.69C2723.77 2256.04 2722.55 2260.24 2722.45 2269.24C2722.33 2281.38 2724.17 2283.77 2743.57 2296.7C2748.8 2300.18 2761.62 2308.88 2772.07 2316.02C2809.59 2341.67 2838.33 2361.3 2852.81 2371.16C2860.92 2376.68 2871.49 2383.89 2876.31 2387.18C2902.6 2405.16 2950.71 2437.97 2961.57 2445.33C2968.45 2449.99 2980.15 2457.95 2987.57 2463.03C3027.48 2490.28 3096.21 2537.17 3103.76 2542.3C3115.44 2550.23 3117.57 2553.57 3117.57 2563.99C3117.57 2578.15 3111.78 2592.03 3101.18 2603.23C3095.39 2609.35 3088.51 2613.85 3063.46 2627.94C3061.05 2629.3 3053.67 2633.54 3047.07 2637.36C3040.47 2641.19 3025.85 2649.64 3014.57 2656.15C2979.48 2676.41 2925.1 2707.81 2887.82 2729.34C2868.16 2740.7 2846.45 2753.23 2839.57 2757.19C2821.13 2767.81 2795.46 2782.61 2784.07 2789.21C2778.57 2792.39 2768.45 2798.24 2761.57 2802.21C2754.7 2806.17 2741.87 2813.58 2733.07 2818.66C2704.41 2835.24 2706.7 2834.16 2700.08 2834.18C2694.25 2834.19 2693.73 2833.97 2682.07 2826.27C2670.82 2818.84 2600.65 2772.93 2574.07 2755.61C2567.47 2751.31 2550.37 2740.13 2536.07 2730.76C2510.75 2714.17 2509.94 2713.72 2504.79 2713.71C2498.21 2713.69 2491.31 2717 2484.3 2723.53C2481.15 2726.47 2472.01 2739.1 2459.6 2757.69C2423.43 2811.88 2389.89 2858.2 2350.65 2908.19C2338.84 2923.24 2299.22 2971.64 2292.79 2978.88C2291.17 2980.7 2283.62 2989.39 2276.01 2998.19C2268.4 3006.99 2260.53 3015.99 2258.53 3018.19C2256.52 3020.39 2250.21 3027.37 2244.5 3033.69C2214.89 3066.48 2162.64 3119.96 2132.57 3148.26C2118.68 3161.34 2092.8 3184.4 2072.37 3201.9C1931.05 3322.95 1770.45 3424.28 1632.07 3479.7C1615.22 3486.45 1610.35 3488.26 1589.07 3495.68C1563.85 3504.47 1522.07 3516.48 1502.07 3520.68C1490.12 3523.19 1481.53 3524.91 1477.07 3525.7C1474.32 3526.18 1468.25 3527.25 1463.57 3528.07C1426.12 3534.67 1377.94 3537.82 1345.27 3535.82C1293.43 3532.63 1252.94 3525.14 1209.57 3510.7C1149.23 3490.62 1090.19 3453.52 1047.06 3408.58C1016.72 3376.97 987.209 3329.51 967.629 3280.84C946.332 3227.9 934.177 3173.19 927.892 3101.96C925.717 3077.32 925.4 2988.42 927.389 2960.69C930.911 2911.58 935.444 2867.39 939.545 2842.19C946.101 2801.91 948.45 2788.63 952.718 2767.69C957.532 2744.07 960.295 2731.85 966.619 2706.19C991.991 2603.26 1034.04 2489.65 1083.94 2389.19C1108.78 2339.2 1134.07 2293.66 1166.42 2240.69C1228.62 2138.86 1316.53 2021.45 1399.51 1929.36C1407.28 1920.75 1415.41 1911.16 1417.58 1908.06C1425.37 1896.94 1429.99 1879.72 1427.78 1870.02C1427.25 1867.73 1421.88 1857.83 1415.84 1848.02C1384.78 1797.61 1362.25 1752.76 1350.92 1718.76C1332.21 1662.63 1324.59 1613.94 1324.61 1550.69C1324.63 1469.43 1335.39 1391.64 1358.91 1302.69C1369.09 1264.16 1388.31 1207.73 1405.56 1165.69C1420.79 1128.58 1451.07 1064.76 1469.13 1031.69C1498.78 977.412 1528.93 928.645 1560.54 883.837C1566.88 874.842 1572.75 866.5 1573.57 865.298C1574.4 864.096 1576.24 861.556 1577.66 859.652C1579.08 857.749 1583.56 851.691 1587.62 846.191C1601.71 827.095 1634.88 785.459 1650.17 767.691C1744.78 657.725 1851.91 564.936 1973.07 488.001C2013.35 462.428 2046.07 443.883 2081.07 426.785C2110.94 412.199 2118.22 408.963 2143.07 399.214C2201.88 376.15 2251.98 364.255 2311.57 359.205C2340.94 356.717 2365.83 356.586 2390.07 358.794ZM2213.57 798.779C2265.22 806.761 2307.39 836.051 2345.17 890.195C2355.1 904.42 2365.05 920.554 2364.33 921.268C2364.08 921.517 2357.85 919.522 2350.48 916.834C2343.11 914.146 2326.37 908.054 2313.29 903.297C2300.21 898.54 2287.83 894.007 2285.79 893.223C2282.39 891.918 2240.83 876.806 2215.57 867.686C2209.8 865.601 2198.32 861.438 2190.07 858.435C2181.82 855.432 2166.75 849.954 2156.57 846.261C2146.4 842.569 2130.87 836.915 2122.07 833.698C2113.27 830.481 2101.92 826.351 2096.84 824.52C2091.76 822.689 2087.6 820.913 2087.59 820.573C2087.57 819.784 2103.17 813.835 2115.86 809.794C2136.78 803.13 2158.97 798.571 2176.57 797.32C2184.49 796.758 2205.97 797.604 2213.57 798.779ZM2066.3 1097.08C2090.66 1105.83 2150.22 1127.47 2154.87 1129.26C2156.96 1130.06 2176.76 1137.28 2198.87 1145.3C2220.98 1153.32 2248.3 1163.26 2259.57 1167.37C2270.85 1171.49 2287.5 1177.55 2296.57 1180.85C2305.65 1184.14 2315.32 1187.68 2318.07 1188.72C2320.82 1189.76 2340.62 1196.98 2362.07 1204.75C2383.52 1212.52 2410.07 1222.18 2421.07 1226.21C2438.7 1232.66 2449.07 1236.44 2487.07 1250.22C2558.03 1275.95 2585.92 1286.1 2590.07 1287.7C2592.82 1288.76 2629.27 1302.04 2671.07 1317.2C2712.87 1332.36 2749.32 1345.61 2752.07 1346.66C2754.82 1347.7 2764.61 1351.29 2773.82 1354.62C2815.46 1369.71 2824.3 1372.92 2827.57 1374.15C2829.5 1374.87 2847.5 1381.42 2867.57 1388.7C2887.65 1395.98 2904.44 1402.26 2904.88 1402.67C2905.32 1403.07 2896.1 1408.94 2884.38 1415.71C2846.02 1437.87 2813.36 1456.74 2797.07 1466.17C2788.27 1471.26 2775.22 1478.8 2768.07 1482.92C2760.92 1487.04 2740.45 1498.86 2722.57 1509.19C2704.7 1519.51 2681.07 1533.12 2670.07 1539.43C2659.07 1545.75 2646.51 1553.64 2642.15 1556.97L2634.23 1563.03L2625.65 1559.95C2611.1 1554.72 2567.84 1538.98 2502.57 1515.19C2468.2 1502.65 2433.32 1489.98 2425.07 1487.02C2416.82 1484.06 2407.82 1480.78 2405.07 1479.73C2402.32 1478.69 2392.65 1475.14 2383.57 1471.85C2374.5 1468.55 2357.85 1462.49 2346.57 1458.37C2335.3 1454.25 2315.27 1446.97 2302.07 1442.2C2288.87 1437.42 2269.07 1430.21 2258.07 1426.18C2247.07 1422.14 2227.5 1415.01 2214.57 1410.33C2201.65 1405.65 2177.35 1396.81 2160.57 1390.69C2143.8 1384.56 2127.15 1378.51 2123.57 1377.24C2120 1375.96 2075 1359.59 2023.57 1340.85C1972.15 1322.12 1920.62 1303.36 1909.07 1299.16C1885.24 1290.51 1858.89 1280.9 1847.07 1276.56C1842.67 1274.94 1823.86 1268.09 1805.26 1261.33C1786.66 1254.57 1771.36 1248.7 1771.26 1248.29C1771.16 1247.88 1782.77 1240.78 1797.07 1232.52C1811.37 1224.26 1832.07 1212.3 1843.07 1205.94C1854.07 1199.59 1868.7 1191.14 1875.57 1187.18C1882.45 1183.22 1892.35 1177.5 1897.57 1174.49C1902.8 1171.47 1916.3 1163.67 1927.57 1157.16C1938.85 1150.66 1957.52 1139.87 1969.07 1133.2C2045.82 1088.87 2042.3 1090.8 2046.3 1090.73C2047.52 1090.71 2056.52 1093.57 2066.3 1097.08ZM1786.57 1287.93C1860.04 1314.7 1877.45 1321.04 1897.07 1328.16C1904.22 1330.75 1919.3 1336.23 1930.57 1340.33C1941.85 1344.44 1974.02 1356.12 2002.07 1366.29C2030.12 1376.46 2054.87 1385.48 2057.07 1386.33C2059.26 1387.17 2071.54 1391.66 2084.35 1396.3C2097.16 1400.94 2109.31 1405.38 2111.36 1406.16C2113.4 1406.95 2125.2 1411.25 2137.57 1415.73C2149.95 1420.21 2172.45 1428.39 2187.57 1433.9C2202.7 1439.41 2219.8 1445.62 2225.57 1447.7C2246.32 1455.17 2344.18 1490.79 2349.07 1492.65C2351.82 1493.7 2361.72 1497.32 2371.07 1500.69C2380.42 1504.07 2390.32 1507.68 2393.07 1508.72C2395.82 1509.77 2407.97 1514.19 2420.07 1518.56C2432.17 1522.92 2463.9 1534.46 2490.57 1544.19C2517.25 1553.92 2545.15 1564.05 2552.57 1566.71C2576.19 1575.15 2612.97 1588.75 2613.42 1589.2C2613.66 1589.44 2611.8 1593.85 2609.29 1599C2601.81 1614.38 2599.85 1622.03 2595.03 1654.69C2576.02 1783.58 2546.74 1912.11 2507.9 2037.19C2504.31 2048.74 2500.32 2061.67 2499.03 2065.93C2497.74 2070.19 2496.32 2074.32 2495.88 2075.11C2495.03 2076.63 2498.49 2079.07 2243.2 1897.61C2232.82 1890.23 2222.69 1883.03 2220.7 1881.62C2218.71 1880.2 2211.67 1875.22 2205.07 1870.55C2158.74 1837.78 2125.35 1814 2115.07 1806.47C2108.47 1801.63 2099.25 1794.88 2094.57 1791.46C2069.98 1773.51 1993.47 1716.11 1983.07 1707.81C1930.2 1665.59 1871.52 1607.63 1833.11 1559.69C1805.96 1525.8 1778.07 1484.63 1766.18 1460.89C1756.32 1441.2 1745.31 1411.03 1740.1 1389.41C1733.87 1363.53 1731.55 1345.87 1730.86 1319.01C1730.39 1300.76 1730.62 1294.34 1732.14 1282.74C1733.7 1270.86 1734.23 1268.74 1735.53 1269.26C1736.38 1269.61 1759.35 1278.01 1786.57 1287.93ZM541.184 1591.33C546.624 1593.29 555.125 1596.37 560.075 1598.17C565.025 1599.97 587.15 1608.01 609.242 1616.04C631.334 1624.07 651.134 1631.3 653.242 1632.1C655.35 1632.89 664.725 1636.31 674.075 1639.69C683.425 1643.07 693.325 1646.68 696.075 1647.72C698.825 1648.77 735.275 1662.03 777.075 1677.19C818.875 1692.35 855.325 1705.62 858.075 1706.67C860.825 1707.73 868.785 1710.63 875.764 1713.12C882.743 1715.62 890.168 1718.31 892.264 1719.1C894.36 1719.9 903.5 1723.25 912.575 1726.54C921.65 1729.84 944.15 1738.02 962.575 1744.72C981 1751.41 1013.4 1763.17 1034.57 1770.84C1055.75 1778.51 1075.32 1785.65 1078.07 1786.71C1082.2 1788.3 1175.07 1822.14 1197.57 1830.26C1201.15 1831.55 1212.62 1835.71 1223.07 1839.5C1233.52 1843.3 1257.82 1852.12 1277.07 1859.11C1296.32 1866.1 1315.45 1873.08 1319.57 1874.62C1323.7 1876.16 1341.81 1882.77 1359.82 1889.31C1377.83 1895.84 1392.56 1901.58 1392.57 1902.05C1392.57 1902.52 1388.83 1907.02 1384.25 1912.05C1379.67 1917.08 1367.84 1930.64 1357.96 1942.19C1236 2084.77 1140.02 2227.59 1064.67 2378.65C1040 2428.11 1021.14 2470.85 1000.89 2523.17C947.136 2662.11 914.476 2800.89 903.11 2938.69C899.612 2981.1 899.15 2993.65 899.154 3046.19C899.158 3101.2 899.794 3114.76 904.075 3151.19C914.2 3237.36 938.079 3311.46 976.103 3374.71C988.599 3395.5 1008.02 3421.63 1021.93 3436.37C1026.26 3440.95 1029.33 3444.69 1028.76 3444.69C1027.85 3444.69 997.023 3433.66 984.075 3428.7C981.325 3427.65 966.7 3422.31 951.575 3416.84C910.314 3401.92 874.012 3388.72 815.575 3367.37C804.3 3363.25 786.75 3356.9 776.575 3353.24C766.4 3349.59 755.825 3345.73 753.075 3344.67C747.364 3342.48 707.217 3327.85 679.075 3317.71C668.625 3313.95 654 3308.64 646.575 3305.92C639.15 3303.19 624.75 3297.96 614.575 3294.28C604.4 3290.6 594.5 3286.99 592.575 3286.25C590.65 3285.52 563.525 3275.63 532.296 3264.28C501.068 3252.94 473.843 3243.01 471.796 3242.22C469.75 3241.44 459.75 3237.8 449.575 3234.13C439.401 3230.47 429.501 3226.87 427.575 3226.14C425.65 3225.4 411.475 3220.25 396.075 3214.7C380.675 3209.15 365.825 3203.75 363.075 3202.7C360.325 3201.65 345.7 3196.31 330.575 3190.83C290.768 3176.42 283.918 3173.65 265.055 3164.36C189.763 3127.28 134.548 3075.01 95.9936 3004.32C60.4566 2939.15 40.7096 2866.64 32.9156 2772.69C30.5636 2744.34 30.5826 2667.61 32.9516 2631.69C37.3776 2564.57 45.2426 2504.19 57.1806 2445.69C99.5056 2238.28 185.074 2040.38 317.077 1844.6C375.044 1758.63 449.579 1663.57 514.374 1592.98L523.744 1582.78L527.519 1585.27C529.595 1586.65 535.744 1589.37 541.184 1591.33ZM1619.34 2089.21C1612.74 2091.63 1607.43 2096.1 1590.07 2113.85C1522.27 2183.2 1468.3 2250.52 1425.17 2319.52C1381.14 2389.97 1351 2454.83 1328.99 2526.53C1312.19 2581.24 1302.94 2630.8 1296.39 2701.19C1294.59 2720.52 1294.6 2803.7 1296.4 2820.69C1300.95 2863.59 1305.72 2889.64 1314.41 2918.86C1329.67 2970.25 1358.02 3016 1392.41 3044.79C1475.77 3114.56 1600.88 3113.88 1758.83 3042.79C1911.5 2974.08 2046.91 2870.47 2162.16 2734.19C2206 2682.35 2264.2 2604.55 2272.13 2587.19C2277.99 2574.35 2279.04 2563.6 2275.2 2555.58C2273.37 2551.73 2273.62 2551.92 2193.57 2495.02C2155.02 2467.61 2097.77 2426.91 2035.57 2382.69C2014.95 2368.02 1969.05 2335.4 1933.57 2310.2C1898.1 2284.99 1855.35 2254.61 1838.57 2242.69C1821.8 2230.76 1793 2210.3 1774.57 2197.21C1747.77 2178.18 1705.9 2147.22 1683.26 2129.69C1674.38 2122.82 1653.89 2106.38 1644.46 2098.55C1630.73 2087.16 1627.83 2086.09 1619.34 2089.21ZM1622.14 2129.51C1637.31 2142.24 1665.4 2164.33 1690.57 2183.33C1717.36 2203.55 1725.82 2209.64 1823.07 2278.68C1852.77 2299.77 1884.95 2322.65 1894.57 2329.53C1904.2 2336.4 1924.22 2350.64 1939.07 2361.15C1966.12 2380.31 2049.11 2439.29 2132.57 2498.67C2157.05 2516.09 2193.41 2541.94 2213.38 2556.13C2235.72 2572.01 2249.51 2582.42 2249.21 2583.2C2248.2 2585.83 2228.48 2613.27 2207.54 2641.19C2140.9 2730.01 2077.91 2797.36 2004.07 2858.7C1900.69 2944.59 1770.7 3016.11 1663.57 3046.02C1545.45 3079.01 1448.29 3059.02 1390.44 2989.8C1355.67 2948.2 1335.4 2896.7 1326.05 2826.19C1320.05 2780.94 1320.25 2710.6 1326.54 2655.69C1327.9 2643.79 1331.31 2619.81 1332.58 2613.19C1335.83 2596.21 1338.83 2581.39 1340.06 2576.19C1345.56 2552.95 1347.68 2544.88 1353.06 2526.69C1388.02 2408.55 1462.86 2284.48 1567.5 2171.23C1586.34 2150.84 1612.89 2123.69 1613.99 2123.69C1614.66 2123.69 1618.32 2126.31 1622.14 2129.51Z" fill="black"/>
</svg>
