<svg width="187" height="212" viewBox="0 0 187 212" fill="none" xmlns="http://www.w3.org/2000/svg">
<path d="M156.564 95.3812L172.773 86.0228C174.293 85.1455 174.096 82.8931 172.447 82.293L122.006 63.9338C121.432 63.725 120.795 63.7807 120.266 64.086L104.057 73.4444C102.538 74.3216 102.735 76.5741 104.384 77.1742L104.77 76.1121L104.384 77.1742L154.825 95.5334C155.399 95.7422 156.036 95.6865 156.564 95.3812Z" fill="#ECB9FF" stroke="#6421A6" stroke-width="2.26042" stroke-linejoin="round"/>
<mask id="path-2-outside-1_486_4815" maskUnits="userSpaceOnUse" x="92.4316" y="72.4259" width="66" height="56" fill="black">
<rect fill="white" x="92.4316" y="72.4259" width="66" height="56"/>
<path fill-rule="evenodd" clip-rule="evenodd" d="M149.845 120.951C152.501 112.519 154.426 103.742 155.621 94.6203L102.885 75.4259C101.69 84.5477 99.7643 93.3247 97.1087 101.757L149.845 120.951ZM148.168 126.112C148.759 124.417 149.317 122.696 149.844 120.951L97.1082 101.757C96.5812 103.502 96.0224 105.222 95.4316 106.917L148.168 126.112Z"/>
</mask>
<path fill-rule="evenodd" clip-rule="evenodd" d="M149.845 120.951C152.501 112.519 154.426 103.742 155.621 94.6203L102.885 75.4259C101.69 84.5477 99.7643 93.3247 97.1087 101.757L149.845 120.951ZM148.168 126.112C148.759 124.417 149.317 122.696 149.844 120.951L97.1082 101.757C96.5812 103.502 96.0224 105.222 95.4316 106.917L148.168 126.112Z" fill="#DE86FF"/>
<path d="M155.621 94.6203L157.862 94.9139C158 93.8636 157.39 92.8585 156.394 92.4962L155.621 94.6203ZM149.845 120.951L149.072 123.075C149.651 123.286 150.292 123.251 150.845 122.978C151.398 122.705 151.816 122.218 152.001 121.63L149.845 120.951ZM102.885 75.4259L103.658 73.3018C103.014 73.0673 102.298 73.1379 101.711 73.4938C101.125 73.8497 100.733 74.4524 100.643 75.1323L102.885 75.4259ZM97.1087 101.757L94.9527 101.078C94.5893 102.232 95.1988 103.467 96.3356 103.881L97.1087 101.757ZM149.844 120.951L152.008 121.604C152.355 120.456 151.745 119.237 150.617 118.827L149.844 120.951ZM148.168 126.112L147.395 128.236C147.963 128.443 148.591 128.413 149.137 128.154C149.684 127.894 150.103 127.427 150.302 126.856L148.168 126.112ZM97.1082 101.757L97.8813 99.6326C97.2974 99.4201 96.6517 99.4573 96.0961 99.7355C95.5405 100.014 95.1239 100.508 94.9443 101.103L97.1082 101.757ZM95.4316 106.917L93.2971 106.174C92.8903 107.341 93.4968 108.619 94.6585 109.041L95.4316 106.917ZM153.38 94.3267C152.201 103.323 150.303 111.971 147.689 120.272L152.001 121.63C154.698 113.067 156.651 104.161 157.862 94.9139L153.38 94.3267ZM102.112 77.55L154.848 96.7444L156.394 92.4962L103.658 73.3018L102.112 77.55ZM99.2647 102.436C101.962 93.873 103.915 84.9668 105.126 75.7195L100.643 75.1323C99.4649 84.1287 97.5672 92.7764 94.9527 101.078L99.2647 102.436ZM150.618 118.827L97.8818 99.6326L96.3356 103.881L149.072 123.075L150.618 118.827ZM147.68 120.298C147.163 122.013 146.613 123.703 146.033 125.368L150.302 126.856C150.904 125.13 151.472 123.38 152.008 121.604L147.68 120.298ZM96.3351 103.881L149.071 123.075L150.617 118.827L97.8813 99.6326L96.3351 103.881ZM97.5662 107.661C98.1675 105.936 98.7361 104.185 99.2721 102.41L94.9443 101.103C94.4263 102.819 93.8772 104.509 93.2971 106.174L97.5662 107.661ZM148.941 123.988L96.2047 104.793L94.6585 109.041L147.395 128.236L148.941 123.988Z" fill="#6421A6" mask="url(#path-2-outside-1_486_4815)"/>
<path d="M133.864 44.9102L82.4361 26.192C81.9963 25.9994 81.5474 25.8368 81.0897 25.7048C80.5044 25.5358 79.8905 25.8613 79.7018 26.4405C79.513 27.0197 79.8173 27.6443 80.3898 27.8527L81.5914 28.29C84.3214 29.511 86.8061 32.2893 88.9477 36.9089C89.1769 37.4033 89.5949 37.7985 90.1217 37.9902L140.403 56.2911C142.072 56.8985 143.812 55.187 142.898 53.4652C140.492 48.9368 137.509 45.9764 133.864 44.9102Z" fill="#DE86FF" stroke="#6421A6" stroke-width="2.26042" stroke-linejoin="round"/>
<mask id="path-5-outside-2_486_4815" maskUnits="userSpaceOnUse" x="30.7534" y="101.065" width="108" height="85" fill="black">
<rect fill="white" x="30.7534" y="101.065" width="108" height="85"/>
<path fill-rule="evenodd" clip-rule="evenodd" d="M104.034 129.232C101.389 127.339 98.8277 125.348 96.3509 123.26L43.6147 104.065C46.0916 106.154 48.6529 108.145 51.2985 110.038L51.2987 110.038L82.8974 132.495L135.634 151.69L104.035 129.233L104.035 129.233M126.542 163.61C129.793 159.955 132.823 155.982 135.634 151.69L82.8974 132.496C80.0872 136.787 77.0564 140.761 73.8052 144.416L73.8052 144.416C68.8923 149.859 63.4483 154.305 57.4732 157.755L57.4735 157.755C50.569 161.741 44.5938 163.811 39.5482 163.965L92.2844 183.159C97.3301 183.005 103.305 180.935 110.21 176.949L110.21 176.949C116.185 173.499 121.629 169.053 126.542 163.61L126.542 163.61ZM92.2833 183.159C90.1366 183.193 88.2054 182.897 86.4896 182.272L33.7596 163.08C35.4738 163.704 37.403 163.998 39.5471 163.965L92.2833 183.159Z"/>
</mask>
<path fill-rule="evenodd" clip-rule="evenodd" d="M104.034 129.232C101.389 127.339 98.8277 125.348 96.3509 123.26L43.6147 104.065C46.0916 106.154 48.6529 108.145 51.2985 110.038L51.2987 110.038L82.8974 132.495L135.634 151.69L104.035 129.233L104.035 129.233M126.542 163.61C129.793 159.955 132.823 155.982 135.634 151.69L82.8974 132.496C80.0872 136.787 77.0564 140.761 73.8052 144.416L73.8052 144.416C68.8923 149.859 63.4483 154.305 57.4732 157.755L57.4735 157.755C50.569 161.741 44.5938 163.811 39.5482 163.965L92.2844 183.159C97.3301 183.005 103.305 180.935 110.21 176.949L110.21 176.949C116.185 173.499 121.629 169.053 126.542 163.61L126.542 163.61ZM92.2833 183.159C90.1366 183.193 88.2054 182.897 86.4896 182.272L33.7596 163.08C35.4738 163.704 37.403 163.998 39.5471 163.965L92.2833 183.159Z" fill="#DE86FF"/>
<path d="M104.42 128.17L104.42 128.17L103.649 130.295L103.649 130.295L104.42 128.17ZM34.1459 162.018L34.1397 162.016L33.3671 164.14L33.3733 164.142L34.1459 162.018ZM96.3509 123.26L97.808 121.532C97.605 121.36 97.3735 121.226 97.124 121.136L96.3509 123.26ZM43.6147 104.065L44.3878 101.941C43.358 101.566 42.2076 101.984 41.6585 102.933C41.1094 103.881 41.3198 105.087 42.1577 105.793L43.6147 104.065ZM51.2985 110.038L49.9829 111.876C50.1501 111.996 50.333 112.092 50.5264 112.163L51.2985 110.038ZM51.2987 110.038L52.6082 108.196C52.4425 108.078 52.2618 107.983 52.0708 107.914L51.2987 110.038ZM82.8974 132.495L81.5879 134.338C81.7533 134.455 81.9337 134.55 82.1243 134.619L82.8974 132.495ZM135.634 151.69L134.86 153.814C135.924 154.201 137.109 153.742 137.635 152.74C138.161 151.739 137.865 150.503 136.943 149.847L135.634 151.69ZM104.035 129.233L101.931 130.06C102.092 130.468 102.368 130.821 102.725 131.075L104.035 129.233ZM135.634 151.69L137.525 152.928C137.903 152.351 137.996 151.632 137.779 150.977C137.561 150.322 137.055 149.802 136.407 149.566L135.634 151.69ZM126.542 163.61L124.853 162.108C124.348 162.676 124.162 163.459 124.358 164.194C124.554 164.928 125.106 165.514 125.827 165.755L126.542 163.61ZM82.8974 132.496L83.6705 130.371C82.6845 130.013 81.5811 130.379 81.0063 131.257L82.8974 132.496ZM73.8052 144.416L72.1162 142.914C71.6111 143.482 71.4252 144.265 71.6213 144.999C71.8175 145.734 72.3694 146.32 73.0904 146.56L73.8052 144.416ZM73.8052 144.416L75.4832 145.931C75.9943 145.364 76.1854 144.578 75.9912 143.841C75.797 143.103 75.2438 142.513 74.5201 142.272L73.8052 144.416ZM57.4732 157.755L56.343 155.797C55.5834 156.236 55.1461 157.074 55.221 157.948C55.296 158.822 55.8697 159.573 56.6929 159.876L57.4732 157.755ZM57.4735 157.755L58.6037 159.712C59.3633 159.274 59.8006 158.435 59.7257 157.562C59.6507 156.688 59.077 155.936 58.2538 155.633L57.4735 157.755ZM39.5482 163.965L39.4794 161.705C38.3959 161.738 37.4883 162.536 37.3164 163.606C37.1444 164.676 37.7564 165.718 38.7751 166.089L39.5482 163.965ZM92.2844 183.159L91.5113 185.283C91.7808 185.381 92.0665 185.427 92.3532 185.418L92.2844 183.159ZM110.21 176.949L111.34 178.906C112.103 178.466 112.541 177.622 112.461 176.745C112.382 175.868 111.8 175.116 110.97 174.82L110.21 176.949ZM110.21 176.949L109.08 174.991C108.317 175.432 107.879 176.275 107.959 177.153C108.038 178.03 108.62 178.781 109.449 179.077L110.21 176.949ZM126.542 163.61L128.22 165.125C128.731 164.558 128.922 163.773 128.728 163.035C128.533 162.297 127.98 161.707 127.256 161.466L126.542 163.61ZM86.4896 182.272L87.2633 180.148L87.2627 180.148L86.4896 182.272ZM92.2833 183.159L92.3188 185.419C93.4089 185.402 94.3315 184.61 94.5124 183.534C94.6933 182.459 94.081 181.408 93.0564 181.035L92.2833 183.159ZM33.7596 163.08L34.5322 160.956C33.3591 160.529 32.0622 161.134 31.6354 162.307C31.2086 163.48 31.8135 164.777 32.9865 165.204L33.7596 163.08ZM39.5471 163.965L40.3202 161.841C40.0613 161.747 39.7873 161.7 39.5117 161.705L39.5471 163.965ZM94.8939 124.988C97.4166 127.115 100.025 129.142 102.719 131.071L105.35 127.394C102.753 125.535 100.239 123.581 97.808 121.532L94.8939 124.988ZM42.8416 106.189L95.5778 125.384L97.124 121.136L44.3878 101.941L42.8416 106.189ZM52.6141 108.2C50.0169 106.341 47.5028 104.387 45.0718 102.337L42.1577 105.793C44.6804 107.92 47.2889 109.948 49.9829 111.876L52.6141 108.2ZM52.0708 107.914L52.0706 107.914L50.5264 112.163L50.5266 112.163L52.0708 107.914ZM49.9893 111.881L81.5879 134.338L84.2068 130.653L52.6082 108.196L49.9893 111.881ZM82.1243 134.619L134.86 153.814L136.407 149.566L83.6705 130.371L82.1243 134.619ZM136.943 149.847L105.344 127.39L102.725 131.075L134.324 153.532L136.943 149.847ZM106.138 128.405L106.138 128.405L101.931 130.06L101.931 130.06L106.138 128.405ZM133.743 150.452C130.99 154.655 128.027 158.54 124.853 162.108L128.231 165.112C131.559 161.37 134.657 157.308 137.525 152.928L133.743 150.452ZM82.1243 134.62L134.86 153.814L136.407 149.566L83.6705 130.371L82.1243 134.62ZM75.4941 145.918C78.8226 142.176 81.9204 138.114 84.7885 133.734L81.0063 131.257C78.254 135.461 75.2902 139.345 72.1162 142.914L75.4941 145.918ZM74.5201 142.272L74.52 142.272L73.0904 146.56L73.0904 146.56L74.5201 142.272ZM58.6034 159.712C64.7956 156.137 70.4219 151.538 75.4832 145.931L72.1273 142.901C67.3628 148.18 62.101 152.473 56.343 155.797L58.6034 159.712ZM58.2538 155.633L58.2535 155.633L56.6929 159.876L56.6932 159.876L58.2538 155.633ZM39.617 166.224C45.1916 166.054 51.5447 163.788 58.6037 159.712L56.3433 155.797C49.5932 159.694 43.9961 161.568 39.4794 161.705L39.617 166.224ZM93.0575 181.035L40.3213 161.84L38.7751 166.089L91.5113 185.283L93.0575 181.035ZM109.08 174.991C102.33 178.889 96.7324 180.762 92.2156 180.9L92.3532 185.418C97.9279 185.249 104.281 182.982 111.34 178.906L109.08 174.991ZM109.449 179.077L109.45 179.078L110.97 174.82L110.97 174.82L109.449 179.077ZM124.864 162.096C120.099 167.374 114.838 171.667 109.08 174.991L111.34 178.906C117.532 175.331 123.158 170.732 128.22 165.125L124.864 162.096ZM125.827 165.755L125.827 165.755L127.256 161.466L127.256 161.466L125.827 165.755ZM85.716 184.396C87.732 185.131 89.9438 185.457 92.3188 185.419L92.2479 180.899C90.3294 180.929 88.6787 180.664 87.2633 180.148L85.716 184.396ZM32.9865 165.204L85.7165 184.396L87.2627 180.148L34.5327 160.956L32.9865 165.204ZM39.5117 161.705C37.5955 161.735 35.9465 161.47 34.5322 160.956L32.987 165.204C35.0012 165.937 37.2105 166.262 39.5826 166.225L39.5117 161.705ZM93.0564 181.035L40.3202 161.841L38.774 166.089L91.5102 185.283L93.0564 181.035Z" fill="#6421A6" mask="url(#path-5-outside-2_486_4815)"/>
<mask id="path-7-outside-3_486_4815" maskUnits="userSpaceOnUse" x="-0.5" y="89.5298" width="89" height="121" fill="black">
<rect fill="white" x="-0.5" y="89.5298" width="89" height="121"/>
<path fill-rule="evenodd" clip-rule="evenodd" d="M11.0645 123.839C5.35482 136.027 2.5 148.177 2.5 160.288C2.5 169.486 4.75731 176.692 9.27194 181.904L9.27235 181.904C11.9162 184.738 15.0541 186.816 18.6863 188.137L71.4101 207.326C67.7831 206.005 64.6492 203.929 62.0083 201.098L62.0079 201.098C57.4934 195.886 55.2362 188.681 55.2362 179.482C55.2362 167.371 58.091 155.221 63.8007 143.033L63.8005 143.033C68.9721 132.176 76.2245 121.74 85.5576 111.724L32.8214 92.5298C23.4882 102.546 16.2358 112.982 11.0643 123.839L11.0645 123.839Z"/>
</mask>
<path fill-rule="evenodd" clip-rule="evenodd" d="M11.0645 123.839C5.35482 136.027 2.5 148.177 2.5 160.288C2.5 169.486 4.75731 176.692 9.27194 181.904L9.27235 181.904C11.9162 184.738 15.0541 186.816 18.6863 188.137L71.4101 207.326C67.7831 206.005 64.6492 203.929 62.0083 201.098L62.0079 201.098C57.4934 195.886 55.2362 188.681 55.2362 179.482C55.2362 167.371 58.091 155.221 63.8007 143.033L63.8005 143.033C68.9721 132.176 76.2245 121.74 85.5576 111.724L32.8214 92.5298C23.4882 102.546 16.2358 112.982 11.0643 123.839L11.0645 123.839Z" fill="#ECB9FF"/>
<path d="M71.8088 206.269L71.7964 206.264L71.0238 208.389L71.0361 208.393L71.8088 206.269ZM11.0645 123.839L13.1114 124.798C13.3799 124.225 13.3958 123.565 13.1554 122.98C12.9149 122.395 12.4401 121.937 11.8463 121.718L11.0645 123.839ZM9.27194 181.904L7.56335 183.384C7.81901 183.679 8.14676 183.903 8.51468 184.034L9.27194 181.904ZM9.27235 181.904L10.9252 180.362C10.6781 180.097 10.371 179.895 10.0296 179.774L9.27235 181.904ZM18.6863 188.137L19.4594 186.012L19.4588 186.012L18.6863 188.137ZM71.4101 207.326L70.637 209.451C71.81 209.877 73.107 209.273 73.5341 208.1C73.9612 206.927 73.3566 205.63 72.1838 205.203L71.4101 207.326ZM62.0083 201.098L63.6612 199.556C63.4129 199.29 63.1039 199.088 62.7606 198.966L62.0083 201.098ZM62.0079 201.098L60.2993 202.578C60.5561 202.874 60.8857 203.099 61.2556 203.229L62.0079 201.098ZM63.8007 143.033L65.8477 143.992C66.1159 143.42 66.132 142.761 65.8923 142.176C65.6525 141.591 65.1787 141.133 64.5858 140.913L63.8007 143.033ZM63.8005 143.033L61.7598 142.061C61.4868 142.634 61.4674 143.295 61.7062 143.884C61.9451 144.472 62.4202 144.932 63.0154 145.153L63.8005 143.033ZM85.5576 111.724L87.2114 113.265C87.7283 112.71 87.9326 111.933 87.7555 111.196C87.5783 110.459 87.0433 109.859 86.3307 109.6L85.5576 111.724ZM32.8214 92.5298L33.5945 90.4057C32.7419 90.0953 31.7863 90.325 31.1677 90.9888L32.8214 92.5298ZM11.0643 123.839L9.02354 122.867C8.7503 123.44 8.73108 124.102 8.97059 124.691C9.2101 125.279 9.68622 125.74 10.2824 125.96L11.0643 123.839ZM4.76042 160.288C4.76042 148.544 7.52658 136.72 13.1114 124.798L9.01751 122.88C3.18306 135.335 0.239583 147.81 0.239583 160.288H4.76042ZM10.9805 180.424C6.926 175.743 4.76042 169.126 4.76042 160.288H0.239583C0.239583 169.846 2.58863 177.64 7.56335 183.384L10.9805 180.424ZM10.0296 179.774L10.0292 179.774L8.51468 184.034L8.51509 184.034L10.0296 179.774ZM19.4588 186.012C16.163 184.814 13.3264 182.936 10.9252 180.362L7.61945 183.446C10.5059 186.54 13.9453 188.818 17.9137 190.261L19.4588 186.012ZM72.1832 205.202L19.4594 186.012L17.9132 190.261L70.637 209.451L72.1832 205.202ZM60.3554 202.64C63.2386 205.731 66.6735 208.007 70.6364 209.45L72.1838 205.203C68.8927 204.004 66.0597 202.127 63.6612 199.556L60.3554 202.64ZM61.2556 203.229L61.256 203.23L62.7606 198.966L62.7602 198.966L61.2556 203.229ZM52.9758 179.482C52.9758 189.041 55.3247 196.835 60.2993 202.578L63.7165 199.618C59.6621 194.937 57.4966 188.321 57.4966 179.482H52.9758ZM61.7538 142.074C55.9193 154.529 52.9758 167.004 52.9758 179.482H57.4966C57.4966 167.738 60.2628 155.914 65.8477 143.992L61.7538 142.074ZM63.0154 145.153L63.0156 145.153L64.5858 140.913L64.5856 140.913L63.0154 145.153ZM65.8412 144.005C70.9009 133.383 78.0141 123.135 87.2114 113.265L83.9039 110.183C74.4349 120.345 67.0432 130.97 61.7598 142.061L65.8412 144.005ZM86.3307 109.6L33.5945 90.4057L32.0483 94.6539L84.7845 113.848L86.3307 109.6ZM31.1677 90.9888C21.6986 101.151 14.307 111.775 9.02354 122.867L13.105 124.811C18.1647 114.189 25.2779 103.941 34.4752 94.0708L31.1677 90.9888ZM10.2824 125.96L10.2826 125.96L11.8463 121.718L11.8461 121.718L10.2824 125.96Z" fill="#6421A6" mask="url(#path-7-outside-3_486_4815)"/>
<mask id="path-9-outside-4_486_4815" maskUnits="userSpaceOnUse" x="23.0039" y="-0.5" width="126" height="115" fill="black">
<rect fill="white" x="23.0039" y="-0.5" width="126" height="115"/>
<path fill-rule="evenodd" clip-rule="evenodd" d="M146.343 22.8509C143.473 21.8072 140.258 21.47 136.699 21.8391L136.699 21.8392C131.521 22.2228 125.944 24.1393 119.969 27.5889L119.97 27.5892C111.87 32.2656 104.7 38.1684 98.4591 45.2976L45.7229 26.1032C51.9635 18.9742 59.1335 13.0715 67.233 8.39521L67.2322 8.39491C73.2074 4.9451 78.7843 3.02839 83.9628 2.64478L83.9624 2.64465C87.5222 2.27555 90.737 2.61282 93.6066 3.65645L146.343 22.8509ZM80.7314 103.134C82.027 106.058 83.6361 108.921 85.5587 111.724L32.8225 92.5297C30.8999 89.7266 29.2908 86.8632 27.9952 83.9394L80.7314 103.134ZM80.7318 103.134C79.404 99.6077 78.7401 96.0051 78.7401 92.3257C78.7401 84.5072 80.4663 76.5351 83.9186 68.4096L83.9176 68.4092C87.5027 60.0539 92.3492 52.3501 98.4571 45.2977L45.7209 26.1033C39.6129 33.1558 34.7663 40.8598 31.1812 49.2153L31.1822 49.2157C27.73 57.341 26.0039 65.3129 26.0039 73.1314C26.0039 76.8107 26.6678 80.4133 27.9957 83.9393L80.7318 103.134Z"/>
</mask>
<path fill-rule="evenodd" clip-rule="evenodd" d="M146.343 22.8509C143.473 21.8072 140.258 21.47 136.699 21.8391L136.699 21.8392C131.521 22.2228 125.944 24.1393 119.969 27.5889L119.97 27.5892C111.87 32.2656 104.7 38.1684 98.4591 45.2976L45.7229 26.1032C51.9635 18.9742 59.1335 13.0715 67.233 8.39521L67.2322 8.39491C73.2074 4.9451 78.7843 3.02839 83.9628 2.64478L83.9624 2.64465C87.5222 2.27555 90.737 2.61282 93.6066 3.65645L146.343 22.8509ZM80.7314 103.134C82.027 106.058 83.6361 108.921 85.5587 111.724L32.8225 92.5297C30.8999 89.7266 29.2908 86.8632 27.9952 83.9394L80.7314 103.134ZM80.7318 103.134C79.404 99.6077 78.7401 96.0051 78.7401 92.3257C78.7401 84.5072 80.4663 76.5351 83.9186 68.4096L83.9176 68.4092C87.5027 60.0539 92.3492 52.3501 98.4571 45.2977L45.7209 26.1033C39.6129 33.1558 34.7663 40.8598 31.1812 49.2153L31.1822 49.2157C27.73 57.341 26.0039 65.3129 26.0039 73.1314C26.0039 76.8107 26.6678 80.4133 27.9957 83.9393L80.7318 103.134Z" fill="#ECB9FF"/>
<path d="M136.699 21.8391L136.465 19.5907C135.395 19.7017 134.551 20.5519 134.449 21.623C134.346 22.6942 135.012 23.6894 136.042 24.002L136.699 21.8391ZM146.343 22.8509L145.57 24.9752C146.743 25.4018 148.04 24.7968 148.467 23.6237C148.894 22.4506 148.289 21.1537 147.116 20.7268L146.343 22.8509ZM136.699 21.8392L136.866 24.0934C137.952 24.013 138.826 23.1702 138.946 22.0882C139.066 21.0062 138.397 19.9925 137.356 19.6762L136.699 21.8392ZM119.969 27.5889L118.839 25.6313C118.078 26.0704 117.641 26.9104 117.717 27.7854C117.794 28.6603 118.37 29.4119 119.195 29.7126L119.969 27.5889ZM119.97 27.5892L121.1 29.5468C121.861 29.1076 122.298 28.2676 122.222 27.3927C122.145 26.5177 121.569 25.7662 120.744 25.4654L119.97 27.5892ZM98.4591 45.2976L97.686 47.4217C98.5627 47.7408 99.5454 47.4884 100.16 46.7864L98.4591 45.2976ZM45.7229 26.1032L44.0221 24.6143C43.5308 25.1755 43.348 25.9429 43.5335 26.6653C43.719 27.3877 44.2489 27.9722 44.9498 28.2273L45.7229 26.1032ZM67.233 8.39521L68.3632 10.3528C69.124 9.91355 69.5613 9.07337 69.4848 8.19827C69.4083 7.32318 68.8317 6.57167 68.0062 6.27117L67.233 8.39521ZM67.2322 8.39491L66.1019 6.43733C65.3412 6.87655 64.9038 7.71673 64.9803 8.59183C65.0569 9.46693 65.6334 10.2184 66.4589 10.5189L67.2322 8.39491ZM83.9628 2.64478L84.1298 4.89902C85.2135 4.81874 86.0867 3.97868 86.2089 2.89889C86.3311 1.8191 85.6676 0.805189 84.6292 0.484824L83.9628 2.64478ZM83.9624 2.64465L83.7293 0.396283C82.6608 0.507065 81.8179 1.3545 81.7128 2.42354C81.6078 3.49259 82.2696 4.48792 83.296 4.8046L83.9624 2.64465ZM93.6066 3.65645L94.3797 1.53236L94.3792 1.53216L93.6066 3.65645ZM85.5587 111.724L84.7856 113.848C85.7089 114.184 86.7435 113.885 87.3453 113.109C87.9472 112.332 87.9785 111.256 87.4228 110.446L85.5587 111.724ZM80.7314 103.134L82.798 102.218C82.549 101.656 82.082 101.22 81.5045 101.01L80.7314 103.134ZM32.8225 92.5297L30.9584 93.8082C31.225 94.1969 31.6065 94.4926 32.0494 94.6538L32.8225 92.5297ZM27.9952 83.9394L28.7683 81.8153C27.9166 81.5053 26.9621 81.734 26.3433 82.3964C25.7246 83.0587 25.5614 84.0266 25.9286 84.8552L27.9952 83.9394ZM80.7318 103.134L79.9587 105.258C80.7885 105.56 81.7181 105.351 82.339 104.723C82.96 104.095 83.1584 103.163 82.8472 102.337L80.7318 103.134ZM83.9186 68.4096L85.9991 69.2935C86.2418 68.7222 86.2389 68.0762 85.9911 67.5071C85.7432 66.938 85.2723 66.4958 84.6887 66.2844L83.9186 68.4096ZM83.9176 68.4092L81.8403 67.5179C81.595 68.0896 81.5962 68.7372 81.8436 69.308C82.0909 69.8788 82.5627 70.3225 83.1476 70.5344L83.9176 68.4092ZM98.4571 45.2977L100.166 46.7775C100.653 46.2153 100.832 45.4496 100.645 44.7297C100.458 44.0099 99.9291 43.428 99.2302 43.1736L98.4571 45.2977ZM45.7209 26.1033L46.494 23.9792C45.6132 23.6586 44.6259 23.9149 44.0123 24.6235L45.7209 26.1033ZM31.1812 49.2153L29.1039 48.324C28.8587 48.8954 28.8598 49.5427 29.1068 50.1133C29.3539 50.684 29.8251 51.1277 30.4096 51.3399L31.1812 49.2153ZM31.1822 49.2157L33.2627 50.0996C33.5053 49.5285 33.5025 48.8829 33.255 48.3139C33.0075 47.745 32.537 47.3028 31.9538 47.091L31.1822 49.2157ZM27.9957 83.9393L25.8803 84.7359C26.1126 85.353 26.6029 85.8379 27.2225 86.0634L27.9957 83.9393ZM136.932 24.0874C140.21 23.7476 143.073 24.0669 145.57 24.9752L147.115 20.7266C143.873 19.5475 140.307 19.1924 136.465 19.5907L136.932 24.0874ZM137.356 19.6762L137.355 19.6761L136.042 24.002L136.042 24.0021L137.356 19.6762ZM121.099 29.5465C126.872 26.2137 132.119 24.445 136.866 24.0934L136.532 19.5849C130.922 20.0005 125.016 22.065 118.839 25.6313L121.099 29.5465ZM120.744 25.4654L120.743 25.4651L119.195 29.7126L119.196 29.7129L120.744 25.4654ZM100.16 46.7864C106.24 39.8412 113.218 34.0976 121.1 29.5468L118.84 25.6316C110.523 30.4335 103.16 36.4955 96.7583 43.8087L100.16 46.7864ZM44.9498 28.2273L97.686 47.4217L99.2322 43.1735L46.496 23.9791L44.9498 28.2273ZM66.1028 6.43764C57.7859 11.2395 50.4237 17.3014 44.0221 24.6143L47.4237 27.592C53.5032 20.647 60.4812 14.9036 68.3632 10.3528L66.1028 6.43764ZM66.4589 10.5189L66.4597 10.5192L68.0062 6.27117L68.0054 6.27087L66.4589 10.5189ZM83.7958 0.390537C78.1855 0.806135 72.2794 2.8708 66.1019 6.43733L68.3624 10.3525C74.1354 7.0194 79.383 5.25065 84.1298 4.89902L83.7958 0.390537ZM83.296 4.8046L83.2964 4.80473L84.6292 0.484824L84.6288 0.484693L83.296 4.8046ZM94.3792 1.53216C91.1372 0.353105 87.5712 -0.00205515 83.7293 0.396283L84.1955 4.89301C87.4733 4.55316 90.3368 4.87254 92.834 5.78075L94.3792 1.53216ZM147.116 20.7268L94.3797 1.53236L92.8335 5.78055L145.57 24.975L147.116 20.7268ZM87.4228 110.446C85.5738 107.75 84.034 105.007 82.798 102.218L78.6648 104.05C80.0201 107.108 81.6984 110.092 83.6946 113.003L87.4228 110.446ZM32.0494 94.6538L84.7856 113.848L86.3318 109.6L33.5956 90.4056L32.0494 94.6538ZM25.9286 84.8552C27.2839 87.9135 28.9623 90.8978 30.9584 93.8082L34.6866 91.2511C32.8376 88.5554 31.2978 85.8128 30.0618 83.0236L25.9286 84.8552ZM81.5045 101.01L28.7683 81.8153L27.2221 86.0635L79.9583 105.258L81.5045 101.01ZM76.4797 92.3257C76.4797 96.2838 77.1951 100.156 78.6165 103.93L82.8472 102.337C81.613 99.0595 81.0005 95.7264 81.0005 92.3257H76.4797ZM81.8382 67.5257C78.2824 75.8947 76.4797 84.1666 76.4797 92.3257H81.0005C81.0005 84.8477 82.6502 77.1755 85.9991 69.2935L81.8382 67.5257ZM83.1476 70.5344L83.1486 70.5348L84.6887 66.2844L84.6876 66.284L83.1476 70.5344ZM85.9949 69.3005C89.4858 61.1648 94.2063 53.6586 100.166 46.7775L96.7485 43.8179C90.4922 51.0416 85.5197 58.943 81.8403 67.5179L85.9949 69.3005ZM99.2302 43.1736L46.494 23.9792L44.9478 28.2274L97.684 47.4218L99.2302 43.1736ZM44.0123 24.6235C37.7558 31.8473 32.7833 39.7489 29.1039 48.324L33.2585 50.1066C36.7494 41.9707 41.47 34.4643 47.4296 27.5831L44.0123 24.6235ZM30.4096 51.3399L30.4107 51.3403L31.9538 47.091L31.9527 47.0906L30.4096 51.3399ZM28.2643 73.1314C28.2643 65.6535 29.9139 57.9814 33.2627 50.0996L29.1018 48.3318C25.5461 56.7006 23.7435 64.9723 23.7435 73.1314H28.2643ZM30.111 83.1427C28.8768 79.8651 28.2643 76.532 28.2643 73.1314H23.7435C23.7435 77.0894 24.4589 80.9615 25.8803 84.7359L30.111 83.1427ZM81.505 101.01L28.7688 81.8152L27.2225 86.0634L79.9587 105.258L81.505 101.01Z" fill="#6421A6" mask="url(#path-9-outside-4_486_4815)"/>
<g filter="url(#filter0_ii_486_4815)">
<path fill-rule="evenodd" clip-rule="evenodd" d="M146.513 161.812C147.184 160.782 148.175 160.265 148.772 160.655L159.324 167.549C159.63 167.749 160.058 167.716 160.505 167.458L182.81 154.58C184.22 153.766 184.957 151.405 184.004 150.756L161.523 135.419C161.025 135.079 160.958 134.184 161.347 133.237C163.995 126.788 166.269 120.163 168.169 113.361C170.747 104.505 172.587 95.4846 173.689 86.3008C173.833 85.1001 173.077 84.5422 172.099 85.1071L156.998 93.8258C156.204 94.284 155.529 95.3383 155.39 96.321C154.184 104.834 152.335 113.044 149.845 120.951C149.633 121.654 149.416 122.353 149.193 123.048C148.721 124.52 147.346 125.527 146.584 124.986L124.55 109.34C122.558 107.884 120.235 106.159 117.579 104.166C114.923 102.174 112.334 99.8358 109.811 97.1531C107.288 94.4704 105.164 91.6344 103.438 88.645C101.844 85.4257 101.047 82.1297 101.047 78.7569C101.047 74.6176 101.778 70.7466 103.238 67.1438C104.699 63.541 106.824 60.2447 109.612 57.255C112.4 54.1121 115.853 51.3523 119.969 48.9758C125.413 45.8326 129.928 44.8358 133.513 45.9854C136.86 46.9513 139.723 49.7499 142.101 54.3813C142.521 55.1991 143.656 54.9584 144.506 53.8384L157.348 36.9189C157.973 36.0965 158.249 35.0426 157.99 34.3897C156.246 29.9894 153.597 26.7638 150.044 24.713C146.326 22.2603 141.878 21.3024 136.7 21.8393C131.521 22.223 125.944 24.1397 119.969 27.5895C111.869 32.2659 104.699 38.1687 98.4582 45.2979C92.3502 52.3504 87.5036 60.0544 83.9185 68.4099C80.4661 76.5353 78.7399 84.5074 78.7399 92.3261C78.7399 96.0054 79.4038 99.6081 80.7317 103.134C81.8247 105.601 83.1409 108.024 84.6802 110.405C85.1413 111.118 84.7822 112.556 83.905 113.528C75.3648 122.992 68.6638 132.827 63.8018 143.033C58.0921 155.222 55.2373 167.371 55.2373 179.483C55.2373 188.681 57.4946 195.886 62.0092 201.098C66.6567 206.081 72.8311 208.725 80.5325 209.031C88.2339 209.184 96.7984 206.538 106.226 201.095C113.529 196.879 120.367 191.781 126.741 185.802C133.115 179.669 138.891 172.885 144.069 165.449C144.9 164.25 145.715 163.037 146.513 161.812ZM134.309 153.667C135.042 152.599 135.121 151.325 134.506 150.888L104.035 129.233C101.64 127.519 99.3142 125.725 97.0575 123.851C96.6311 123.497 95.9285 123.662 95.2952 124.288C90.1196 129.403 86.0618 134.617 83.1218 139.928C79.0055 147.21 76.9473 155.067 76.9473 163.499C76.9473 169.938 78.2752 174.843 80.9308 178.216C83.5865 181.589 87.3708 183.236 92.2838 183.159C97.3295 183.006 103.305 180.936 110.21 176.949C116.185 173.5 121.629 169.053 126.542 163.611C129.288 160.523 131.877 157.208 134.309 153.667Z" fill="white"/>
</g>
<path d="M148.767 120.612L148.767 120.612L148.763 120.625C148.553 121.322 148.337 122.014 148.117 122.703C147.95 123.223 147.625 123.642 147.325 123.863C147.235 123.93 147.17 123.966 147.126 123.985L125.217 108.428C125.215 108.426 125.213 108.425 125.211 108.423C123.225 106.971 120.908 105.251 118.257 103.262C115.659 101.313 113.118 99.0193 110.634 96.3789C108.176 93.7649 106.111 91.0089 104.435 88.1114C102.924 85.048 102.178 81.9334 102.178 78.7569C102.178 74.7536 102.883 71.0278 104.286 67.5684C105.692 64.1 107.739 60.9199 110.438 58.0259L110.448 58.0156L110.457 58.0051C113.156 54.964 116.509 52.2783 120.534 49.9546C125.88 46.8684 130.038 46.058 133.168 47.0616L133.184 47.0667L133.2 47.0713C136.126 47.9158 138.79 50.4065 141.096 54.8976C141.311 55.317 141.652 55.6542 142.098 55.8412C142.533 56.0236 142.985 56.0289 143.387 55.94C144.169 55.7668 144.875 55.2209 145.406 54.5217L158.249 37.6022C158.648 37.076 158.942 36.471 159.095 35.8714C159.244 35.2923 159.29 34.6014 159.041 33.9732C157.223 29.386 154.431 25.9491 150.639 23.751C146.677 21.1475 141.972 20.1594 136.6 20.7135C131.21 21.1159 125.474 23.1061 119.404 26.6107C111.195 31.3499 103.929 37.3323 97.6078 44.5534L97.6039 44.5579C91.4216 51.6962 86.5121 59.4989 82.8798 67.9642L82.8782 67.9679C79.3741 76.2151 77.6097 84.3371 77.6097 92.3261C77.6097 96.1448 78.2994 99.8822 79.674 103.532L79.6853 103.563L79.6984 103.592C80.8166 106.115 82.1613 108.591 83.7311 111.019C83.7287 111.015 83.729 111.016 83.7308 111.023C83.7401 111.056 83.7886 111.231 83.6976 111.597C83.6001 111.989 83.3785 112.424 83.0659 112.771C74.4617 122.305 67.696 132.23 62.7814 142.547L62.7783 142.554C57.0063 154.875 54.1071 167.188 54.1071 179.483C54.1071 188.861 56.4103 196.361 61.1549 201.838L61.1686 201.854L61.1828 201.869C66.0606 207.098 72.5311 209.844 80.4876 210.16L80.4988 210.161L80.5101 210.161C88.4856 210.319 97.2552 207.58 106.791 202.074C114.172 197.813 121.08 192.662 127.514 186.626L127.519 186.621L127.525 186.616C133.953 180.431 139.777 173.59 144.997 166.095L144.998 166.093C145.835 164.885 146.656 163.663 147.46 162.429C147.712 162.042 147.991 161.807 148.188 161.706C148.218 161.69 148.242 161.679 148.262 161.672L158.706 168.495C159.511 169.021 160.428 168.807 161.071 168.436L183.375 155.559C184.385 154.976 185.069 153.914 185.372 152.943C185.527 152.447 185.608 151.896 185.539 151.365C185.468 150.831 185.225 150.22 184.641 149.822L162.238 134.539C162.235 134.521 162.231 134.498 162.229 134.466C162.215 134.295 162.249 134.013 162.392 133.666C165.056 127.178 167.344 120.513 169.256 113.672C171.85 104.758 173.702 95.6786 174.811 86.4355C174.908 85.6293 174.741 84.6955 173.991 84.1361C173.203 83.548 172.247 83.7164 171.534 84.1283L156.433 92.847C155.306 93.4972 154.453 94.8736 154.27 96.1625C153.073 104.617 151.238 112.766 148.767 120.612ZM147.057 124.004C147.058 124.002 147.068 123.999 147.086 124C147.066 124.006 147.056 124.006 147.057 124.004ZM148.323 161.654C148.323 161.655 148.318 161.656 148.309 161.656C148.319 161.654 148.323 161.654 148.323 161.654ZM162.25 134.58C162.25 134.581 162.249 134.579 162.247 134.573C162.249 134.577 162.25 134.58 162.25 134.58ZM103.377 130.152L103.38 130.154L133.779 151.758C133.786 151.794 133.792 151.859 133.785 151.964C133.766 152.246 133.643 152.639 133.377 153.027C130.972 156.53 128.413 159.807 125.7 162.857C120.862 168.216 115.51 172.584 109.644 175.971C102.821 179.91 97.0372 181.882 92.2575 182.03C87.6434 182.1 84.2213 180.568 81.8188 177.517C79.3814 174.422 78.0775 169.805 78.0775 163.499C78.0775 155.26 80.0861 147.595 84.1057 140.484L84.1106 140.475C86.9893 135.275 90.9761 130.146 96.0897 125.092C96.2486 124.934 96.3784 124.857 96.4584 124.822C98.6976 126.677 101.004 128.453 103.377 130.152ZM133.767 151.721C133.767 151.721 133.769 151.724 133.771 151.73C133.768 151.725 133.767 151.721 133.767 151.721Z" stroke="#6421A6" stroke-width="2.26042"/>
<defs>
<filter id="filter0_ii_486_4815" x="52.9771" y="19.0603" width="133.717" height="192.611" filterUnits="userSpaceOnUse" color-interpolation-filters="sRGB">
<feFlood flood-opacity="0" result="BackgroundImageFix"/>
<feBlend mode="normal" in="SourceGraphic" in2="BackgroundImageFix" result="shape"/>
<feColorMatrix in="SourceAlpha" type="matrix" values="0 0 0 0 0 0 0 0 0 0 0 0 0 0 0 0 0 0 127 0" result="hardAlpha"/>
<feOffset dy="-0.748276"/>
<feGaussianBlur stdDeviation="0.187069"/>
<feComposite in2="hardAlpha" operator="arithmetic" k2="-1" k3="1"/>
<feColorMatrix type="matrix" values="0 0 0 0 0 0 0 0 0 0 0 0 0 0 0 0 0 0 0.25 0"/>
<feBlend mode="normal" in2="shape" result="effect1_innerShadow_486_4815"/>
<feColorMatrix in="SourceAlpha" type="matrix" values="0 0 0 0 0 0 0 0 0 0 0 0 0 0 0 0 0 0 127 0" result="hardAlpha"/>
<feOffset dy="0.748276"/>
<feGaussianBlur stdDeviation="0.187069"/>
<feComposite in2="hardAlpha" operator="arithmetic" k2="-1" k3="1"/>
<feColorMatrix type="matrix" values="0 0 0 0 1 0 0 0 0 1 0 0 0 0 1 0 0 0 0.45 0"/>
<feBlend mode="normal" in2="effect1_innerShadow_486_4815" result="effect2_innerShadow_486_4815"/>
</filter>
</defs>
</svg>
