<svg width="100" height="100" viewBox="0 0 100 100" fill="none" xmlns="http://www.w3.org/2000/svg">
<path d="M50 100C77.6142 100 100 77.6144 100 50C100 22.3858 77.6142 0 50 0C22.3856 0 0 22.3858 0 50C0 77.6144 22.3856 100 50 100Z" fill="#4E064F"/>
<path fill-rule="evenodd" clip-rule="evenodd" d="M26.3843 25.9489L26.395 25.9597L26.3895 25.9651L26.3791 25.9755C25.9397 26.4149 25.9397 27.1272 26.3791 27.5666L34.3964 35.5839C34.8358 36.0232 35.548 36.0232 35.9874 35.5839L35.9978 35.5735C36.0413 35.53 36.0804 35.4839 36.1152 35.4357C44.0844 27.5986 56.8979 27.6394 64.8169 35.5581C66.7387 37.48 68.1966 39.6902 69.1903 42.0494L62.9351 42C62.3141 41.995 61.8063 42.4946 61.8016 43.1161C61.7991 43.4175 61.9176 43.7071 62.1309 43.9205L75.148 56.9375C75.5874 57.3769 76.2995 57.3769 76.7391 56.9375L89.552 44.1246C89.9913 43.685 89.9913 42.973 89.552 42.5336C89.343 42.3246 89.0605 42.2065 88.7651 42.204L83.4701 42.1622C82.073 36.2209 79.058 30.5827 74.425 25.9498C61.1589 12.6837 39.6506 12.6834 26.3843 25.9489ZM65.5965 63.5597C65.3457 63.8396 65.0858 64.1142 64.8169 64.3831C56.8569 72.3427 43.9515 72.3427 35.9917 64.3831C33.8892 62.2806 32.3421 59.8331 31.3503 57.2228L36.9461 57.267C37.5672 57.272 38.0751 56.772 38.0797 56.151C38.0822 55.8495 37.9636 55.5595 37.7503 55.3462L24.7334 42.3295C24.294 41.8902 23.5817 41.8902 23.1424 42.3295L10.3295 55.1422C9.89017 55.5816 9.89017 56.2937 10.3295 56.7335C10.5383 56.942 10.8208 57.0606 11.1161 57.0627L17.1883 57.1107C18.512 63.2969 21.577 69.1851 26.3834 73.9913C39.6496 87.2577 61.1586 87.2577 74.425 73.9913C74.6295 73.7868 74.8309 73.5803 75.0291 73.372C75.0977 73.3284 75.1626 73.2767 75.2224 73.2169L75.2328 73.2063C75.672 72.7669 75.672 72.0548 75.2328 71.6154L67.2153 63.5979C66.7777 63.1605 66.0695 63.1588 65.6295 63.5927L65.5965 63.5597Z" fill="white"/>
</svg>
