<svg width="100" height="126" viewBox="0 0 100 126" fill="none" xmlns="http://www.w3.org/2000/svg">
<path d="M50 100C77.6142 100 100 77.6144 100 50C100 22.3858 77.6142 0 50 0C22.3856 0 0 22.3858 0 50C0 77.6144 22.3856 100 50 100Z" fill="#4E064F"/>
<path fill-rule="evenodd" clip-rule="evenodd" d="M26.3843 25.9489L26.395 25.9597L26.3895 25.9651L26.3791 25.9755C25.9397 26.4149 25.9397 27.1272 26.3791 27.5666L34.3964 35.5839C34.8358 36.0232 35.548 36.0232 35.9874 35.5839L35.9978 35.5735C36.0413 35.53 36.0804 35.4839 36.1152 35.4357C44.0844 27.5986 56.8979 27.6394 64.8169 35.5581C66.7387 37.48 68.1966 39.6902 69.1903 42.0494L62.9351 42C62.3141 41.995 61.8063 42.4946 61.8016 43.1161C61.7991 43.4175 61.9176 43.7071 62.1309 43.9205L75.148 56.9375C75.5874 57.3769 76.2995 57.3769 76.7391 56.9375L89.552 44.1246C89.9913 43.685 89.9913 42.973 89.552 42.5336C89.343 42.3246 89.0605 42.2065 88.7651 42.204L83.4701 42.1622C82.073 36.2209 79.058 30.5827 74.425 25.9498C61.1589 12.6837 39.6506 12.6834 26.3843 25.9489ZM65.5965 63.5597C65.3457 63.8396 65.0858 64.1142 64.8169 64.3831C56.8569 72.3427 43.9515 72.3427 35.9917 64.3831C33.8892 62.2806 32.3421 59.8331 31.3503 57.2228L36.9461 57.267C37.5672 57.272 38.0751 56.772 38.0797 56.151C38.0822 55.8495 37.9636 55.5595 37.7503 55.3462L24.7334 42.3295C24.294 41.8902 23.5817 41.8902 23.1424 42.3295L10.3295 55.1422C9.89017 55.5816 9.89017 56.2937 10.3295 56.7335C10.5383 56.942 10.8208 57.0606 11.1161 57.0627L17.1883 57.1107C18.512 63.2969 21.577 69.1851 26.3834 73.9913C39.6496 87.2577 61.1586 87.2577 74.425 73.9913C74.6295 73.7868 74.8309 73.5803 75.0291 73.372C75.0977 73.3284 75.1626 73.2767 75.2224 73.2169L75.2328 73.2063C75.672 72.7669 75.672 72.0548 75.2328 71.6154L67.2153 63.5979C66.7777 63.1605 66.0695 63.1588 65.6295 63.5927L65.5965 63.5597Z" fill="white"/>
<path d="M5.93262 121.185C5.10645 121.185 4.36523 121.026 3.70898 120.71C3.05273 120.394 2.49316 119.948 2.03027 119.374C1.57324 118.794 1.22168 118.108 0.975586 117.317C0.735352 116.526 0.615234 115.653 0.615234 114.698V114.514C0.615234 113.564 0.735352 112.694 0.975586 111.903C1.22168 111.106 1.57324 110.418 2.03027 109.838C2.49316 109.258 3.05273 108.81 3.70898 108.493C4.36523 108.177 5.10645 108.019 5.93262 108.019C6.80566 108.019 7.57324 108.177 8.23535 108.493C8.89746 108.81 9.45117 109.258 9.89648 109.838C10.3477 110.418 10.6875 111.106 10.916 111.903C11.1445 112.694 11.2588 113.564 11.2588 114.514V114.698C11.2588 115.653 11.1445 116.526 10.916 117.317C10.6875 118.108 10.3477 118.794 9.89648 119.374C9.45117 119.948 8.89746 120.394 8.23535 120.71C7.57324 121.026 6.80566 121.185 5.93262 121.185ZM5.93262 119.743C6.78223 119.743 7.46777 119.532 7.98926 119.11C8.5166 118.688 8.90332 118.1 9.14941 117.344C9.39551 116.582 9.51855 115.7 9.51855 114.698V114.496C9.51855 113.5 9.39258 112.627 9.14062 111.877C8.89453 111.121 8.50781 110.532 7.98047 110.11C7.45312 109.683 6.77051 109.469 5.93262 109.469C5.16504 109.469 4.51465 109.683 3.98145 110.11C3.44824 110.538 3.04395 111.13 2.76855 111.886C2.49316 112.636 2.35547 113.506 2.35547 114.496V114.698C2.35547 115.694 2.49316 116.573 2.76855 117.335C3.04395 118.091 3.44824 118.683 3.98145 119.11C4.51465 119.532 5.16504 119.743 5.93262 119.743ZM12.5332 121V119.893L13.9658 119.646V112.853L12.5332 112.606V111.49H15.5127L15.6357 112.905C15.9521 112.401 16.3477 112.012 16.8223 111.736C17.3027 111.455 17.8477 111.314 18.457 111.314C19.4824 111.314 20.2764 111.616 20.8389 112.22C21.4014 112.817 21.6826 113.743 21.6826 114.997V119.646L23.1152 119.893V121H18.5186V119.893L19.9512 119.646V115.032C19.9512 114.194 19.7842 113.6 19.4502 113.248C19.1221 112.896 18.6182 112.721 17.9385 112.721C17.4404 112.721 16.998 112.841 16.6113 113.081C16.2305 113.321 15.9258 113.649 15.6973 114.065V119.646L17.1299 119.893V121H12.5332ZM24.2842 121V119.893L25.7168 119.646V112.853L24.2842 112.606V111.49H27.4482V119.646L28.8809 119.893V121H24.2842ZM25.6289 109.144V107.289H27.4482V109.144H25.6289ZM34.374 121.185C33.4951 121.185 32.7363 120.979 32.0977 120.569C31.4648 120.153 30.9756 119.582 30.6299 118.855C30.2842 118.123 30.1113 117.288 30.1113 116.351V116.157C30.1113 115.22 30.2842 114.388 30.6299 113.661C30.9756 112.929 31.4648 112.354 32.0977 111.938C32.7363 111.522 33.4893 111.314 34.3564 111.314C35.2354 111.314 35.9912 111.522 36.624 111.938C37.2627 112.354 37.7549 112.926 38.1006 113.652C38.4463 114.379 38.6191 115.214 38.6191 116.157V116.351C38.6191 117.294 38.4463 118.132 38.1006 118.864C37.7549 119.591 37.2656 120.159 36.6328 120.569C36 120.979 35.2471 121.185 34.374 121.185ZM34.374 119.831C34.9248 119.831 35.3848 119.682 35.7539 119.383C36.1289 119.078 36.4102 118.665 36.5977 118.144C36.791 117.616 36.8877 117.019 36.8877 116.351V116.157C36.8877 115.489 36.791 114.895 36.5977 114.373C36.4102 113.846 36.1289 113.433 35.7539 113.134C35.3789 112.829 34.9131 112.677 34.3564 112.677C33.8057 112.677 33.3428 112.829 32.9678 113.134C32.5928 113.433 32.3115 113.846 32.124 114.373C31.9365 114.895 31.8428 115.489 31.8428 116.157V116.351C31.8428 117.019 31.9365 117.616 32.124 118.144C32.3115 118.665 32.5928 119.078 32.9678 119.383C33.3486 119.682 33.8174 119.831 34.374 119.831ZM39.9551 121V119.893L41.3877 119.646V112.853L39.9551 112.606V111.49H42.9346L43.0576 112.905C43.374 112.401 43.7695 112.012 44.2441 111.736C44.7246 111.455 45.2695 111.314 45.8789 111.314C46.9043 111.314 47.6982 111.616 48.2607 112.22C48.8232 112.817 49.1045 113.743 49.1045 114.997V119.646L50.5371 119.893V121H45.9404V119.893L47.373 119.646V115.032C47.373 114.194 47.2061 113.6 46.8721 113.248C46.5439 112.896 46.04 112.721 45.3604 112.721C44.8623 112.721 44.4199 112.841 44.0332 113.081C43.6523 113.321 43.3477 113.649 43.1191 114.065V119.646L44.5518 119.893V121H39.9551ZM56.4434 121.185C55.6641 121.185 54.9141 121.07 54.1934 120.842C53.4727 120.613 52.7842 120.262 52.1279 119.787V117.054H53.4727L53.7627 119.066C54.1436 119.301 54.5566 119.482 55.002 119.611C55.4473 119.74 55.9277 119.805 56.4434 119.805C57.0293 119.805 57.5244 119.717 57.9287 119.541C58.3389 119.359 58.6523 119.11 58.8691 118.794C59.0859 118.478 59.1943 118.108 59.1943 117.687C59.1943 117.294 59.1006 116.948 58.9131 116.649C58.7256 116.351 58.415 116.09 57.9814 115.867C57.5537 115.639 56.9678 115.439 56.2236 115.27C55.3447 115.064 54.6006 114.792 53.9912 114.452C53.3877 114.106 52.9277 113.69 52.6113 113.204C52.3008 112.712 52.1455 112.149 52.1455 111.517C52.1455 110.849 52.3213 110.251 52.6729 109.724C53.0303 109.196 53.5254 108.78 54.1582 108.476C54.791 108.171 55.5293 108.019 56.373 108.019C57.2695 108.019 58.0605 108.156 58.7461 108.432C59.4375 108.701 60.0059 109.029 60.4512 109.416V111.974H59.1064L58.8164 110.146C58.5527 109.935 58.2246 109.759 57.832 109.618C57.4395 109.478 56.9531 109.407 56.373 109.407C55.8809 109.407 55.4473 109.495 55.0723 109.671C54.6973 109.841 54.4043 110.081 54.1934 110.392C53.9824 110.702 53.877 111.068 53.877 111.49C53.877 111.859 53.9707 112.182 54.1582 112.457C54.3516 112.732 54.6621 112.976 55.0898 113.187C55.5234 113.392 56.1006 113.585 56.8213 113.767C58.1689 114.101 59.1885 114.596 59.8799 115.252C60.5771 115.902 60.9258 116.708 60.9258 117.669C60.9258 118.354 60.7412 118.964 60.3721 119.497C60.0029 120.024 59.4814 120.438 58.8076 120.736C58.1396 121.035 57.3516 121.185 56.4434 121.185ZM62.1475 121V119.893L63.5801 119.646V108.651L62.1475 108.405V107.289H65.3115V112.756C65.6396 112.299 66.041 111.944 66.5156 111.692C66.9902 111.44 67.5176 111.314 68.0977 111.314C69.1172 111.314 69.9082 111.619 70.4707 112.229C71.0332 112.838 71.3145 113.775 71.3145 115.041V119.646L72.7471 119.893V121H68.1504V119.893L69.583 119.646V115.023C69.583 114.238 69.4131 113.658 69.0732 113.283C68.7393 112.908 68.2383 112.721 67.5703 112.721C67.0957 112.721 66.6621 112.835 66.2695 113.063C65.8828 113.286 65.5635 113.591 65.3115 113.978V119.646L66.7441 119.893V121H62.1475ZM77.0098 121.185C76.0195 121.185 75.2666 120.944 74.751 120.464C74.2354 119.978 73.9775 119.295 73.9775 118.416C73.9775 117.812 74.1416 117.288 74.4697 116.843C74.8037 116.392 75.2842 116.043 75.9111 115.797C76.5381 115.545 77.2881 115.419 78.1611 115.419H79.8574V114.487C79.8574 113.913 79.6816 113.468 79.3301 113.151C78.9844 112.835 78.4951 112.677 77.8623 112.677C77.4639 112.677 77.1182 112.727 76.8252 112.826C76.5322 112.92 76.2656 113.052 76.0254 113.222L75.8408 114.549H74.5049V112.369C74.9326 112.023 75.4307 111.763 75.999 111.587C76.5674 111.405 77.1973 111.314 77.8887 111.314C79.043 111.314 79.9482 111.59 80.6045 112.141C81.2607 112.691 81.5889 113.479 81.5889 114.505V119.084C81.5889 119.207 81.5889 119.327 81.5889 119.444C81.5947 119.562 81.6035 119.679 81.6152 119.796L82.5381 119.893V121H80.0508C79.998 120.742 79.957 120.511 79.9277 120.306C79.8984 120.101 79.8779 119.896 79.8662 119.69C79.5322 120.118 79.1133 120.476 78.6094 120.763C78.1113 121.044 77.5781 121.185 77.0098 121.185ZM77.2646 119.734C77.8389 119.734 78.3633 119.597 78.8379 119.321C79.3125 119.046 79.6523 118.715 79.8574 118.328V116.605H78.0996C77.3027 116.605 76.7051 116.796 76.3066 117.177C75.9082 117.558 75.709 117.982 75.709 118.451C75.709 118.867 75.8379 119.187 76.0957 119.409C76.3535 119.626 76.7432 119.734 77.2646 119.734ZM83.8652 121V119.893L85.2979 119.646V112.853L83.8652 112.606V111.49H86.8447L86.9941 112.703L87.0117 112.87C87.2812 112.384 87.6123 112.003 88.0049 111.728C88.4033 111.452 88.8574 111.314 89.3672 111.314C89.5488 111.314 89.7334 111.332 89.9209 111.367C90.1143 111.396 90.252 111.426 90.334 111.455L90.1055 113.063L88.9014 112.993C88.4443 112.964 88.0605 113.069 87.75 113.31C87.4395 113.544 87.1992 113.86 87.0293 114.259V119.646L88.4619 119.893V121H83.8652ZM95.5459 121.185C94.667 121.185 93.9023 120.985 93.252 120.587C92.6016 120.183 92.0977 119.623 91.7402 118.908C91.3887 118.193 91.2129 117.367 91.2129 116.43V116.043C91.2129 115.141 91.3975 114.335 91.7666 113.626C92.1416 112.911 92.6367 112.349 93.252 111.938C93.873 111.522 94.5498 111.314 95.2822 111.314C96.1377 111.314 96.8525 111.49 97.4268 111.842C98.0068 112.193 98.4434 112.688 98.7363 113.327C99.0293 113.96 99.1758 114.707 99.1758 115.568V116.649H93.0059L92.9795 116.693C92.9912 117.303 93.0967 117.845 93.2959 118.319C93.501 118.788 93.7939 119.157 94.1748 119.427C94.5557 119.696 95.0127 119.831 95.5459 119.831C96.1318 119.831 96.6445 119.749 97.084 119.585C97.5293 119.415 97.9131 119.184 98.2354 118.891L98.9121 120.016C98.5723 120.344 98.1211 120.622 97.5586 120.851C97.002 121.073 96.3311 121.185 95.5459 121.185ZM93.0586 115.296H97.4443V115.067C97.4443 114.61 97.3623 114.203 97.1982 113.846C97.04 113.482 96.7998 113.198 96.4775 112.993C96.1611 112.782 95.7627 112.677 95.2822 112.677C94.8955 112.677 94.5439 112.791 94.2275 113.02C93.9111 113.242 93.6504 113.547 93.4453 113.934C93.2402 114.32 93.1055 114.76 93.041 115.252L93.0586 115.296Z" fill="#333333"/>
</svg>
