<svg width="436" height="63" viewBox="0 0 436 63" fill="none" xmlns="http://www.w3.org/2000/svg">
<path fill-rule="evenodd" clip-rule="evenodd" d="M237.94 44.3577L241.858 48.5337H250.5L242.141 39.4159C243.092 37.9415 243.9 36.3379 244.567 34.6052C245.47 32.3697 246.093 29.9408 246.437 27.3185H240.504C240.117 29.6829 239.493 31.8323 238.634 33.7669C238.463 34.171 238.282 34.5629 238.091 34.9426L230.443 26.4157C229.798 25.6849 229.046 24.8251 228.186 23.8363C227.326 22.8476 226.488 21.7728 225.671 20.6121C224.854 19.4514 224.166 18.3122 223.607 17.1944C223.091 16.0337 222.833 14.9805 222.833 14.0347C222.833 12.874 223.07 11.9067 223.542 11.1329C224.015 10.3591 224.703 9.77877 225.606 9.39186C226.509 8.96197 227.627 8.74702 228.96 8.74702C230.723 8.74702 232.184 9.19841 233.345 10.1012C234.549 11.004 235.559 12.4441 236.376 14.4216L241.407 11.1974C240.848 9.52083 239.945 8.05919 238.698 6.8125C237.494 5.52282 236.054 4.53406 234.377 3.84623C232.7 3.11541 230.895 2.75 228.96 2.75C226.337 2.75 224.015 3.24438 221.995 4.23314C220.017 5.22189 218.448 6.59755 217.287 8.36012C216.169 10.0797 215.61 12.0357 215.61 14.2282C215.61 15.2599 215.825 16.3776 216.255 17.5813C216.674 18.611 217.195 19.6744 217.818 20.7717C214.796 22.0693 212.448 23.8217 210.773 26.0288C208.924 28.5222 208 31.4669 208 34.8631C208 37.4425 208.731 39.8284 210.193 42.0208C211.698 44.1703 213.697 45.9114 216.19 47.2441C218.684 48.5337 221.457 49.1786 224.51 49.1786C226.875 49.1786 229.089 48.8562 231.153 48.2113C233.216 47.5235 235.086 46.5562 236.763 45.3095C237.167 45.0065 237.56 44.6892 237.94 44.3577ZM234.032 40.0857L223.8 28.6726C222.944 27.7133 222.115 26.7403 221.312 25.7537C219.473 26.3605 218.045 27.2045 217.029 28.2857C215.696 29.6614 215.03 31.5314 215.03 33.8958C215.03 35.7014 215.46 37.292 216.319 38.6677C217.179 40.0433 218.405 41.1181 219.995 41.8919C221.629 42.6657 223.564 43.0526 225.8 43.0526C227.734 43.0526 229.497 42.6872 231.088 41.9563C232.141 41.4577 233.122 40.8342 234.032 40.0857Z" fill="url(#paint0_linear_469_12606)"/>
<path fill-rule="evenodd" clip-rule="evenodd" d="M237.94 44.3577L241.858 48.5337H250.5L242.141 39.4159C243.092 37.9415 243.9 36.3379 244.567 34.6052C245.47 32.3697 246.093 29.9408 246.437 27.3185H240.504C240.117 29.6829 239.493 31.8323 238.634 33.7669C238.463 34.171 238.282 34.5629 238.091 34.9426L230.443 26.4157C229.798 25.6849 229.046 24.8251 228.186 23.8363C227.326 22.8476 226.488 21.7728 225.671 20.6121C224.854 19.4514 224.166 18.3122 223.607 17.1944C223.091 16.0337 222.833 14.9805 222.833 14.0347C222.833 12.874 223.07 11.9067 223.542 11.1329C224.015 10.3591 224.703 9.77877 225.606 9.39186C226.509 8.96197 227.627 8.74702 228.96 8.74702C230.723 8.74702 232.184 9.19841 233.345 10.1012C234.549 11.004 235.559 12.4441 236.376 14.4216L241.407 11.1974C240.848 9.52083 239.945 8.05919 238.698 6.8125C237.494 5.52282 236.054 4.53406 234.377 3.84623C232.7 3.11541 230.895 2.75 228.96 2.75C226.337 2.75 224.015 3.24438 221.995 4.23314C220.017 5.22189 218.448 6.59755 217.287 8.36012C216.169 10.0797 215.61 12.0357 215.61 14.2282C215.61 15.2599 215.825 16.3776 216.255 17.5813C216.674 18.611 217.195 19.6744 217.818 20.7717C214.796 22.0693 212.448 23.8217 210.773 26.0288C208.924 28.5222 208 31.4669 208 34.8631C208 37.4425 208.731 39.8284 210.193 42.0208C211.698 44.1703 213.697 45.9114 216.19 47.2441C218.684 48.5337 221.457 49.1786 224.51 49.1786C226.875 49.1786 229.089 48.8562 231.153 48.2113C233.216 47.5235 235.086 46.5562 236.763 45.3095C237.167 45.0065 237.56 44.6892 237.94 44.3577ZM234.032 40.0857L223.8 28.6726C222.944 27.7133 222.115 26.7403 221.312 25.7537C219.473 26.3605 218.045 27.2045 217.029 28.2857C215.696 29.6614 215.03 31.5314 215.03 33.8958C215.03 35.7014 215.46 37.292 216.319 38.6677C217.179 40.0433 218.405 41.1181 219.995 41.8919C221.629 42.6657 223.564 43.0526 225.8 43.0526C227.734 43.0526 229.497 42.6872 231.088 41.9563C232.141 41.4577 233.122 40.8342 234.032 40.0857Z" fill="white" fill-opacity="0.5"/>
<path d="M2.55 36.7675L7.00875 35.435C8.1875 39.125 12.1338 40.8162 15.875 40.8162C19.975 40.8162 23.9213 38.8175 23.9213 34.7175C23.9213 31.6425 21.6663 30.105 15.1575 28.7725C9.87875 27.645 2.8575 26.1075 2.8575 18.5737C2.8575 12.7825 9.11 9.4 15.4138 9.4C20.2313 9.4 25.1513 11.3987 27.3038 15.8062L22.8963 17.0875C21.5638 14.6787 18.335 13.4487 15.2088 13.4487C11.4675 13.4487 7.82875 15.1912 7.82875 18.7787C7.82875 22.6225 11.98 23.4937 16.6438 24.4675C22.5888 25.7487 28.995 27.4912 28.995 34.9225C28.995 41.2775 22.3838 44.865 15.67 44.865C10.0325 44.865 4.34375 42.3025 2.55 36.7675ZM47.3785 44.865C40.101 44.865 35.5398 39.33 35.5398 31.6425C35.5398 24.0575 40.306 18.42 47.8398 18.42C52.401 18.42 55.7835 21.0337 57.4235 24.16L53.4773 25.595C52.3498 23.545 50.146 22.2125 47.5323 22.2125C43.6885 22.2125 40.2035 25.185 40.2035 31.5912C40.2035 37.9975 43.7398 41.0725 47.5323 41.0725C50.2998 41.0725 52.4523 39.6375 53.5798 37.7412L57.526 39.1762C55.6298 42.4562 51.8885 44.865 47.3785 44.865ZM64.086 18.83H71.9273V44.25H67.6223V22.2637H64.086V18.83ZM69.7748 14.0125C68.0323 14.0125 66.5973 12.5775 66.5973 10.7837C66.5973 9.04125 68.0323 7.60625 69.7748 7.60625C71.5685 7.60625 73.0035 9.04125 73.0035 10.7837C73.0035 12.5775 71.5685 14.0125 69.7748 14.0125ZM93.0075 44.865C85.0125 44.865 80.5537 39.0737 80.5537 31.5912C80.5537 23.545 85.935 18.42 92.905 18.42C101.002 18.42 105.256 25.4412 104.744 32.7187H85.1662C85.3712 39.125 89.8812 41.0725 93.0075 41.0725C95.8775 41.0725 97.7737 40.0987 98.9525 38.5612L103.104 39.7912C101.259 42.7637 97.7737 44.865 93.0075 44.865ZM92.905 22.11C89.0612 22.11 85.6275 24.16 85.2175 29.285H100.182C100.131 25.6975 97.415 22.11 92.905 22.11ZM112.383 18.83H115.561L116.688 22.6737C118.123 20.265 120.583 18.42 124.888 18.42C131.038 18.42 133.293 22.3662 133.293 28.1575V44.25H128.988V29.4387C128.988 25.5437 128.322 22.11 123.402 22.11C119.251 22.11 116.688 25.0312 116.688 30.4637V44.25H112.383V18.83ZM152.571 44.865C145.294 44.865 140.732 39.33 140.732 31.6425C140.732 24.0575 145.499 18.42 153.032 18.42C157.594 18.42 160.976 21.0337 162.616 24.16L158.67 25.595C157.542 23.545 155.339 22.2125 152.725 22.2125C148.881 22.2125 145.396 25.185 145.396 31.5912C145.396 37.9975 148.932 41.0725 152.725 41.0725C155.492 41.0725 157.645 39.6375 158.772 37.7412L162.719 39.1762C160.822 42.4562 157.081 44.865 152.571 44.865ZM181.374 44.865C173.379 44.865 168.92 39.0737 168.92 31.5912C168.92 23.545 174.301 18.42 181.271 18.42C189.369 18.42 193.622 25.4412 193.11 32.7187H173.532C173.737 39.125 178.247 41.0725 181.374 41.0725C184.244 41.0725 186.14 40.0987 187.319 38.5612L191.47 39.7912C189.625 42.7637 186.14 44.865 181.374 44.865ZM181.271 22.11C177.427 22.11 173.994 24.16 173.584 29.285H188.549C188.497 25.6975 185.781 22.11 181.271 22.11Z" fill="white"/>
<path d="M269.395 44.25V10.015H278.723C289.588 10.015 297.429 14.0637 297.429 27.0812C297.429 40.2012 289.588 44.25 278.723 44.25H269.395ZM274.213 14.0637V40.2012H278.62C285.693 40.2012 292.509 38.7662 292.509 27.0812C292.509 15.4987 285.693 14.0637 278.62 14.0637H274.213ZM316.947 44.865C308.952 44.865 304.494 39.0737 304.494 31.5912C304.494 23.545 309.875 18.42 316.845 18.42C324.942 18.42 329.196 25.4412 328.684 32.7187H309.106C309.311 39.125 313.821 41.0725 316.947 41.0725C319.817 41.0725 321.714 40.0987 322.892 38.5612L327.044 39.7912C325.199 42.7637 321.714 44.865 316.947 44.865ZM316.845 22.11C313.001 22.11 309.567 24.16 309.157 29.285H324.122C324.071 25.6975 321.355 22.11 316.845 22.11ZM334.324 38.51L338.476 36.9725C339.244 39.9962 342.166 41.2262 344.984 41.2262C348.008 41.2262 350.981 39.74 350.981 37.4337C350.981 30.4637 334.837 35.5887 334.837 25.4412C334.837 20.88 339.706 18.3688 344.626 18.3688C348.623 18.3688 352.621 20.0087 354.158 23.545L350.109 25.0312C349.238 22.9812 346.727 22.0075 344.318 22.0075C341.704 22.0075 339.193 23.1862 339.193 25.39C339.193 31.54 355.337 26.4662 355.337 37.28C355.337 42.0975 350.263 44.865 344.984 44.865C340.577 44.865 336.016 42.8662 334.324 38.51ZM361.728 18.83H369.569V44.25H365.264V22.2637H361.728V18.83ZM367.417 14.0125C365.674 14.0125 364.239 12.5775 364.239 10.7837C364.239 9.04125 365.674 7.60625 367.417 7.60625C369.21 7.60625 370.645 9.04125 370.645 10.7837C370.645 12.5775 369.21 14.0125 367.417 14.0125ZM388.958 43.7887C383.321 43.7887 378.196 39.2787 378.196 31.13C378.196 22.9812 383.321 18.42 388.958 18.42C393.007 18.42 395.467 20.1625 397.056 22.8275L398.234 18.83H401.361V41.8412C401.361 46.8638 401.053 51.1175 395.159 53.27C393.724 53.7825 392.033 54.09 390.291 54.09C386.139 54.09 381.732 52.3988 380.399 48.145L384.704 46.9663C385.627 49.6313 388.189 50.2975 390.291 50.2975C391.572 50.2975 392.699 50.0413 393.161 49.8875C396.287 48.8113 397.056 46.9663 397.056 42.815V39.4325C395.467 42.0975 393.007 43.7887 388.958 43.7887ZM390.034 22.11C385.832 22.11 382.859 25.3387 382.859 31.13C382.859 36.9212 385.832 40.2012 390.034 40.2012C393.878 40.2012 397.209 37.5875 397.209 31.13C397.209 24.6725 393.878 22.11 390.034 22.11ZM411.076 18.83H414.254L415.381 22.6737C416.816 20.265 419.276 18.42 423.581 18.42C429.731 18.42 431.986 22.3662 431.986 28.1575V44.25H427.681V29.4387C427.681 25.5437 427.015 22.11 422.095 22.11C417.944 22.11 415.381 25.0312 415.381 30.4637V44.25H411.076V18.83Z" fill="white"/>
<defs>
<linearGradient id="paint0_linear_469_12606" x1="206.361" y1="2.75" x2="248.92" y2="49.1835" gradientUnits="userSpaceOnUse">
<stop stop-color="#9600F1"/>
<stop offset="1" stop-color="#DA63F8"/>
</linearGradient>
</defs>
</svg>
