<svg width="174" height="25" viewBox="0 0 174 25" fill="none" xmlns="http://www.w3.org/2000/svg">
<path fill-rule="evenodd" clip-rule="evenodd" d="M94.976 17.6431L96.5432 19.3135H100L96.6564 15.6664C97.0367 15.0766 97.3601 14.4352 97.6267 13.7421C97.9879 12.8479 98.2372 11.8763 98.3748 10.8274H96.0015C95.8467 11.7731 95.5974 12.6329 95.2534 13.4067C95.1852 13.5684 95.1128 13.7251 95.0363 13.877L91.9772 10.4663C91.7193 10.1739 91.4183 9.83003 91.0744 9.43452C90.7304 9.03902 90.395 8.60913 90.0683 8.14484C89.7415 7.68056 89.4664 7.22487 89.2428 6.77778C89.0364 6.31349 88.9332 5.8922 88.9332 5.51389C88.9332 5.0496 89.0278 4.6627 89.217 4.35317C89.4062 4.04365 89.6813 3.81151 90.0425 3.65675C90.4036 3.48479 90.8508 3.39881 91.3839 3.39881C92.089 3.39881 92.6737 3.57937 93.1381 3.94048C93.6196 4.30159 94.0238 4.87765 94.3505 5.66865L96.3627 4.37897C96.1391 3.70833 95.7779 3.12368 95.2792 2.625C94.7977 2.10913 94.2215 1.71362 93.5508 1.43849C92.8801 1.14616 92.1578 1 91.3839 1C90.3349 1 89.4062 1.19775 88.5979 1.59325C87.8068 1.98876 87.1791 2.53902 86.7147 3.24405C86.2676 3.93188 86.044 4.71429 86.044 5.59127C86.044 6.00397 86.13 6.45106 86.302 6.93254C86.4698 7.34439 86.6782 7.76977 86.9272 8.20869C85.7184 8.72774 84.7791 9.42868 84.1093 10.3115C83.3698 11.3089 83 12.4868 83 13.8452C83 14.877 83.2924 15.8313 83.8771 16.7083C84.479 17.5681 85.2787 18.2646 86.2762 18.7976C87.2736 19.3135 88.3829 19.5714 89.6039 19.5714C90.5498 19.5714 91.4355 19.4425 92.261 19.1845C93.0865 18.9094 93.8346 18.5225 94.5053 18.0238C94.6669 17.9026 94.8238 17.7757 94.976 17.6431ZM93.4128 15.9343L89.3202 11.369C88.9775 10.9853 88.6458 10.5961 88.325 10.2015C87.589 10.4442 87.0179 10.7818 86.6115 11.2143C86.0784 11.7646 85.8118 12.5126 85.8118 13.4583C85.8118 14.1806 85.9838 14.8168 86.3278 15.3671C86.6717 15.9173 87.1619 16.3472 87.7982 16.6567C88.4517 16.9663 89.2256 17.121 90.1199 17.121C90.8938 17.121 91.5989 16.9749 92.2352 16.6825C92.6563 16.4831 93.0488 16.2337 93.4128 15.9343Z" fill="url(#paint0_linear_469_12606)"/>
<path fill-rule="evenodd" clip-rule="evenodd" d="M94.976 17.6431L96.5432 19.3135H100L96.6564 15.6664C97.0367 15.0766 97.3601 14.4352 97.6267 13.7421C97.9879 12.8479 98.2372 11.8763 98.3748 10.8274H96.0015C95.8467 11.7731 95.5974 12.6329 95.2534 13.4067C95.1852 13.5684 95.1128 13.7251 95.0363 13.877L91.9772 10.4663C91.7193 10.1739 91.4183 9.83003 91.0744 9.43452C90.7304 9.03902 90.395 8.60913 90.0683 8.14484C89.7415 7.68056 89.4664 7.22487 89.2428 6.77778C89.0364 6.31349 88.9332 5.8922 88.9332 5.51389C88.9332 5.0496 89.0278 4.6627 89.217 4.35317C89.4062 4.04365 89.6813 3.81151 90.0425 3.65675C90.4036 3.48479 90.8508 3.39881 91.3839 3.39881C92.089 3.39881 92.6737 3.57937 93.1381 3.94048C93.6196 4.30159 94.0238 4.87765 94.3505 5.66865L96.3627 4.37897C96.1391 3.70833 95.7779 3.12368 95.2792 2.625C94.7977 2.10913 94.2215 1.71362 93.5508 1.43849C92.8801 1.14616 92.1578 1 91.3839 1C90.3349 1 89.4062 1.19775 88.5979 1.59325C87.8068 1.98876 87.1791 2.53902 86.7147 3.24405C86.2676 3.93188 86.044 4.71429 86.044 5.59127C86.044 6.00397 86.13 6.45106 86.302 6.93254C86.4698 7.34439 86.6782 7.76977 86.9272 8.20869C85.7184 8.72774 84.7791 9.42868 84.1093 10.3115C83.3698 11.3089 83 12.4868 83 13.8452C83 14.877 83.2924 15.8313 83.8771 16.7083C84.479 17.5681 85.2787 18.2646 86.2762 18.7976C87.2736 19.3135 88.3829 19.5714 89.6039 19.5714C90.5498 19.5714 91.4355 19.4425 92.261 19.1845C93.0865 18.9094 93.8346 18.5225 94.5053 18.0238C94.6669 17.9026 94.8238 17.7757 94.976 17.6431ZM93.4128 15.9343L89.3202 11.369C88.9775 10.9853 88.6458 10.5961 88.325 10.2015C87.589 10.4442 87.0179 10.7818 86.6115 11.2143C86.0784 11.7646 85.8118 12.5126 85.8118 13.4583C85.8118 14.1806 85.9838 14.8168 86.3278 15.3671C86.6717 15.9173 87.1619 16.3472 87.7982 16.6567C88.4517 16.9663 89.2256 17.121 90.1199 17.121C90.8938 17.121 91.5989 16.9749 92.2352 16.6825C92.6563 16.4831 93.0488 16.2337 93.4128 15.9343Z" fill="white" fill-opacity="0.5"/>
<path d="M0.82 15.007C1.5375 17.221 3.813 18.246 6.068 18.246C8.7535 18.246 11.398 16.811 11.398 14.269C11.398 11.2965 8.8355 10.5995 6.4575 10.087C4.592 9.6975 2.9315 9.349 2.9315 7.8115C2.9315 6.3765 4.387 5.6795 5.8835 5.6795C7.134 5.6795 8.4255 6.1715 8.9585 7.135L10.7215 6.6225C9.8605 4.8595 7.8925 4.06 5.9655 4.06C3.444 4.06 0.943 5.413 0.943 7.7295C0.943 10.743 3.7515 11.358 5.863 11.809C8.4665 12.342 9.3685 12.957 9.3685 14.187C9.3685 15.827 7.79 16.6265 6.15 16.6265C4.6535 16.6265 3.075 15.95 2.6035 14.474L0.82 15.007ZM18.7514 18.246C20.5554 18.246 22.0519 17.2825 22.8104 15.9705L21.2319 15.3965C20.7809 16.155 19.9199 16.729 18.8129 16.729C17.2959 16.729 15.8814 15.499 15.8814 12.9365C15.8814 10.374 17.2754 9.185 18.8129 9.185C19.8584 9.185 20.7399 9.718 21.1909 10.538L22.7694 9.964C22.1134 8.7135 20.7604 7.668 18.9359 7.668C15.9224 7.668 14.0159 9.923 14.0159 12.957C14.0159 16.032 15.8404 18.246 18.7514 18.246ZM25.4344 7.832V9.2055H26.8489V18H28.5709V7.832H25.4344ZM27.7099 5.905C28.4274 5.905 29.0014 5.331 29.0014 4.6135C29.0014 3.9165 28.4274 3.3425 27.7099 3.3425C27.0129 3.3425 26.4389 3.9165 26.4389 4.6135C26.4389 5.331 27.0129 5.905 27.7099 5.905ZM37.003 18.246C38.9095 18.246 40.3035 17.4055 41.0415 16.2165L39.381 15.7245C38.9095 16.3395 38.151 16.729 37.003 16.729C35.7525 16.729 33.9485 15.95 33.8665 13.3875H41.6975C41.9025 10.4765 40.201 7.668 36.962 7.668C34.174 7.668 32.0215 9.718 32.0215 12.9365C32.0215 15.9295 33.805 18.246 37.003 18.246ZM36.962 9.144C38.766 9.144 39.8525 10.579 39.873 12.014H33.887C34.051 9.964 35.4245 9.144 36.962 9.144ZM44.7533 7.832V18H46.4753V12.4855C46.4753 10.3125 47.5003 9.144 49.1608 9.144C51.1288 9.144 51.3953 10.5175 51.3953 12.0755V18H53.1173V11.563C53.1173 9.2465 52.2153 7.668 49.7553 7.668C48.0333 7.668 47.0493 8.406 46.4753 9.3695L46.0243 7.832H44.7533ZM60.8285 18.246C62.6325 18.246 64.129 17.2825 64.8875 15.9705L63.309 15.3965C62.858 16.155 61.997 16.729 60.89 16.729C59.373 16.729 57.9585 15.499 57.9585 12.9365C57.9585 10.374 59.3525 9.185 60.89 9.185C61.9355 9.185 62.817 9.718 63.268 10.538L64.8465 9.964C64.1905 8.7135 62.8375 7.668 61.013 7.668C57.9995 7.668 56.093 9.923 56.093 12.957C56.093 16.032 57.9175 18.246 60.8285 18.246ZM72.3495 18.246C74.256 18.246 75.65 17.4055 76.388 16.2165L74.7275 15.7245C74.256 16.3395 73.4975 16.729 72.3495 16.729C71.099 16.729 69.295 15.95 69.213 13.3875H77.044C77.249 10.4765 75.5475 7.668 72.3085 7.668C69.5205 7.668 67.368 9.718 67.368 12.9365C67.368 15.9295 69.1515 18.246 72.3495 18.246ZM72.3085 9.144C74.1125 9.144 75.199 10.579 75.2195 12.014H69.2335C69.3975 9.964 70.771 9.144 72.3085 9.144Z" fill="white"/>
<path d="M107.558 18H111.289C115.635 18 118.772 16.3805 118.772 11.1325C118.772 5.9255 115.635 4.306 111.289 4.306H107.558V18ZM109.485 5.9255H111.248C114.077 5.9255 116.804 6.4995 116.804 11.1325C116.804 15.8065 114.077 16.3805 111.248 16.3805H109.485V5.9255ZM126.579 18.246C128.485 18.246 129.879 17.4055 130.617 16.2165L128.957 15.7245C128.485 16.3395 127.727 16.729 126.579 16.729C125.328 16.729 123.524 15.95 123.442 13.3875H131.273C131.478 10.4765 129.777 7.668 126.538 7.668C123.75 7.668 121.597 9.718 121.597 12.9365C121.597 15.9295 123.381 18.246 126.579 18.246ZM126.538 9.144C128.342 9.144 129.428 10.579 129.449 12.014H123.463C123.627 9.964 125 9.144 126.538 9.144ZM133.53 15.704C134.206 17.4465 136.031 18.246 137.794 18.246C139.905 18.246 141.935 17.139 141.935 15.212C141.935 10.8865 135.477 12.916 135.477 10.456C135.477 9.5745 136.482 9.103 137.527 9.103C138.491 9.103 139.495 9.4925 139.844 10.3125L141.463 9.718C140.848 8.3035 139.249 7.6475 137.65 7.6475C135.682 7.6475 133.735 8.652 133.735 10.4765C133.735 14.5355 140.192 12.4855 140.192 15.2735C140.192 16.196 139.003 16.7905 137.794 16.7905C136.666 16.7905 135.498 16.2985 135.19 15.089L133.53 15.704ZM144.491 7.832V9.2055H145.906V18H147.628V7.832H144.491ZM146.767 5.905C147.484 5.905 148.058 5.331 148.058 4.6135C148.058 3.9165 147.484 3.3425 146.767 3.3425C146.07 3.3425 145.496 3.9165 145.496 4.6135C145.496 5.331 146.07 5.905 146.767 5.905ZM155.383 17.8155C157.003 17.8155 157.987 17.139 158.622 16.073V17.426C158.622 19.0865 158.315 19.8245 157.064 20.255C156.88 20.3165 156.429 20.419 155.916 20.419C155.076 20.419 154.051 20.1525 153.682 19.0865L151.96 19.558C152.493 21.2595 154.256 21.936 155.916 21.936C156.613 21.936 157.29 21.813 157.864 21.608C160.221 20.747 160.344 19.0455 160.344 17.0365V7.832H159.094L158.622 9.431C157.987 8.365 157.003 7.668 155.383 7.668C153.128 7.668 151.078 9.4925 151.078 12.752C151.078 16.0115 153.128 17.8155 155.383 17.8155ZM155.814 9.144C157.351 9.144 158.684 10.169 158.684 12.752C158.684 15.335 157.351 16.3805 155.814 16.3805C154.133 16.3805 152.944 15.0685 152.944 12.752C152.944 10.4355 154.133 9.144 155.814 9.144ZM164.23 7.832V18H165.952V12.4855C165.952 10.3125 166.977 9.144 168.638 9.144C170.606 9.144 170.872 10.5175 170.872 12.0755V18H172.594V11.563C172.594 9.2465 171.692 7.668 169.232 7.668C167.51 7.668 166.526 8.406 165.952 9.3695L165.501 7.832H164.23Z" fill="white"/>
<defs>
<linearGradient id="paint0_linear_469_12606" x1="82.3443" y1="1" x2="99.3679" y2="19.5734" gradientUnits="userSpaceOnUse">
<stop stop-color="#9600F1"/>
<stop offset="1" stop-color="#DA63F8"/>
</linearGradient>
</defs>
</svg>
