<svg width="177" height="200" viewBox="0 0 177 200" fill="none" xmlns="http://www.w3.org/2000/svg">
<path fill-rule="evenodd" clip-rule="evenodd" d="M80.2611 0.0437052C75.04 0.364285 70.609 1.60841 65.3914 4.21858C63.9393 4.94498 60.7925 6.70884 59.8468 7.32642C59.585 7.4974 59.3078 7.67018 59.2307 7.7104C59.1537 7.75061 58.9521 7.88239 58.7827 8.00325C58.6133 8.12411 58.1596 8.43002 57.7746 8.683C56.2568 9.68019 55.0806 10.523 53.1314 12.0099C52.2423 12.6882 52.0788 12.8183 51.38 13.4038C51.1544 13.5928 50.8438 13.8425 50.6898 13.9585C50.5358 14.0746 50.2208 14.3377 49.9897 14.5433C49.7587 14.7489 49.3807 15.0808 49.1496 15.2809C48.9186 15.4809 48.6528 15.7183 48.559 15.8085C48.4651 15.8987 48.1249 16.2119 47.8029 16.5045C46.7962 17.4192 44.5589 19.6295 43.5507 20.705C43.2337 21.0433 40.7363 23.8782 40.2446 24.4579C40.0752 24.6576 39.8777 24.8841 39.8057 24.9613C39.7338 25.0384 39.6126 25.1978 39.5364 25.3156C39.4603 25.4334 39.2924 25.6354 39.1632 25.7645C39.0341 25.8936 38.7773 26.2105 38.5925 26.4688C38.4076 26.727 38.1856 27.0165 38.0992 27.112C38.0127 27.2076 37.8996 27.3487 37.8479 27.4258C37.7961 27.5028 37.5393 27.8525 37.277 28.2029C37.0148 28.5533 36.7066 28.9692 36.592 29.127C36.4775 29.2848 36.3319 29.4806 36.2684 29.5621C36.0745 29.8109 35.892 30.0738 35.7302 30.3372C35.6454 30.4754 35.5301 30.6377 35.474 30.6978C35.418 30.758 35.3721 30.8245 35.3721 30.8456C35.3721 30.8666 35.1768 31.1502 34.9381 31.4758C34.6994 31.8014 34.4032 32.2263 34.28 32.42C33.9046 33.0101 33.533 33.6039 33.4095 33.8105C33.3451 33.9183 33.2374 34.0985 33.1702 34.211C33.1029 34.3235 32.9503 34.5851 32.831 34.7924C32.7117 34.9996 32.5441 35.2731 32.4586 35.4C32.373 35.5268 32.2571 35.7315 32.2009 35.8547C32.1448 35.9779 32.0297 36.1828 31.9453 36.3099C31.8608 36.4371 31.6373 36.8403 31.4486 37.206C31.26 37.5717 31.0691 37.9117 31.0246 37.9615C30.9801 38.0114 30.8334 38.2774 30.6987 38.5525C30.5639 38.8277 30.4136 39.0862 30.3646 39.1269C30.3156 39.1675 30.2755 39.2486 30.2755 39.307C30.2755 39.3655 30.2122 39.5136 30.1348 39.6362C30.0574 39.7588 30.0074 39.8591 30.0237 39.8591C30.0686 39.8591 29.7823 40.4058 29.7258 40.4279C29.6989 40.4385 29.4615 40.8883 29.1983 41.4273C27.126 45.672 25.4229 50.1187 24.3436 54.1024C22.9658 59.1882 22.3232 63.817 22.3228 68.6594C22.3226 71.1096 22.4601 72.6584 22.8612 74.723C23.2235 76.5882 23.9465 78.9996 24.5459 80.3422C25.3663 82.1795 26.8769 84.9508 28.0331 86.7398C28.1575 86.9323 28.2593 87.1144 28.2593 87.1446C28.2593 87.1858 27.4418 88.1248 27.2494 88.3045C27.1724 88.3764 25.5643 90.225 24.8377 91.0768C19.6443 97.1654 14.6729 104.292 11.2054 110.618C11.0886 110.831 10.8195 111.323 10.6074 111.71C10.1758 112.499 8.33382 116.161 8.04174 116.812C7.93796 117.043 7.75953 117.433 7.64522 117.68C5.62233 122.041 3.57598 127.86 2.36355 132.7C1.14301 137.572 0.506443 141.58 0.106167 146.915C-0.0351366 148.799 -0.0354728 154.132 0.105663 155.68C0.270321 157.487 0.43526 158.693 0.733493 160.272C1.76838 165.752 4.1627 170.68 7.3956 173.987C9.16019 175.791 10.935 177.129 13.2216 178.379C14.6754 179.174 15.382 179.455 21.3425 181.612C21.9278 181.823 22.8855 182.171 23.4708 182.384C24.056 182.597 25.417 183.091 26.4951 183.482C27.5732 183.873 28.5519 184.23 28.67 184.275C28.7881 184.321 29.8886 184.722 31.1156 185.167C32.3427 185.612 33.4432 186.014 33.5613 186.059C33.6793 186.105 34.7462 186.493 35.9322 186.923C37.1181 187.353 41.2514 188.857 45.1172 190.264C48.983 191.672 52.3728 192.906 52.65 193.006C54.2678 193.593 57.1473 194.64 57.5786 194.799C57.8558 194.902 59.0025 195.319 60.1268 195.725C61.2512 196.132 62.3601 196.564 62.5911 196.685C64.8981 197.894 66.5183 198.539 68.6099 199.083C71.0878 199.727 73.2819 200.001 75.9486 200C80.34 199.999 84.4314 199.202 89.6981 197.322C92.2523 196.41 95.5634 194.88 98.8551 193.089C101.145 191.844 104.541 189.738 107.256 187.881C109.945 186.041 114.115 182.846 116.105 181.101C116.197 181.02 116.702 180.581 117.225 180.125C119.353 178.274 120.496 177.19 123.022 174.629C125.424 172.193 127.59 169.822 129.407 167.637C129.791 167.175 130.12 166.785 130.137 166.769C130.172 166.738 131.839 164.676 132.491 163.857C134.273 161.62 136.949 157.911 138.788 155.131C139.259 154.418 139.6 153.956 139.642 153.971C139.729 154.003 140.574 154.549 143.522 156.48C145.822 157.988 146.268 158.279 148.617 159.808C149.279 160.239 149.906 160.621 150.011 160.656C150.27 160.744 150.71 160.736 151.08 160.637C151.501 160.526 151.679 160.43 154.161 158.985C154.362 158.868 154.941 158.534 155.449 158.242C155.958 157.949 156.941 157.382 157.634 156.982C159.385 155.97 161.488 154.754 162.814 153.989C166.037 152.128 169.211 150.296 170.683 149.447C173.532 147.805 173.466 147.847 174.028 147.312C174.898 146.484 175.497 145.516 175.865 144.339C176.286 142.995 176.223 141.843 175.692 141.146C175.552 140.963 175.042 140.607 170.067 137.214C168.912 136.427 167.412 135.403 166.735 134.94C164.971 133.735 164.073 133.123 162.422 131.998C159.174 129.785 158.09 129.045 157.69 128.769C157.347 128.534 154.228 126.401 154.028 126.267C153.993 126.243 154.081 125.954 154.259 125.511C157.018 118.625 158.644 113.81 160.938 105.722C162.285 100.971 163.425 96.0542 164.462 90.5168C164.723 89.122 165.191 86.2234 165.447 84.4121C165.568 83.557 165.628 83.1138 165.814 81.6958C166.005 80.2467 165.984 79.6463 165.72 79.0582C165.582 78.7514 165.164 78.2794 165.03 78.2794C164.999 78.2794 164.873 78.1303 164.75 77.948C164.377 77.3988 163.975 77.1249 163.066 76.8004C162.774 76.6959 161.173 76.1138 159.51 75.5068C157.846 74.8998 156.221 74.3078 155.897 74.1912C155.574 74.0746 154.749 73.7748 154.063 73.525C153.378 73.2752 152.256 72.8665 151.571 72.6166C150.886 72.3668 150.06 72.0671 149.737 71.9506C149.413 71.8341 147.372 71.0907 145.2 70.2985C143.029 69.5064 140.987 68.7628 140.664 68.646C140.34 68.5293 139.231 68.1269 138.2 67.7518C137.168 67.3767 135.907 66.9187 135.399 66.7341C134.891 66.5495 134.349 66.3505 134.195 66.2919C134.041 66.2334 131.584 65.338 128.734 64.3022C125.885 63.2664 121.689 61.7368 119.409 60.9031L115.265 59.3874L114.649 59.3823C113.894 59.3762 113.782 59.4148 112.633 60.0767C112.171 60.3429 111.188 60.9101 110.448 61.3372C108.837 62.268 107.741 62.9008 106.5 63.6171C105.992 63.9104 105.336 64.2886 105.044 64.4576C104.751 64.6265 103.995 65.0631 103.364 65.4277C102.175 66.1141 101.215 66.6684 99.5832 67.6113C99.0596 67.9139 98.4547 68.2607 98.2391 68.382C98.0234 68.5033 97.701 68.7158 97.5225 68.8542C97.2319 69.0795 97.201 69.092 97.227 68.974C97.243 68.9016 97.3209 68.4895 97.4002 68.0583C98.1728 63.8522 100.116 59.8129 103.064 56.2849C105.31 53.596 107.766 51.3672 110.616 49.429C111.745 48.6619 113.541 47.5702 114.327 47.1742L114.621 47.0259L115.643 47.3971C116.205 47.6012 116.93 47.8637 117.253 47.9804C118.53 48.441 123.906 50.3984 124.17 50.4984C124.324 50.5568 124.866 50.7556 125.374 50.9402C128.548 52.0926 130.804 52.9145 131.731 53.2557C132.653 53.5953 132.858 53.6512 133.271 53.6753C133.55 53.6916 133.851 53.676 133.999 53.6375C134.138 53.6013 134.414 53.5468 134.614 53.5161C135.323 53.4074 135.873 53.1445 136.544 52.5921C136.931 52.2741 137.266 51.8906 137.961 50.9709C138.214 50.6351 139.248 49.2725 140.257 47.9429C141.266 46.6134 142.974 44.362 144.052 42.9399C145.13 41.5177 146.441 39.7908 146.964 39.1023C150.242 34.7932 150.139 34.9369 150.526 34.1182C150.791 33.556 150.992 32.8665 151.081 32.2128C151.201 31.3269 151.055 30.781 150.244 29.0779C148.581 25.589 146.268 22.9671 143.212 21.1084C142.108 20.4367 141.849 20.2893 141.227 19.9773C139.712 19.2175 138.171 18.7054 136.433 18.3836C136.031 18.3092 135.527 18.182 135.312 18.1011C135.098 18.0201 134.469 17.7896 133.915 17.5888C133.361 17.388 132.403 17.0391 131.787 16.8134C131.171 16.5876 130.062 16.1841 129.323 15.9168C128.583 15.6494 127.474 15.2458 126.858 15.0198C125.509 14.5247 122.544 13.4466 118.681 12.0467C117.11 11.4773 115.724 10.9724 115.602 10.9247C115.41 10.8506 113.331 10.0921 112.465 9.78033C112.311 9.72488 111.416 9.39842 110.476 9.05477C109.537 8.71117 108.289 8.25819 107.704 8.04828C107.119 7.83831 106.539 7.62807 106.416 7.58102C106.293 7.53403 105.776 7.34468 105.268 7.1603C104.76 6.97587 103.827 6.6362 103.196 6.4054C102.564 6.17459 101.443 5.76698 100.703 5.49961C99.9641 5.23223 98.8551 4.82871 98.2391 4.60295C97.623 4.37713 96.4133 3.93597 95.5508 3.62256C94.6883 3.3092 92.7842 2.61652 91.3196 2.08328C87.9526 0.85742 87.2814 0.647116 85.8897 0.381815C84.124 0.0451615 82.1591 -0.0728997 80.2611 0.0437052ZM84.3215 1.9123C85.3742 2.05119 86.4709 2.28015 87.3459 2.54366C87.6077 2.62251 88.7544 3.02548 89.8941 3.43908C91.0339 3.85274 92.0924 4.23655 92.2464 4.29211C92.9337 4.53977 95.2106 5.36934 95.3987 5.44052C95.5131 5.48387 96.0226 5.67015 96.5309 5.85446C97.0391 6.03878 97.8456 6.33231 98.3231 6.50671C98.8005 6.68117 100.615 7.3398 102.356 7.97043C104.096 8.60106 105.62 9.15586 105.743 9.20335C106.009 9.30601 109.192 10.4639 113.025 11.8521C113.887 12.1646 114.681 12.4542 114.789 12.4958C114.897 12.5373 116.283 13.0419 117.869 13.617C119.456 14.1921 120.854 14.7013 120.977 14.7485C121.1 14.7956 121.788 15.0468 122.505 15.3066C123.223 15.5663 123.903 15.8143 124.018 15.8577C124.132 15.901 124.642 16.0876 125.15 16.2723C125.658 16.457 126.603 16.8007 127.25 17.0361C127.897 17.2715 128.824 17.6073 129.31 17.7822C129.903 17.9955 130.161 18.1124 130.094 18.137C130.04 18.1571 129.654 18.203 129.239 18.239C126.011 18.5179 122.073 19.6233 118.32 21.3038C113.927 23.2707 108.608 26.5585 103.896 30.2202C102.816 31.0589 100.85 32.6892 100.031 33.4235C96.7897 36.3323 94.059 39.1061 91.7098 41.8766C83.8544 51.1401 78.0632 61.6112 74.9924 72.1032C74.2222 74.7344 73.4902 78.1362 73.1751 80.5477C73.1469 80.7633 73.0993 81.1287 73.0693 81.3597C72.5817 85.1179 72.5384 89.3251 72.9567 92.309C73.2649 94.5076 74.0217 97.3932 74.7193 99.0297C75.1985 100.154 76.5008 102.679 77.2824 104C77.4238 104.239 77.5328 104.434 77.5248 104.434C77.5168 104.434 75.8105 103.815 73.7331 103.058C71.6557 102.301 69.6157 101.559 69.1999 101.41C68.784 101.26 68.2043 101.051 67.9117 100.944C67.6191 100.837 66.674 100.494 65.8115 100.181C64.949 99.868 64.1173 99.5638 63.9633 99.5048C63.7091 99.4074 55.5006 96.4196 51.8099 95.0811C47.8512 93.6454 44.6501 92.4801 44.1931 92.3082C43.9159 92.204 43.2228 91.9509 42.6529 91.7457C42.0831 91.5406 41.5286 91.3386 41.4208 91.2968C41.313 91.2551 40.5191 90.9655 39.6566 90.6535C38.7941 90.3413 37.8616 90.0034 37.5843 89.9024C37.3071 89.8013 36.7527 89.6008 36.3522 89.4566C35.9518 89.3125 35.5359 89.1609 35.4281 89.1198C35.3203 89.0787 34.35 88.7254 33.2719 88.3347C32.1938 87.944 31.1331 87.5575 30.9148 87.4758L30.5181 87.3273L29.9658 86.4858C28.5224 84.2861 27.0947 81.7152 26.1708 79.6516C25.3556 77.8307 24.5927 74.9609 24.2875 72.5668C23.8288 68.9681 24.0746 64.0706 24.9525 59.3213C26.0237 53.5266 27.9915 47.8309 30.9995 41.8194C37.0591 29.709 45.8399 19.3646 56.6265 11.6291C61.5121 8.1254 66.6218 5.29412 70.7846 3.78408C74.0052 2.61573 76.5069 2.08821 80.1491 1.80925C80.8573 1.75503 83.6528 1.82403 84.3215 1.9123ZM133.859 20.0947C136.858 20.3678 139.317 21.2185 142.05 22.9288C143.784 24.014 144.789 24.8472 145.983 26.187C147.282 27.6445 148.605 29.8259 149.402 31.8222C149.569 32.2401 149.579 32.3043 149.553 32.7744C149.507 33.5885 149.349 33.8917 148.139 35.4804C147.725 36.0251 146.075 38.1972 144.473 40.3072C142.872 42.4172 141.025 44.8487 140.37 45.7106C138.86 47.6985 137.306 49.75 136.954 50.2203C136.191 51.2412 135.506 51.673 134.907 51.5117C134.623 51.4351 134.465 51.2519 134.111 50.5843C132.361 47.2882 130.187 44.9296 127.788 43.7263C126.647 43.1541 125.421 42.822 124.02 42.7059C121.941 42.5336 119.31 43.1033 116.567 44.3197C112.44 46.1498 107.688 49.4528 104.68 52.5818C101.633 55.7505 99.8855 58.1577 98.3219 61.3375C96.8098 64.4127 95.9501 67.4278 95.5434 71.0826C95.3993 72.3775 95.3965 75.7149 95.5386 76.7112C95.8735 79.0586 96.4701 81.0982 97.4002 83.0762C98.1413 84.6521 100.062 87.4625 101.892 89.6487C103.469 91.5318 105.041 93.1561 107.368 95.3044C108.709 96.5429 110.617 98.0465 114.369 100.822C114.862 101.186 115.542 101.69 115.881 101.941C117.299 102.992 117.72 103.296 119.829 104.792C123.132 107.135 126.352 109.421 128.986 111.294C130.28 112.214 132.41 113.726 133.719 114.654C135.028 115.582 136.668 116.746 137.364 117.241C138.059 117.737 138.686 118.172 138.756 118.21C138.974 118.327 139.404 118.29 139.698 118.13C140.151 117.883 140.645 117.353 140.904 116.838C141.162 116.323 142.726 111.158 143.464 108.383C144.929 102.872 146.031 97.502 146.907 91.6019C147.089 90.372 147.24 89.9405 147.697 89.3357C148.108 88.7928 148.104 88.7955 150.241 87.5628C150.965 87.1451 152.376 86.331 153.377 85.7535C154.378 85.1761 155.758 84.3797 156.444 83.9838C158.039 83.0621 159.827 82.0299 161.526 81.0496C163.201 80.0834 163.225 80.0716 163.559 80.0716C163.902 80.0716 164.173 80.241 164.317 80.5452C164.49 80.9096 164.473 81.1576 164.075 84.1321C163.504 88.3961 162.336 94.7225 161.38 98.7183C160.631 101.854 159.961 104.408 159.171 107.151C158.905 108.075 158.629 109.032 158.559 109.279C158.355 109.991 157.97 111.282 157.915 111.435C157.888 111.512 157.736 111.991 157.578 112.499C156.367 116.395 154.529 121.518 153.038 125.157C152.548 126.352 152.48 126.587 152.474 127.092C152.467 127.771 152.57 127.905 153.657 128.63C153.95 128.825 154.668 129.312 155.253 129.712C157.354 131.148 158.964 132.247 159.775 132.8C160.229 133.109 160.822 133.513 161.091 133.697C162.563 134.704 165.258 136.542 165.867 136.954C166.252 137.215 166.907 137.661 167.323 137.945C169.558 139.471 173.407 142.097 173.83 142.384C174.484 142.829 174.604 143.016 174.604 143.599C174.604 144.393 174.279 145.17 173.685 145.797C173.361 146.14 172.976 146.392 171.573 147.181C171.438 147.257 171.025 147.494 170.655 147.709C170.285 147.923 169.466 148.396 168.835 148.761C166.87 149.895 163.824 151.654 161.736 152.86C160.635 153.496 159.419 154.198 159.034 154.42C158.001 155.014 156.563 155.844 155.925 156.213C155.617 156.391 155.05 156.719 154.665 156.941C154.28 157.163 153.562 157.578 153.069 157.863C151.464 158.791 151.592 158.731 151.221 158.731C150.894 158.732 150.866 158.72 150.213 158.289C149.583 157.872 145.653 155.301 144.164 154.331C143.795 154.091 142.837 153.464 142.036 152.939C140.618 152.01 140.572 151.985 140.284 151.984C139.915 151.983 139.529 152.169 139.136 152.534C138.96 152.699 138.448 153.407 137.753 154.448C135.727 157.483 133.849 160.077 131.651 162.877C130.99 163.72 128.771 166.43 128.41 166.836C128.32 166.938 127.897 167.424 127.471 167.917C127.044 168.41 126.604 168.914 126.492 169.037C126.379 169.161 126.026 169.551 125.706 169.906C124.047 171.742 121.122 174.737 119.437 176.322C118.659 177.055 117.21 178.346 116.066 179.326C108.151 186.106 99.1564 191.781 91.4063 194.885C90.4626 195.263 90.1894 195.364 88.998 195.78C87.5854 196.272 85.2454 196.945 84.1255 197.18C83.4558 197.32 82.9747 197.417 82.7254 197.461C82.5713 197.488 82.2311 197.548 81.9693 197.594C79.8718 197.963 77.1729 198.14 75.3435 198.028C72.4399 197.849 70.1723 197.43 67.7437 196.621C64.3642 195.496 61.0576 193.418 58.642 190.902C56.9425 189.131 55.2898 186.473 54.1932 183.748C53.0004 180.783 52.3197 177.718 51.9677 173.729C51.8459 172.349 51.8281 167.37 51.9395 165.817C52.1368 163.066 52.3907 160.592 52.6203 159.18C52.9875 156.924 53.1191 156.181 53.3581 155.008C53.6277 153.685 53.7825 153 54.1366 151.564C55.5576 145.799 57.9125 139.436 60.7075 133.81C62.0985 131.009 63.5149 128.459 65.3269 125.493C68.8103 119.789 73.7337 113.214 78.3815 108.056C78.8163 107.574 79.2717 107.037 79.3935 106.863C79.8297 106.24 80.0881 105.276 79.9643 104.733C79.935 104.605 79.6341 104.05 79.2957 103.501C77.5561 100.677 76.2946 98.1652 75.66 96.2612C74.6122 93.1174 74.1853 90.3907 74.1863 86.8484C74.1875 82.2973 74.7901 77.9403 76.1072 72.9588C76.6777 70.8008 77.754 67.6406 78.7202 65.286C79.5731 63.2077 81.2689 59.633 82.2804 57.7811C83.941 54.7412 85.6296 52.0099 87.3998 49.5004C87.7552 48.9966 88.0837 48.5294 88.13 48.4621C88.1762 48.3948 88.2791 48.2525 88.3587 48.1459C88.4383 48.0393 88.6894 47.7 88.9166 47.392C89.7056 46.3225 91.5636 43.9906 92.4199 42.9955C97.7186 36.8367 103.718 31.6399 110.504 27.3311C112.76 25.8989 114.593 24.8602 116.553 23.9026C118.226 23.0857 118.633 22.9045 120.025 22.3585C123.319 21.0668 126.125 20.4006 129.463 20.1177C131.107 19.9784 132.501 19.9711 133.859 20.0947ZM123.974 44.7366C126.867 45.1836 129.228 46.8241 131.344 49.8565C131.9 50.6532 132.457 51.5568 132.417 51.5968C132.403 51.6107 132.054 51.499 131.641 51.3484C131.228 51.1979 130.291 50.8567 129.559 50.5903C128.826 50.3238 128.133 50.07 128.018 50.0261C127.828 49.953 125.501 49.1066 124.086 48.5958C123.763 48.4791 123.12 48.2459 122.658 48.0777C122.196 47.9095 121.351 47.6027 120.782 47.3959C120.212 47.1891 119.342 46.8725 118.849 46.6923C118.357 46.5121 117.721 46.2808 117.436 46.1783C117.152 46.0757 116.919 45.9762 116.918 45.9572C116.917 45.913 117.791 45.5798 118.501 45.3535C119.673 44.9803 120.916 44.725 121.902 44.6549C122.345 44.6234 123.548 44.6708 123.974 44.7366ZM115.725 61.4433C117.09 61.9336 120.426 63.1453 120.686 63.2454C120.803 63.2902 121.912 63.6946 123.15 64.1439C124.389 64.5932 125.919 65.1495 126.55 65.3802C127.182 65.6109 128.114 65.9504 128.622 66.1347C129.131 66.319 129.673 66.5175 129.827 66.5758C129.981 66.6342 131.09 67.0381 132.291 67.4733C133.492 67.9086 134.979 68.4494 135.595 68.6751C136.582 69.0369 137.163 69.2481 139.292 70.0199C143.266 71.461 144.828 72.0295 145.06 72.1193C145.214 72.1788 147.256 72.9222 149.597 73.7712C151.938 74.6202 153.979 75.3627 154.133 75.4211C154.287 75.4796 154.835 75.6804 155.351 75.8673C157.683 76.7122 158.178 76.892 158.362 76.961C158.47 77.0015 159.478 77.3681 160.602 77.7757C161.726 78.1833 162.666 78.5353 162.691 78.558C162.716 78.5807 162.199 78.9094 161.543 79.2884C159.395 80.5295 157.566 81.5867 156.654 82.1146C156.161 82.3999 155.43 82.8222 155.029 83.0529C154.629 83.2837 153.482 83.9457 152.481 84.5239C151.48 85.1022 150.157 85.8645 149.541 86.2179C148.925 86.5713 148.221 87.0133 147.977 87.2001L147.533 87.5396L147.053 87.3669C146.238 87.0738 143.815 86.1927 140.16 84.8598C138.235 84.1578 136.281 83.4479 135.819 83.2822C135.357 83.1164 134.853 82.9328 134.699 82.8742C134.545 82.8156 134.003 82.6168 133.495 82.4325C132.987 82.2482 132.054 81.9085 131.423 81.6777C130.791 81.4469 129.67 81.0393 128.93 80.772C128.191 80.5046 127.082 80.1009 126.466 79.8749C125.85 79.6488 124.754 79.2495 124.03 78.9874C123.306 78.7254 121.945 78.2303 121.006 77.8872C120.066 77.5441 119.134 77.205 118.933 77.1337C118.733 77.0624 116.213 76.1455 113.333 75.0961C110.453 74.0468 107.567 72.9961 106.92 72.7613C105.585 72.2767 104.109 71.7386 103.448 71.4954C103.201 71.4048 102.147 71.0209 101.106 70.6422C100.064 70.2636 99.2074 69.9349 99.2017 69.9118C99.1959 69.8888 99.8465 69.4914 100.647 69.0287C101.448 68.566 102.608 67.8962 103.224 67.5402C103.84 67.1842 104.659 66.7114 105.044 66.4894C105.429 66.2675 105.983 65.9476 106.276 65.7785C106.569 65.6094 107.325 65.1728 107.956 64.8083C108.588 64.4439 109.634 63.8399 110.28 63.4662C114.578 60.9833 114.381 61.0917 114.605 61.0877C114.674 61.0865 115.178 61.2465 115.725 61.4433ZM100.059 72.1319C104.174 73.6312 105.149 73.9864 106.248 74.3851C106.648 74.5303 107.493 74.8373 108.124 75.067C108.756 75.2968 110.558 75.951 112.129 76.5207C113.7 77.0904 115.086 77.5954 115.208 77.6429C115.331 77.6904 116.019 77.9418 116.737 78.2016C117.454 78.4613 118.135 78.7099 118.249 78.7538C118.364 78.7978 119.024 79.039 119.717 79.2899C120.411 79.5408 121.671 79.9987 122.518 80.3073C123.365 80.616 124.323 80.9638 124.646 81.0802C125.808 81.4985 131.289 83.4934 131.563 83.5977C131.717 83.6563 132.271 83.859 132.795 84.048C133.319 84.2371 133.873 84.4396 134.027 84.4979C134.181 84.5564 134.862 84.8042 135.539 85.0486C136.217 85.2932 137.994 85.9391 139.488 86.484C140.982 87.029 142.544 87.5966 142.96 87.7454C144.283 88.2184 146.342 88.98 146.368 89.0052C146.381 89.0185 146.277 89.2655 146.137 89.5541C145.718 90.4155 145.608 90.8437 145.338 92.673C144.273 99.8916 142.633 107.09 140.458 114.095C140.257 114.742 140.033 115.467 139.961 115.705C139.889 115.943 139.81 116.175 139.785 116.219C139.737 116.304 139.931 116.441 125.633 106.278C125.052 105.865 124.485 105.462 124.373 105.382C124.261 105.303 123.868 105.024 123.498 104.763C120.903 102.927 119.033 101.595 118.457 101.173C118.088 100.902 117.571 100.524 117.309 100.333C115.932 99.3277 111.647 96.1128 111.064 95.648C108.103 93.2832 104.817 90.0373 102.666 87.3524C101.145 85.4545 99.5832 83.1487 98.9171 81.8189C98.3647 80.716 97.7484 79.0266 97.4567 77.8156C97.1074 76.366 96.9775 75.377 96.9389 73.8729C96.9126 72.8504 96.9253 72.4911 97.0106 71.8411C97.0979 71.176 97.1278 71.0571 97.2006 71.0866C97.2481 71.1059 98.5345 71.5763 100.059 72.1319ZM30.3096 89.1246C30.6143 89.2343 31.0904 89.4065 31.3677 89.5074C31.6449 89.6082 32.884 90.0586 34.1213 90.5084C35.3586 90.9581 36.4675 91.3627 36.5856 91.4075C36.7037 91.4522 37.2287 91.6436 37.7524 91.8327C38.276 92.0219 38.8305 92.2244 38.9845 92.2828C39.1385 92.3412 41.1799 93.0838 43.521 93.933C45.8621 94.7823 47.9035 95.5254 48.0575 95.5844C48.2115 95.6433 48.6573 95.8059 49.0482 95.9456C49.4391 96.0853 49.8549 96.236 49.9723 96.2805C50.0897 96.325 50.6016 96.5125 51.1098 96.6972C51.6181 96.8819 52.8782 97.3399 53.9102 97.7149C54.9421 98.0899 56.7567 98.7483 57.9426 99.1779C59.1285 99.6076 60.2249 100.008 60.3789 100.067C60.61 100.156 65.8114 102.051 67.0716 102.506C67.2718 102.578 67.9145 102.811 68.4998 103.024C69.085 103.236 70.446 103.73 71.5241 104.122C72.6022 104.513 73.6733 104.904 73.9044 104.99C74.1354 105.077 75.1497 105.447 76.1583 105.813C77.1669 106.179 77.9923 106.5 77.9925 106.526C77.9927 106.553 77.783 106.805 77.5266 107.087C77.2702 107.368 76.6076 108.128 76.0543 108.775C69.2236 116.76 63.8485 124.759 59.6281 133.219C58.2463 135.989 57.1899 138.383 56.0562 141.313C53.0455 149.094 51.2163 156.867 50.5797 164.585C50.3838 166.96 50.358 167.663 50.3582 170.606C50.3584 173.686 50.394 174.446 50.6338 176.486C51.2009 181.312 52.5382 185.462 54.6678 189.005C55.3677 190.169 56.4556 191.633 57.2346 192.458C57.4767 192.714 57.6488 192.924 57.6171 192.924C57.5657 192.924 55.8395 192.306 55.1143 192.029C54.9603 191.969 54.1412 191.671 53.2941 191.364C50.9832 190.529 48.9501 189.789 45.6772 188.594C45.0458 188.363 44.0629 188.007 43.493 187.802C42.9231 187.598 42.3309 187.382 42.1769 187.322C41.857 187.199 39.6085 186.38 38.0324 185.813C37.4471 185.602 36.628 185.305 36.2122 185.152C35.7964 184.999 34.9899 184.706 34.42 184.5C33.8501 184.294 33.2957 184.092 33.1879 184.05C33.08 184.009 31.5609 183.456 29.8119 182.82C28.0629 182.185 26.5381 181.629 26.4235 181.585C26.3089 181.541 25.7488 181.337 25.179 181.132C24.6092 180.926 24.0547 180.725 23.9468 180.684C23.839 180.642 23.0451 180.354 22.1826 180.043C21.3201 179.732 20.4885 179.43 20.3344 179.371C20.1804 179.312 19.3613 179.013 18.5142 178.706C16.2848 177.899 15.9012 177.744 14.8447 177.224C10.6279 175.147 7.5355 172.22 5.37624 168.26C3.38595 164.611 2.27999 160.55 1.84348 155.288C1.71175 153.7 1.71282 149.403 1.8455 147.391C2.09338 143.632 2.53387 140.25 3.20247 136.974C5.57293 125.358 10.3653 114.274 17.7583 103.309C21.0048 98.4942 25.1792 93.1704 28.8081 89.217L29.3329 88.6453L29.5443 88.7851C29.6606 88.8621 30.005 89.0148 30.3096 89.1246ZM90.693 117.008C90.3233 117.144 90.026 117.395 89.0541 118.389C85.2567 122.273 82.2338 126.043 79.8183 129.908C77.3525 133.853 75.6645 137.486 74.4317 141.502C73.491 144.565 72.9729 147.341 72.606 151.283C72.5052 152.366 72.5056 157.025 72.6064 157.976C72.8611 160.379 73.1287 161.838 73.6149 163.474C74.47 166.352 76.0574 168.915 77.9835 170.527C82.6524 174.435 89.6591 174.397 98.5056 170.415C107.056 166.567 114.64 160.764 121.095 153.132C123.55 150.228 126.809 145.871 127.253 144.899C127.582 144.18 127.64 143.577 127.425 143.128C127.323 142.913 127.337 142.924 122.854 139.737C120.694 138.202 117.488 135.922 114.005 133.445C112.85 132.624 110.279 130.797 108.292 129.385C106.305 127.974 103.911 126.272 102.972 125.604C102.032 124.936 100.419 123.79 99.3872 123.058C97.886 121.991 95.5412 120.258 94.2728 119.276C93.7759 118.891 92.6283 117.97 92.0998 117.532C91.331 116.894 91.1686 116.834 90.693 117.008ZM90.8498 119.266C91.6997 119.979 93.2728 121.216 94.6827 122.28C96.1829 123.412 96.6569 123.753 102.104 127.62C103.767 128.801 105.569 130.083 106.108 130.468C106.647 130.853 107.769 131.65 108.6 132.239C110.115 133.312 114.763 136.615 119.437 139.941C120.808 140.916 122.845 142.365 123.963 143.159C125.214 144.048 125.986 144.632 125.97 144.675C125.913 144.823 124.809 146.36 123.636 147.923C119.904 152.898 116.376 156.669 112.241 160.105C106.45 164.916 99.17 168.921 93.1705 170.596C86.5547 172.444 81.1134 171.324 77.8735 167.448C75.9259 165.117 74.7908 162.233 74.2671 158.284C73.931 155.75 73.9423 151.81 74.2944 148.735C74.3707 148.069 74.5616 146.726 74.6326 146.355C74.8149 145.404 74.9826 144.574 75.0516 144.283C75.3598 142.981 75.4784 142.529 75.7799 141.51C77.7375 134.894 81.9294 127.945 87.7898 121.602C88.845 120.46 90.3316 118.94 90.3932 118.94C90.4307 118.94 90.6362 119.087 90.8498 119.266Z" fill="#FCF8FD"/>
</svg>
