<svg width="179" height="202" viewBox="0 0 179 202" fill="none" xmlns="http://www.w3.org/2000/svg">
<mask id="path-1-outside-1_18_1003" maskUnits="userSpaceOnUse" x="0" y="0" width="179" height="202" fill="black">
<rect fill="white" width="179" height="202"/>
<path fill-rule="evenodd" clip-rule="evenodd" d="M81.2611 1.04371C76.04 1.36428 71.609 2.60841 66.3914 5.21858C64.9393 5.94498 61.7925 7.70884 60.8468 8.32642C60.585 8.4974 60.3078 8.67018 60.2307 8.7104C60.1537 8.75061 59.9521 8.88239 59.7827 9.00325C59.6133 9.12411 59.1596 9.43002 58.7746 9.683C57.2568 10.6802 56.0806 11.523 54.1314 13.0099C53.2423 13.6882 53.0788 13.8183 52.38 14.4038C52.1544 14.5928 51.8438 14.8425 51.6898 14.9585C51.5358 15.0746 51.2208 15.3377 50.9897 15.5433C50.7587 15.7489 50.3807 16.0808 50.1496 16.2809C49.9186 16.4809 49.6528 16.7183 49.559 16.8085C49.4651 16.8987 49.1249 17.2119 48.8029 17.5045C47.7962 18.4192 45.5589 20.6295 44.5507 21.705C44.2337 22.0433 41.7363 24.8782 41.2446 25.4579C41.0752 25.6576 40.8777 25.8841 40.8057 25.9613C40.7338 26.0384 40.6126 26.1978 40.5364 26.3156C40.4603 26.4334 40.2924 26.6354 40.1632 26.7645C40.0341 26.8936 39.7773 27.2105 39.5925 27.4688C39.4076 27.727 39.1856 28.0165 39.0992 28.112C39.0127 28.2076 38.8996 28.3487 38.8479 28.4258C38.7961 28.5028 38.5393 28.8525 38.277 29.2029C38.0148 29.5533 37.7066 29.9692 37.592 30.127C37.4775 30.2848 37.3319 30.4806 37.2684 30.5621C37.0745 30.8109 36.892 31.0738 36.7302 31.3372C36.6454 31.4754 36.5301 31.6377 36.474 31.6978C36.418 31.758 36.3721 31.8245 36.3721 31.8456C36.3721 31.8666 36.1768 32.1502 35.9381 32.4758C35.6994 32.8014 35.4032 33.2263 35.28 33.42C34.9046 34.0101 34.533 34.6039 34.4095 34.8105C34.3451 34.9183 34.2374 35.0985 34.1702 35.211C34.1029 35.3235 33.9503 35.5851 33.831 35.7924C33.7117 35.9996 33.5441 36.2731 33.4586 36.4C33.373 36.5268 33.2571 36.7315 33.2009 36.8547C33.1448 36.9779 33.0297 37.1828 32.9453 37.3099C32.8608 37.4371 32.6373 37.8403 32.4486 38.206C32.26 38.5717 32.0691 38.9117 32.0246 38.9615C31.9801 39.0114 31.8334 39.2774 31.6987 39.5525C31.5639 39.8277 31.4136 40.0862 31.3646 40.1269C31.3156 40.1675 31.2755 40.2486 31.2755 40.307C31.2755 40.3655 31.2122 40.5136 31.1348 40.6362C31.0574 40.7588 31.0074 40.8591 31.0237 40.8591C31.0686 40.8591 30.7823 41.4058 30.7258 41.4279C30.6989 41.4385 30.4615 41.8883 30.1983 42.4273C28.126 46.672 26.4229 51.1187 25.3436 55.1024C23.9658 60.1882 23.3232 64.817 23.3228 69.6594C23.3226 72.1096 23.4601 73.6584 23.8612 75.723C24.2235 77.5882 24.9465 79.9996 25.5459 81.3422C26.3663 83.1795 27.8769 85.9508 29.0331 87.7398C29.1575 87.9323 29.2593 88.1144 29.2593 88.1446C29.2593 88.1858 28.4418 89.1248 28.2494 89.3045C28.1724 89.3764 26.5643 91.225 25.8377 92.0768C20.6443 98.1654 15.6729 105.292 12.2054 111.618C12.0886 111.831 11.8195 112.323 11.6074 112.71C11.1758 113.499 9.33382 117.161 9.04174 117.812C8.93796 118.043 8.75953 118.433 8.64522 118.68C6.62233 123.041 4.57598 128.86 3.36355 133.7C2.14301 138.572 1.50644 142.58 1.10617 147.915C0.964863 149.799 0.964527 155.132 1.10566 156.68C1.27032 158.487 1.43526 159.693 1.73349 161.272C2.76838 166.752 5.1627 171.68 8.3956 174.987C10.1602 176.791 11.935 178.129 14.2216 179.379C15.6754 180.174 16.382 180.455 22.3425 182.612C22.9278 182.823 23.8855 183.171 24.4708 183.384C25.056 183.597 26.417 184.091 27.4951 184.482C28.5732 184.873 29.5519 185.23 29.67 185.275C29.7881 185.321 30.8886 185.722 32.1156 186.167C33.3427 186.612 34.4432 187.014 34.5613 187.059C34.6793 187.105 35.7462 187.493 36.9322 187.923C38.1181 188.353 42.2514 189.857 46.1172 191.264C49.983 192.672 53.3728 193.906 53.65 194.006C55.2678 194.593 58.1473 195.64 58.5786 195.799C58.8558 195.902 60.0025 196.319 61.1268 196.725C62.2512 197.132 63.3601 197.564 63.5911 197.685C65.8981 198.894 67.5183 199.539 69.6099 200.083C72.0878 200.727 74.2819 201.001 76.9486 201C81.34 200.999 85.4314 200.202 90.6981 198.322C93.2523 197.41 96.5634 195.88 99.8551 194.089C102.145 192.844 105.541 190.738 108.256 188.881C110.945 187.041 115.115 183.846 117.105 182.101C117.197 182.02 117.702 181.581 118.225 181.125C120.353 179.274 121.496 178.19 124.022 175.629C126.424 173.193 128.59 170.822 130.407 168.637C130.791 168.175 131.12 167.785 131.137 167.769C131.172 167.738 132.839 165.676 133.491 164.857C135.273 162.62 137.949 158.911 139.788 156.131C140.259 155.418 140.6 154.956 140.642 154.971C140.729 155.003 141.574 155.549 144.522 157.48C146.822 158.988 147.268 159.279 149.617 160.808C150.279 161.239 150.906 161.621 151.011 161.656C151.27 161.744 151.71 161.736 152.08 161.637C152.501 161.526 152.679 161.43 155.161 159.985C155.362 159.868 155.941 159.534 156.449 159.242C156.958 158.949 157.941 158.382 158.634 157.982C160.385 156.97 162.488 155.754 163.814 154.989C167.037 153.128 170.211 151.296 171.683 150.447C174.532 148.805 174.466 148.847 175.028 148.312C175.898 147.484 176.497 146.516 176.865 145.339C177.286 143.995 177.223 142.843 176.692 142.146C176.552 141.963 176.042 141.607 171.067 138.214C169.912 137.427 168.412 136.403 167.735 135.94C165.971 134.735 165.073 134.123 163.422 132.998C160.174 130.785 159.09 130.045 158.69 129.769C158.347 129.534 155.228 127.401 155.028 127.267C154.993 127.243 155.081 126.954 155.259 126.511C158.018 119.625 159.644 114.81 161.938 106.722C163.285 101.971 164.425 97.0542 165.462 91.5168C165.723 90.122 166.191 87.2234 166.447 85.4121C166.568 84.557 166.628 84.1138 166.814 82.6958C167.005 81.2467 166.984 80.6463 166.72 80.0582C166.582 79.7514 166.164 79.2794 166.03 79.2794C165.999 79.2794 165.873 79.1303 165.75 78.948C165.377 78.3988 164.975 78.1249 164.066 77.8004C163.774 77.6959 162.173 77.1138 160.51 76.5068C158.846 75.8998 157.221 75.3078 156.897 75.1912C156.574 75.0746 155.749 74.7748 155.063 74.525C154.378 74.2752 153.256 73.8665 152.571 73.6166C151.886 73.3668 151.06 73.0671 150.737 72.9506C150.413 72.8341 148.372 72.0907 146.2 71.2985C144.029 70.5064 141.987 69.7628 141.664 69.646C141.34 69.5293 140.231 69.1269 139.2 68.7518C138.168 68.3767 136.907 67.9187 136.399 67.7341C135.891 67.5495 135.349 67.3505 135.195 67.2919C135.041 67.2334 132.584 66.338 129.734 65.3022C126.885 64.2664 122.689 62.7368 120.409 61.9031L116.265 60.3874L115.649 60.3823C114.894 60.3762 114.782 60.4148 113.633 61.0767C113.171 61.3429 112.188 61.9101 111.448 62.3372C109.837 63.268 108.741 63.9008 107.5 64.6171C106.992 64.9104 106.336 65.2886 106.044 65.4576C105.751 65.6265 104.995 66.0631 104.364 66.4277C103.175 67.1141 102.215 67.6684 100.583 68.6113C100.06 68.9139 99.4547 69.2607 99.2391 69.382C99.0234 69.5033 98.701 69.7158 98.5225 69.8542C98.2319 70.0795 98.201 70.092 98.227 69.974C98.243 69.9016 98.3209 69.4895 98.4002 69.0583C99.1728 64.8522 101.116 60.8129 104.064 57.2849C106.31 54.596 108.766 52.3672 111.616 50.429C112.745 49.6619 114.541 48.5702 115.327 48.1742L115.621 48.0259L116.643 48.3971C117.205 48.6012 117.93 48.8637 118.253 48.9804C119.53 49.441 124.906 51.3984 125.17 51.4984C125.324 51.5568 125.866 51.7556 126.374 51.9402C129.548 53.0926 131.804 53.9145 132.731 54.2557C133.653 54.5953 133.858 54.6512 134.271 54.6753C134.55 54.6916 134.851 54.676 134.999 54.6375C135.138 54.6013 135.414 54.5468 135.614 54.5161C136.323 54.4074 136.873 54.1445 137.544 53.5921C137.931 53.2741 138.266 52.8906 138.961 51.9709C139.214 51.6351 140.248 50.2725 141.257 48.9429C142.266 47.6134 143.974 45.362 145.052 43.9399C146.13 42.5177 147.441 40.7908 147.964 40.1023C151.242 35.7932 151.139 35.9369 151.526 35.1182C151.791 34.556 151.992 33.8665 152.081 33.2128C152.201 32.3269 152.055 31.781 151.244 30.0779C149.581 26.589 147.268 23.9671 144.212 22.1084C143.108 21.4367 142.849 21.2893 142.227 20.9773C140.712 20.2175 139.171 19.7054 137.433 19.3836C137.031 19.3092 136.527 19.182 136.312 19.1011C136.098 19.0201 135.469 18.7896 134.915 18.5888C134.361 18.388 133.403 18.0391 132.787 17.8134C132.171 17.5876 131.062 17.1841 130.323 16.9168C129.583 16.6494 128.474 16.2458 127.858 16.0198C126.509 15.5247 123.544 14.4466 119.681 13.0467C118.11 12.4773 116.724 11.9724 116.602 11.9247C116.41 11.8506 114.331 11.0921 113.465 10.7803C113.311 10.7249 112.416 10.3984 111.476 10.0548C110.537 9.71117 109.289 9.25819 108.704 9.04828C108.119 8.83831 107.539 8.62807 107.416 8.58102C107.293 8.53403 106.776 8.34468 106.268 8.1603C105.76 7.97587 104.827 7.6362 104.196 7.4054C103.564 7.17459 102.443 6.76698 101.703 6.49961C100.964 6.23223 99.8551 5.82871 99.2391 5.60295C98.623 5.37713 97.4133 4.93597 96.5508 4.62256C95.6883 4.3092 93.7842 3.61652 92.3196 3.08328C88.9526 1.85742 88.2814 1.64712 86.8897 1.38181C85.124 1.04516 83.1591 0.9271 81.2611 1.04371ZM85.3215 2.9123C86.3742 3.05119 87.4709 3.28015 88.3459 3.54366C88.6077 3.62251 89.7544 4.02548 90.8941 4.43908C92.0339 4.85274 93.0924 5.23655 93.2464 5.29211C93.9337 5.53977 96.2106 6.36934 96.3987 6.44052C96.5131 6.48387 97.0226 6.67015 97.5309 6.85446C98.0391 7.03878 98.8456 7.33231 99.3231 7.50671C99.8005 7.68117 101.615 8.3398 103.356 8.97043C105.096 9.60106 106.62 10.1559 106.743 10.2034C107.009 10.306 110.192 11.4639 114.025 12.8521C114.887 13.1646 115.681 13.4542 115.789 13.4958C115.897 13.5373 117.283 14.0419 118.869 14.617C120.456 15.1921 121.854 15.7013 121.977 15.7485C122.1 15.7956 122.788 16.0468 123.505 16.3066C124.223 16.5663 124.903 16.8143 125.018 16.8577C125.132 16.901 125.642 17.0876 126.15 17.2723C126.658 17.457 127.603 17.8007 128.25 18.0361C128.897 18.2715 129.824 18.6073 130.31 18.7822C130.903 18.9955 131.161 19.1124 131.094 19.137C131.04 19.1571 130.654 19.203 130.239 19.239C127.011 19.5179 123.073 20.6233 119.32 22.3038C114.927 24.2707 109.608 27.5585 104.896 31.2202C103.816 32.0589 101.85 33.6892 101.031 34.4235C97.7897 37.3323 95.059 40.1061 92.7098 42.8766C84.8544 52.1401 79.0632 62.6112 75.9924 73.1032C75.2222 75.7344 74.4902 79.1362 74.1751 81.5477C74.1469 81.7633 74.0993 82.1287 74.0693 82.3597C73.5817 86.1179 73.5384 90.3251 73.9567 93.309C74.2649 95.5076 75.0217 98.3932 75.7193 100.03C76.1985 101.154 77.5008 103.679 78.2824 105C78.4238 105.239 78.5328 105.434 78.5248 105.434C78.5168 105.434 76.8105 104.815 74.7331 104.058C72.6557 103.301 70.6157 102.559 70.1999 102.41C69.784 102.26 69.2043 102.051 68.9117 101.944C68.6191 101.837 67.674 101.494 66.8115 101.181C65.949 100.868 65.1173 100.564 64.9633 100.505C64.7091 100.407 56.5006 97.4196 52.8099 96.0811C48.8512 94.6454 45.6501 93.4801 45.1931 93.3082C44.9159 93.204 44.2228 92.9509 43.6529 92.7457C43.0831 92.5406 42.5286 92.3386 42.4208 92.2968C42.313 92.2551 41.5191 91.9655 40.6566 91.6535C39.7941 91.3413 38.8616 91.0034 38.5843 90.9024C38.3071 90.8013 37.7527 90.6008 37.3522 90.4566C36.9518 90.3125 36.5359 90.1609 36.4281 90.1198C36.3203 90.0787 35.35 89.7254 34.2719 89.3347C33.1938 88.944 32.1331 88.5575 31.9148 88.4758L31.5181 88.3273L30.9658 87.4858C29.5224 85.2861 28.0947 82.7152 27.1708 80.6516C26.3556 78.8307 25.5927 75.9609 25.2875 73.5668C24.8288 69.9681 25.0746 65.0706 25.9525 60.3213C27.0237 54.5266 28.9915 48.8309 31.9995 42.8194C38.0591 30.709 46.8399 20.3646 57.6265 12.6291C62.5121 9.1254 67.6218 6.29412 71.7846 4.78408C75.0052 3.61573 77.5069 3.08821 81.1491 2.80925C81.8573 2.75503 84.6528 2.82403 85.3215 2.9123ZM134.859 21.0947C137.858 21.3678 140.317 22.2185 143.05 23.9288C144.784 25.014 145.789 25.8472 146.983 27.187C148.282 28.6445 149.605 30.8259 150.402 32.8222C150.569 33.2401 150.579 33.3043 150.553 33.7744C150.507 34.5885 150.349 34.8917 149.139 36.4804C148.725 37.0251 147.075 39.1972 145.473 41.3072C143.872 43.4172 142.025 45.8487 141.37 46.7106C139.86 48.6985 138.306 50.75 137.954 51.2203C137.191 52.2412 136.506 52.673 135.907 52.5117C135.623 52.4351 135.465 52.2519 135.111 51.5843C133.361 48.2882 131.187 45.9296 128.788 44.7263C127.647 44.1541 126.421 43.822 125.02 43.7059C122.941 43.5336 120.31 44.1033 117.567 45.3197C113.44 47.1498 108.688 50.4528 105.68 53.5818C102.633 56.7505 100.885 59.1577 99.3219 62.3375C97.8098 65.4127 96.9501 68.4278 96.5434 72.0826C96.3993 73.3775 96.3965 76.7149 96.5386 77.7112C96.8735 80.0586 97.4701 82.0982 98.4002 84.0762C99.1413 85.6521 101.062 88.4625 102.892 90.6487C104.469 92.5318 106.041 94.1561 108.368 96.3044C109.709 97.5429 111.617 99.0465 115.369 101.822C115.862 102.186 116.542 102.69 116.881 102.941C118.299 103.992 118.72 104.296 120.829 105.792C124.132 108.135 127.352 110.421 129.986 112.294C131.28 113.214 133.41 114.726 134.719 115.654C136.028 116.582 137.668 117.746 138.364 118.241C139.059 118.737 139.686 119.172 139.756 119.21C139.974 119.327 140.404 119.29 140.698 119.13C141.151 118.883 141.645 118.353 141.904 117.838C142.162 117.323 143.726 112.158 144.464 109.383C145.929 103.872 147.031 98.502 147.907 92.6019C148.089 91.372 148.24 90.9405 148.697 90.3357C149.108 89.7928 149.104 89.7955 151.241 88.5628C151.965 88.1451 153.376 87.331 154.377 86.7535C155.378 86.1761 156.758 85.3797 157.444 84.9838C159.039 84.0621 160.827 83.0299 162.526 82.0496C164.201 81.0834 164.225 81.0716 164.559 81.0716C164.902 81.0716 165.173 81.241 165.317 81.5452C165.49 81.9096 165.473 82.1576 165.075 85.1321C164.504 89.3961 163.336 95.7225 162.38 99.7183C161.631 102.854 160.961 105.408 160.171 108.151C159.905 109.075 159.629 110.032 159.559 110.279C159.355 110.991 158.97 112.282 158.915 112.435C158.888 112.512 158.736 112.991 158.578 113.499C157.367 117.395 155.529 122.518 154.038 126.157C153.548 127.352 153.48 127.587 153.474 128.092C153.467 128.771 153.57 128.905 154.657 129.63C154.95 129.825 155.668 130.312 156.253 130.712C158.354 132.148 159.964 133.247 160.775 133.8C161.229 134.109 161.822 134.513 162.091 134.697C163.563 135.704 166.258 137.542 166.867 137.954C167.252 138.215 167.907 138.661 168.323 138.945C170.558 140.471 174.407 143.097 174.83 143.384C175.484 143.829 175.604 144.016 175.604 144.599C175.604 145.393 175.279 146.17 174.685 146.797C174.361 147.14 173.976 147.392 172.573 148.181C172.438 148.257 172.025 148.494 171.655 148.709C171.285 148.923 170.466 149.396 169.835 149.761C167.87 150.895 164.824 152.654 162.736 153.86C161.635 154.496 160.419 155.198 160.034 155.42C159.001 156.014 157.563 156.844 156.925 157.213C156.617 157.391 156.05 157.719 155.665 157.941C155.28 158.163 154.562 158.578 154.069 158.863C152.464 159.791 152.592 159.731 152.221 159.731C151.894 159.732 151.866 159.72 151.213 159.289C150.583 158.872 146.653 156.301 145.164 155.331C144.795 155.091 143.837 154.464 143.036 153.939C141.618 153.01 141.572 152.985 141.284 152.984C140.915 152.983 140.529 153.169 140.136 153.534C139.96 153.699 139.448 154.407 138.753 155.448C136.727 158.483 134.849 161.077 132.651 163.877C131.99 164.72 129.771 167.43 129.41 167.836C129.32 167.938 128.897 168.424 128.471 168.917C128.044 169.41 127.604 169.914 127.492 170.037C127.379 170.161 127.026 170.551 126.706 170.906C125.047 172.742 122.122 175.737 120.437 177.322C119.659 178.055 118.21 179.346 117.066 180.326C109.151 187.106 100.156 192.781 92.4063 195.885C91.4626 196.263 91.1894 196.364 89.998 196.78C88.5854 197.272 86.2454 197.945 85.1255 198.18C84.4558 198.32 83.9747 198.417 83.7254 198.461C83.5713 198.488 83.2311 198.548 82.9693 198.594C80.8718 198.963 78.1729 199.14 76.3435 199.028C73.4399 198.849 71.1723 198.43 68.7437 197.621C65.3642 196.496 62.0576 194.418 59.642 191.902C57.9425 190.131 56.2898 187.473 55.1932 184.748C54.0004 181.783 53.3197 178.718 52.9677 174.729C52.8459 173.349 52.8281 168.37 52.9395 166.817C53.1368 164.066 53.3907 161.592 53.6203 160.18C53.9875 157.924 54.1191 157.181 54.3581 156.008C54.6277 154.685 54.7825 154 55.1366 152.564C56.5576 146.799 58.9125 140.436 61.7075 134.81C63.0985 132.009 64.5149 129.459 66.3269 126.493C69.8103 120.789 74.7337 114.214 79.3815 109.056C79.8163 108.574 80.2717 108.037 80.3935 107.863C80.8297 107.24 81.0881 106.276 80.9643 105.733C80.935 105.605 80.6341 105.05 80.2957 104.501C78.5561 101.677 77.2946 99.1652 76.66 97.2612C75.6122 94.1174 75.1853 91.3907 75.1863 87.8484C75.1875 83.2973 75.7901 78.9403 77.1072 73.9588C77.6777 71.8008 78.754 68.6406 79.7202 66.286C80.5731 64.2077 82.2689 60.633 83.2804 58.7811C84.941 55.7412 86.6296 53.0099 88.3998 50.5004C88.7552 49.9966 89.0837 49.5294 89.13 49.4621C89.1762 49.3948 89.2791 49.2525 89.3587 49.1459C89.4383 49.0393 89.6894 48.7 89.9166 48.392C90.7056 47.3225 92.5636 44.9906 93.4199 43.9955C98.7186 37.8367 104.718 32.6399 111.504 28.3311C113.76 26.8989 115.593 25.8602 117.553 24.9026C119.226 24.0857 119.633 23.9045 121.025 23.3585C124.319 22.0668 127.125 21.4006 130.463 21.1177C132.107 20.9784 133.501 20.9711 134.859 21.0947ZM124.974 45.7366C127.867 46.1836 130.228 47.8241 132.344 50.8565C132.9 51.6532 133.457 52.5568 133.417 52.5968C133.403 52.6107 133.054 52.499 132.641 52.3484C132.228 52.1979 131.291 51.8567 130.559 51.5903C129.826 51.3238 129.133 51.07 129.018 51.0261C128.828 50.953 126.501 50.1066 125.086 49.5958C124.763 49.4791 124.12 49.2459 123.658 49.0777C123.196 48.9095 122.351 48.6027 121.782 48.3959C121.212 48.1891 120.342 47.8725 119.849 47.6923C119.357 47.5121 118.721 47.2808 118.436 47.1783C118.152 47.0757 117.919 46.9762 117.918 46.9572C117.917 46.913 118.791 46.5798 119.501 46.3535C120.673 45.9803 121.916 45.725 122.902 45.6549C123.345 45.6234 124.548 45.6708 124.974 45.7366ZM116.725 62.4433C118.09 62.9336 121.426 64.1453 121.686 64.2454C121.803 64.2902 122.912 64.6946 124.15 65.1439C125.389 65.5932 126.919 66.1495 127.55 66.3802C128.182 66.6109 129.114 66.9504 129.622 67.1347C130.131 67.319 130.673 67.5175 130.827 67.5758C130.981 67.6342 132.09 68.0381 133.291 68.4733C134.492 68.9086 135.979 69.4494 136.595 69.6751C137.582 70.0369 138.163 70.2481 140.292 71.0199C144.266 72.461 145.828 73.0295 146.06 73.1193C146.214 73.1788 148.256 73.9222 150.597 74.7712C152.938 75.6202 154.979 76.3627 155.133 76.4211C155.287 76.4796 155.835 76.6804 156.351 76.8673C158.683 77.7122 159.178 77.892 159.362 77.961C159.47 78.0015 160.478 78.3681 161.602 78.7757C162.726 79.1833 163.666 79.5353 163.691 79.558C163.716 79.5807 163.199 79.9094 162.543 80.2884C160.395 81.5295 158.566 82.5867 157.654 83.1146C157.161 83.3999 156.43 83.8222 156.029 84.0529C155.629 84.2837 154.482 84.9457 153.481 85.5239C152.48 86.1022 151.157 86.8645 150.541 87.2179C149.925 87.5713 149.221 88.0133 148.977 88.2001L148.533 88.5396L148.053 88.3669C147.238 88.0738 144.815 87.1927 141.16 85.8598C139.235 85.1578 137.281 84.4479 136.819 84.2822C136.357 84.1164 135.853 83.9328 135.699 83.8742C135.545 83.8156 135.003 83.6168 134.495 83.4325C133.987 83.2482 133.054 82.9085 132.423 82.6777C131.791 82.4469 130.67 82.0393 129.93 81.772C129.191 81.5046 128.082 81.1009 127.466 80.8749C126.85 80.6488 125.754 80.2495 125.03 79.9874C124.306 79.7254 122.945 79.2303 122.006 78.8872C121.066 78.5441 120.134 78.205 119.933 78.1337C119.733 78.0624 117.213 77.1455 114.333 76.0961C111.453 75.0468 108.567 73.9961 107.92 73.7613C106.585 73.2767 105.109 72.7386 104.448 72.4954C104.201 72.4048 103.147 72.0209 102.106 71.6422C101.064 71.2636 100.207 70.9349 100.202 70.9118C100.196 70.8888 100.846 70.4914 101.647 70.0287C102.448 69.566 103.608 68.8962 104.224 68.5402C104.84 68.1842 105.659 67.7114 106.044 67.4894C106.429 67.2675 106.983 66.9476 107.276 66.7785C107.569 66.6094 108.325 66.1728 108.956 65.8083C109.588 65.4439 110.634 64.8399 111.28 64.4662C115.578 61.9833 115.381 62.0917 115.605 62.0877C115.674 62.0865 116.178 62.2465 116.725 62.4433ZM101.059 73.1319C105.174 74.6312 106.149 74.9864 107.248 75.3851C107.648 75.5303 108.493 75.8373 109.124 76.067C109.756 76.2968 111.558 76.951 113.129 77.5207C114.7 78.0904 116.086 78.5954 116.208 78.6429C116.331 78.6904 117.019 78.9418 117.737 79.2016C118.454 79.4613 119.135 79.7099 119.249 79.7538C119.364 79.7978 120.024 80.039 120.717 80.2899C121.411 80.5408 122.671 80.9987 123.518 81.3073C124.365 81.616 125.323 81.9638 125.646 82.0802C126.808 82.4985 132.289 84.4934 132.563 84.5977C132.717 84.6563 133.271 84.859 133.795 85.048C134.319 85.2371 134.873 85.4396 135.027 85.4979C135.181 85.5564 135.862 85.8042 136.539 86.0486C137.217 86.2932 138.994 86.9391 140.488 87.484C141.982 88.029 143.544 88.5966 143.96 88.7454C145.283 89.2184 147.342 89.98 147.368 90.0052C147.381 90.0185 147.277 90.2655 147.137 90.5541C146.718 91.4155 146.608 91.8437 146.338 93.673C145.273 100.892 143.633 108.09 141.458 115.095C141.257 115.742 141.033 116.467 140.961 116.705C140.889 116.943 140.81 117.175 140.785 117.219C140.737 117.304 140.931 117.441 126.633 107.278C126.052 106.865 125.485 106.462 125.373 106.382C125.261 106.303 124.868 106.024 124.498 105.763C121.903 103.927 120.033 102.595 119.457 102.173C119.088 101.902 118.571 101.524 118.309 101.333C116.932 100.328 112.647 97.1128 112.064 96.648C109.103 94.2832 105.817 91.0373 103.666 88.3524C102.145 86.4545 100.583 84.1487 99.9171 82.8189C99.3647 81.716 98.7484 80.0266 98.4567 78.8156C98.1074 77.366 97.9775 76.377 97.9389 74.8729C97.9126 73.8504 97.9253 73.4911 98.0106 72.8411C98.0979 72.176 98.1278 72.0571 98.2006 72.0866C98.2481 72.1059 99.5345 72.5763 101.059 73.1319ZM31.3096 90.1246C31.6143 90.2343 32.0904 90.4065 32.3677 90.5074C32.6449 90.6082 33.884 91.0586 35.1213 91.5084C36.3586 91.9581 37.4675 92.3627 37.5856 92.4075C37.7037 92.4522 38.2287 92.6436 38.7524 92.8327C39.276 93.0219 39.8305 93.2244 39.9845 93.2828C40.1385 93.3412 42.1799 94.0838 44.521 94.933C46.8621 95.7823 48.9035 96.5254 49.0575 96.5844C49.2115 96.6433 49.6573 96.8059 50.0482 96.9456C50.4391 97.0853 50.8549 97.236 50.9723 97.2805C51.0897 97.325 51.6016 97.5125 52.1098 97.6972C52.6181 97.8819 53.8782 98.3399 54.9102 98.7149C55.9421 99.0899 57.7567 99.7483 58.9426 100.178C60.1285 100.608 61.2249 101.008 61.3789 101.067C61.61 101.156 66.8114 103.051 68.0716 103.506C68.2718 103.578 68.9145 103.811 69.4998 104.024C70.085 104.236 71.446 104.73 72.5241 105.122C73.6022 105.513 74.6733 105.904 74.9044 105.99C75.1354 106.077 76.1497 106.447 77.1583 106.813C78.1669 107.179 78.9923 107.5 78.9925 107.526C78.9927 107.553 78.783 107.805 78.5266 108.087C78.2702 108.368 77.6076 109.128 77.0543 109.775C70.2236 117.76 64.8485 125.759 60.6281 134.219C59.2463 136.989 58.1899 139.383 57.0562 142.313C54.0455 150.094 52.2163 157.867 51.5797 165.585C51.3838 167.96 51.358 168.663 51.3582 171.606C51.3584 174.686 51.394 175.446 51.6338 177.486C52.2009 182.312 53.5382 186.462 55.6678 190.005C56.3677 191.169 57.4556 192.633 58.2346 193.458C58.4767 193.714 58.6488 193.924 58.6171 193.924C58.5657 193.924 56.8395 193.306 56.1143 193.029C55.9603 192.969 55.1412 192.671 54.2941 192.364C51.9832 191.529 49.9501 190.789 46.6772 189.594C46.0458 189.363 45.0629 189.007 44.493 188.802C43.9231 188.598 43.3309 188.382 43.1769 188.322C42.857 188.199 40.6085 187.38 39.0324 186.813C38.4471 186.602 37.628 186.305 37.2122 186.152C36.7964 185.999 35.9899 185.706 35.42 185.5C34.8501 185.294 34.2957 185.092 34.1879 185.05C34.08 185.009 32.5609 184.456 30.8119 183.82C29.0629 183.185 27.5381 182.629 27.4235 182.585C27.3089 182.541 26.7488 182.337 26.179 182.132C25.6092 181.926 25.0547 181.725 24.9468 181.684C24.839 181.642 24.0451 181.354 23.1826 181.043C22.3201 180.732 21.4885 180.43 21.3344 180.371C21.1804 180.312 20.3613 180.013 19.5142 179.706C17.2848 178.899 16.9012 178.744 15.8447 178.224C11.6279 176.147 8.5355 173.22 6.37624 169.26C4.38595 165.611 3.27999 161.55 2.84348 156.288C2.71175 154.7 2.71282 150.403 2.8455 148.391C3.09338 144.632 3.53387 141.25 4.20247 137.974C6.57293 126.358 11.3653 115.274 18.7583 104.309C22.0048 99.4942 26.1792 94.1704 29.8081 90.217L30.3329 89.6453L30.5443 89.7851C30.6606 89.8621 31.005 90.0148 31.3096 90.1246ZM91.693 118.008C91.3233 118.144 91.026 118.395 90.0541 119.389C86.2567 123.273 83.2338 127.043 80.8183 130.908C78.3525 134.853 76.6645 138.486 75.4317 142.502C74.491 145.565 73.9729 148.341 73.606 152.283C73.5052 153.366 73.5056 158.025 73.6064 158.976C73.8611 161.379 74.1287 162.838 74.6149 164.474C75.47 167.352 77.0574 169.915 78.9835 171.527C83.6524 175.435 90.6591 175.397 99.5056 171.415C108.056 167.567 115.64 161.764 122.095 154.132C124.55 151.228 127.809 146.871 128.253 145.899C128.582 145.18 128.64 144.577 128.425 144.128C128.323 143.913 128.337 143.924 123.854 140.737C121.694 139.202 118.488 136.922 115.005 134.445C113.85 133.624 111.279 131.797 109.292 130.385C107.305 128.974 104.911 127.272 103.972 126.604C103.032 125.936 101.419 124.79 100.387 124.058C98.886 122.991 96.5412 121.258 95.2728 120.276C94.7759 119.891 93.6283 118.97 93.0998 118.532C92.331 117.894 92.1686 117.834 91.693 118.008ZM91.8498 120.266C92.6997 120.979 94.2728 122.216 95.6827 123.28C97.1829 124.412 97.6569 124.753 103.104 128.62C104.767 129.801 106.569 131.083 107.108 131.468C107.647 131.853 108.769 132.65 109.6 133.239C111.115 134.312 115.763 137.615 120.437 140.941C121.808 141.916 123.845 143.365 124.963 144.159C126.214 145.048 126.986 145.632 126.97 145.675C126.913 145.823 125.809 147.36 124.636 148.923C120.904 153.898 117.376 157.669 113.241 161.105C107.45 165.916 100.17 169.921 94.1705 171.596C87.5547 173.444 82.1134 172.324 78.8735 168.448C76.9259 166.117 75.7908 163.233 75.2671 159.284C74.931 156.75 74.9423 152.81 75.2944 149.735C75.3707 149.069 75.5616 147.726 75.6326 147.355C75.8149 146.404 75.9826 145.574 76.0516 145.283C76.3598 143.981 76.4784 143.529 76.7799 142.51C78.7375 135.894 82.9294 128.945 88.7898 122.602C89.845 121.46 91.3316 119.94 91.3932 119.94C91.4307 119.94 91.6362 120.087 91.8498 120.266Z"/>
</mask>
<path fill-rule="evenodd" clip-rule="evenodd" d="M81.2611 1.04371C76.04 1.36428 71.609 2.60841 66.3914 5.21858C64.9393 5.94498 61.7925 7.70884 60.8468 8.32642C60.585 8.4974 60.3078 8.67018 60.2307 8.7104C60.1537 8.75061 59.9521 8.88239 59.7827 9.00325C59.6133 9.12411 59.1596 9.43002 58.7746 9.683C57.2568 10.6802 56.0806 11.523 54.1314 13.0099C53.2423 13.6882 53.0788 13.8183 52.38 14.4038C52.1544 14.5928 51.8438 14.8425 51.6898 14.9585C51.5358 15.0746 51.2208 15.3377 50.9897 15.5433C50.7587 15.7489 50.3807 16.0808 50.1496 16.2809C49.9186 16.4809 49.6528 16.7183 49.559 16.8085C49.4651 16.8987 49.1249 17.2119 48.8029 17.5045C47.7962 18.4192 45.5589 20.6295 44.5507 21.705C44.2337 22.0433 41.7363 24.8782 41.2446 25.4579C41.0752 25.6576 40.8777 25.8841 40.8057 25.9613C40.7338 26.0384 40.6126 26.1978 40.5364 26.3156C40.4603 26.4334 40.2924 26.6354 40.1632 26.7645C40.0341 26.8936 39.7773 27.2105 39.5925 27.4688C39.4076 27.727 39.1856 28.0165 39.0992 28.112C39.0127 28.2076 38.8996 28.3487 38.8479 28.4258C38.7961 28.5028 38.5393 28.8525 38.277 29.2029C38.0148 29.5533 37.7066 29.9692 37.592 30.127C37.4775 30.2848 37.3319 30.4806 37.2684 30.5621C37.0745 30.8109 36.892 31.0738 36.7302 31.3372C36.6454 31.4754 36.5301 31.6377 36.474 31.6978C36.418 31.758 36.3721 31.8245 36.3721 31.8456C36.3721 31.8666 36.1768 32.1502 35.9381 32.4758C35.6994 32.8014 35.4032 33.2263 35.28 33.42C34.9046 34.0101 34.533 34.6039 34.4095 34.8105C34.3451 34.9183 34.2374 35.0985 34.1702 35.211C34.1029 35.3235 33.9503 35.5851 33.831 35.7924C33.7117 35.9996 33.5441 36.2731 33.4586 36.4C33.373 36.5268 33.2571 36.7315 33.2009 36.8547C33.1448 36.9779 33.0297 37.1828 32.9453 37.3099C32.8608 37.4371 32.6373 37.8403 32.4486 38.206C32.26 38.5717 32.0691 38.9117 32.0246 38.9615C31.9801 39.0114 31.8334 39.2774 31.6987 39.5525C31.5639 39.8277 31.4136 40.0862 31.3646 40.1269C31.3156 40.1675 31.2755 40.2486 31.2755 40.307C31.2755 40.3655 31.2122 40.5136 31.1348 40.6362C31.0574 40.7588 31.0074 40.8591 31.0237 40.8591C31.0686 40.8591 30.7823 41.4058 30.7258 41.4279C30.6989 41.4385 30.4615 41.8883 30.1983 42.4273C28.126 46.672 26.4229 51.1187 25.3436 55.1024C23.9658 60.1882 23.3232 64.817 23.3228 69.6594C23.3226 72.1096 23.4601 73.6584 23.8612 75.723C24.2235 77.5882 24.9465 79.9996 25.5459 81.3422C26.3663 83.1795 27.8769 85.9508 29.0331 87.7398C29.1575 87.9323 29.2593 88.1144 29.2593 88.1446C29.2593 88.1858 28.4418 89.1248 28.2494 89.3045C28.1724 89.3764 26.5643 91.225 25.8377 92.0768C20.6443 98.1654 15.6729 105.292 12.2054 111.618C12.0886 111.831 11.8195 112.323 11.6074 112.71C11.1758 113.499 9.33382 117.161 9.04174 117.812C8.93796 118.043 8.75953 118.433 8.64522 118.68C6.62233 123.041 4.57598 128.86 3.36355 133.7C2.14301 138.572 1.50644 142.58 1.10617 147.915C0.964863 149.799 0.964527 155.132 1.10566 156.68C1.27032 158.487 1.43526 159.693 1.73349 161.272C2.76838 166.752 5.1627 171.68 8.3956 174.987C10.1602 176.791 11.935 178.129 14.2216 179.379C15.6754 180.174 16.382 180.455 22.3425 182.612C22.9278 182.823 23.8855 183.171 24.4708 183.384C25.056 183.597 26.417 184.091 27.4951 184.482C28.5732 184.873 29.5519 185.23 29.67 185.275C29.7881 185.321 30.8886 185.722 32.1156 186.167C33.3427 186.612 34.4432 187.014 34.5613 187.059C34.6793 187.105 35.7462 187.493 36.9322 187.923C38.1181 188.353 42.2514 189.857 46.1172 191.264C49.983 192.672 53.3728 193.906 53.65 194.006C55.2678 194.593 58.1473 195.64 58.5786 195.799C58.8558 195.902 60.0025 196.319 61.1268 196.725C62.2512 197.132 63.3601 197.564 63.5911 197.685C65.8981 198.894 67.5183 199.539 69.6099 200.083C72.0878 200.727 74.2819 201.001 76.9486 201C81.34 200.999 85.4314 200.202 90.6981 198.322C93.2523 197.41 96.5634 195.88 99.8551 194.089C102.145 192.844 105.541 190.738 108.256 188.881C110.945 187.041 115.115 183.846 117.105 182.101C117.197 182.02 117.702 181.581 118.225 181.125C120.353 179.274 121.496 178.19 124.022 175.629C126.424 173.193 128.59 170.822 130.407 168.637C130.791 168.175 131.12 167.785 131.137 167.769C131.172 167.738 132.839 165.676 133.491 164.857C135.273 162.62 137.949 158.911 139.788 156.131C140.259 155.418 140.6 154.956 140.642 154.971C140.729 155.003 141.574 155.549 144.522 157.48C146.822 158.988 147.268 159.279 149.617 160.808C150.279 161.239 150.906 161.621 151.011 161.656C151.27 161.744 151.71 161.736 152.08 161.637C152.501 161.526 152.679 161.43 155.161 159.985C155.362 159.868 155.941 159.534 156.449 159.242C156.958 158.949 157.941 158.382 158.634 157.982C160.385 156.97 162.488 155.754 163.814 154.989C167.037 153.128 170.211 151.296 171.683 150.447C174.532 148.805 174.466 148.847 175.028 148.312C175.898 147.484 176.497 146.516 176.865 145.339C177.286 143.995 177.223 142.843 176.692 142.146C176.552 141.963 176.042 141.607 171.067 138.214C169.912 137.427 168.412 136.403 167.735 135.94C165.971 134.735 165.073 134.123 163.422 132.998C160.174 130.785 159.09 130.045 158.69 129.769C158.347 129.534 155.228 127.401 155.028 127.267C154.993 127.243 155.081 126.954 155.259 126.511C158.018 119.625 159.644 114.81 161.938 106.722C163.285 101.971 164.425 97.0542 165.462 91.5168C165.723 90.122 166.191 87.2234 166.447 85.4121C166.568 84.557 166.628 84.1138 166.814 82.6958C167.005 81.2467 166.984 80.6463 166.72 80.0582C166.582 79.7514 166.164 79.2794 166.03 79.2794C165.999 79.2794 165.873 79.1303 165.75 78.948C165.377 78.3988 164.975 78.1249 164.066 77.8004C163.774 77.6959 162.173 77.1138 160.51 76.5068C158.846 75.8998 157.221 75.3078 156.897 75.1912C156.574 75.0746 155.749 74.7748 155.063 74.525C154.378 74.2752 153.256 73.8665 152.571 73.6166C151.886 73.3668 151.06 73.0671 150.737 72.9506C150.413 72.8341 148.372 72.0907 146.2 71.2985C144.029 70.5064 141.987 69.7628 141.664 69.646C141.34 69.5293 140.231 69.1269 139.2 68.7518C138.168 68.3767 136.907 67.9187 136.399 67.7341C135.891 67.5495 135.349 67.3505 135.195 67.2919C135.041 67.2334 132.584 66.338 129.734 65.3022C126.885 64.2664 122.689 62.7368 120.409 61.9031L116.265 60.3874L115.649 60.3823C114.894 60.3762 114.782 60.4148 113.633 61.0767C113.171 61.3429 112.188 61.9101 111.448 62.3372C109.837 63.268 108.741 63.9008 107.5 64.6171C106.992 64.9104 106.336 65.2886 106.044 65.4576C105.751 65.6265 104.995 66.0631 104.364 66.4277C103.175 67.1141 102.215 67.6684 100.583 68.6113C100.06 68.9139 99.4547 69.2607 99.2391 69.382C99.0234 69.5033 98.701 69.7158 98.5225 69.8542C98.2319 70.0795 98.201 70.092 98.227 69.974C98.243 69.9016 98.3209 69.4895 98.4002 69.0583C99.1728 64.8522 101.116 60.8129 104.064 57.2849C106.31 54.596 108.766 52.3672 111.616 50.429C112.745 49.6619 114.541 48.5702 115.327 48.1742L115.621 48.0259L116.643 48.3971C117.205 48.6012 117.93 48.8637 118.253 48.9804C119.53 49.441 124.906 51.3984 125.17 51.4984C125.324 51.5568 125.866 51.7556 126.374 51.9402C129.548 53.0926 131.804 53.9145 132.731 54.2557C133.653 54.5953 133.858 54.6512 134.271 54.6753C134.55 54.6916 134.851 54.676 134.999 54.6375C135.138 54.6013 135.414 54.5468 135.614 54.5161C136.323 54.4074 136.873 54.1445 137.544 53.5921C137.931 53.2741 138.266 52.8906 138.961 51.9709C139.214 51.6351 140.248 50.2725 141.257 48.9429C142.266 47.6134 143.974 45.362 145.052 43.9399C146.13 42.5177 147.441 40.7908 147.964 40.1023C151.242 35.7932 151.139 35.9369 151.526 35.1182C151.791 34.556 151.992 33.8665 152.081 33.2128C152.201 32.3269 152.055 31.781 151.244 30.0779C149.581 26.589 147.268 23.9671 144.212 22.1084C143.108 21.4367 142.849 21.2893 142.227 20.9773C140.712 20.2175 139.171 19.7054 137.433 19.3836C137.031 19.3092 136.527 19.182 136.312 19.1011C136.098 19.0201 135.469 18.7896 134.915 18.5888C134.361 18.388 133.403 18.0391 132.787 17.8134C132.171 17.5876 131.062 17.1841 130.323 16.9168C129.583 16.6494 128.474 16.2458 127.858 16.0198C126.509 15.5247 123.544 14.4466 119.681 13.0467C118.11 12.4773 116.724 11.9724 116.602 11.9247C116.41 11.8506 114.331 11.0921 113.465 10.7803C113.311 10.7249 112.416 10.3984 111.476 10.0548C110.537 9.71117 109.289 9.25819 108.704 9.04828C108.119 8.83831 107.539 8.62807 107.416 8.58102C107.293 8.53403 106.776 8.34468 106.268 8.1603C105.76 7.97587 104.827 7.6362 104.196 7.4054C103.564 7.17459 102.443 6.76698 101.703 6.49961C100.964 6.23223 99.8551 5.82871 99.2391 5.60295C98.623 5.37713 97.4133 4.93597 96.5508 4.62256C95.6883 4.3092 93.7842 3.61652 92.3196 3.08328C88.9526 1.85742 88.2814 1.64712 86.8897 1.38181C85.124 1.04516 83.1591 0.9271 81.2611 1.04371ZM85.3215 2.9123C86.3742 3.05119 87.4709 3.28015 88.3459 3.54366C88.6077 3.62251 89.7544 4.02548 90.8941 4.43908C92.0339 4.85274 93.0924 5.23655 93.2464 5.29211C93.9337 5.53977 96.2106 6.36934 96.3987 6.44052C96.5131 6.48387 97.0226 6.67015 97.5309 6.85446C98.0391 7.03878 98.8456 7.33231 99.3231 7.50671C99.8005 7.68117 101.615 8.3398 103.356 8.97043C105.096 9.60106 106.62 10.1559 106.743 10.2034C107.009 10.306 110.192 11.4639 114.025 12.8521C114.887 13.1646 115.681 13.4542 115.789 13.4958C115.897 13.5373 117.283 14.0419 118.869 14.617C120.456 15.1921 121.854 15.7013 121.977 15.7485C122.1 15.7956 122.788 16.0468 123.505 16.3066C124.223 16.5663 124.903 16.8143 125.018 16.8577C125.132 16.901 125.642 17.0876 126.15 17.2723C126.658 17.457 127.603 17.8007 128.25 18.0361C128.897 18.2715 129.824 18.6073 130.31 18.7822C130.903 18.9955 131.161 19.1124 131.094 19.137C131.04 19.1571 130.654 19.203 130.239 19.239C127.011 19.5179 123.073 20.6233 119.32 22.3038C114.927 24.2707 109.608 27.5585 104.896 31.2202C103.816 32.0589 101.85 33.6892 101.031 34.4235C97.7897 37.3323 95.059 40.1061 92.7098 42.8766C84.8544 52.1401 79.0632 62.6112 75.9924 73.1032C75.2222 75.7344 74.4902 79.1362 74.1751 81.5477C74.1469 81.7633 74.0993 82.1287 74.0693 82.3597C73.5817 86.1179 73.5384 90.3251 73.9567 93.309C74.2649 95.5076 75.0217 98.3932 75.7193 100.03C76.1985 101.154 77.5008 103.679 78.2824 105C78.4238 105.239 78.5328 105.434 78.5248 105.434C78.5168 105.434 76.8105 104.815 74.7331 104.058C72.6557 103.301 70.6157 102.559 70.1999 102.41C69.784 102.26 69.2043 102.051 68.9117 101.944C68.6191 101.837 67.674 101.494 66.8115 101.181C65.949 100.868 65.1173 100.564 64.9633 100.505C64.7091 100.407 56.5006 97.4196 52.8099 96.0811C48.8512 94.6454 45.6501 93.4801 45.1931 93.3082C44.9159 93.204 44.2228 92.9509 43.6529 92.7457C43.0831 92.5406 42.5286 92.3386 42.4208 92.2968C42.313 92.2551 41.5191 91.9655 40.6566 91.6535C39.7941 91.3413 38.8616 91.0034 38.5843 90.9024C38.3071 90.8013 37.7527 90.6008 37.3522 90.4566C36.9518 90.3125 36.5359 90.1609 36.4281 90.1198C36.3203 90.0787 35.35 89.7254 34.2719 89.3347C33.1938 88.944 32.1331 88.5575 31.9148 88.4758L31.5181 88.3273L30.9658 87.4858C29.5224 85.2861 28.0947 82.7152 27.1708 80.6516C26.3556 78.8307 25.5927 75.9609 25.2875 73.5668C24.8288 69.9681 25.0746 65.0706 25.9525 60.3213C27.0237 54.5266 28.9915 48.8309 31.9995 42.8194C38.0591 30.709 46.8399 20.3646 57.6265 12.6291C62.5121 9.1254 67.6218 6.29412 71.7846 4.78408C75.0052 3.61573 77.5069 3.08821 81.1491 2.80925C81.8573 2.75503 84.6528 2.82403 85.3215 2.9123ZM134.859 21.0947C137.858 21.3678 140.317 22.2185 143.05 23.9288C144.784 25.014 145.789 25.8472 146.983 27.187C148.282 28.6445 149.605 30.8259 150.402 32.8222C150.569 33.2401 150.579 33.3043 150.553 33.7744C150.507 34.5885 150.349 34.8917 149.139 36.4804C148.725 37.0251 147.075 39.1972 145.473 41.3072C143.872 43.4172 142.025 45.8487 141.37 46.7106C139.86 48.6985 138.306 50.75 137.954 51.2203C137.191 52.2412 136.506 52.673 135.907 52.5117C135.623 52.4351 135.465 52.2519 135.111 51.5843C133.361 48.2882 131.187 45.9296 128.788 44.7263C127.647 44.1541 126.421 43.822 125.02 43.7059C122.941 43.5336 120.31 44.1033 117.567 45.3197C113.44 47.1498 108.688 50.4528 105.68 53.5818C102.633 56.7505 100.885 59.1577 99.3219 62.3375C97.8098 65.4127 96.9501 68.4278 96.5434 72.0826C96.3993 73.3775 96.3965 76.7149 96.5386 77.7112C96.8735 80.0586 97.4701 82.0982 98.4002 84.0762C99.1413 85.6521 101.062 88.4625 102.892 90.6487C104.469 92.5318 106.041 94.1561 108.368 96.3044C109.709 97.5429 111.617 99.0465 115.369 101.822C115.862 102.186 116.542 102.69 116.881 102.941C118.299 103.992 118.72 104.296 120.829 105.792C124.132 108.135 127.352 110.421 129.986 112.294C131.28 113.214 133.41 114.726 134.719 115.654C136.028 116.582 137.668 117.746 138.364 118.241C139.059 118.737 139.686 119.172 139.756 119.21C139.974 119.327 140.404 119.29 140.698 119.13C141.151 118.883 141.645 118.353 141.904 117.838C142.162 117.323 143.726 112.158 144.464 109.383C145.929 103.872 147.031 98.502 147.907 92.6019C148.089 91.372 148.24 90.9405 148.697 90.3357C149.108 89.7928 149.104 89.7955 151.241 88.5628C151.965 88.1451 153.376 87.331 154.377 86.7535C155.378 86.1761 156.758 85.3797 157.444 84.9838C159.039 84.0621 160.827 83.0299 162.526 82.0496C164.201 81.0834 164.225 81.0716 164.559 81.0716C164.902 81.0716 165.173 81.241 165.317 81.5452C165.49 81.9096 165.473 82.1576 165.075 85.1321C164.504 89.3961 163.336 95.7225 162.38 99.7183C161.631 102.854 160.961 105.408 160.171 108.151C159.905 109.075 159.629 110.032 159.559 110.279C159.355 110.991 158.97 112.282 158.915 112.435C158.888 112.512 158.736 112.991 158.578 113.499C157.367 117.395 155.529 122.518 154.038 126.157C153.548 127.352 153.48 127.587 153.474 128.092C153.467 128.771 153.57 128.905 154.657 129.63C154.95 129.825 155.668 130.312 156.253 130.712C158.354 132.148 159.964 133.247 160.775 133.8C161.229 134.109 161.822 134.513 162.091 134.697C163.563 135.704 166.258 137.542 166.867 137.954C167.252 138.215 167.907 138.661 168.323 138.945C170.558 140.471 174.407 143.097 174.83 143.384C175.484 143.829 175.604 144.016 175.604 144.599C175.604 145.393 175.279 146.17 174.685 146.797C174.361 147.14 173.976 147.392 172.573 148.181C172.438 148.257 172.025 148.494 171.655 148.709C171.285 148.923 170.466 149.396 169.835 149.761C167.87 150.895 164.824 152.654 162.736 153.86C161.635 154.496 160.419 155.198 160.034 155.42C159.001 156.014 157.563 156.844 156.925 157.213C156.617 157.391 156.05 157.719 155.665 157.941C155.28 158.163 154.562 158.578 154.069 158.863C152.464 159.791 152.592 159.731 152.221 159.731C151.894 159.732 151.866 159.72 151.213 159.289C150.583 158.872 146.653 156.301 145.164 155.331C144.795 155.091 143.837 154.464 143.036 153.939C141.618 153.01 141.572 152.985 141.284 152.984C140.915 152.983 140.529 153.169 140.136 153.534C139.96 153.699 139.448 154.407 138.753 155.448C136.727 158.483 134.849 161.077 132.651 163.877C131.99 164.72 129.771 167.43 129.41 167.836C129.32 167.938 128.897 168.424 128.471 168.917C128.044 169.41 127.604 169.914 127.492 170.037C127.379 170.161 127.026 170.551 126.706 170.906C125.047 172.742 122.122 175.737 120.437 177.322C119.659 178.055 118.21 179.346 117.066 180.326C109.151 187.106 100.156 192.781 92.4063 195.885C91.4626 196.263 91.1894 196.364 89.998 196.78C88.5854 197.272 86.2454 197.945 85.1255 198.18C84.4558 198.32 83.9747 198.417 83.7254 198.461C83.5713 198.488 83.2311 198.548 82.9693 198.594C80.8718 198.963 78.1729 199.14 76.3435 199.028C73.4399 198.849 71.1723 198.43 68.7437 197.621C65.3642 196.496 62.0576 194.418 59.642 191.902C57.9425 190.131 56.2898 187.473 55.1932 184.748C54.0004 181.783 53.3197 178.718 52.9677 174.729C52.8459 173.349 52.8281 168.37 52.9395 166.817C53.1368 164.066 53.3907 161.592 53.6203 160.18C53.9875 157.924 54.1191 157.181 54.3581 156.008C54.6277 154.685 54.7825 154 55.1366 152.564C56.5576 146.799 58.9125 140.436 61.7075 134.81C63.0985 132.009 64.5149 129.459 66.3269 126.493C69.8103 120.789 74.7337 114.214 79.3815 109.056C79.8163 108.574 80.2717 108.037 80.3935 107.863C80.8297 107.24 81.0881 106.276 80.9643 105.733C80.935 105.605 80.6341 105.05 80.2957 104.501C78.5561 101.677 77.2946 99.1652 76.66 97.2612C75.6122 94.1174 75.1853 91.3907 75.1863 87.8484C75.1875 83.2973 75.7901 78.9403 77.1072 73.9588C77.6777 71.8008 78.754 68.6406 79.7202 66.286C80.5731 64.2077 82.2689 60.633 83.2804 58.7811C84.941 55.7412 86.6296 53.0099 88.3998 50.5004C88.7552 49.9966 89.0837 49.5294 89.13 49.4621C89.1762 49.3948 89.2791 49.2525 89.3587 49.1459C89.4383 49.0393 89.6894 48.7 89.9166 48.392C90.7056 47.3225 92.5636 44.9906 93.4199 43.9955C98.7186 37.8367 104.718 32.6399 111.504 28.3311C113.76 26.8989 115.593 25.8602 117.553 24.9026C119.226 24.0857 119.633 23.9045 121.025 23.3585C124.319 22.0668 127.125 21.4006 130.463 21.1177C132.107 20.9784 133.501 20.9711 134.859 21.0947ZM124.974 45.7366C127.867 46.1836 130.228 47.8241 132.344 50.8565C132.9 51.6532 133.457 52.5568 133.417 52.5968C133.403 52.6107 133.054 52.499 132.641 52.3484C132.228 52.1979 131.291 51.8567 130.559 51.5903C129.826 51.3238 129.133 51.07 129.018 51.0261C128.828 50.953 126.501 50.1066 125.086 49.5958C124.763 49.4791 124.12 49.2459 123.658 49.0777C123.196 48.9095 122.351 48.6027 121.782 48.3959C121.212 48.1891 120.342 47.8725 119.849 47.6923C119.357 47.5121 118.721 47.2808 118.436 47.1783C118.152 47.0757 117.919 46.9762 117.918 46.9572C117.917 46.913 118.791 46.5798 119.501 46.3535C120.673 45.9803 121.916 45.725 122.902 45.6549C123.345 45.6234 124.548 45.6708 124.974 45.7366ZM116.725 62.4433C118.09 62.9336 121.426 64.1453 121.686 64.2454C121.803 64.2902 122.912 64.6946 124.15 65.1439C125.389 65.5932 126.919 66.1495 127.55 66.3802C128.182 66.6109 129.114 66.9504 129.622 67.1347C130.131 67.319 130.673 67.5175 130.827 67.5758C130.981 67.6342 132.09 68.0381 133.291 68.4733C134.492 68.9086 135.979 69.4494 136.595 69.6751C137.582 70.0369 138.163 70.2481 140.292 71.0199C144.266 72.461 145.828 73.0295 146.06 73.1193C146.214 73.1788 148.256 73.9222 150.597 74.7712C152.938 75.6202 154.979 76.3627 155.133 76.4211C155.287 76.4796 155.835 76.6804 156.351 76.8673C158.683 77.7122 159.178 77.892 159.362 77.961C159.47 78.0015 160.478 78.3681 161.602 78.7757C162.726 79.1833 163.666 79.5353 163.691 79.558C163.716 79.5807 163.199 79.9094 162.543 80.2884C160.395 81.5295 158.566 82.5867 157.654 83.1146C157.161 83.3999 156.43 83.8222 156.029 84.0529C155.629 84.2837 154.482 84.9457 153.481 85.5239C152.48 86.1022 151.157 86.8645 150.541 87.2179C149.925 87.5713 149.221 88.0133 148.977 88.2001L148.533 88.5396L148.053 88.3669C147.238 88.0738 144.815 87.1927 141.16 85.8598C139.235 85.1578 137.281 84.4479 136.819 84.2822C136.357 84.1164 135.853 83.9328 135.699 83.8742C135.545 83.8156 135.003 83.6168 134.495 83.4325C133.987 83.2482 133.054 82.9085 132.423 82.6777C131.791 82.4469 130.67 82.0393 129.93 81.772C129.191 81.5046 128.082 81.1009 127.466 80.8749C126.85 80.6488 125.754 80.2495 125.03 79.9874C124.306 79.7254 122.945 79.2303 122.006 78.8872C121.066 78.5441 120.134 78.205 119.933 78.1337C119.733 78.0624 117.213 77.1455 114.333 76.0961C111.453 75.0468 108.567 73.9961 107.92 73.7613C106.585 73.2767 105.109 72.7386 104.448 72.4954C104.201 72.4048 103.147 72.0209 102.106 71.6422C101.064 71.2636 100.207 70.9349 100.202 70.9118C100.196 70.8888 100.846 70.4914 101.647 70.0287C102.448 69.566 103.608 68.8962 104.224 68.5402C104.84 68.1842 105.659 67.7114 106.044 67.4894C106.429 67.2675 106.983 66.9476 107.276 66.7785C107.569 66.6094 108.325 66.1728 108.956 65.8083C109.588 65.4439 110.634 64.8399 111.28 64.4662C115.578 61.9833 115.381 62.0917 115.605 62.0877C115.674 62.0865 116.178 62.2465 116.725 62.4433ZM101.059 73.1319C105.174 74.6312 106.149 74.9864 107.248 75.3851C107.648 75.5303 108.493 75.8373 109.124 76.067C109.756 76.2968 111.558 76.951 113.129 77.5207C114.7 78.0904 116.086 78.5954 116.208 78.6429C116.331 78.6904 117.019 78.9418 117.737 79.2016C118.454 79.4613 119.135 79.7099 119.249 79.7538C119.364 79.7978 120.024 80.039 120.717 80.2899C121.411 80.5408 122.671 80.9987 123.518 81.3073C124.365 81.616 125.323 81.9638 125.646 82.0802C126.808 82.4985 132.289 84.4934 132.563 84.5977C132.717 84.6563 133.271 84.859 133.795 85.048C134.319 85.2371 134.873 85.4396 135.027 85.4979C135.181 85.5564 135.862 85.8042 136.539 86.0486C137.217 86.2932 138.994 86.9391 140.488 87.484C141.982 88.029 143.544 88.5966 143.96 88.7454C145.283 89.2184 147.342 89.98 147.368 90.0052C147.381 90.0185 147.277 90.2655 147.137 90.5541C146.718 91.4155 146.608 91.8437 146.338 93.673C145.273 100.892 143.633 108.09 141.458 115.095C141.257 115.742 141.033 116.467 140.961 116.705C140.889 116.943 140.81 117.175 140.785 117.219C140.737 117.304 140.931 117.441 126.633 107.278C126.052 106.865 125.485 106.462 125.373 106.382C125.261 106.303 124.868 106.024 124.498 105.763C121.903 103.927 120.033 102.595 119.457 102.173C119.088 101.902 118.571 101.524 118.309 101.333C116.932 100.328 112.647 97.1128 112.064 96.648C109.103 94.2832 105.817 91.0373 103.666 88.3524C102.145 86.4545 100.583 84.1487 99.9171 82.8189C99.3647 81.716 98.7484 80.0266 98.4567 78.8156C98.1074 77.366 97.9775 76.377 97.9389 74.8729C97.9126 73.8504 97.9253 73.4911 98.0106 72.8411C98.0979 72.176 98.1278 72.0571 98.2006 72.0866C98.2481 72.1059 99.5345 72.5763 101.059 73.1319ZM31.3096 90.1246C31.6143 90.2343 32.0904 90.4065 32.3677 90.5074C32.6449 90.6082 33.884 91.0586 35.1213 91.5084C36.3586 91.9581 37.4675 92.3627 37.5856 92.4075C37.7037 92.4522 38.2287 92.6436 38.7524 92.8327C39.276 93.0219 39.8305 93.2244 39.9845 93.2828C40.1385 93.3412 42.1799 94.0838 44.521 94.933C46.8621 95.7823 48.9035 96.5254 49.0575 96.5844C49.2115 96.6433 49.6573 96.8059 50.0482 96.9456C50.4391 97.0853 50.8549 97.236 50.9723 97.2805C51.0897 97.325 51.6016 97.5125 52.1098 97.6972C52.6181 97.8819 53.8782 98.3399 54.9102 98.7149C55.9421 99.0899 57.7567 99.7483 58.9426 100.178C60.1285 100.608 61.2249 101.008 61.3789 101.067C61.61 101.156 66.8114 103.051 68.0716 103.506C68.2718 103.578 68.9145 103.811 69.4998 104.024C70.085 104.236 71.446 104.73 72.5241 105.122C73.6022 105.513 74.6733 105.904 74.9044 105.99C75.1354 106.077 76.1497 106.447 77.1583 106.813C78.1669 107.179 78.9923 107.5 78.9925 107.526C78.9927 107.553 78.783 107.805 78.5266 108.087C78.2702 108.368 77.6076 109.128 77.0543 109.775C70.2236 117.76 64.8485 125.759 60.6281 134.219C59.2463 136.989 58.1899 139.383 57.0562 142.313C54.0455 150.094 52.2163 157.867 51.5797 165.585C51.3838 167.96 51.358 168.663 51.3582 171.606C51.3584 174.686 51.394 175.446 51.6338 177.486C52.2009 182.312 53.5382 186.462 55.6678 190.005C56.3677 191.169 57.4556 192.633 58.2346 193.458C58.4767 193.714 58.6488 193.924 58.6171 193.924C58.5657 193.924 56.8395 193.306 56.1143 193.029C55.9603 192.969 55.1412 192.671 54.2941 192.364C51.9832 191.529 49.9501 190.789 46.6772 189.594C46.0458 189.363 45.0629 189.007 44.493 188.802C43.9231 188.598 43.3309 188.382 43.1769 188.322C42.857 188.199 40.6085 187.38 39.0324 186.813C38.4471 186.602 37.628 186.305 37.2122 186.152C36.7964 185.999 35.9899 185.706 35.42 185.5C34.8501 185.294 34.2957 185.092 34.1879 185.05C34.08 185.009 32.5609 184.456 30.8119 183.82C29.0629 183.185 27.5381 182.629 27.4235 182.585C27.3089 182.541 26.7488 182.337 26.179 182.132C25.6092 181.926 25.0547 181.725 24.9468 181.684C24.839 181.642 24.0451 181.354 23.1826 181.043C22.3201 180.732 21.4885 180.43 21.3344 180.371C21.1804 180.312 20.3613 180.013 19.5142 179.706C17.2848 178.899 16.9012 178.744 15.8447 178.224C11.6279 176.147 8.5355 173.22 6.37624 169.26C4.38595 165.611 3.27999 161.55 2.84348 156.288C2.71175 154.7 2.71282 150.403 2.8455 148.391C3.09338 144.632 3.53387 141.25 4.20247 137.974C6.57293 126.358 11.3653 115.274 18.7583 104.309C22.0048 99.4942 26.1792 94.1704 29.8081 90.217L30.3329 89.6453L30.5443 89.7851C30.6606 89.8621 31.005 90.0148 31.3096 90.1246ZM91.693 118.008C91.3233 118.144 91.026 118.395 90.0541 119.389C86.2567 123.273 83.2338 127.043 80.8183 130.908C78.3525 134.853 76.6645 138.486 75.4317 142.502C74.491 145.565 73.9729 148.341 73.606 152.283C73.5052 153.366 73.5056 158.025 73.6064 158.976C73.8611 161.379 74.1287 162.838 74.6149 164.474C75.47 167.352 77.0574 169.915 78.9835 171.527C83.6524 175.435 90.6591 175.397 99.5056 171.415C108.056 167.567 115.64 161.764 122.095 154.132C124.55 151.228 127.809 146.871 128.253 145.899C128.582 145.18 128.64 144.577 128.425 144.128C128.323 143.913 128.337 143.924 123.854 140.737C121.694 139.202 118.488 136.922 115.005 134.445C113.85 133.624 111.279 131.797 109.292 130.385C107.305 128.974 104.911 127.272 103.972 126.604C103.032 125.936 101.419 124.79 100.387 124.058C98.886 122.991 96.5412 121.258 95.2728 120.276C94.7759 119.891 93.6283 118.97 93.0998 118.532C92.331 117.894 92.1686 117.834 91.693 118.008ZM91.8498 120.266C92.6997 120.979 94.2728 122.216 95.6827 123.28C97.1829 124.412 97.6569 124.753 103.104 128.62C104.767 129.801 106.569 131.083 107.108 131.468C107.647 131.853 108.769 132.65 109.6 133.239C111.115 134.312 115.763 137.615 120.437 140.941C121.808 141.916 123.845 143.365 124.963 144.159C126.214 145.048 126.986 145.632 126.97 145.675C126.913 145.823 125.809 147.36 124.636 148.923C120.904 153.898 117.376 157.669 113.241 161.105C107.45 165.916 100.17 169.921 94.1705 171.596C87.5547 173.444 82.1134 172.324 78.8735 168.448C76.9259 166.117 75.7908 163.233 75.2671 159.284C74.931 156.75 74.9423 152.81 75.2944 149.735C75.3707 149.069 75.5616 147.726 75.6326 147.355C75.8149 146.404 75.9826 145.574 76.0516 145.283C76.3598 143.981 76.4784 143.529 76.7799 142.51C78.7375 135.894 82.9294 128.945 88.7898 122.602C89.845 121.46 91.3316 119.94 91.3932 119.94C91.4307 119.94 91.6362 120.087 91.8498 120.266Z" fill="#FCF8FD"/>
<path fill-rule="evenodd" clip-rule="evenodd" d="M81.2611 1.04371C76.04 1.36428 71.609 2.60841 66.3914 5.21858C64.9393 5.94498 61.7925 7.70884 60.8468 8.32642C60.585 8.4974 60.3078 8.67018 60.2307 8.7104C60.1537 8.75061 59.9521 8.88239 59.7827 9.00325C59.6133 9.12411 59.1596 9.43002 58.7746 9.683C57.2568 10.6802 56.0806 11.523 54.1314 13.0099C53.2423 13.6882 53.0788 13.8183 52.38 14.4038C52.1544 14.5928 51.8438 14.8425 51.6898 14.9585C51.5358 15.0746 51.2208 15.3377 50.9897 15.5433C50.7587 15.7489 50.3807 16.0808 50.1496 16.2809C49.9186 16.4809 49.6528 16.7183 49.559 16.8085C49.4651 16.8987 49.1249 17.2119 48.8029 17.5045C47.7962 18.4192 45.5589 20.6295 44.5507 21.705C44.2337 22.0433 41.7363 24.8782 41.2446 25.4579C41.0752 25.6576 40.8777 25.8841 40.8057 25.9613C40.7338 26.0384 40.6126 26.1978 40.5364 26.3156C40.4603 26.4334 40.2924 26.6354 40.1632 26.7645C40.0341 26.8936 39.7773 27.2105 39.5925 27.4688C39.4076 27.727 39.1856 28.0165 39.0992 28.112C39.0127 28.2076 38.8996 28.3487 38.8479 28.4258C38.7961 28.5028 38.5393 28.8525 38.277 29.2029C38.0148 29.5533 37.7066 29.9692 37.592 30.127C37.4775 30.2848 37.3319 30.4806 37.2684 30.5621C37.0745 30.8109 36.892 31.0738 36.7302 31.3372C36.6454 31.4754 36.5301 31.6377 36.474 31.6978C36.418 31.758 36.3721 31.8245 36.3721 31.8456C36.3721 31.8666 36.1768 32.1502 35.9381 32.4758C35.6994 32.8014 35.4032 33.2263 35.28 33.42C34.9046 34.0101 34.533 34.6039 34.4095 34.8105C34.3451 34.9183 34.2374 35.0985 34.1702 35.211C34.1029 35.3235 33.9503 35.5851 33.831 35.7924C33.7117 35.9996 33.5441 36.2731 33.4586 36.4C33.373 36.5268 33.2571 36.7315 33.2009 36.8547C33.1448 36.9779 33.0297 37.1828 32.9453 37.3099C32.8608 37.4371 32.6373 37.8403 32.4486 38.206C32.26 38.5717 32.0691 38.9117 32.0246 38.9615C31.9801 39.0114 31.8334 39.2774 31.6987 39.5525C31.5639 39.8277 31.4136 40.0862 31.3646 40.1269C31.3156 40.1675 31.2755 40.2486 31.2755 40.307C31.2755 40.3655 31.2122 40.5136 31.1348 40.6362C31.0574 40.7588 31.0074 40.8591 31.0237 40.8591C31.0686 40.8591 30.7823 41.4058 30.7258 41.4279C30.6989 41.4385 30.4615 41.8883 30.1983 42.4273C28.126 46.672 26.4229 51.1187 25.3436 55.1024C23.9658 60.1882 23.3232 64.817 23.3228 69.6594C23.3226 72.1096 23.4601 73.6584 23.8612 75.723C24.2235 77.5882 24.9465 79.9996 25.5459 81.3422C26.3663 83.1795 27.8769 85.9508 29.0331 87.7398C29.1575 87.9323 29.2593 88.1144 29.2593 88.1446C29.2593 88.1858 28.4418 89.1248 28.2494 89.3045C28.1724 89.3764 26.5643 91.225 25.8377 92.0768C20.6443 98.1654 15.6729 105.292 12.2054 111.618C12.0886 111.831 11.8195 112.323 11.6074 112.71C11.1758 113.499 9.33382 117.161 9.04174 117.812C8.93796 118.043 8.75953 118.433 8.64522 118.68C6.62233 123.041 4.57598 128.86 3.36355 133.7C2.14301 138.572 1.50644 142.58 1.10617 147.915C0.964863 149.799 0.964527 155.132 1.10566 156.68C1.27032 158.487 1.43526 159.693 1.73349 161.272C2.76838 166.752 5.1627 171.68 8.3956 174.987C10.1602 176.791 11.935 178.129 14.2216 179.379C15.6754 180.174 16.382 180.455 22.3425 182.612C22.9278 182.823 23.8855 183.171 24.4708 183.384C25.056 183.597 26.417 184.091 27.4951 184.482C28.5732 184.873 29.5519 185.23 29.67 185.275C29.7881 185.321 30.8886 185.722 32.1156 186.167C33.3427 186.612 34.4432 187.014 34.5613 187.059C34.6793 187.105 35.7462 187.493 36.9322 187.923C38.1181 188.353 42.2514 189.857 46.1172 191.264C49.983 192.672 53.3728 193.906 53.65 194.006C55.2678 194.593 58.1473 195.64 58.5786 195.799C58.8558 195.902 60.0025 196.319 61.1268 196.725C62.2512 197.132 63.3601 197.564 63.5911 197.685C65.8981 198.894 67.5183 199.539 69.6099 200.083C72.0878 200.727 74.2819 201.001 76.9486 201C81.34 200.999 85.4314 200.202 90.6981 198.322C93.2523 197.41 96.5634 195.88 99.8551 194.089C102.145 192.844 105.541 190.738 108.256 188.881C110.945 187.041 115.115 183.846 117.105 182.101C117.197 182.02 117.702 181.581 118.225 181.125C120.353 179.274 121.496 178.19 124.022 175.629C126.424 173.193 128.59 170.822 130.407 168.637C130.791 168.175 131.12 167.785 131.137 167.769C131.172 167.738 132.839 165.676 133.491 164.857C135.273 162.62 137.949 158.911 139.788 156.131C140.259 155.418 140.6 154.956 140.642 154.971C140.729 155.003 141.574 155.549 144.522 157.48C146.822 158.988 147.268 159.279 149.617 160.808C150.279 161.239 150.906 161.621 151.011 161.656C151.27 161.744 151.71 161.736 152.08 161.637C152.501 161.526 152.679 161.43 155.161 159.985C155.362 159.868 155.941 159.534 156.449 159.242C156.958 158.949 157.941 158.382 158.634 157.982C160.385 156.97 162.488 155.754 163.814 154.989C167.037 153.128 170.211 151.296 171.683 150.447C174.532 148.805 174.466 148.847 175.028 148.312C175.898 147.484 176.497 146.516 176.865 145.339C177.286 143.995 177.223 142.843 176.692 142.146C176.552 141.963 176.042 141.607 171.067 138.214C169.912 137.427 168.412 136.403 167.735 135.94C165.971 134.735 165.073 134.123 163.422 132.998C160.174 130.785 159.09 130.045 158.69 129.769C158.347 129.534 155.228 127.401 155.028 127.267C154.993 127.243 155.081 126.954 155.259 126.511C158.018 119.625 159.644 114.81 161.938 106.722C163.285 101.971 164.425 97.0542 165.462 91.5168C165.723 90.122 166.191 87.2234 166.447 85.4121C166.568 84.557 166.628 84.1138 166.814 82.6958C167.005 81.2467 166.984 80.6463 166.72 80.0582C166.582 79.7514 166.164 79.2794 166.03 79.2794C165.999 79.2794 165.873 79.1303 165.75 78.948C165.377 78.3988 164.975 78.1249 164.066 77.8004C163.774 77.6959 162.173 77.1138 160.51 76.5068C158.846 75.8998 157.221 75.3078 156.897 75.1912C156.574 75.0746 155.749 74.7748 155.063 74.525C154.378 74.2752 153.256 73.8665 152.571 73.6166C151.886 73.3668 151.06 73.0671 150.737 72.9506C150.413 72.8341 148.372 72.0907 146.2 71.2985C144.029 70.5064 141.987 69.7628 141.664 69.646C141.34 69.5293 140.231 69.1269 139.2 68.7518C138.168 68.3767 136.907 67.9187 136.399 67.7341C135.891 67.5495 135.349 67.3505 135.195 67.2919C135.041 67.2334 132.584 66.338 129.734 65.3022C126.885 64.2664 122.689 62.7368 120.409 61.9031L116.265 60.3874L115.649 60.3823C114.894 60.3762 114.782 60.4148 113.633 61.0767C113.171 61.3429 112.188 61.9101 111.448 62.3372C109.837 63.268 108.741 63.9008 107.5 64.6171C106.992 64.9104 106.336 65.2886 106.044 65.4576C105.751 65.6265 104.995 66.0631 104.364 66.4277C103.175 67.1141 102.215 67.6684 100.583 68.6113C100.06 68.9139 99.4547 69.2607 99.2391 69.382C99.0234 69.5033 98.701 69.7158 98.5225 69.8542C98.2319 70.0795 98.201 70.092 98.227 69.974C98.243 69.9016 98.3209 69.4895 98.4002 69.0583C99.1728 64.8522 101.116 60.8129 104.064 57.2849C106.31 54.596 108.766 52.3672 111.616 50.429C112.745 49.6619 114.541 48.5702 115.327 48.1742L115.621 48.0259L116.643 48.3971C117.205 48.6012 117.93 48.8637 118.253 48.9804C119.53 49.441 124.906 51.3984 125.17 51.4984C125.324 51.5568 125.866 51.7556 126.374 51.9402C129.548 53.0926 131.804 53.9145 132.731 54.2557C133.653 54.5953 133.858 54.6512 134.271 54.6753C134.55 54.6916 134.851 54.676 134.999 54.6375C135.138 54.6013 135.414 54.5468 135.614 54.5161C136.323 54.4074 136.873 54.1445 137.544 53.5921C137.931 53.2741 138.266 52.8906 138.961 51.9709C139.214 51.6351 140.248 50.2725 141.257 48.9429C142.266 47.6134 143.974 45.362 145.052 43.9399C146.13 42.5177 147.441 40.7908 147.964 40.1023C151.242 35.7932 151.139 35.9369 151.526 35.1182C151.791 34.556 151.992 33.8665 152.081 33.2128C152.201 32.3269 152.055 31.781 151.244 30.0779C149.581 26.589 147.268 23.9671 144.212 22.1084C143.108 21.4367 142.849 21.2893 142.227 20.9773C140.712 20.2175 139.171 19.7054 137.433 19.3836C137.031 19.3092 136.527 19.182 136.312 19.1011C136.098 19.0201 135.469 18.7896 134.915 18.5888C134.361 18.388 133.403 18.0391 132.787 17.8134C132.171 17.5876 131.062 17.1841 130.323 16.9168C129.583 16.6494 128.474 16.2458 127.858 16.0198C126.509 15.5247 123.544 14.4466 119.681 13.0467C118.11 12.4773 116.724 11.9724 116.602 11.9247C116.41 11.8506 114.331 11.0921 113.465 10.7803C113.311 10.7249 112.416 10.3984 111.476 10.0548C110.537 9.71117 109.289 9.25819 108.704 9.04828C108.119 8.83831 107.539 8.62807 107.416 8.58102C107.293 8.53403 106.776 8.34468 106.268 8.1603C105.76 7.97587 104.827 7.6362 104.196 7.4054C103.564 7.17459 102.443 6.76698 101.703 6.49961C100.964 6.23223 99.8551 5.82871 99.2391 5.60295C98.623 5.37713 97.4133 4.93597 96.5508 4.62256C95.6883 4.3092 93.7842 3.61652 92.3196 3.08328C88.9526 1.85742 88.2814 1.64712 86.8897 1.38181C85.124 1.04516 83.1591 0.9271 81.2611 1.04371ZM85.3215 2.9123C86.3742 3.05119 87.4709 3.28015 88.3459 3.54366C88.6077 3.62251 89.7544 4.02548 90.8941 4.43908C92.0339 4.85274 93.0924 5.23655 93.2464 5.29211C93.9337 5.53977 96.2106 6.36934 96.3987 6.44052C96.5131 6.48387 97.0226 6.67015 97.5309 6.85446C98.0391 7.03878 98.8456 7.33231 99.3231 7.50671C99.8005 7.68117 101.615 8.3398 103.356 8.97043C105.096 9.60106 106.62 10.1559 106.743 10.2034C107.009 10.306 110.192 11.4639 114.025 12.8521C114.887 13.1646 115.681 13.4542 115.789 13.4958C115.897 13.5373 117.283 14.0419 118.869 14.617C120.456 15.1921 121.854 15.7013 121.977 15.7485C122.1 15.7956 122.788 16.0468 123.505 16.3066C124.223 16.5663 124.903 16.8143 125.018 16.8577C125.132 16.901 125.642 17.0876 126.15 17.2723C126.658 17.457 127.603 17.8007 128.25 18.0361C128.897 18.2715 129.824 18.6073 130.31 18.7822C130.903 18.9955 131.161 19.1124 131.094 19.137C131.04 19.1571 130.654 19.203 130.239 19.239C127.011 19.5179 123.073 20.6233 119.32 22.3038C114.927 24.2707 109.608 27.5585 104.896 31.2202C103.816 32.0589 101.85 33.6892 101.031 34.4235C97.7897 37.3323 95.059 40.1061 92.7098 42.8766C84.8544 52.1401 79.0632 62.6112 75.9924 73.1032C75.2222 75.7344 74.4902 79.1362 74.1751 81.5477C74.1469 81.7633 74.0993 82.1287 74.0693 82.3597C73.5817 86.1179 73.5384 90.3251 73.9567 93.309C74.2649 95.5076 75.0217 98.3932 75.7193 100.03C76.1985 101.154 77.5008 103.679 78.2824 105C78.4238 105.239 78.5328 105.434 78.5248 105.434C78.5168 105.434 76.8105 104.815 74.7331 104.058C72.6557 103.301 70.6157 102.559 70.1999 102.41C69.784 102.26 69.2043 102.051 68.9117 101.944C68.6191 101.837 67.674 101.494 66.8115 101.181C65.949 100.868 65.1173 100.564 64.9633 100.505C64.7091 100.407 56.5006 97.4196 52.8099 96.0811C48.8512 94.6454 45.6501 93.4801 45.1931 93.3082C44.9159 93.204 44.2228 92.9509 43.6529 92.7457C43.0831 92.5406 42.5286 92.3386 42.4208 92.2968C42.313 92.2551 41.5191 91.9655 40.6566 91.6535C39.7941 91.3413 38.8616 91.0034 38.5843 90.9024C38.3071 90.8013 37.7527 90.6008 37.3522 90.4566C36.9518 90.3125 36.5359 90.1609 36.4281 90.1198C36.3203 90.0787 35.35 89.7254 34.2719 89.3347C33.1938 88.944 32.1331 88.5575 31.9148 88.4758L31.5181 88.3273L30.9658 87.4858C29.5224 85.2861 28.0947 82.7152 27.1708 80.6516C26.3556 78.8307 25.5927 75.9609 25.2875 73.5668C24.8288 69.9681 25.0746 65.0706 25.9525 60.3213C27.0237 54.5266 28.9915 48.8309 31.9995 42.8194C38.0591 30.709 46.8399 20.3646 57.6265 12.6291C62.5121 9.1254 67.6218 6.29412 71.7846 4.78408C75.0052 3.61573 77.5069 3.08821 81.1491 2.80925C81.8573 2.75503 84.6528 2.82403 85.3215 2.9123ZM134.859 21.0947C137.858 21.3678 140.317 22.2185 143.05 23.9288C144.784 25.014 145.789 25.8472 146.983 27.187C148.282 28.6445 149.605 30.8259 150.402 32.8222C150.569 33.2401 150.579 33.3043 150.553 33.7744C150.507 34.5885 150.349 34.8917 149.139 36.4804C148.725 37.0251 147.075 39.1972 145.473 41.3072C143.872 43.4172 142.025 45.8487 141.37 46.7106C139.86 48.6985 138.306 50.75 137.954 51.2203C137.191 52.2412 136.506 52.673 135.907 52.5117C135.623 52.4351 135.465 52.2519 135.111 51.5843C133.361 48.2882 131.187 45.9296 128.788 44.7263C127.647 44.1541 126.421 43.822 125.02 43.7059C122.941 43.5336 120.31 44.1033 117.567 45.3197C113.44 47.1498 108.688 50.4528 105.68 53.5818C102.633 56.7505 100.885 59.1577 99.3219 62.3375C97.8098 65.4127 96.9501 68.4278 96.5434 72.0826C96.3993 73.3775 96.3965 76.7149 96.5386 77.7112C96.8735 80.0586 97.4701 82.0982 98.4002 84.0762C99.1413 85.6521 101.062 88.4625 102.892 90.6487C104.469 92.5318 106.041 94.1561 108.368 96.3044C109.709 97.5429 111.617 99.0465 115.369 101.822C115.862 102.186 116.542 102.69 116.881 102.941C118.299 103.992 118.72 104.296 120.829 105.792C124.132 108.135 127.352 110.421 129.986 112.294C131.28 113.214 133.41 114.726 134.719 115.654C136.028 116.582 137.668 117.746 138.364 118.241C139.059 118.737 139.686 119.172 139.756 119.21C139.974 119.327 140.404 119.29 140.698 119.13C141.151 118.883 141.645 118.353 141.904 117.838C142.162 117.323 143.726 112.158 144.464 109.383C145.929 103.872 147.031 98.502 147.907 92.6019C148.089 91.372 148.24 90.9405 148.697 90.3357C149.108 89.7928 149.104 89.7955 151.241 88.5628C151.965 88.1451 153.376 87.331 154.377 86.7535C155.378 86.1761 156.758 85.3797 157.444 84.9838C159.039 84.0621 160.827 83.0299 162.526 82.0496C164.201 81.0834 164.225 81.0716 164.559 81.0716C164.902 81.0716 165.173 81.241 165.317 81.5452C165.49 81.9096 165.473 82.1576 165.075 85.1321C164.504 89.3961 163.336 95.7225 162.38 99.7183C161.631 102.854 160.961 105.408 160.171 108.151C159.905 109.075 159.629 110.032 159.559 110.279C159.355 110.991 158.97 112.282 158.915 112.435C158.888 112.512 158.736 112.991 158.578 113.499C157.367 117.395 155.529 122.518 154.038 126.157C153.548 127.352 153.48 127.587 153.474 128.092C153.467 128.771 153.57 128.905 154.657 129.63C154.95 129.825 155.668 130.312 156.253 130.712C158.354 132.148 159.964 133.247 160.775 133.8C161.229 134.109 161.822 134.513 162.091 134.697C163.563 135.704 166.258 137.542 166.867 137.954C167.252 138.215 167.907 138.661 168.323 138.945C170.558 140.471 174.407 143.097 174.83 143.384C175.484 143.829 175.604 144.016 175.604 144.599C175.604 145.393 175.279 146.17 174.685 146.797C174.361 147.14 173.976 147.392 172.573 148.181C172.438 148.257 172.025 148.494 171.655 148.709C171.285 148.923 170.466 149.396 169.835 149.761C167.87 150.895 164.824 152.654 162.736 153.86C161.635 154.496 160.419 155.198 160.034 155.42C159.001 156.014 157.563 156.844 156.925 157.213C156.617 157.391 156.05 157.719 155.665 157.941C155.28 158.163 154.562 158.578 154.069 158.863C152.464 159.791 152.592 159.731 152.221 159.731C151.894 159.732 151.866 159.72 151.213 159.289C150.583 158.872 146.653 156.301 145.164 155.331C144.795 155.091 143.837 154.464 143.036 153.939C141.618 153.01 141.572 152.985 141.284 152.984C140.915 152.983 140.529 153.169 140.136 153.534C139.96 153.699 139.448 154.407 138.753 155.448C136.727 158.483 134.849 161.077 132.651 163.877C131.99 164.72 129.771 167.43 129.41 167.836C129.32 167.938 128.897 168.424 128.471 168.917C128.044 169.41 127.604 169.914 127.492 170.037C127.379 170.161 127.026 170.551 126.706 170.906C125.047 172.742 122.122 175.737 120.437 177.322C119.659 178.055 118.21 179.346 117.066 180.326C109.151 187.106 100.156 192.781 92.4063 195.885C91.4626 196.263 91.1894 196.364 89.998 196.78C88.5854 197.272 86.2454 197.945 85.1255 198.18C84.4558 198.32 83.9747 198.417 83.7254 198.461C83.5713 198.488 83.2311 198.548 82.9693 198.594C80.8718 198.963 78.1729 199.14 76.3435 199.028C73.4399 198.849 71.1723 198.43 68.7437 197.621C65.3642 196.496 62.0576 194.418 59.642 191.902C57.9425 190.131 56.2898 187.473 55.1932 184.748C54.0004 181.783 53.3197 178.718 52.9677 174.729C52.8459 173.349 52.8281 168.37 52.9395 166.817C53.1368 164.066 53.3907 161.592 53.6203 160.18C53.9875 157.924 54.1191 157.181 54.3581 156.008C54.6277 154.685 54.7825 154 55.1366 152.564C56.5576 146.799 58.9125 140.436 61.7075 134.81C63.0985 132.009 64.5149 129.459 66.3269 126.493C69.8103 120.789 74.7337 114.214 79.3815 109.056C79.8163 108.574 80.2717 108.037 80.3935 107.863C80.8297 107.24 81.0881 106.276 80.9643 105.733C80.935 105.605 80.6341 105.05 80.2957 104.501C78.5561 101.677 77.2946 99.1652 76.66 97.2612C75.6122 94.1174 75.1853 91.3907 75.1863 87.8484C75.1875 83.2973 75.7901 78.9403 77.1072 73.9588C77.6777 71.8008 78.754 68.6406 79.7202 66.286C80.5731 64.2077 82.2689 60.633 83.2804 58.7811C84.941 55.7412 86.6296 53.0099 88.3998 50.5004C88.7552 49.9966 89.0837 49.5294 89.13 49.4621C89.1762 49.3948 89.2791 49.2525 89.3587 49.1459C89.4383 49.0393 89.6894 48.7 89.9166 48.392C90.7056 47.3225 92.5636 44.9906 93.4199 43.9955C98.7186 37.8367 104.718 32.6399 111.504 28.3311C113.76 26.8989 115.593 25.8602 117.553 24.9026C119.226 24.0857 119.633 23.9045 121.025 23.3585C124.319 22.0668 127.125 21.4006 130.463 21.1177C132.107 20.9784 133.501 20.9711 134.859 21.0947ZM124.974 45.7366C127.867 46.1836 130.228 47.8241 132.344 50.8565C132.9 51.6532 133.457 52.5568 133.417 52.5968C133.403 52.6107 133.054 52.499 132.641 52.3484C132.228 52.1979 131.291 51.8567 130.559 51.5903C129.826 51.3238 129.133 51.07 129.018 51.0261C128.828 50.953 126.501 50.1066 125.086 49.5958C124.763 49.4791 124.12 49.2459 123.658 49.0777C123.196 48.9095 122.351 48.6027 121.782 48.3959C121.212 48.1891 120.342 47.8725 119.849 47.6923C119.357 47.5121 118.721 47.2808 118.436 47.1783C118.152 47.0757 117.919 46.9762 117.918 46.9572C117.917 46.913 118.791 46.5798 119.501 46.3535C120.673 45.9803 121.916 45.725 122.902 45.6549C123.345 45.6234 124.548 45.6708 124.974 45.7366ZM116.725 62.4433C118.09 62.9336 121.426 64.1453 121.686 64.2454C121.803 64.2902 122.912 64.6946 124.15 65.1439C125.389 65.5932 126.919 66.1495 127.55 66.3802C128.182 66.6109 129.114 66.9504 129.622 67.1347C130.131 67.319 130.673 67.5175 130.827 67.5758C130.981 67.6342 132.09 68.0381 133.291 68.4733C134.492 68.9086 135.979 69.4494 136.595 69.6751C137.582 70.0369 138.163 70.2481 140.292 71.0199C144.266 72.461 145.828 73.0295 146.06 73.1193C146.214 73.1788 148.256 73.9222 150.597 74.7712C152.938 75.6202 154.979 76.3627 155.133 76.4211C155.287 76.4796 155.835 76.6804 156.351 76.8673C158.683 77.7122 159.178 77.892 159.362 77.961C159.47 78.0015 160.478 78.3681 161.602 78.7757C162.726 79.1833 163.666 79.5353 163.691 79.558C163.716 79.5807 163.199 79.9094 162.543 80.2884C160.395 81.5295 158.566 82.5867 157.654 83.1146C157.161 83.3999 156.43 83.8222 156.029 84.0529C155.629 84.2837 154.482 84.9457 153.481 85.5239C152.48 86.1022 151.157 86.8645 150.541 87.2179C149.925 87.5713 149.221 88.0133 148.977 88.2001L148.533 88.5396L148.053 88.3669C147.238 88.0738 144.815 87.1927 141.16 85.8598C139.235 85.1578 137.281 84.4479 136.819 84.2822C136.357 84.1164 135.853 83.9328 135.699 83.8742C135.545 83.8156 135.003 83.6168 134.495 83.4325C133.987 83.2482 133.054 82.9085 132.423 82.6777C131.791 82.4469 130.67 82.0393 129.93 81.772C129.191 81.5046 128.082 81.1009 127.466 80.8749C126.85 80.6488 125.754 80.2495 125.03 79.9874C124.306 79.7254 122.945 79.2303 122.006 78.8872C121.066 78.5441 120.134 78.205 119.933 78.1337C119.733 78.0624 117.213 77.1455 114.333 76.0961C111.453 75.0468 108.567 73.9961 107.92 73.7613C106.585 73.2767 105.109 72.7386 104.448 72.4954C104.201 72.4048 103.147 72.0209 102.106 71.6422C101.064 71.2636 100.207 70.9349 100.202 70.9118C100.196 70.8888 100.846 70.4914 101.647 70.0287C102.448 69.566 103.608 68.8962 104.224 68.5402C104.84 68.1842 105.659 67.7114 106.044 67.4894C106.429 67.2675 106.983 66.9476 107.276 66.7785C107.569 66.6094 108.325 66.1728 108.956 65.8083C109.588 65.4439 110.634 64.8399 111.28 64.4662C115.578 61.9833 115.381 62.0917 115.605 62.0877C115.674 62.0865 116.178 62.2465 116.725 62.4433ZM101.059 73.1319C105.174 74.6312 106.149 74.9864 107.248 75.3851C107.648 75.5303 108.493 75.8373 109.124 76.067C109.756 76.2968 111.558 76.951 113.129 77.5207C114.7 78.0904 116.086 78.5954 116.208 78.6429C116.331 78.6904 117.019 78.9418 117.737 79.2016C118.454 79.4613 119.135 79.7099 119.249 79.7538C119.364 79.7978 120.024 80.039 120.717 80.2899C121.411 80.5408 122.671 80.9987 123.518 81.3073C124.365 81.616 125.323 81.9638 125.646 82.0802C126.808 82.4985 132.289 84.4934 132.563 84.5977C132.717 84.6563 133.271 84.859 133.795 85.048C134.319 85.2371 134.873 85.4396 135.027 85.4979C135.181 85.5564 135.862 85.8042 136.539 86.0486C137.217 86.2932 138.994 86.9391 140.488 87.484C141.982 88.029 143.544 88.5966 143.96 88.7454C145.283 89.2184 147.342 89.98 147.368 90.0052C147.381 90.0185 147.277 90.2655 147.137 90.5541C146.718 91.4155 146.608 91.8437 146.338 93.673C145.273 100.892 143.633 108.09 141.458 115.095C141.257 115.742 141.033 116.467 140.961 116.705C140.889 116.943 140.81 117.175 140.785 117.219C140.737 117.304 140.931 117.441 126.633 107.278C126.052 106.865 125.485 106.462 125.373 106.382C125.261 106.303 124.868 106.024 124.498 105.763C121.903 103.927 120.033 102.595 119.457 102.173C119.088 101.902 118.571 101.524 118.309 101.333C116.932 100.328 112.647 97.1128 112.064 96.648C109.103 94.2832 105.817 91.0373 103.666 88.3524C102.145 86.4545 100.583 84.1487 99.9171 82.8189C99.3647 81.716 98.7484 80.0266 98.4567 78.8156C98.1074 77.366 97.9775 76.377 97.9389 74.8729C97.9126 73.8504 97.9253 73.4911 98.0106 72.8411C98.0979 72.176 98.1278 72.0571 98.2006 72.0866C98.2481 72.1059 99.5345 72.5763 101.059 73.1319ZM31.3096 90.1246C31.6143 90.2343 32.0904 90.4065 32.3677 90.5074C32.6449 90.6082 33.884 91.0586 35.1213 91.5084C36.3586 91.9581 37.4675 92.3627 37.5856 92.4075C37.7037 92.4522 38.2287 92.6436 38.7524 92.8327C39.276 93.0219 39.8305 93.2244 39.9845 93.2828C40.1385 93.3412 42.1799 94.0838 44.521 94.933C46.8621 95.7823 48.9035 96.5254 49.0575 96.5844C49.2115 96.6433 49.6573 96.8059 50.0482 96.9456C50.4391 97.0853 50.8549 97.236 50.9723 97.2805C51.0897 97.325 51.6016 97.5125 52.1098 97.6972C52.6181 97.8819 53.8782 98.3399 54.9102 98.7149C55.9421 99.0899 57.7567 99.7483 58.9426 100.178C60.1285 100.608 61.2249 101.008 61.3789 101.067C61.61 101.156 66.8114 103.051 68.0716 103.506C68.2718 103.578 68.9145 103.811 69.4998 104.024C70.085 104.236 71.446 104.73 72.5241 105.122C73.6022 105.513 74.6733 105.904 74.9044 105.99C75.1354 106.077 76.1497 106.447 77.1583 106.813C78.1669 107.179 78.9923 107.5 78.9925 107.526C78.9927 107.553 78.783 107.805 78.5266 108.087C78.2702 108.368 77.6076 109.128 77.0543 109.775C70.2236 117.76 64.8485 125.759 60.6281 134.219C59.2463 136.989 58.1899 139.383 57.0562 142.313C54.0455 150.094 52.2163 157.867 51.5797 165.585C51.3838 167.96 51.358 168.663 51.3582 171.606C51.3584 174.686 51.394 175.446 51.6338 177.486C52.2009 182.312 53.5382 186.462 55.6678 190.005C56.3677 191.169 57.4556 192.633 58.2346 193.458C58.4767 193.714 58.6488 193.924 58.6171 193.924C58.5657 193.924 56.8395 193.306 56.1143 193.029C55.9603 192.969 55.1412 192.671 54.2941 192.364C51.9832 191.529 49.9501 190.789 46.6772 189.594C46.0458 189.363 45.0629 189.007 44.493 188.802C43.9231 188.598 43.3309 188.382 43.1769 188.322C42.857 188.199 40.6085 187.38 39.0324 186.813C38.4471 186.602 37.628 186.305 37.2122 186.152C36.7964 185.999 35.9899 185.706 35.42 185.5C34.8501 185.294 34.2957 185.092 34.1879 185.05C34.08 185.009 32.5609 184.456 30.8119 183.82C29.0629 183.185 27.5381 182.629 27.4235 182.585C27.3089 182.541 26.7488 182.337 26.179 182.132C25.6092 181.926 25.0547 181.725 24.9468 181.684C24.839 181.642 24.0451 181.354 23.1826 181.043C22.3201 180.732 21.4885 180.43 21.3344 180.371C21.1804 180.312 20.3613 180.013 19.5142 179.706C17.2848 178.899 16.9012 178.744 15.8447 178.224C11.6279 176.147 8.5355 173.22 6.37624 169.26C4.38595 165.611 3.27999 161.55 2.84348 156.288C2.71175 154.7 2.71282 150.403 2.8455 148.391C3.09338 144.632 3.53387 141.25 4.20247 137.974C6.57293 126.358 11.3653 115.274 18.7583 104.309C22.0048 99.4942 26.1792 94.1704 29.8081 90.217L30.3329 89.6453L30.5443 89.7851C30.6606 89.8621 31.005 90.0148 31.3096 90.1246ZM91.693 118.008C91.3233 118.144 91.026 118.395 90.0541 119.389C86.2567 123.273 83.2338 127.043 80.8183 130.908C78.3525 134.853 76.6645 138.486 75.4317 142.502C74.491 145.565 73.9729 148.341 73.606 152.283C73.5052 153.366 73.5056 158.025 73.6064 158.976C73.8611 161.379 74.1287 162.838 74.6149 164.474C75.47 167.352 77.0574 169.915 78.9835 171.527C83.6524 175.435 90.6591 175.397 99.5056 171.415C108.056 167.567 115.64 161.764 122.095 154.132C124.55 151.228 127.809 146.871 128.253 145.899C128.582 145.18 128.64 144.577 128.425 144.128C128.323 143.913 128.337 143.924 123.854 140.737C121.694 139.202 118.488 136.922 115.005 134.445C113.85 133.624 111.279 131.797 109.292 130.385C107.305 128.974 104.911 127.272 103.972 126.604C103.032 125.936 101.419 124.79 100.387 124.058C98.886 122.991 96.5412 121.258 95.2728 120.276C94.7759 119.891 93.6283 118.97 93.0998 118.532C92.331 117.894 92.1686 117.834 91.693 118.008ZM91.8498 120.266C92.6997 120.979 94.2728 122.216 95.6827 123.28C97.1829 124.412 97.6569 124.753 103.104 128.62C104.767 129.801 106.569 131.083 107.108 131.468C107.647 131.853 108.769 132.65 109.6 133.239C111.115 134.312 115.763 137.615 120.437 140.941C121.808 141.916 123.845 143.365 124.963 144.159C126.214 145.048 126.986 145.632 126.97 145.675C126.913 145.823 125.809 147.36 124.636 148.923C120.904 153.898 117.376 157.669 113.241 161.105C107.45 165.916 100.17 169.921 94.1705 171.596C87.5547 173.444 82.1134 172.324 78.8735 168.448C76.9259 166.117 75.7908 163.233 75.2671 159.284C74.931 156.75 74.9423 152.81 75.2944 149.735C75.3707 149.069 75.5616 147.726 75.6326 147.355C75.8149 146.404 75.9826 145.574 76.0516 145.283C76.3598 143.981 76.4784 143.529 76.7799 142.51C78.7375 135.894 82.9294 128.945 88.7898 122.602C89.845 121.46 91.3316 119.94 91.3932 119.94C91.4307 119.94 91.6362 120.087 91.8498 120.266Z" stroke="#FCF8FD" stroke-width="2" mask="url(#path-1-outside-1_18_1003)"/>
</svg>
