<svg width="217" height="217" viewBox="0 0 217 217" fill="none" xmlns="http://www.w3.org/2000/svg">
<path d="M120.591 80.5099L120.977 79.4478L120.591 80.5099L171.032 98.8691C171.606 99.0779 172.243 99.0222 172.771 98.7169L188.981 89.3585C190.5 88.4812 190.303 86.2288 188.654 85.6287L138.213 67.2695C137.639 67.0607 137.002 67.1164 136.474 67.4217L120.264 76.7801C118.745 77.6573 118.942 79.9098 120.591 80.5099Z" fill="#ECB9FF" stroke="#6421A6" stroke-width="2.26042" stroke-linejoin="round"/>
<mask id="path-2-outside-1_1147_78225" maskUnits="userSpaceOnUse" x="108.639" y="75.7617" width="66" height="56" fill="black">
<rect fill="white" x="108.639" y="75.7617" width="66" height="56"/>
<path fill-rule="evenodd" clip-rule="evenodd" d="M166.052 124.287C168.708 115.855 170.633 107.078 171.828 97.9561L119.092 78.7617C117.897 87.8836 115.971 96.6605 113.316 105.093L166.052 124.287ZM164.375 129.448C164.966 127.753 165.524 126.033 166.051 124.287L113.315 105.093C112.788 106.838 112.229 108.558 111.639 110.254L164.375 129.448Z"/>
</mask>
<path fill-rule="evenodd" clip-rule="evenodd" d="M166.052 124.287C168.708 115.855 170.633 107.078 171.828 97.9561L119.092 78.7617C117.897 87.8836 115.971 96.6605 113.316 105.093L166.052 124.287ZM164.375 129.448C164.966 127.753 165.524 126.033 166.051 124.287L113.315 105.093C112.788 106.838 112.229 108.558 111.639 110.254L164.375 129.448Z" fill="#DE86FF"/>
<path d="M171.828 97.9561L174.069 98.2498C174.207 97.1994 173.597 96.1943 172.601 95.832L171.828 97.9561ZM166.052 124.287L165.279 126.411C165.858 126.622 166.499 126.587 167.052 126.314C167.605 126.041 168.023 125.554 168.208 124.966L166.052 124.287ZM119.092 78.7617L119.865 76.6376C119.221 76.4031 118.505 76.4737 117.919 76.8296C117.332 77.1855 116.94 77.7882 116.851 78.4681L119.092 78.7617ZM113.316 105.093L111.16 104.414C110.796 105.567 111.406 106.803 112.543 107.217L113.316 105.093ZM166.051 124.287L168.215 124.941C168.562 123.793 167.952 122.573 166.825 122.163L166.051 124.287ZM164.375 129.448L163.602 131.572C164.17 131.779 164.798 131.749 165.344 131.49C165.891 131.231 166.31 130.763 166.509 130.192L164.375 129.448ZM113.315 105.093L114.088 102.969C113.504 102.756 112.859 102.794 112.303 103.072C111.748 103.35 111.331 103.845 111.151 104.44L113.315 105.093ZM111.639 110.254L109.504 109.51C109.097 110.677 109.704 111.955 110.866 112.378L111.639 110.254ZM169.587 97.6625C168.408 106.659 166.51 115.307 163.896 123.608L168.208 124.966C170.905 116.403 172.858 107.497 174.069 98.2498L169.587 97.6625ZM118.319 80.8858L171.055 100.08L172.601 95.832L119.865 76.6376L118.319 80.8858ZM115.472 105.772C118.169 97.2088 120.122 88.3026 121.333 79.0553L116.851 78.4681C115.672 87.4645 113.774 96.1122 111.16 104.414L115.472 105.772ZM166.825 122.163L114.089 102.968L112.543 107.217L165.279 126.411L166.825 122.163ZM163.887 123.634C163.37 125.349 162.82 127.039 162.24 128.704L166.509 130.192C167.111 128.466 167.679 126.716 168.215 124.941L163.887 123.634ZM112.542 107.217L165.278 126.411L166.825 122.163L114.088 102.969L112.542 107.217ZM113.773 110.997C114.375 109.272 114.943 107.522 115.479 105.746L111.151 104.44C110.633 106.155 110.084 107.845 109.504 109.51L113.773 110.997ZM165.148 127.324L112.412 108.13L110.866 112.378L163.602 131.572L165.148 127.324Z" fill="#6421A6" mask="url(#path-2-outside-1_1147_78225)"/>
<path d="M150.071 48.246L98.6432 29.5278C98.2033 29.3352 97.7544 29.1726 97.2968 29.0406C96.7114 28.8717 96.0975 29.1971 95.9088 29.7763C95.7201 30.3555 96.0244 30.9801 96.5968 31.1885L97.7984 31.6259C100.528 32.8468 103.013 35.6251 105.155 40.2447C105.384 40.7392 105.802 41.1343 106.329 41.3261L156.61 59.627C158.279 60.2343 160.02 58.5228 159.105 56.801C156.699 52.2726 153.716 49.3123 150.071 48.246Z" fill="#DE86FF" stroke="#6421A6" stroke-width="2.26042" stroke-linejoin="round"/>
<mask id="path-5-outside-2_1147_78225" maskUnits="userSpaceOnUse" x="46.9604" y="104.401" width="108" height="85" fill="black">
<rect fill="white" x="46.9604" y="104.401" width="108" height="85"/>
<path fill-rule="evenodd" clip-rule="evenodd" d="M120.241 132.568C117.596 130.675 115.035 128.684 112.558 126.596L59.8218 107.401C62.2987 109.49 64.8599 111.48 67.5055 113.374L67.5057 113.374L99.1044 135.831L151.841 155.026L120.242 132.569L120.242 132.568M142.749 166.946C146 163.291 149.03 159.317 151.841 155.026L99.1044 135.831C96.2942 140.123 93.2635 144.097 90.0122 147.752L90.0123 147.752C85.0994 153.194 79.6553 157.641 73.6802 161.09L73.6805 161.091C66.776 165.077 60.8009 167.147 55.7552 167.3L108.491 186.495C113.537 186.341 119.512 184.271 126.417 180.285L126.417 180.285C132.392 176.835 137.836 172.389 142.749 166.946L142.749 166.946ZM108.49 186.495C106.344 186.529 104.412 186.233 102.697 185.608L49.9666 166.416C51.6808 167.039 53.61 167.334 55.7542 167.301L108.49 186.495Z"/>
</mask>
<path fill-rule="evenodd" clip-rule="evenodd" d="M120.241 132.568C117.596 130.675 115.035 128.684 112.558 126.596L59.8218 107.401C62.2987 109.49 64.8599 111.48 67.5055 113.374L67.5057 113.374L99.1044 135.831L151.841 155.026L120.242 132.569L120.242 132.568M142.749 166.946C146 163.291 149.03 159.317 151.841 155.026L99.1044 135.831C96.2942 140.123 93.2635 144.097 90.0122 147.752L90.0123 147.752C85.0994 153.194 79.6553 157.641 73.6802 161.09L73.6805 161.091C66.776 165.077 60.8009 167.147 55.7552 167.3L108.491 186.495C113.537 186.341 119.512 184.271 126.417 180.285L126.417 180.285C132.392 176.835 137.836 172.389 142.749 166.946L142.749 166.946ZM108.49 186.495C106.344 186.529 104.412 186.233 102.697 185.608L49.9666 166.416C51.6808 167.039 53.61 167.334 55.7542 167.301L108.49 186.495Z" fill="#DE86FF"/>
<path d="M120.627 131.506L120.627 131.506L119.856 133.631L119.856 133.631L120.627 131.506ZM50.3529 165.354L50.3467 165.352L49.5742 167.476L49.5803 167.478L50.3529 165.354ZM112.558 126.596L114.015 124.867C113.812 124.696 113.581 124.562 113.331 124.471L112.558 126.596ZM59.8218 107.401L60.5949 105.277C59.565 104.902 58.4146 105.32 57.8655 106.269C57.3164 107.217 57.5268 108.423 58.3647 109.129L59.8218 107.401ZM67.5055 113.374L66.1899 115.212C66.3572 115.332 66.54 115.428 66.7334 115.499L67.5055 113.374ZM67.5057 113.374L68.8152 111.532C68.6496 111.414 68.4688 111.319 68.2779 111.25L67.5057 113.374ZM99.1044 135.831L97.795 137.674C97.9603 137.791 98.1407 137.886 98.3313 137.955L99.1044 135.831ZM151.841 155.026L151.068 157.15C152.131 157.537 153.316 157.078 153.842 156.076C154.368 155.075 154.072 153.838 153.15 153.183L151.841 155.026ZM120.242 132.569L118.138 133.396C118.299 133.804 118.575 134.157 118.932 134.411L120.242 132.569ZM151.841 155.026L153.732 156.264C154.11 155.687 154.203 154.968 153.986 154.313C153.768 153.657 153.262 153.138 152.614 152.902L151.841 155.026ZM142.749 166.946L141.06 165.444C140.555 166.011 140.369 166.795 140.565 167.529C140.761 168.264 141.313 168.85 142.034 169.09L142.749 166.946ZM99.1044 135.831L99.8775 133.707C98.8915 133.348 97.7882 133.715 97.2133 134.593L99.1044 135.831ZM90.0122 147.752L88.3232 146.25C87.8182 146.817 87.6322 147.601 87.8284 148.335C88.0245 149.069 88.5764 149.656 89.2974 149.896L90.0122 147.752ZM90.0123 147.752L91.6902 149.266C92.2014 148.7 92.3924 147.914 92.1982 147.176C92.004 146.439 91.4508 145.849 90.7271 145.607L90.0123 147.752ZM73.6802 161.09L72.55 159.133C71.7904 159.571 71.3531 160.41 71.4281 161.284C71.503 162.157 72.0767 162.909 72.8999 163.212L73.6802 161.09ZM73.6805 161.091L74.8107 163.048C75.5703 162.61 76.0076 161.771 75.9327 160.897C75.8577 160.023 75.284 159.272 74.4608 158.969L73.6805 161.091ZM55.7552 167.3L55.6864 165.041C54.6029 165.074 53.6954 165.872 53.5234 166.942C53.3514 168.012 53.9635 169.054 54.9821 169.424L55.7552 167.3ZM108.491 186.495L107.718 188.619C107.988 188.717 108.274 188.763 108.56 188.754L108.491 186.495ZM126.417 180.285L127.547 182.242C128.31 181.802 128.748 180.958 128.668 180.081C128.589 179.204 128.007 178.452 127.177 178.156L126.417 180.285ZM126.417 180.285L125.287 178.327C124.524 178.767 124.086 179.611 124.166 180.488C124.245 181.366 124.827 182.117 125.657 182.413L126.417 180.285ZM142.749 166.946L144.427 168.461C144.938 167.894 145.129 167.108 144.935 166.371C144.74 165.633 144.187 165.043 143.464 164.802L142.749 166.946ZM102.697 185.608L103.47 183.484L103.47 183.484L102.697 185.608ZM108.49 186.495L108.526 188.755C109.616 188.738 110.539 187.945 110.719 186.87C110.9 185.795 110.288 184.744 109.263 184.371L108.49 186.495ZM49.9666 166.416L50.7392 164.292C49.5661 163.865 48.2692 164.47 47.8424 165.643C47.4156 166.816 48.0205 168.113 49.1935 168.54L49.9666 166.416ZM55.7542 167.301L56.5273 165.177C56.2683 165.082 55.9943 165.036 55.7188 165.041L55.7542 167.301ZM111.101 128.324C113.624 130.451 116.232 132.478 118.926 134.406L121.557 130.73C118.96 128.871 116.446 126.917 114.015 124.867L111.101 128.324ZM59.0487 109.525L111.785 128.72L113.331 124.471L60.5949 105.277L59.0487 109.525ZM68.8212 111.536C66.2239 109.677 63.7099 107.723 61.2788 105.673L58.3647 109.129C60.8875 111.256 63.4959 113.284 66.1899 115.212L68.8212 111.536ZM68.2779 111.25L68.2776 111.25L66.7334 115.499L66.7336 115.499L68.2779 111.25ZM66.1963 115.217L97.795 137.674L100.414 133.989L68.8152 111.532L66.1963 115.217ZM98.3313 137.955L151.068 157.15L152.614 152.901L99.8775 133.707L98.3313 137.955ZM153.15 153.183L121.551 130.726L118.932 134.411L150.531 156.868L153.15 153.183ZM122.345 131.741L122.345 131.741L118.138 133.396L118.138 133.396L122.345 131.741ZM149.95 153.788C147.197 157.991 144.234 161.875 141.06 165.444L144.438 168.448C147.766 164.706 150.864 160.644 153.732 156.264L149.95 153.788ZM98.3313 137.956L151.068 157.15L152.614 152.902L99.8775 133.707L98.3313 137.956ZM91.7012 149.254C95.0297 145.512 98.1274 141.45 100.995 137.07L97.2133 134.593C94.461 138.796 91.4973 142.681 88.3232 146.25L91.7012 149.254ZM90.7271 145.607L90.727 145.607L89.2974 149.896L89.2975 149.896L90.7271 145.607ZM74.8104 163.048C81.0026 159.473 86.6289 154.873 91.6902 149.266L88.3344 146.237C83.5698 151.515 78.3081 155.808 72.55 159.133L74.8104 163.048ZM74.4608 158.969L74.4605 158.969L72.8999 163.212L72.9002 163.212L74.4608 158.969ZM55.824 169.56C61.3986 169.39 67.7517 167.124 74.8107 163.048L72.5503 159.133C65.8003 163.03 60.2031 164.903 55.6864 165.041L55.824 169.56ZM109.265 184.371L56.5283 165.176L54.9821 169.424L107.718 188.619L109.265 184.371ZM125.287 178.327C118.537 182.224 112.939 184.098 108.423 184.235L108.56 188.754C114.135 188.584 120.488 186.318 127.547 182.242L125.287 178.327ZM125.657 182.413L125.657 182.413L127.177 178.156L127.177 178.156L125.657 182.413ZM141.071 165.431C136.306 170.71 131.045 175.003 125.287 178.327L127.547 182.242C133.739 178.667 139.365 174.068 144.427 168.461L141.071 165.431ZM142.034 169.09L142.034 169.09L143.464 164.802L143.463 164.802L142.034 169.09ZM101.923 187.732C103.939 188.466 106.151 188.792 108.526 188.755L108.455 184.235C106.536 184.265 104.886 184 103.47 183.484L101.923 187.732ZM49.1935 168.54L101.924 187.732L103.47 183.484L50.7397 164.292L49.1935 168.54ZM55.7188 165.041C53.8025 165.071 52.1535 164.806 50.7392 164.292L49.1941 168.54C51.2082 169.273 53.4175 169.598 55.7896 169.561L55.7188 165.041ZM109.263 184.371L56.5273 165.177L54.9811 169.425L107.717 188.619L109.263 184.371Z" fill="#6421A6" mask="url(#path-5-outside-2_1147_78225)"/>
<mask id="path-7-outside-3_1147_78225" maskUnits="userSpaceOnUse" x="15.707" y="92.8655" width="89" height="121" fill="black">
<rect fill="white" x="15.707" y="92.8655" width="89" height="121"/>
<path fill-rule="evenodd" clip-rule="evenodd" d="M101.765 115.06C92.4316 125.076 85.1793 135.512 80.0077 146.368C74.2981 158.557 71.4432 170.706 71.4432 182.818L18.707 163.623C18.707 151.512 21.5618 139.363 27.2713 127.174L27.2713 127.174C32.4429 116.318 39.6953 105.882 49.0285 95.8655L101.765 115.06ZM78.2144 204.433C73.7003 199.221 71.4432 192.016 71.4432 182.818L18.707 163.624C18.707 172.823 20.9643 180.028 25.479 185.24L25.48 185.24C28.1237 188.074 31.2615 190.151 34.8933 191.472L87.6171 210.662C83.9901 209.341 80.8562 207.265 78.2153 204.434L78.2144 204.433Z"/>
</mask>
<path fill-rule="evenodd" clip-rule="evenodd" d="M101.765 115.06C92.4316 125.076 85.1793 135.512 80.0077 146.368C74.2981 158.557 71.4432 170.706 71.4432 182.818L18.707 163.623C18.707 151.512 21.5618 139.363 27.2713 127.174L27.2713 127.174C32.4429 116.318 39.6953 105.882 49.0285 95.8655L101.765 115.06ZM78.2144 204.433C73.7003 199.221 71.4432 192.016 71.4432 182.818L18.707 163.624C18.707 172.823 20.9643 180.028 25.479 185.24L25.48 185.24C28.1237 188.074 31.2615 190.151 34.8933 191.472L87.6171 210.662C83.9901 209.341 80.8562 207.265 78.2153 204.434L78.2144 204.433Z" fill="#ECB9FF"/>
<path d="M88.0159 209.604L88.0035 209.6L87.2308 211.724L87.2432 211.729L88.0159 209.604ZM80.0077 146.368L77.967 145.396C77.9649 145.401 77.9629 145.405 77.9608 145.409L80.0077 146.368ZM101.765 115.06L103.418 116.601C103.935 116.046 104.14 115.269 103.963 114.532C103.785 113.794 103.25 113.195 102.538 112.936L101.765 115.06ZM71.4432 182.818L70.6701 184.942C71.3631 185.194 72.1356 185.092 72.7398 184.669C73.3439 184.246 73.7036 183.555 73.7036 182.818H71.4432ZM18.707 163.623H16.4466C16.4466 164.574 17.041 165.422 17.9339 165.747L18.707 163.623ZM27.2713 127.174L29.3183 128.133C29.5822 127.57 29.6022 126.923 29.3737 126.344C29.1452 125.766 28.6884 125.307 28.1108 125.076L27.2713 127.174ZM27.2713 127.174L25.2306 126.202C24.9619 126.766 24.9386 127.416 25.1662 127.998C25.3937 128.58 25.8518 129.041 26.4318 129.273L27.2713 127.174ZM49.0285 95.8655L49.8016 93.7414C48.9489 93.431 47.9933 93.6606 47.3747 94.3245L49.0285 95.8655ZM71.4432 182.818H73.7036C73.7036 181.868 73.1093 181.019 72.2163 180.694L71.4432 182.818ZM78.2144 204.433L76.5057 205.913C76.7578 206.204 77.08 206.426 77.4419 206.558L78.2144 204.433ZM18.707 163.624L19.4801 161.5C18.7871 161.248 18.0146 161.349 17.4105 161.772C16.8064 162.195 16.4466 162.887 16.4466 163.624H18.707ZM25.479 185.24L23.7704 186.72C24.0233 187.012 24.3467 187.234 24.7099 187.365L25.479 185.24ZM25.48 185.24L27.1329 183.698C26.8887 183.437 26.5858 183.237 26.2491 183.115L25.48 185.24ZM34.8933 191.472L35.6664 189.348L35.6659 189.348L34.8933 191.472ZM87.6171 210.662L86.844 212.786C88.017 213.213 89.314 212.608 89.7411 211.436C90.1682 210.263 89.5637 208.965 88.3908 208.538L87.6171 210.662ZM78.2153 204.434L79.8683 202.892C79.6249 202.631 79.3232 202.431 78.9878 202.309L78.2153 204.434ZM82.0484 147.34C87.1082 136.719 94.2212 126.471 103.418 116.601L100.111 113.519C90.642 123.681 83.2505 134.305 77.967 145.396L82.0484 147.34ZM77.9608 145.409C72.1263 157.864 69.1828 170.34 69.1828 182.818H73.7036C73.7036 171.073 76.4698 159.249 82.0547 147.327L77.9608 145.409ZM72.2163 180.694L19.4801 161.499L17.9339 165.747L70.6701 184.942L72.2163 180.694ZM20.9674 163.623C20.9674 151.879 23.7336 140.055 29.3183 128.133L25.2244 126.216C19.39 138.67 16.4466 151.145 16.4466 163.623H20.9674ZM26.4318 129.273L26.4318 129.273L28.1108 125.076L28.1108 125.076L26.4318 129.273ZM47.3747 94.3245C37.9057 104.486 30.514 115.111 25.2306 126.202L29.312 128.147C34.3717 117.525 41.4849 107.277 50.6822 97.4065L47.3747 94.3245ZM102.538 112.936L49.8016 93.7414L48.2554 97.9896L100.992 117.184L102.538 112.936ZM69.1828 182.818C69.1828 192.376 71.5316 200.17 76.5057 205.913L79.923 202.954C75.869 198.273 73.7036 191.656 73.7036 182.818H69.1828ZM17.9339 165.748L70.6701 184.943L72.2163 180.694L19.4801 161.5L17.9339 165.748ZM27.1876 183.76C23.133 179.079 20.9674 172.463 20.9674 163.624H16.4466C16.4466 173.182 18.7957 180.977 23.7704 186.72L27.1876 183.76ZM26.2491 183.115L26.2481 183.114L24.7099 187.365L24.7109 187.366L26.2491 183.115ZM35.6659 189.348C32.3703 188.149 29.5339 186.272 27.1329 183.698L23.8272 186.782C26.7135 189.876 30.1526 192.153 34.1207 193.597L35.6659 189.348ZM88.3902 208.538L35.6664 189.348L34.1202 193.596L86.844 212.786L88.3902 208.538ZM76.5624 205.976C79.4456 209.066 82.8806 211.342 86.8435 212.786L88.3908 208.538C85.0997 207.339 82.2668 205.463 79.8683 202.892L76.5624 205.976ZM77.4419 206.558L77.4429 206.558L78.9878 202.309L78.9869 202.309L77.4419 206.558Z" fill="#6421A6" mask="url(#path-7-outside-3_1147_78225)"/>
<mask id="path-9-outside-4_1147_78225" maskUnits="userSpaceOnUse" x="39.2109" y="2.83594" width="126" height="115" fill="black">
<rect fill="white" x="39.2109" y="2.83594" width="126" height="115"/>
<path fill-rule="evenodd" clip-rule="evenodd" d="M162.55 26.1868C159.68 25.1432 156.465 24.8059 152.906 25.175L152.905 25.1747C147.727 25.5585 142.15 27.4752 136.175 30.9248L83.4392 11.7304C89.4144 8.28058 94.9913 6.36387 100.17 5.98026L100.17 5.98048C103.73 5.61155 106.944 5.94886 109.814 6.99239L162.55 26.1868ZM114.666 48.634C120.907 41.5048 128.077 35.602 136.177 30.9256L83.4408 11.7312C75.341 16.4076 68.1707 22.3104 61.9299 29.4396L61.928 29.4388C55.8199 36.4913 50.9734 44.1953 47.3882 52.5508L47.3895 52.5511C43.9371 60.6766 42.2109 68.6487 42.2109 76.4673C42.2109 80.1466 42.8749 83.7493 44.2027 87.2752L96.9389 106.47C95.611 102.944 94.9471 99.341 94.9471 95.6617C94.9471 87.8431 96.6733 79.871 100.126 71.7455L100.124 71.7452C103.71 63.3897 108.556 55.6857 114.664 48.6332L114.666 48.634ZM96.9384 106.47C98.2341 109.394 99.8432 112.257 101.766 115.06L49.0295 95.8661C47.107 93.063 45.4979 90.1995 44.2022 87.2758L96.9384 106.47Z"/>
</mask>
<path fill-rule="evenodd" clip-rule="evenodd" d="M162.55 26.1868C159.68 25.1432 156.465 24.8059 152.906 25.175L152.905 25.1747C147.727 25.5585 142.15 27.4752 136.175 30.9248L83.4392 11.7304C89.4144 8.28058 94.9913 6.36387 100.17 5.98026L100.17 5.98048C103.73 5.61155 106.944 5.94886 109.814 6.99239L162.55 26.1868ZM114.666 48.634C120.907 41.5048 128.077 35.602 136.177 30.9256L83.4408 11.7312C75.341 16.4076 68.1707 22.3104 61.9299 29.4396L61.928 29.4388C55.8199 36.4913 50.9734 44.1953 47.3882 52.5508L47.3895 52.5511C43.9371 60.6766 42.2109 68.6487 42.2109 76.4673C42.2109 80.1466 42.8749 83.7493 44.2027 87.2752L96.9389 106.47C95.611 102.944 94.9471 99.341 94.9471 95.6617C94.9471 87.8431 96.6733 79.871 100.126 71.7455L100.124 71.7452C103.71 63.3897 108.556 55.6857 114.664 48.6332L114.666 48.634ZM96.9384 106.47C98.2341 109.394 99.8432 112.257 101.766 115.06L49.0295 95.8661C47.107 93.063 45.4979 90.1995 44.2022 87.2758L96.9384 106.47Z" fill="#ECB9FF"/>
<path d="M152.906 25.175L152.133 27.2993C152.455 27.4162 152.798 27.4586 153.139 27.4234L152.906 25.175ZM162.55 26.1868L161.777 28.3111C162.95 28.7377 164.247 28.1327 164.674 26.9596C165.101 25.7866 164.496 24.4896 163.323 24.0627L162.55 26.1868ZM152.905 25.1747L153.677 23.0504C153.377 22.9412 153.057 22.8969 152.738 22.9205L152.905 25.1747ZM136.175 30.9248L135.402 33.0489C136.03 33.2774 136.727 33.2165 137.306 32.8824L136.175 30.9248ZM83.4392 11.7304L82.309 9.77281C81.5482 10.212 81.1108 11.0523 81.1874 11.9274C81.2639 12.8025 81.8406 13.554 82.6661 13.8545L83.4392 11.7304ZM100.17 5.98026L100.944 3.85645C100.643 3.74682 100.322 3.70236 100.003 3.72602L100.17 5.98026ZM100.17 5.98048L99.3966 8.10429C99.7184 8.22157 100.063 8.26417 100.403 8.22885L100.17 5.98048ZM109.814 6.99239L110.587 4.86829L110.586 4.8681L109.814 6.99239ZM136.177 30.9256L137.307 32.8832C138.068 32.4439 138.505 31.6037 138.429 30.7286C138.352 29.8534 137.776 29.1019 136.95 28.8015L136.177 30.9256ZM114.666 48.634L113.83 50.7341C114.72 51.0883 115.736 50.8434 116.367 50.1228L114.666 48.634ZM83.4408 11.7312L84.2139 9.60707C83.586 9.37855 82.8892 9.43951 82.3106 9.77359L83.4408 11.7312ZM61.9299 29.4396L61.0904 31.5383C61.9808 31.8945 62.9991 31.65 63.6307 30.9284L61.9299 29.4396ZM61.928 29.4388L62.7675 27.34C61.873 26.9822 60.85 27.2307 60.2193 27.9589L61.928 29.4388ZM47.3882 52.5508L45.3109 51.6595C45.053 52.2607 45.0681 52.9442 45.3525 53.5334C45.6369 54.1226 46.1627 54.5596 46.7939 54.7317L47.3882 52.5508ZM47.3895 52.5511L49.4699 53.435C49.7252 52.8342 49.7082 52.1523 49.4234 51.5649C49.1386 50.9775 48.6137 50.5419 47.9838 50.3702L47.3895 52.5511ZM44.2027 87.2752L42.0873 88.0719C42.3197 88.689 42.8099 89.1738 43.4296 89.3993L44.2027 87.2752ZM96.9389 106.47L96.1658 108.594C96.9955 108.896 97.9252 108.687 98.5461 108.059C99.167 107.431 99.3655 106.499 99.0543 105.673L96.9389 106.47ZM100.126 71.7455L102.206 72.6294C102.461 72.0284 102.444 71.3463 102.159 70.7587C101.874 70.1712 101.349 69.7356 100.719 69.5643L100.126 71.7455ZM100.124 71.7452L98.0471 70.8539C97.7891 71.4553 97.8044 72.1391 98.089 72.7284C98.3737 73.3177 98.8998 73.7547 99.5313 73.9264L100.124 71.7452ZM114.664 48.6332L115.5 46.533C114.606 46.1773 113.585 46.4262 112.955 47.1533L114.664 48.6332ZM101.766 115.06L100.993 117.185C101.916 117.521 102.95 117.222 103.552 116.445C104.154 115.669 104.186 114.592 103.63 113.782L101.766 115.06ZM96.9384 106.47L99.005 105.554C98.756 104.993 98.289 104.556 97.7115 104.346L96.9384 106.47ZM49.0295 95.8661L47.1655 97.1446C47.4321 97.5333 47.8135 97.8289 48.2564 97.9902L49.0295 95.8661ZM44.2022 87.2758L44.9753 85.1517C44.1236 84.8417 43.1691 85.0704 42.5504 85.7328C41.9317 86.3951 41.7684 87.363 42.1356 88.1916L44.2022 87.2758ZM153.139 27.4234C156.417 27.0835 159.28 27.4029 161.777 28.3111L163.322 24.0625C160.08 22.8834 156.514 22.5283 152.673 22.9266L153.139 27.4234ZM152.132 27.2991L152.133 27.2993L153.678 23.0507L153.677 23.0504L152.132 27.2991ZM137.306 32.8824C143.078 29.5495 148.326 27.7808 153.072 27.429L152.738 22.9205C147.128 23.3363 141.222 25.4009 135.045 28.9672L137.306 32.8824ZM82.6661 13.8545L135.402 33.0489L136.948 28.8007L84.2123 9.60629L82.6661 13.8545ZM100.003 3.72602C94.3926 4.14162 88.4864 6.20628 82.309 9.77281L84.5694 13.688C90.3425 10.3549 95.5901 8.58613 100.337 8.2345L100.003 3.72602ZM100.944 3.85667L100.944 3.85645L99.396 8.10407L99.3966 8.10429L100.944 3.85667ZM110.586 4.8681C107.345 3.68916 103.779 3.33395 99.9374 3.73211L100.403 8.22885C103.681 7.88916 106.544 8.20856 109.041 9.11668L110.586 4.8681ZM163.323 24.0627L110.587 4.86829L109.041 9.11649L161.777 28.3109L163.323 24.0627ZM135.047 28.968C126.73 33.7699 119.367 39.8319 112.965 47.1451L116.367 50.1228C122.447 43.1776 129.425 37.434 137.307 32.8832L135.047 28.968ZM82.6677 13.8553L135.404 33.0497L136.95 28.8015L84.2139 9.60707L82.6677 13.8553ZM63.6307 30.9284C69.7105 23.9832 76.6886 18.2396 84.571 13.6887L82.3106 9.77359C73.9933 14.5755 66.631 20.6375 60.2291 27.9507L63.6307 30.9284ZM61.0885 31.5375L61.0904 31.5383L62.7694 27.3408L62.7675 27.34L61.0885 31.5375ZM49.4655 53.4421C52.9564 45.3062 57.677 37.7998 63.6366 30.9186L60.2193 27.9589C53.9629 35.1828 48.9903 43.0844 45.3109 51.6595L49.4655 53.4421ZM47.9838 50.3702L47.9826 50.3699L46.7939 54.7317L46.7951 54.732L47.9838 50.3702ZM44.4714 76.4673C44.4714 68.9893 46.121 61.317 49.4699 53.435L45.3091 51.6672C41.7532 60.0362 39.9505 68.3081 39.9505 76.4673H44.4714ZM46.3181 86.4786C45.0838 83.2011 44.4714 79.8679 44.4714 76.4673H39.9505C39.9505 80.4253 40.6659 84.2975 42.0873 88.0719L46.3181 86.4786ZM97.712 104.346L44.9758 85.1512L43.4296 89.3993L96.1658 108.594L97.712 104.346ZM92.6867 95.6617C92.6867 99.6197 93.4021 103.492 94.8235 107.266L99.0543 105.673C97.82 102.395 97.2076 99.0623 97.2076 95.6617H92.6867ZM98.0453 70.8616C94.4894 79.2306 92.6867 87.5025 92.6867 95.6617H97.2076C97.2076 88.1837 98.8572 80.5114 102.206 72.6294L98.0453 70.8616ZM99.5313 73.9264L99.5326 73.9267L100.719 69.5643L100.717 69.5639L99.5313 73.9264ZM112.955 47.1533C106.699 54.3772 101.727 62.2788 98.0471 70.8539L102.202 72.6365C105.693 64.5006 110.413 56.9942 116.373 50.113L112.955 47.1533ZM115.502 46.5338L115.5 46.533L113.828 50.7333L113.83 50.7341L115.502 46.5338ZM103.63 113.782C101.781 111.086 100.241 108.344 99.005 105.554L94.8718 107.386C96.2271 110.444 97.9055 113.429 99.9017 116.339L103.63 113.782ZM48.2564 97.9902L100.993 117.185L102.539 112.936L49.8026 93.742L48.2564 97.9902ZM42.1356 88.1916C43.4909 91.2499 45.1693 94.2342 47.1655 97.1446L50.8936 94.5875C49.0447 91.8918 47.5048 89.1492 46.2688 86.36L42.1356 88.1916ZM97.7115 104.346L44.9753 85.1517L43.4291 89.3999L96.1653 108.594L97.7115 104.346Z" fill="#6421A6" mask="url(#path-9-outside-4_1147_78225)"/>
<g filter="url(#filter0_ii_1147_78225)">
<path fill-rule="evenodd" clip-rule="evenodd" d="M162.72 165.147C163.391 164.118 164.382 163.601 164.979 163.991L175.531 170.885C175.837 171.085 176.265 171.052 176.713 170.793L199.017 157.916C200.427 157.102 201.164 154.741 200.212 154.091L177.73 138.755C177.232 138.415 177.165 137.519 177.554 136.572C180.202 130.124 182.476 123.499 184.376 116.697C186.954 107.841 188.794 98.8205 189.896 89.6366C190.04 88.4359 189.284 87.878 188.306 88.4429L173.205 97.1616C172.411 97.6199 171.736 98.6742 171.597 99.6569C170.391 108.17 168.543 116.38 166.052 124.287C165.84 124.99 165.623 125.689 165.4 126.384C164.928 127.856 163.553 128.863 162.791 128.322L140.757 112.676C138.765 111.22 136.442 109.495 133.786 107.502C131.13 105.509 128.541 103.172 126.018 100.489C123.495 97.8063 121.371 94.9702 119.645 91.9809C118.051 88.7615 117.255 85.4655 117.255 82.0927C117.255 77.9534 117.985 74.0824 119.445 70.4796C120.906 66.8768 123.031 63.5805 125.819 60.5909C128.607 57.4479 132.06 54.6881 136.176 52.3116C141.62 49.1684 146.135 48.1716 149.72 49.3212C153.067 50.2871 155.93 53.0857 158.308 57.7171C158.728 58.5349 159.863 58.2942 160.713 57.1742L173.555 40.2547C174.18 39.4323 174.456 38.3784 174.197 37.7255C172.453 33.3252 169.804 30.0996 166.251 28.0488C162.534 25.5961 158.085 24.6382 152.907 25.1752C147.728 25.5588 142.151 27.4755 136.176 30.9253C128.076 35.6017 120.906 41.5045 114.665 48.6337C108.557 55.6862 103.711 63.3902 100.125 71.7457C96.6731 79.8712 94.9469 87.8432 94.9469 95.6619C94.9469 99.3413 95.6109 102.944 96.9387 106.47C98.0318 108.936 99.3479 111.36 100.887 113.741C101.348 114.454 100.989 115.892 100.112 116.864C91.5719 126.327 84.8708 136.163 80.0088 146.369C74.2992 158.557 71.4443 170.707 71.4443 182.818C71.4443 192.017 73.7016 199.222 78.2163 204.434C82.8637 209.416 89.0381 212.061 96.7395 212.367C104.441 212.519 113.005 209.874 122.433 204.431C129.736 200.215 136.574 195.117 142.948 189.137C149.322 183.005 155.098 176.221 160.276 168.785C161.107 167.585 161.922 166.373 162.72 165.147ZM150.516 157.003C151.249 155.934 151.328 154.661 150.713 154.224L120.242 132.569C117.847 130.855 115.521 129.061 113.265 127.187C112.838 126.833 112.135 126.998 111.502 127.624C106.327 132.739 102.269 137.952 99.3288 143.263C95.2125 150.546 93.1544 158.403 93.1544 166.835C93.1544 173.274 94.4822 178.179 97.1379 181.552C99.7935 184.924 103.578 186.572 108.491 186.495C113.537 186.342 119.512 184.272 126.417 180.285C132.392 176.835 137.836 172.389 142.749 166.946C145.495 163.859 148.084 160.544 150.516 157.003Z" fill="white"/>
</g>
<path d="M164.974 123.948L164.974 123.948L164.97 123.96C164.76 124.657 164.544 125.35 164.324 126.039C164.157 126.559 163.832 126.978 163.532 127.199C163.442 127.266 163.377 127.302 163.333 127.321L141.424 111.763C141.422 111.762 141.42 111.761 141.418 111.759C139.433 110.307 137.115 108.587 134.464 106.598C131.866 104.648 129.325 102.355 126.842 99.7147C124.383 97.1007 122.318 94.3447 120.642 91.4472C119.131 88.3837 118.385 85.2691 118.385 82.0927C118.385 78.0895 119.09 74.3636 120.493 70.9042C121.899 67.4359 123.946 64.2557 126.646 61.3617L126.655 61.3515L126.664 61.3409C129.363 58.2998 132.716 55.6141 136.741 53.2904C142.087 50.2042 146.245 49.3938 149.375 50.3974L149.391 50.4025L149.407 50.4071C152.333 51.2516 154.997 53.7423 157.303 58.2334C157.518 58.6528 157.859 58.9901 158.305 59.177C158.74 59.3594 159.192 59.3647 159.594 59.2758C160.376 59.1026 161.082 58.5567 161.613 57.8576L174.456 40.938C174.855 40.4119 175.149 39.8068 175.302 39.2072C175.451 38.6281 175.497 37.9372 175.248 37.309C173.43 32.7218 170.638 29.2849 166.846 27.0868C162.884 24.4833 158.179 23.4952 152.807 24.0493C147.417 24.4517 141.681 26.4419 135.611 29.9465C127.402 34.6857 120.136 40.6681 113.815 47.8892L113.811 47.8938C107.629 55.032 102.719 62.8348 99.0868 71.3L99.0853 71.3037C95.5812 79.551 93.8167 87.6729 93.8167 95.6619C93.8167 99.4806 94.5064 103.218 95.881 106.868L95.8923 106.898L95.9054 106.928C97.0236 109.451 98.3683 111.927 99.9381 114.355C99.9357 114.351 99.9361 114.352 99.9378 114.358C99.9471 114.392 99.9956 114.567 99.9047 114.932C99.8071 115.325 99.5856 115.76 99.2729 116.107C90.6688 125.641 83.903 135.566 78.9885 145.883L78.9854 145.89C73.2133 158.211 70.3141 170.524 70.3141 182.818C70.3141 192.197 72.6173 199.696 77.362 205.174L77.3756 205.19L77.3898 205.205C82.2676 210.434 88.7381 213.18 96.6946 213.496L96.7059 213.496L96.7171 213.497C104.693 213.655 113.462 210.916 122.998 205.41C130.379 201.149 137.287 195.998 143.721 189.962L143.727 189.957L143.732 189.952C150.16 183.767 155.984 176.926 161.204 169.431L161.205 169.429C162.042 168.22 162.863 166.999 163.667 165.764C163.919 165.378 164.198 165.143 164.395 165.041C164.425 165.026 164.449 165.015 164.469 165.007L174.913 171.831C175.718 172.357 176.635 172.143 177.278 171.772L199.582 158.894C200.592 158.312 201.276 157.25 201.579 156.279C201.734 155.783 201.815 155.232 201.746 154.701C201.675 154.166 201.432 153.556 200.848 153.158L178.445 137.875C178.442 137.857 178.438 137.833 178.436 137.802C178.422 137.631 178.456 137.349 178.599 137.002C181.264 130.514 183.552 123.849 185.463 117.007C188.057 108.093 189.909 99.0142 191.018 89.7713C191.115 88.9651 190.948 88.0313 190.198 87.472C189.41 86.8838 188.454 87.0522 187.741 87.4641L172.64 96.1828C171.513 96.833 170.66 98.2094 170.478 99.4984C169.28 107.953 167.445 116.102 164.974 123.948ZM163.264 127.34C163.265 127.338 163.275 127.335 163.293 127.336C163.273 127.342 163.263 127.342 163.264 127.34ZM164.53 164.99C164.53 164.991 164.525 164.992 164.516 164.992C164.526 164.989 164.53 164.989 164.53 164.99ZM164.362 164.938C164.362 164.937 164.361 164.937 164.361 164.937L164.362 164.938ZM178.457 137.916C178.457 137.917 178.456 137.915 178.454 137.909C178.456 137.913 178.457 137.916 178.457 137.916ZM119.584 133.488L119.587 133.49L149.986 155.094C149.993 155.13 150 155.195 149.992 155.3C149.973 155.581 149.85 155.975 149.584 156.363C147.179 159.866 144.62 163.142 141.908 166.192C137.069 171.551 131.717 175.92 125.851 179.306C119.028 183.246 113.244 185.218 108.465 185.365C103.85 185.436 100.428 183.904 98.0258 180.853C95.5885 177.757 94.2846 173.141 94.2846 166.835C94.2846 158.596 96.2931 150.931 100.313 143.82L100.318 143.811C103.196 138.611 107.183 133.482 112.297 128.427C112.456 128.27 112.585 128.193 112.665 128.158C114.905 130.012 117.211 131.789 119.584 133.488ZM149.974 155.057C149.974 155.057 149.976 155.059 149.978 155.066C149.975 155.06 149.974 155.057 149.974 155.057Z" stroke="#6421A6" stroke-width="2.26042"/>
<defs>
<filter id="filter0_ii_1147_78225" x="69.1841" y="22.3961" width="133.717" height="192.611" filterUnits="userSpaceOnUse" color-interpolation-filters="sRGB">
<feFlood flood-opacity="0" result="BackgroundImageFix"/>
<feBlend mode="normal" in="SourceGraphic" in2="BackgroundImageFix" result="shape"/>
<feColorMatrix in="SourceAlpha" type="matrix" values="0 0 0 0 0 0 0 0 0 0 0 0 0 0 0 0 0 0 127 0" result="hardAlpha"/>
<feOffset dy="-0.748276"/>
<feGaussianBlur stdDeviation="0.187069"/>
<feComposite in2="hardAlpha" operator="arithmetic" k2="-1" k3="1"/>
<feColorMatrix type="matrix" values="0 0 0 0 0 0 0 0 0 0 0 0 0 0 0 0 0 0 0.25 0"/>
<feBlend mode="normal" in2="shape" result="effect1_innerShadow_1147_78225"/>
<feColorMatrix in="SourceAlpha" type="matrix" values="0 0 0 0 0 0 0 0 0 0 0 0 0 0 0 0 0 0 127 0" result="hardAlpha"/>
<feOffset dy="0.748276"/>
<feGaussianBlur stdDeviation="0.187069"/>
<feComposite in2="hardAlpha" operator="arithmetic" k2="-1" k3="1"/>
<feColorMatrix type="matrix" values="0 0 0 0 1 0 0 0 0 1 0 0 0 0 1 0 0 0 0.45 0"/>
<feBlend mode="normal" in2="effect1_innerShadow_1147_78225" result="effect2_innerShadow_1147_78225"/>
</filter>
</defs>
</svg>
