<svg width="227" height="252" viewBox="0 0 227 252" fill="none" xmlns="http://www.w3.org/2000/svg">
<g filter="url(#filter0_d_1158_79704)">
<path d="M138.539 75.0703L138.539 75.0703C140.058 74.1931 141.888 74.033 143.536 74.6331L193.978 92.9923C198.715 94.7166 199.282 101.189 194.915 103.71L178.706 113.068C177.187 113.945 175.357 114.106 173.709 113.505L123.267 95.1463L138.539 75.0703ZM138.539 75.0703L122.329 84.4287L124.829 88.7589M138.539 75.0703L124.829 88.7589M124.829 88.7589L122.329 84.4287C117.963 86.9495 118.529 93.4219 123.267 95.1463L124.977 90.4478L124.829 88.7589Z" fill="#ECB9FF" stroke="white" stroke-width="10" stroke-linejoin="round"/>
<mask id="path-2-outside-1_1158_79704" maskUnits="userSpaceOnUse" x="104.639" y="79.7617" width="82" height="71" fill="black">
<rect fill="white" x="104.639" y="79.7617" width="82" height="71"/>
<path fill-rule="evenodd" clip-rule="evenodd" d="M170.052 135.287C172.708 126.855 174.633 118.078 175.828 108.956L123.092 89.7617C121.897 98.8836 119.971 107.66 117.316 116.093L170.052 135.287ZM168.375 140.448C168.966 138.753 169.524 137.033 170.051 135.287L117.315 116.093C116.788 117.838 116.229 119.558 115.639 121.254L168.375 140.448Z"/>
</mask>
<path fill-rule="evenodd" clip-rule="evenodd" d="M170.052 135.287C172.708 126.855 174.633 118.078 175.828 108.956L123.092 89.7617C121.897 98.8836 119.971 107.66 117.316 116.093L170.052 135.287ZM168.375 140.448C168.966 138.753 169.524 137.033 170.051 135.287L117.315 116.093C116.788 117.838 116.229 119.558 115.639 121.254L168.375 140.448Z" fill="#DE86FF"/>
<path d="M175.828 108.956L185.743 110.255C186.352 105.608 183.652 101.162 179.248 99.5592L175.828 108.956ZM170.052 135.287L166.632 144.684C169.196 145.617 172.029 145.462 174.476 144.255C176.923 143.048 178.77 140.893 179.59 138.291L170.052 135.287ZM123.092 89.7617L126.512 80.3648C123.661 79.3273 120.494 79.6398 117.901 81.2142C115.309 82.7887 113.571 85.455 113.177 88.4627L123.092 89.7617ZM117.316 116.093L107.778 113.089C106.17 118.193 108.866 123.659 113.896 125.489L117.316 116.093ZM170.051 135.287L179.625 138.178C181.158 133.098 178.458 127.705 173.472 125.89L170.051 135.287ZM168.375 140.448L164.955 149.845C167.469 150.76 170.246 150.629 172.663 149.482C175.081 148.334 176.937 146.266 177.818 143.739L168.375 140.448ZM117.315 116.093L120.735 106.696C118.152 105.756 115.296 105.92 112.838 107.151C110.38 108.382 108.537 110.571 107.742 113.202L117.315 116.093ZM115.639 121.254L106.196 117.963C104.396 123.128 107.079 128.78 112.218 130.651L115.639 121.254ZM165.913 107.657C164.79 116.224 162.987 124.429 160.514 132.283L179.59 138.291C182.428 129.281 184.476 119.932 185.743 110.255L165.913 107.657ZM119.672 99.1586L172.408 118.353L179.248 99.5592L126.512 80.3648L119.672 99.1586ZM126.854 119.097C129.692 110.086 131.739 100.737 133.007 91.0607L113.177 88.4627C112.054 97.0297 110.251 105.235 107.778 113.089L126.854 119.097ZM173.472 125.89L120.736 106.696L113.896 125.489L166.632 144.684L173.472 125.89ZM160.478 132.397C159.991 134.01 159.476 135.597 158.932 137.157L177.818 143.739C178.456 141.909 179.058 140.055 179.625 138.178L160.478 132.397ZM113.895 125.49L166.631 144.684L173.472 125.89L120.735 106.696L113.895 125.49ZM125.082 124.544C125.719 122.715 126.321 120.861 126.888 118.984L107.742 113.202C107.255 114.816 106.739 116.402 106.196 117.963L125.082 124.544ZM171.795 131.051L119.059 111.857L112.218 130.651L164.955 149.845L171.795 131.051Z" fill="white" mask="url(#path-2-outside-1_1158_79704)"/>
<path d="M105.644 52.8723C103.735 48.7556 101.829 46.9243 100.326 46.208L99.2733 45.8249C96.7407 44.9031 95.3944 42.1399 96.2294 39.5774C97.0644 37.0148 99.7802 35.5752 102.37 36.3225C102.95 36.4901 103.519 36.6931 104.074 36.9305L155.286 55.5701C160.255 57.0723 163.881 61.0128 166.522 65.9855C169.24 71.1003 164.006 75.9811 159.286 74.2634L109.005 55.9625C107.486 55.4096 106.295 54.2763 105.644 52.8723ZM105.644 52.8723L110.144 50.786M105.644 52.8723L110.144 50.786M110.144 50.786L110.18 50.7694L110.144 50.786Z" fill="#DE86FF" stroke="white" stroke-width="10" stroke-linejoin="round"/>
<mask id="path-5-outside-2_1158_79704" maskUnits="userSpaceOnUse" x="43.9604" y="107.401" width="122" height="101" fill="black">
<rect fill="white" x="43.9604" y="107.401" width="122" height="101"/>
<path fill-rule="evenodd" clip-rule="evenodd" d="M124.241 143.568C121.596 141.675 119.035 139.684 116.558 137.596L63.8218 118.401C66.2987 120.49 68.8599 122.48 71.5055 124.374L71.5057 124.374L103.104 146.831L155.841 166.026L124.242 143.569L124.242 143.568M146.749 177.946C150 174.291 153.03 170.317 155.841 166.026L103.104 146.831C100.294 151.123 97.2635 155.097 94.0122 158.752L94.0123 158.752C89.0994 164.194 83.6553 168.641 77.6802 172.09L77.6805 172.091C70.776 176.077 64.8009 178.147 59.7552 178.3L112.491 197.495C117.537 197.341 123.512 195.271 130.417 191.285L130.417 191.285C136.392 187.835 141.836 183.389 146.749 177.946L146.749 177.946ZM112.49 197.495C110.344 197.529 108.412 197.233 106.697 196.608L53.9666 177.416C55.6808 178.039 57.61 178.334 59.7542 178.301L112.49 197.495Z"/>
</mask>
<path fill-rule="evenodd" clip-rule="evenodd" d="M124.241 143.568C121.596 141.675 119.035 139.684 116.558 137.596L63.8218 118.401C66.2987 120.49 68.8599 122.48 71.5055 124.374L71.5057 124.374L103.104 146.831L155.841 166.026L124.242 143.569L124.242 143.568M146.749 177.946C150 174.291 153.03 170.317 155.841 166.026L103.104 146.831C100.294 151.123 97.2635 155.097 94.0122 158.752L94.0123 158.752C89.0994 164.194 83.6553 168.641 77.6802 172.09L77.6805 172.091C70.776 176.077 64.8009 178.147 59.7552 178.3L112.491 197.495C117.537 197.341 123.512 195.271 130.417 191.285L130.417 191.285C136.392 187.835 141.836 183.389 146.749 177.946L146.749 177.946ZM112.49 197.495C110.344 197.529 108.412 197.233 106.697 196.608L53.9666 177.416C55.6808 178.039 57.61 178.334 59.7542 178.301L112.49 197.495Z" fill="#DE86FF"/>
<path d="M125.947 138.868L125.947 138.868L122.536 148.268L122.536 148.268L125.947 138.868ZM55.6755 172.717L55.6693 172.715L52.2516 182.113L52.2577 182.115L55.6755 172.717ZM116.558 137.596L123.004 129.95C122.106 129.193 121.082 128.6 119.978 128.199L116.558 137.596ZM63.8218 118.401L67.242 109.004C62.6859 107.346 57.5966 109.195 55.1674 113.391C52.7382 117.587 53.669 122.921 57.3758 126.046L63.8218 118.401ZM71.5055 124.374L65.6852 132.506C66.4253 133.036 67.2343 133.462 68.0897 133.773L71.5055 124.374ZM71.5057 124.374L77.2987 116.223C76.566 115.702 75.7664 115.283 74.9216 114.976L71.5057 124.374ZM103.104 146.831L97.3115 154.982C98.0429 155.502 98.841 155.921 99.6842 156.228L103.104 146.831ZM155.841 166.026L152.42 175.422C157.124 177.134 162.368 175.105 164.695 170.674C167.021 166.243 165.713 160.774 161.634 157.874L155.841 166.026ZM124.242 143.569L114.936 147.23C115.647 149.036 116.867 150.596 118.449 151.72L124.242 143.569ZM155.841 166.026L164.207 171.504C165.88 168.949 166.293 165.769 165.33 162.871C164.366 159.972 162.131 157.673 159.261 156.629L155.841 166.026ZM146.749 177.946L139.277 171.3C137.042 173.812 136.22 177.279 137.087 180.527C137.955 183.775 140.397 186.37 143.586 187.433L146.749 177.946ZM103.104 146.831L106.525 137.434C102.163 135.847 97.2813 137.47 94.7384 141.353L103.104 146.831ZM94.0122 158.752L86.5403 152.106C84.3059 154.618 83.4833 158.085 84.351 161.333C85.2186 164.581 87.6604 167.175 90.8499 168.239L94.0122 158.752ZM94.0123 158.752L101.435 165.452C103.697 162.947 104.542 159.47 103.683 156.206C102.824 152.943 100.376 150.332 97.1746 149.265L94.0123 158.752ZM77.6802 172.09L72.6802 163.43C69.3199 165.37 67.3852 169.079 67.7168 172.945C68.0484 176.811 70.5865 180.136 74.2282 181.476L77.6802 172.09ZM77.6805 172.091L82.6805 180.751C86.0408 178.811 87.9756 175.102 87.644 171.236C87.3123 167.37 84.7743 164.045 81.1326 162.705L77.6805 172.091ZM59.7552 178.3L59.4508 168.305C54.6575 168.451 50.6426 171.979 49.8818 176.714C49.1211 181.449 51.8286 186.057 56.335 187.697L59.7552 178.3ZM112.491 197.495L109.071 206.892C110.264 207.326 111.528 207.529 112.796 207.49L112.491 197.495ZM130.417 191.285L135.417 199.945C138.792 197.996 140.728 194.264 140.376 190.383C140.025 186.502 137.451 183.178 133.78 181.867L130.417 191.285ZM130.417 191.285L125.417 182.624C122.042 184.573 120.106 188.305 120.458 192.186C120.809 196.068 123.383 199.391 127.053 200.702L130.417 191.285ZM146.749 177.946L154.172 184.647C156.433 182.141 157.278 178.664 156.419 175.4C155.56 172.137 153.113 169.526 149.911 168.459L146.749 177.946ZM106.697 196.608L110.119 187.212L110.117 187.211L106.697 196.608ZM112.49 197.495L112.647 207.494C117.47 207.418 121.551 203.911 122.352 199.154C123.152 194.398 120.443 189.748 115.911 188.098L112.49 197.495ZM53.9666 177.416L57.3845 168.018C52.1947 166.131 46.4574 168.807 44.5693 173.997C42.6812 179.186 45.3571 184.924 50.5464 186.813L53.9666 177.416ZM59.7542 178.301L63.1744 168.904C62.0287 168.487 60.8165 168.283 59.5975 168.302L59.7542 178.301ZM110.112 145.241C112.792 147.5 115.562 149.653 118.421 151.7L130.062 135.437C127.63 133.696 125.278 131.868 123.004 129.95L110.112 145.241ZM60.4016 127.798L113.138 146.992L119.978 128.199L67.242 109.004L60.4016 127.798ZM77.3259 116.242C74.8942 114.502 72.5418 112.673 70.2677 110.756L57.3758 126.046C60.0556 128.306 62.8256 130.459 65.6852 132.506L77.3259 116.242ZM74.9216 114.976L74.9214 114.976L68.0897 133.773L68.0899 133.773L74.9216 114.976ZM65.7128 132.525L97.3115 154.982L108.897 138.68L77.2987 116.223L65.7128 132.525ZM99.6842 156.228L152.42 175.422L159.261 156.629L106.525 137.434L99.6842 156.228ZM161.634 157.874L130.035 135.417L118.449 151.72L150.048 174.177L161.634 157.874ZM133.547 139.907L133.547 139.907L114.936 147.23L114.936 147.23L133.547 139.907ZM147.475 160.548C144.92 164.448 142.186 168.029 139.277 171.3L154.221 184.592C157.813 180.553 161.141 176.186 164.207 171.504L147.475 160.548ZM99.6842 156.228L152.42 175.423L159.261 156.629L106.525 137.434L99.6842 156.228ZM101.484 165.398C105.077 161.359 108.404 156.992 111.47 152.309L94.7384 141.353C92.1842 145.254 89.4499 148.835 86.5403 152.106L101.484 165.398ZM97.1746 149.265L97.1745 149.265L90.8499 168.239L90.85 168.239L97.1746 149.265ZM82.6802 180.751C89.6157 176.746 95.8661 171.622 101.435 165.452L86.5892 152.051C82.3326 156.767 77.695 160.535 72.6802 163.43L82.6802 180.751ZM81.1326 162.705L81.1323 162.705L74.2282 181.476L74.2285 181.476L81.1326 162.705ZM60.0596 188.296C67.4453 188.071 75.0926 185.132 82.6805 180.751L72.6806 163.43C66.4594 167.022 62.1564 168.223 59.4508 168.305L60.0596 188.296ZM115.912 188.098L63.1754 168.903L56.335 187.697L109.071 206.892L115.912 188.098ZM125.417 182.624C119.196 186.216 114.893 187.417 112.187 187.499L112.796 207.49C120.182 207.265 127.829 204.326 135.417 199.945L125.417 182.624ZM127.053 200.702L127.054 200.702L133.78 181.867L133.78 181.867L127.053 200.702ZM139.326 171.245C135.069 175.961 130.432 179.729 125.417 182.624L135.417 199.945C142.352 195.941 148.603 190.816 154.172 184.647L139.326 171.245ZM143.586 187.433L143.586 187.433L149.911 168.459L149.911 168.459L143.586 187.433ZM103.274 206.004C106.318 207.113 109.491 207.543 112.647 207.494L112.334 187.496C111.197 187.514 110.506 187.353 110.119 187.212L103.274 206.004ZM50.5464 186.813L103.276 206.005L110.117 187.211L57.3868 168.019L50.5464 186.813ZM59.5975 168.302C58.4617 168.32 57.7718 168.159 57.3845 168.018L50.5488 186.814C53.5898 187.92 56.7583 188.349 59.9109 188.299L59.5975 168.302ZM115.911 188.098L63.1744 168.904L56.334 187.698L109.07 206.892L115.911 188.098Z" fill="white" mask="url(#path-5-outside-2_1158_79704)"/>
<mask id="path-7-outside-3_1158_79704" maskUnits="userSpaceOnUse" x="12.707" y="95.8655" width="104" height="136" fill="black">
<rect fill="white" x="12.707" y="95.8655" width="104" height="136"/>
<path fill-rule="evenodd" clip-rule="evenodd" d="M105.765 126.06C96.4316 136.076 89.1793 146.512 84.0077 157.368C78.2981 169.557 75.4432 181.706 75.4432 193.818L22.707 174.623C22.707 162.512 25.5618 150.363 31.2713 138.174L31.2713 138.174C36.4429 127.318 43.6953 116.882 53.0285 106.865L105.765 126.06ZM82.2144 215.433C77.7003 210.221 75.4432 203.016 75.4432 193.818L22.707 174.624C22.707 183.823 24.9643 191.028 29.479 196.24L29.48 196.24C32.1237 199.074 35.2615 201.151 38.8933 202.472L91.6171 221.662C87.9901 220.341 84.8562 218.265 82.2153 215.434L82.2144 215.433Z"/>
</mask>
<path fill-rule="evenodd" clip-rule="evenodd" d="M105.765 126.06C96.4316 136.076 89.1793 146.512 84.0077 157.368C78.2981 169.557 75.4432 181.706 75.4432 193.818L22.707 174.623C22.707 162.512 25.5618 150.363 31.2713 138.174L31.2713 138.174C36.4429 127.318 43.6953 116.882 53.0285 106.865L105.765 126.06ZM82.2144 215.433C77.7003 210.221 75.4432 203.016 75.4432 193.818L22.707 174.624C22.707 183.823 24.9643 191.028 29.479 196.24L29.48 196.24C32.1237 199.074 35.2615 201.151 38.8933 202.472L91.6171 221.662C87.9901 220.341 84.8562 218.265 82.2153 215.434L82.2144 215.433Z" fill="#ECB9FF"/>
<path d="M93.3387 216.968L93.3263 216.963L89.908 226.361L89.9203 226.365L93.3387 216.968ZM84.0077 157.368L74.9797 153.068C74.9705 153.087 74.9613 153.107 74.9521 153.126L84.0077 157.368ZM105.765 126.06L113.081 132.877C115.368 130.423 116.272 126.985 115.488 123.724C114.704 120.462 112.337 117.81 109.185 116.663L105.765 126.06ZM75.4432 193.818L72.023 203.215C75.0889 204.33 78.5064 203.881 81.179 202.009C83.8516 200.138 85.4432 197.08 85.4432 193.818H75.4432ZM22.707 174.623H12.707C12.707 178.827 15.3364 182.582 19.2868 184.02L22.707 174.623ZM31.2713 138.174L40.3269 142.417C41.4944 139.924 41.5832 137.061 40.5723 134.501C39.5615 131.942 37.5405 129.912 34.9852 128.89L31.2713 138.174ZM31.2713 138.174L22.2433 133.874C21.0549 136.369 20.9518 139.244 21.9584 141.817C22.9651 144.391 24.9917 146.433 27.5574 147.459L31.2713 138.174ZM53.0285 106.865L56.4487 97.4686C52.6765 96.0956 48.449 97.1114 45.7124 100.048L53.0285 106.865ZM75.4432 193.818H85.4432C85.4432 189.615 82.8139 185.859 78.8634 184.422L75.4432 193.818ZM82.2144 215.433L74.6553 221.98C75.7705 223.268 77.1961 224.249 78.7969 224.831L82.2144 215.433ZM22.707 174.624L26.1272 165.227C23.0613 164.111 19.6439 164.561 16.9713 166.433C14.2987 168.304 12.707 171.361 12.707 174.624H22.707ZM29.479 196.24L21.9202 202.787C23.0389 204.079 24.4699 205.062 26.0766 205.643L29.479 196.24ZM29.48 196.24L36.7921 189.419C35.7118 188.261 34.3717 187.376 32.8824 186.837L29.48 196.24ZM38.8933 202.472L42.3135 193.075L42.3111 193.074L38.8933 202.472ZM91.6171 221.662L88.1969 231.059C93.3862 232.948 99.1242 230.273 101.014 225.084C102.903 219.894 100.229 214.156 95.0398 212.266L91.6171 221.662ZM82.2153 215.434L89.5278 208.613C88.451 207.458 87.1163 206.575 85.6328 206.036L82.2153 215.434ZM93.0358 161.669C97.7125 151.851 104.349 142.248 113.081 132.877L98.4486 119.243C88.5145 129.904 80.6462 141.173 74.9797 153.068L93.0358 161.669ZM74.9521 153.126C68.6903 166.493 65.4432 180.084 65.4432 193.818H85.4432C85.4432 183.329 87.9059 172.62 93.0634 161.611L74.9521 153.126ZM78.8634 184.421L26.1272 165.226L19.2868 184.02L72.023 203.215L78.8634 184.421ZM32.707 174.623C32.707 164.134 35.1696 153.426 40.3269 142.417L22.2157 133.932C15.954 147.299 12.707 160.89 12.707 174.623H32.707ZM27.5574 147.459L27.5574 147.459L34.9852 128.89L34.9852 128.89L27.5574 147.459ZM45.7124 100.048C35.7781 110.709 27.9097 121.978 22.2433 133.874L40.2993 142.475C44.976 132.657 51.6124 123.054 60.3445 113.683L45.7124 100.048ZM109.185 116.663L56.4487 97.4686L49.6083 116.262L102.344 135.457L109.185 116.663ZM65.4432 193.818C65.4432 204.609 68.106 214.418 74.6553 221.98L89.7734 208.887C87.2945 206.024 85.4432 201.424 85.4432 193.818H65.4432ZM19.2868 184.021L72.023 203.215L78.8634 184.422L26.1272 165.227L19.2868 184.021ZM37.0377 189.693C34.5585 186.83 32.707 182.23 32.707 174.624H12.707C12.707 185.415 15.3702 195.225 21.9202 202.787L37.0377 189.693ZM32.8824 186.837L32.8814 186.836L26.0766 205.643L26.0776 205.644L32.8824 186.837ZM42.3111 193.074C40.1668 192.295 38.3624 191.102 36.7921 189.419L22.1679 203.062C25.885 207.046 30.3561 210.008 35.4755 211.87L42.3111 193.074ZM95.0373 212.265L42.3135 193.075L35.4731 211.869L88.1969 231.059L95.0373 212.265ZM74.9029 222.255C78.6159 226.235 83.0815 229.196 88.1945 231.058L95.0398 212.266C92.8988 211.486 91.0965 210.294 89.5278 208.613L74.9029 222.255ZM78.7969 224.831L78.7979 224.832L85.6328 206.036L85.6318 206.035L78.7969 224.831Z" fill="white" mask="url(#path-7-outside-3_1158_79704)"/>
<mask id="path-9-outside-4_1158_79704" maskUnits="userSpaceOnUse" x="36.2109" y="6.83594" width="141" height="130" fill="black">
<rect fill="white" x="36.2109" y="6.83594" width="141" height="130"/>
<path fill-rule="evenodd" clip-rule="evenodd" d="M166.55 37.1868C163.68 36.1432 160.465 35.8059 156.906 36.175L156.905 36.1747C151.727 36.5585 146.15 38.4752 140.175 41.9248L87.4392 22.7304C93.4144 19.2806 98.9913 17.3639 104.17 16.9803L104.17 16.9805C107.73 16.6116 110.944 16.9489 113.814 17.9924L166.55 37.1868ZM118.666 59.634C124.907 52.5048 132.077 46.602 140.177 41.9256L87.4408 22.7312C79.341 27.4076 72.1707 33.3104 65.9299 40.4396L65.928 40.4388C59.8199 47.4913 54.9734 55.1953 51.3882 63.5508L51.3895 63.5511C47.9371 71.6766 46.2109 79.6487 46.2109 87.4673C46.2109 91.1466 46.8749 94.7493 48.2027 98.2752L100.939 117.47C99.6111 113.944 98.9471 110.341 98.9471 106.662C98.9471 98.8431 100.673 90.871 104.126 82.7455L104.124 82.7452C107.71 74.3897 112.556 66.6857 118.664 59.6332L118.666 59.634ZM100.938 117.47C102.234 120.394 103.843 123.257 105.766 126.06L53.0295 106.866C51.107 104.063 49.4979 101.2 48.2022 98.2758L100.938 117.47Z"/>
</mask>
<path fill-rule="evenodd" clip-rule="evenodd" d="M166.55 37.1868C163.68 36.1432 160.465 35.8059 156.906 36.175L156.905 36.1747C151.727 36.5585 146.15 38.4752 140.175 41.9248L87.4392 22.7304C93.4144 19.2806 98.9913 17.3639 104.17 16.9803L104.17 16.9805C107.73 16.6116 110.944 16.9489 113.814 17.9924L166.55 37.1868ZM118.666 59.634C124.907 52.5048 132.077 46.602 140.177 41.9256L87.4408 22.7312C79.341 27.4076 72.1707 33.3104 65.9299 40.4396L65.928 40.4388C59.8199 47.4913 54.9734 55.1953 51.3882 63.5508L51.3895 63.5511C47.9371 71.6766 46.2109 79.6487 46.2109 87.4673C46.2109 91.1466 46.8749 94.7493 48.2027 98.2752L100.939 117.47C99.6111 113.944 98.9471 110.341 98.9471 106.662C98.9471 98.8431 100.673 90.871 104.126 82.7455L104.124 82.7452C107.71 74.3897 112.556 66.6857 118.664 59.6332L118.666 59.634ZM100.938 117.47C102.234 120.394 103.843 123.257 105.766 126.06L53.0295 106.866C51.107 104.063 49.4979 101.2 48.2022 98.2758L100.938 117.47Z" fill="#ECB9FF"/>
<path d="M156.906 36.175L153.488 45.5729C154.91 46.0901 156.432 46.2777 157.937 46.1217L156.906 36.175ZM166.55 37.1868L163.132 46.5846C168.322 48.472 174.059 45.7954 175.947 40.6058C177.835 35.4162 175.159 29.6786 169.97 27.7899L166.55 37.1868ZM156.905 36.1747L160.322 26.7768C158.993 26.2934 157.576 26.0976 156.166 26.2021L156.905 36.1747ZM140.175 41.9248L136.755 51.3217C139.533 52.3327 142.615 52.063 145.175 50.585L140.175 41.9248ZM87.4392 22.7304L82.4392 14.0701C79.0735 16.0133 77.1385 19.7304 77.4772 23.6019C77.816 27.4735 80.367 30.7981 84.019 32.1273L87.4392 22.7304ZM104.17 16.9803L107.594 7.58461C106.263 7.09962 104.844 6.90293 103.431 7.00758L104.17 16.9803ZM104.17 16.9805L100.747 26.3761C102.171 26.895 103.694 27.0834 105.201 26.9272L104.17 16.9805ZM113.814 17.9924L117.234 8.59546L117.231 8.59459L113.814 17.9924ZM140.177 41.9256L145.177 50.5858C148.543 48.6427 150.478 44.9255 150.139 41.054C149.8 37.1825 147.249 33.8578 143.597 32.5286L140.177 41.9256ZM118.666 59.634L114.968 68.925C118.904 70.4917 123.4 69.4082 126.19 66.2207L118.666 59.634ZM87.4408 22.7312L90.861 13.3342C88.0833 12.3233 85.0007 12.5929 82.4408 14.0709L87.4408 22.7312ZM65.9299 40.4396L62.216 49.7243C66.1551 51.3 70.6598 50.2185 73.4542 47.0263L65.9299 40.4396ZM65.928 40.4388L69.6419 31.154C65.6847 29.5711 61.1591 30.6703 58.3689 33.892L65.928 40.4388ZM51.3882 63.5508L42.1985 59.6076C41.0572 62.2675 41.1243 65.2913 42.3825 67.8978C43.6406 70.5043 45.9664 72.4379 48.7589 73.1989L51.3882 63.5508ZM51.3895 63.5511L60.5932 67.4616C61.7226 64.8034 61.6476 61.7868 60.3875 59.1881C59.1274 56.5894 56.8053 54.6623 54.0188 53.903L51.3895 63.5511ZM48.2027 98.2752L38.8443 101.799C39.8724 104.529 42.0413 106.674 44.7825 107.672L48.2027 98.2752ZM100.939 117.47L97.5187 126.867C101.189 128.203 105.302 127.279 108.049 124.501C110.796 121.724 111.674 117.601 110.297 113.945L100.939 117.47ZM104.126 82.7455L113.329 86.656C114.459 83.9969 114.384 80.9792 113.122 78.3799C111.861 75.7807 109.537 73.8539 106.749 73.0959L104.126 82.7455ZM104.124 82.7452L94.9346 78.8021C93.793 81.4628 93.8606 84.4877 95.1199 87.0948C96.3793 89.7019 98.7068 91.6352 101.501 92.3948L104.124 82.7452ZM118.664 59.6332L122.362 50.3422C118.408 48.7683 113.891 49.8694 111.105 53.0864L118.664 59.6332ZM105.766 126.06L102.346 135.457C106.43 136.944 111.007 135.622 113.67 132.186C116.332 128.751 116.471 123.989 114.012 120.404L105.766 126.06ZM100.938 117.47L110.081 113.419C108.979 110.933 106.913 109.003 104.359 108.073L100.938 117.47ZM53.0295 106.866L44.7829 112.522C45.9623 114.242 47.6498 115.55 49.6093 116.263L53.0295 106.866ZM48.2022 98.2758L51.6224 88.8789C47.8545 87.5075 43.6318 88.5193 40.8946 91.4495C38.1574 94.3796 37.4352 98.6614 39.0597 102.327L48.2022 98.2758ZM157.937 46.1217C160.249 45.8819 161.91 46.1401 163.132 46.5846L169.968 27.789C165.451 26.1463 160.682 25.7298 155.874 26.2283L157.937 46.1217ZM153.488 45.5727L153.488 45.5729L160.323 26.7771L160.322 26.7768L153.488 45.5727ZM145.175 50.585C150.256 47.6518 154.376 46.3896 157.644 46.1474L156.166 26.2021C149.078 26.7275 142.045 29.2986 135.175 33.2645L145.175 50.585ZM84.019 32.1273L136.755 51.3217L143.596 32.5279L90.8594 13.3335L84.019 32.1273ZM103.431 7.00758C96.3424 7.53269 89.3088 10.1039 82.4392 14.0701L92.4392 31.3906C97.52 28.4572 101.64 27.195 104.909 26.9529L103.431 7.00758ZM107.594 7.58483L107.594 7.58461L100.746 26.3759L100.747 26.3761L107.594 7.58483ZM117.231 8.59459C112.715 6.95202 107.947 6.53552 103.14 7.03376L105.201 26.9272C107.513 26.6876 109.174 26.9457 110.396 27.3902L117.231 8.59459ZM169.97 27.7899L117.234 8.59546L110.393 27.3893L163.13 46.5837L169.97 27.7899ZM135.177 33.2653C126.115 38.4971 118.095 45.1042 111.142 53.0473L126.19 66.2207C131.719 59.9054 138.039 54.7069 145.177 50.5858L135.177 33.2653ZM84.0206 32.1281L136.757 51.3225L143.597 32.5286L90.861 13.3342L84.0206 32.1281ZM73.4542 47.0263C78.9825 40.711 85.3029 35.5125 92.4408 31.3914L82.4408 14.0709C73.3791 19.3027 65.3589 25.9097 58.4056 33.8529L73.4542 47.0263ZM62.2141 49.7235L62.216 49.7243L69.6438 31.1548L69.6419 31.154L62.2141 49.7235ZM60.578 67.4939C63.7463 60.1098 68.0356 53.2799 73.4871 46.9855L58.3689 33.892C51.6043 41.7027 46.2004 50.2808 42.1985 59.6076L60.578 67.4939ZM54.0188 53.903L54.0175 53.9026L48.7589 73.1989L48.7602 73.1993L54.0188 53.903ZM56.2109 87.4673C56.2109 81.1554 57.5986 74.5097 60.5932 67.4616L42.1858 59.6406C38.2757 68.8435 36.2109 78.142 36.2109 87.4673H56.2109ZM57.5611 94.751C56.6471 92.324 56.2109 89.9137 56.2109 87.4673H36.2109C36.2109 92.3795 37.1026 97.1745 38.8443 101.799L57.5611 94.751ZM104.359 108.073L51.6229 88.8783L44.7825 107.672L97.5187 126.867L104.359 108.073ZM88.9471 106.662C88.9471 111.574 89.8388 116.369 91.5805 120.994L110.297 113.945C109.383 111.518 108.947 109.108 108.947 106.662H88.9471ZM94.922 78.835C91.0119 88.0379 88.9471 97.3364 88.9471 106.662H108.947C108.947 100.35 110.335 93.7041 113.329 86.656L94.922 78.835ZM101.501 92.3948L101.502 92.3952L106.749 73.0959L106.748 73.0955L101.501 92.3948ZM111.105 53.0864C104.34 60.8971 98.9366 69.4752 94.9346 78.8021L113.314 86.6883C116.483 79.3042 120.772 72.4744 126.223 66.1799L111.105 53.0864ZM122.364 50.3429L122.362 50.3422L114.966 68.9242L114.968 68.925L122.364 50.3429ZM114.012 120.404C112.415 118.076 111.113 115.747 110.081 113.419L91.7959 121.522C93.3553 125.041 95.2709 128.439 97.5191 131.717L114.012 120.404ZM49.6093 116.263L102.346 135.457L109.186 116.664L56.4497 97.4691L49.6093 116.263ZM39.0597 102.327C40.6191 105.846 42.5347 109.244 44.7829 112.522L61.2762 101.21C59.6793 98.8815 58.3766 96.5529 57.3447 94.2243L39.0597 102.327ZM104.359 108.073L51.6224 88.8789L44.782 107.673L97.5182 126.867L104.359 108.073Z" fill="white" mask="url(#path-9-outside-4_1158_79704)"/>
<g filter="url(#filter1_ii_1158_79704)">
<path fill-rule="evenodd" clip-rule="evenodd" d="M166.72 176.147C167.391 175.118 168.382 174.601 168.979 174.991L179.531 181.885C179.837 182.085 180.265 182.052 180.713 181.793L203.017 168.916C204.427 168.102 205.164 165.741 204.212 165.091L181.73 149.755C181.232 149.415 181.165 148.519 181.554 147.572C184.202 141.124 186.476 134.499 188.376 127.697C190.954 118.841 192.794 109.82 193.896 100.637C194.04 99.4359 193.284 98.878 192.306 99.4429L177.205 108.162C176.411 108.62 175.736 109.674 175.597 110.657C174.391 119.17 172.543 127.38 170.052 135.287C169.84 135.99 169.623 136.689 169.4 137.384C168.928 138.856 167.553 139.863 166.791 139.322L144.757 123.676C142.765 122.22 140.442 120.495 137.786 118.502C135.13 116.509 132.541 114.172 130.018 111.489C127.495 108.806 125.371 105.97 123.645 102.981C122.051 99.7615 121.255 96.4655 121.255 93.0927C121.255 88.9534 121.985 85.0824 123.445 81.4796C124.906 77.8768 127.031 74.5805 129.819 71.5909C132.607 68.4479 136.06 65.6881 140.176 63.3116C145.62 60.1684 150.135 59.1716 153.72 60.3212C157.067 61.2871 159.93 64.0857 162.308 68.7171C162.728 69.5349 163.863 69.2942 164.713 68.1742L177.555 51.2547C178.18 50.4323 178.456 49.3784 178.197 48.7255C176.453 44.3252 173.804 41.0996 170.251 39.0488C166.534 36.5961 162.085 35.6382 156.907 36.1752C151.728 36.5588 146.151 38.4755 140.176 41.9253C132.076 46.6017 124.906 52.5045 118.665 59.6337C112.557 66.6862 107.711 74.3902 104.125 82.7457C100.673 90.8712 98.9469 98.8432 98.9469 106.662C98.9469 110.341 99.6109 113.944 100.939 117.47C102.032 119.936 103.348 122.36 104.887 124.741C105.348 125.454 104.989 126.892 104.112 127.864C95.5719 137.327 88.8708 147.163 84.0088 157.369C78.2992 169.557 75.4443 181.707 75.4443 193.818C75.4443 203.017 77.7016 210.222 82.2163 215.434C86.8637 220.416 93.0381 223.061 100.74 223.367C108.441 223.519 117.005 220.874 126.433 215.431C133.736 211.215 140.574 206.117 146.948 200.137C153.322 194.005 159.098 187.221 164.276 179.785C165.107 178.585 165.922 177.373 166.72 176.147ZM154.516 168.003C155.249 166.934 155.328 165.661 154.713 165.224L124.242 143.569C121.847 141.855 119.521 140.061 117.265 138.187C116.838 137.833 116.135 137.998 115.502 138.624C110.327 143.739 106.269 148.952 103.329 154.263C99.2125 161.546 97.1544 169.403 97.1544 177.835C97.1544 184.274 98.4822 189.179 101.138 192.552C103.794 195.924 107.578 197.572 112.491 197.495C117.537 197.342 123.512 195.272 130.417 191.285C136.392 187.835 141.836 183.389 146.749 177.946C149.495 174.859 152.084 171.544 154.516 168.003Z" fill="white"/>
</g>
<path d="M165.706 132.419L147.68 119.619C145.716 118.183 143.419 116.478 140.787 114.503C138.385 112.7 136.008 110.559 133.661 108.064C131.425 105.686 129.563 103.205 128.057 100.622C126.829 98.0947 126.255 95.5999 126.255 93.0927C126.255 89.5552 126.876 86.3263 128.079 83.3581C129.299 80.3501 131.082 77.5676 133.475 75.0012L133.518 74.9557L133.559 74.9091C135.948 72.2167 138.965 69.7845 142.676 67.6417C147.683 64.7508 150.622 64.5786 152.193 65.0824L152.263 65.1048L152.334 65.1252C153.82 65.5542 155.801 66.9903 157.861 71.0013C158.454 72.1567 159.448 73.1751 160.808 73.7457C162.12 74.2961 163.411 74.2799 164.43 74.0541C166.377 73.6231 167.803 72.3728 168.695 71.1972L181.538 54.2777C182.236 53.3579 182.764 52.2874 183.051 51.1682C183.315 50.1399 183.504 48.5442 182.846 46.883C180.772 41.6526 177.488 37.4947 172.88 34.7936C168.087 31.6755 162.508 30.581 156.464 31.1944C150.353 31.6611 144.073 33.902 137.676 37.5952C129.095 42.5493 121.5 48.8042 114.903 56.3403L114.894 56.3503L114.886 56.3603C108.449 63.7919 103.324 71.9329 99.5306 80.7741L99.5271 80.7823L99.5236 80.7904C95.8424 89.4546 93.9469 98.0899 93.9469 106.662C93.9469 110.958 94.7247 115.157 96.2595 119.232L96.3097 119.365L96.3674 119.496C97.2747 121.543 98.3174 123.554 99.4924 125.529C91.0962 134.999 84.4133 144.894 79.4948 155.219L79.4879 155.233L79.481 155.248C73.4953 168.026 70.4443 180.896 70.4443 193.818C70.4443 203.813 72.9046 212.321 78.4369 218.708L78.4972 218.777L78.56 218.845C84.2268 224.92 91.7111 228.012 100.541 228.363L100.591 228.365L100.64 228.366C109.554 228.542 119.026 225.481 128.933 219.761C136.58 215.346 143.726 210.016 150.369 203.784L150.392 203.762L150.415 203.74C157.03 197.375 163.018 190.34 168.379 182.642L168.386 182.632C168.713 182.161 169.037 181.687 169.359 181.212L176.796 186.071C179.307 187.711 181.902 186.88 183.213 186.123L205.517 173.246C207.569 172.061 208.758 170.083 209.273 168.432C209.545 167.562 209.745 166.43 209.582 165.196C209.418 163.945 208.794 162.165 207.029 160.961L187.044 147.327C189.397 141.383 191.444 135.296 193.185 129.069C195.835 119.958 197.727 110.678 198.861 101.233C199.042 99.7214 198.824 97.0959 196.513 95.3708C194.031 93.5185 191.288 94.2573 189.806 95.1128L174.705 103.831C172.44 105.139 170.977 107.618 170.646 109.956C169.547 117.717 167.899 125.204 165.706 132.419ZM121.332 147.635L121.339 147.64L121.346 147.644L148.93 167.248C147.051 169.843 145.082 172.296 143.026 174.609C138.444 179.682 133.407 183.785 127.917 186.955C121.374 190.732 116.247 192.369 112.376 192.496C108.788 192.545 106.603 191.41 105.066 189.459C103.376 187.313 102.154 183.688 102.154 177.835C102.154 170.258 103.993 163.249 107.682 156.724L107.692 156.704L107.703 156.685C109.977 152.577 113.032 148.456 116.918 144.329C118.363 145.461 119.835 146.563 121.332 147.635Z" stroke="white" stroke-width="10"/>
</g>
<path d="M176.771 109.717L192.981 100.358C194.5 99.4812 194.303 97.2288 192.654 96.6287L142.213 78.2695C141.639 78.0607 141.002 78.1164 140.474 78.4217L124.264 87.7801C122.745 88.6573 122.942 90.9098 124.591 91.5099L124.977 90.4478L124.591 91.5099L175.032 109.869C175.606 110.078 176.243 110.022 176.771 109.717Z" fill="#ECB9FF" stroke="#6421A6" stroke-width="2.26042" stroke-linejoin="round"/>
<mask id="path-14-outside-5_1158_79704" maskUnits="userSpaceOnUse" x="112.639" y="86.7617" width="66" height="56" fill="black">
<rect fill="white" x="112.639" y="86.7617" width="66" height="56"/>
<path fill-rule="evenodd" clip-rule="evenodd" d="M170.052 135.287C172.708 126.855 174.633 118.078 175.828 108.956L123.092 89.7617C121.897 98.8836 119.971 107.66 117.316 116.093L170.052 135.287ZM168.375 140.448C168.966 138.753 169.524 137.033 170.051 135.287L117.315 116.093C116.788 117.838 116.229 119.558 115.639 121.254L168.375 140.448Z"/>
</mask>
<path fill-rule="evenodd" clip-rule="evenodd" d="M170.052 135.287C172.708 126.855 174.633 118.078 175.828 108.956L123.092 89.7617C121.897 98.8836 119.971 107.66 117.316 116.093L170.052 135.287ZM168.375 140.448C168.966 138.753 169.524 137.033 170.051 135.287L117.315 116.093C116.788 117.838 116.229 119.558 115.639 121.254L168.375 140.448Z" fill="#DE86FF"/>
<path d="M175.828 108.956L178.069 109.25C178.207 108.199 177.597 107.194 176.601 106.832L175.828 108.956ZM170.052 135.287L169.279 137.411C169.858 137.622 170.499 137.587 171.052 137.314C171.605 137.041 172.023 136.554 172.208 135.966L170.052 135.287ZM123.092 89.7617L123.865 87.6376C123.221 87.4031 122.505 87.4737 121.919 87.8296C121.332 88.1855 120.94 88.7882 120.851 89.4681L123.092 89.7617ZM117.316 116.093L115.16 115.414C114.796 116.567 115.406 117.803 116.543 118.217L117.316 116.093ZM170.051 135.287L172.215 135.941C172.562 134.793 171.952 133.573 170.825 133.163L170.051 135.287ZM168.375 140.448L167.602 142.572C168.17 142.779 168.798 142.749 169.344 142.49C169.891 142.231 170.31 141.763 170.509 141.192L168.375 140.448ZM117.315 116.093L118.088 113.969C117.504 113.756 116.859 113.794 116.303 114.072C115.748 114.35 115.331 114.845 115.151 115.44L117.315 116.093ZM115.639 121.254L113.504 120.51C113.097 121.677 113.704 122.955 114.866 123.378L115.639 121.254ZM173.587 108.662C172.408 117.659 170.51 126.307 167.896 134.608L172.208 135.966C174.905 127.403 176.858 118.497 178.069 109.25L173.587 108.662ZM122.319 91.8858L175.055 111.08L176.601 106.832L123.865 87.6376L122.319 91.8858ZM119.472 116.772C122.169 108.209 124.122 99.3026 125.333 90.0553L120.851 89.4681C119.672 98.4645 117.774 107.112 115.16 115.414L119.472 116.772ZM170.825 133.163L118.089 113.968L116.543 118.217L169.279 137.411L170.825 133.163ZM167.887 134.634C167.37 136.349 166.82 138.039 166.24 139.704L170.509 141.192C171.111 139.466 171.679 137.716 172.215 135.941L167.887 134.634ZM116.542 118.217L169.278 137.411L170.825 133.163L118.088 113.969L116.542 118.217ZM117.773 121.997C118.375 120.272 118.943 118.522 119.479 116.746L115.151 115.44C114.633 117.155 114.084 118.845 113.504 120.51L117.773 121.997ZM169.148 138.324L116.412 119.13L114.866 123.378L167.602 142.572L169.148 138.324Z" fill="#6421A6" mask="url(#path-14-outside-5_1158_79704)"/>
<path d="M154.071 59.246L102.643 40.5278C102.203 40.3352 101.754 40.1726 101.297 40.0406C100.711 39.8717 100.098 40.1971 99.9088 40.7763C99.7201 41.3555 100.024 41.9801 100.597 42.1885L101.798 42.6259C104.528 43.8468 107.013 46.6251 109.155 51.2447C109.384 51.7392 109.802 52.1343 110.329 52.3261L160.61 70.627C162.279 71.2343 164.02 69.5228 163.105 67.801C160.699 63.2726 157.716 60.3123 154.071 59.246Z" fill="#DE86FF" stroke="#6421A6" stroke-width="2.26042" stroke-linejoin="round"/>
<mask id="path-17-outside-6_1158_79704" maskUnits="userSpaceOnUse" x="50.9604" y="115.401" width="108" height="85" fill="black">
<rect fill="white" x="50.9604" y="115.401" width="108" height="85"/>
<path fill-rule="evenodd" clip-rule="evenodd" d="M124.241 143.568C121.596 141.675 119.035 139.684 116.558 137.596L63.8218 118.401C66.2987 120.49 68.8599 122.48 71.5055 124.374L71.5057 124.374L103.104 146.831L155.841 166.026L124.242 143.569L124.242 143.568M146.749 177.946C150 174.291 153.03 170.317 155.841 166.026L103.104 146.831C100.294 151.123 97.2635 155.097 94.0122 158.752L94.0123 158.752C89.0994 164.194 83.6553 168.641 77.6802 172.09L77.6805 172.091C70.776 176.077 64.8009 178.147 59.7552 178.3L112.491 197.495C117.537 197.341 123.512 195.271 130.417 191.285L130.417 191.285C136.392 187.835 141.836 183.389 146.749 177.946L146.749 177.946ZM112.49 197.495C110.344 197.529 108.412 197.233 106.697 196.608L53.9666 177.416C55.6808 178.039 57.61 178.334 59.7542 178.301L112.49 197.495Z"/>
</mask>
<path fill-rule="evenodd" clip-rule="evenodd" d="M124.241 143.568C121.596 141.675 119.035 139.684 116.558 137.596L63.8218 118.401C66.2987 120.49 68.8599 122.48 71.5055 124.374L71.5057 124.374L103.104 146.831L155.841 166.026L124.242 143.569L124.242 143.568M146.749 177.946C150 174.291 153.03 170.317 155.841 166.026L103.104 146.831C100.294 151.123 97.2635 155.097 94.0122 158.752L94.0123 158.752C89.0994 164.194 83.6553 168.641 77.6802 172.09L77.6805 172.091C70.776 176.077 64.8009 178.147 59.7552 178.3L112.491 197.495C117.537 197.341 123.512 195.271 130.417 191.285L130.417 191.285C136.392 187.835 141.836 183.389 146.749 177.946L146.749 177.946ZM112.49 197.495C110.344 197.529 108.412 197.233 106.697 196.608L53.9666 177.416C55.6808 178.039 57.61 178.334 59.7542 178.301L112.49 197.495Z" fill="#DE86FF"/>
<path d="M124.627 142.506L124.627 142.506L123.856 144.631L123.856 144.631L124.627 142.506ZM54.3529 176.354L54.3467 176.352L53.5742 178.476L53.5803 178.478L54.3529 176.354ZM116.558 137.596L118.015 135.867C117.812 135.696 117.581 135.562 117.331 135.471L116.558 137.596ZM63.8218 118.401L64.5949 116.277C63.565 115.902 62.4146 116.32 61.8655 117.269C61.3164 118.217 61.5268 119.423 62.3647 120.129L63.8218 118.401ZM71.5055 124.374L70.1899 126.212C70.3572 126.332 70.54 126.428 70.7334 126.499L71.5055 124.374ZM71.5057 124.374L72.8152 122.532C72.6496 122.414 72.4688 122.319 72.2779 122.25L71.5057 124.374ZM103.104 146.831L101.795 148.674C101.96 148.791 102.141 148.886 102.331 148.955L103.104 146.831ZM155.841 166.026L155.068 168.15C156.131 168.537 157.316 168.078 157.842 167.076C158.368 166.075 158.072 164.838 157.15 164.183L155.841 166.026ZM124.242 143.569L122.138 144.396C122.299 144.804 122.575 145.157 122.932 145.411L124.242 143.569ZM155.841 166.026L157.732 167.264C158.11 166.686 158.203 165.968 157.986 165.313C157.768 164.657 157.262 164.138 156.614 163.902L155.841 166.026ZM146.749 177.946L145.06 176.444C144.555 177.011 144.369 177.795 144.565 178.529C144.761 179.264 145.313 179.85 146.034 180.09L146.749 177.946ZM103.104 146.831L103.878 144.707C102.892 144.348 101.788 144.715 101.213 145.593L103.104 146.831ZM94.0122 158.752L92.3233 157.25C91.8182 157.817 91.6322 158.601 91.8284 159.335C92.0245 160.069 92.5764 160.656 93.2974 160.896L94.0122 158.752ZM94.0123 158.752L95.6902 160.266C96.2014 159.7 96.3924 158.914 96.1982 158.176C96.004 157.439 95.4508 156.849 94.7271 156.607L94.0123 158.752ZM77.6802 172.09L76.55 170.133C75.7904 170.571 75.3531 171.41 75.4281 172.284C75.503 173.157 76.0767 173.909 76.8999 174.212L77.6802 172.09ZM77.6805 172.091L78.8107 174.048C79.5703 173.61 80.0076 172.771 79.9327 171.897C79.8577 171.023 79.284 170.272 78.4608 169.969L77.6805 172.091ZM59.7552 178.3L59.6864 176.041C58.6029 176.074 57.6954 176.872 57.5234 177.942C57.3514 179.012 57.9635 180.054 58.9821 180.424L59.7552 178.3ZM112.491 197.495L111.718 199.619C111.988 199.717 112.274 199.763 112.56 199.754L112.491 197.495ZM130.417 191.285L131.547 193.242C132.31 192.802 132.748 191.958 132.668 191.081C132.589 190.204 132.007 189.452 131.177 189.156L130.417 191.285ZM130.417 191.285L129.287 189.327C128.524 189.767 128.086 190.611 128.166 191.488C128.245 192.366 128.827 193.117 129.657 193.413L130.417 191.285ZM146.749 177.946L148.427 179.461C148.938 178.894 149.129 178.108 148.935 177.371C148.74 176.633 148.187 176.043 147.464 175.802L146.749 177.946ZM106.697 196.608L107.47 194.484L107.47 194.484L106.697 196.608ZM112.49 197.495L112.526 199.755C113.616 199.738 114.539 198.945 114.719 197.87C114.9 196.795 114.288 195.744 113.263 195.371L112.49 197.495ZM53.9666 177.416L54.7392 175.292C53.5661 174.865 52.2692 175.47 51.8424 176.643C51.4156 177.816 52.0205 179.113 53.1935 179.54L53.9666 177.416ZM59.7542 178.301L60.5273 176.177C60.2683 176.082 59.9943 176.036 59.7188 176.041L59.7542 178.301ZM115.101 139.324C117.624 141.451 120.232 143.478 122.926 145.406L125.557 141.73C122.96 139.871 120.446 137.917 118.015 135.867L115.101 139.324ZM63.0487 120.525L115.785 139.72L117.331 135.471L64.5949 116.277L63.0487 120.525ZM72.8212 122.536C70.2239 120.677 67.7099 118.723 65.2788 116.673L62.3647 120.129C64.8875 122.256 67.4959 124.284 70.1899 126.212L72.8212 122.536ZM72.2779 122.25L72.2776 122.25L70.7334 126.499L70.7336 126.499L72.2779 122.25ZM70.1963 126.217L101.795 148.674L104.414 144.989L72.8152 122.532L70.1963 126.217ZM102.331 148.955L155.068 168.15L156.614 163.901L103.878 144.707L102.331 148.955ZM157.15 164.183L125.551 141.726L122.932 145.411L154.531 167.868L157.15 164.183ZM126.345 142.741L126.345 142.741L122.138 144.396L122.138 144.396L126.345 142.741ZM153.95 164.788C151.197 168.991 148.234 172.875 145.06 176.444L148.438 179.448C151.766 175.706 154.864 171.644 157.732 167.264L153.95 164.788ZM102.331 148.956L155.068 168.15L156.614 163.902L103.878 144.707L102.331 148.956ZM95.7012 160.254C99.0297 156.512 102.127 152.45 104.995 148.07L101.213 145.593C98.461 149.796 95.4973 153.681 92.3233 157.25L95.7012 160.254ZM94.7271 156.607L94.727 156.607L93.2974 160.896L93.2975 160.896L94.7271 156.607ZM78.8104 174.048C85.0026 170.473 90.6289 165.873 95.6902 160.266L92.3344 157.237C87.5698 162.515 82.3081 166.808 76.55 170.133L78.8104 174.048ZM78.4608 169.969L78.4605 169.969L76.8999 174.212L76.9002 174.212L78.4608 169.969ZM59.824 180.56C65.3986 180.39 71.7517 178.124 78.8107 174.048L76.5503 170.133C69.8003 174.03 64.2031 175.903 59.6864 176.041L59.824 180.56ZM113.265 195.371L60.5283 176.176L58.9821 180.424L111.718 199.619L113.265 195.371ZM129.287 189.327C122.537 193.224 116.939 195.098 112.423 195.235L112.56 199.754C118.135 199.584 124.488 197.318 131.547 193.242L129.287 189.327ZM129.657 193.413L129.657 193.413L131.177 189.156L131.177 189.156L129.657 193.413ZM145.071 176.431C140.306 181.71 135.045 186.003 129.287 189.327L131.547 193.242C137.739 189.667 143.365 185.068 148.427 179.461L145.071 176.431ZM146.034 180.09L146.034 180.09L147.464 175.802L147.463 175.802L146.034 180.09ZM105.923 198.732C107.939 199.466 110.151 199.792 112.526 199.755L112.455 195.235C110.536 195.265 108.886 195 107.47 194.484L105.923 198.732ZM53.1935 179.54L105.924 198.732L107.47 194.484L54.7397 175.292L53.1935 179.54ZM59.7188 176.041C57.8025 176.071 56.1535 175.806 54.7392 175.292L53.1941 179.54C55.2082 180.273 57.4175 180.598 59.7896 180.561L59.7188 176.041ZM113.263 195.371L60.5273 176.177L58.9811 180.425L111.717 199.619L113.263 195.371Z" fill="#6421A6" mask="url(#path-17-outside-6_1158_79704)"/>
<mask id="path-19-outside-7_1158_79704" maskUnits="userSpaceOnUse" x="19.707" y="103.865" width="89" height="121" fill="black">
<rect fill="white" x="19.707" y="103.865" width="89" height="121"/>
<path fill-rule="evenodd" clip-rule="evenodd" d="M105.765 126.06C96.4316 136.076 89.1793 146.512 84.0077 157.368C78.2981 169.557 75.4432 181.706 75.4432 193.818L22.707 174.623C22.707 162.512 25.5618 150.363 31.2713 138.174L31.2713 138.174C36.4429 127.318 43.6953 116.882 53.0285 106.865L105.765 126.06ZM82.2144 215.433C77.7003 210.221 75.4432 203.016 75.4432 193.818L22.707 174.624C22.707 183.823 24.9643 191.028 29.479 196.24L29.48 196.24C32.1237 199.074 35.2615 201.151 38.8933 202.472L91.6171 221.662C87.9901 220.341 84.8562 218.265 82.2153 215.434L82.2144 215.433Z"/>
</mask>
<path fill-rule="evenodd" clip-rule="evenodd" d="M105.765 126.06C96.4316 136.076 89.1793 146.512 84.0077 157.368C78.2981 169.557 75.4432 181.706 75.4432 193.818L22.707 174.623C22.707 162.512 25.5618 150.363 31.2713 138.174L31.2713 138.174C36.4429 127.318 43.6953 116.882 53.0285 106.865L105.765 126.06ZM82.2144 215.433C77.7003 210.221 75.4432 203.016 75.4432 193.818L22.707 174.624C22.707 183.823 24.9643 191.028 29.479 196.24L29.48 196.24C32.1237 199.074 35.2615 201.151 38.8933 202.472L91.6171 221.662C87.9901 220.341 84.8562 218.265 82.2153 215.434L82.2144 215.433Z" fill="#ECB9FF"/>
<path d="M92.0159 220.604L92.0035 220.6L91.2308 222.724L91.2432 222.729L92.0159 220.604ZM84.0077 157.368L81.967 156.396C81.9649 156.401 81.9629 156.405 81.9608 156.409L84.0077 157.368ZM105.765 126.06L107.418 127.601C107.935 127.046 108.14 126.269 107.963 125.532C107.785 124.794 107.25 124.195 106.538 123.936L105.765 126.06ZM75.4432 193.818L74.6701 195.942C75.3631 196.194 76.1356 196.092 76.7398 195.669C77.3439 195.246 77.7036 194.555 77.7036 193.818H75.4432ZM22.707 174.623H20.4466C20.4466 175.574 21.041 176.422 21.9339 176.747L22.707 174.623ZM31.2713 138.174L33.3183 139.133C33.5822 138.57 33.6022 137.923 33.3737 137.344C33.1452 136.766 32.6884 136.307 32.1108 136.076L31.2713 138.174ZM31.2713 138.174L29.2306 137.202C28.9619 137.766 28.9386 138.416 29.1662 138.998C29.3937 139.58 29.8518 140.041 30.4318 140.273L31.2713 138.174ZM53.0285 106.865L53.8016 104.741C52.9489 104.431 51.9933 104.661 51.3747 105.324L53.0285 106.865ZM75.4432 193.818H77.7036C77.7036 192.868 77.1093 192.019 76.2163 191.694L75.4432 193.818ZM82.2144 215.433L80.5057 216.913C80.7578 217.204 81.08 217.426 81.4419 217.558L82.2144 215.433ZM22.707 174.624L23.4801 172.5C22.7871 172.248 22.0146 172.349 21.4105 172.772C20.8064 173.195 20.4466 173.887 20.4466 174.624H22.707ZM29.479 196.24L27.7704 197.72C28.0233 198.012 28.3467 198.234 28.7099 198.365L29.479 196.24ZM29.48 196.24L31.1329 194.698C30.8887 194.437 30.5858 194.237 30.2491 194.115L29.48 196.24ZM38.8933 202.472L39.6664 200.348L39.6659 200.348L38.8933 202.472ZM91.6171 221.662L90.844 223.786C92.017 224.213 93.314 223.608 93.7411 222.436C94.1682 221.263 93.5637 219.965 92.3908 219.538L91.6171 221.662ZM82.2153 215.434L83.8683 213.892C83.6249 213.631 83.3232 213.431 82.9878 213.309L82.2153 215.434ZM86.0484 158.34C91.1082 147.719 98.2212 137.471 107.418 127.601L104.111 124.519C94.642 134.681 87.2505 145.305 81.967 156.396L86.0484 158.34ZM81.9608 156.409C76.1263 168.864 73.1828 181.34 73.1828 193.818H77.7036C77.7036 182.073 80.4698 170.249 86.0547 158.327L81.9608 156.409ZM76.2163 191.694L23.4801 172.499L21.9339 176.747L74.6701 195.942L76.2163 191.694ZM24.9674 174.623C24.9674 162.879 27.7336 151.055 33.3183 139.133L29.2244 137.216C23.39 149.67 20.4466 162.145 20.4466 174.623H24.9674ZM30.4318 140.273L30.4318 140.273L32.1108 136.076L32.1108 136.076L30.4318 140.273ZM51.3747 105.324C41.9057 115.486 34.514 126.111 29.2306 137.202L33.312 139.147C38.3717 128.525 45.4849 118.277 54.6822 108.406L51.3747 105.324ZM106.538 123.936L53.8016 104.741L52.2554 108.99L104.992 128.184L106.538 123.936ZM73.1828 193.818C73.1828 203.376 75.5316 211.17 80.5057 216.913L83.923 213.954C79.869 209.273 77.7036 202.656 77.7036 193.818H73.1828ZM21.9339 176.748L74.6701 195.943L76.2163 191.694L23.4801 172.5L21.9339 176.748ZM31.1876 194.76C27.133 190.079 24.9674 183.463 24.9674 174.624H20.4466C20.4466 184.182 22.7957 191.976 27.7704 197.72L31.1876 194.76ZM30.2491 194.115L30.2481 194.114L28.7099 198.365L28.7109 198.366L30.2491 194.115ZM39.6659 200.348C36.3703 199.149 33.5339 197.272 31.1329 194.698L27.8272 197.782C30.7135 200.876 34.1526 203.153 38.1207 204.597L39.6659 200.348ZM92.3902 219.538L39.6664 200.348L38.1202 204.596L90.844 223.786L92.3902 219.538ZM80.5624 216.976C83.4456 220.066 86.8806 222.342 90.8435 223.786L92.3908 219.538C89.0997 218.339 86.2668 216.463 83.8683 213.892L80.5624 216.976ZM81.4419 217.558L81.4429 217.558L82.9878 213.309L82.9869 213.309L81.4419 217.558Z" fill="#6421A6" mask="url(#path-19-outside-7_1158_79704)"/>
<mask id="path-21-outside-8_1158_79704" maskUnits="userSpaceOnUse" x="43.2109" y="13.8359" width="126" height="115" fill="black">
<rect fill="white" x="43.2109" y="13.8359" width="126" height="115"/>
<path fill-rule="evenodd" clip-rule="evenodd" d="M166.55 37.1868C163.68 36.1432 160.465 35.8059 156.906 36.175L156.905 36.1747C151.727 36.5585 146.15 38.4752 140.175 41.9248L87.4392 22.7304C93.4144 19.2806 98.9913 17.3639 104.17 16.9803L104.17 16.9805C107.73 16.6116 110.944 16.9489 113.814 17.9924L166.55 37.1868ZM118.666 59.634C124.907 52.5048 132.077 46.602 140.177 41.9256L87.4408 22.7312C79.341 27.4076 72.1707 33.3104 65.9299 40.4396L65.928 40.4388C59.8199 47.4913 54.9734 55.1953 51.3882 63.5508L51.3895 63.5511C47.9371 71.6766 46.2109 79.6487 46.2109 87.4673C46.2109 91.1466 46.8749 94.7493 48.2027 98.2752L100.939 117.47C99.6111 113.944 98.9471 110.341 98.9471 106.662C98.9471 98.8431 100.673 90.871 104.126 82.7455L104.124 82.7452C107.71 74.3897 112.556 66.6857 118.664 59.6332L118.666 59.634ZM100.938 117.47C102.234 120.394 103.843 123.257 105.766 126.06L53.0295 106.866C51.107 104.063 49.4979 101.2 48.2022 98.2758L100.938 117.47Z"/>
</mask>
<path fill-rule="evenodd" clip-rule="evenodd" d="M166.55 37.1868C163.68 36.1432 160.465 35.8059 156.906 36.175L156.905 36.1747C151.727 36.5585 146.15 38.4752 140.175 41.9248L87.4392 22.7304C93.4144 19.2806 98.9913 17.3639 104.17 16.9803L104.17 16.9805C107.73 16.6116 110.944 16.9489 113.814 17.9924L166.55 37.1868ZM118.666 59.634C124.907 52.5048 132.077 46.602 140.177 41.9256L87.4408 22.7312C79.341 27.4076 72.1707 33.3104 65.9299 40.4396L65.928 40.4388C59.8199 47.4913 54.9734 55.1953 51.3882 63.5508L51.3895 63.5511C47.9371 71.6766 46.2109 79.6487 46.2109 87.4673C46.2109 91.1466 46.8749 94.7493 48.2027 98.2752L100.939 117.47C99.6111 113.944 98.9471 110.341 98.9471 106.662C98.9471 98.8431 100.673 90.871 104.126 82.7455L104.124 82.7452C107.71 74.3897 112.556 66.6857 118.664 59.6332L118.666 59.634ZM100.938 117.47C102.234 120.394 103.843 123.257 105.766 126.06L53.0295 106.866C51.107 104.063 49.4979 101.2 48.2022 98.2758L100.938 117.47Z" fill="#ECB9FF"/>
<path d="M156.906 36.175L156.133 38.2993C156.455 38.4162 156.798 38.4586 157.139 38.4234L156.906 36.175ZM166.55 37.1868L165.777 39.3111C166.95 39.7377 168.247 39.1327 168.674 37.9596C169.101 36.7866 168.496 35.4896 167.323 35.0627L166.55 37.1868ZM156.905 36.1747L157.677 34.0504C157.377 33.9412 157.057 33.8969 156.738 33.9205L156.905 36.1747ZM140.175 41.9248L139.402 44.0489C140.03 44.2774 140.727 44.2165 141.306 43.8824L140.175 41.9248ZM87.4392 22.7304L86.309 20.7728C85.5482 21.212 85.1108 22.0523 85.1874 22.9274C85.2639 23.8025 85.8406 24.554 86.6661 24.8545L87.4392 22.7304ZM104.17 16.9803L104.944 14.8565C104.643 14.7468 104.322 14.7024 104.003 14.726L104.17 16.9803ZM104.17 16.9805L103.397 19.1043C103.718 19.2216 104.063 19.2642 104.403 19.2289L104.17 16.9805ZM113.814 17.9924L114.587 15.8683L114.586 15.8681L113.814 17.9924ZM140.177 41.9256L141.307 43.8831C142.068 43.4439 142.505 42.6037 142.429 41.7286C142.352 40.8534 141.776 40.1019 140.95 39.8015L140.177 41.9256ZM118.666 59.634L117.83 61.7341C118.72 62.0883 119.736 61.8434 120.367 61.1228L118.666 59.634ZM87.4408 22.7312L88.2139 20.6071C87.586 20.3785 86.8892 20.4395 86.3106 20.7736L87.4408 22.7312ZM65.9299 40.4396L65.0904 42.5383C65.9808 42.8945 66.9991 42.65 67.6307 41.9284L65.9299 40.4396ZM65.928 40.4388L66.7675 38.34C65.873 37.9822 64.85 38.2307 64.2193 38.9589L65.928 40.4388ZM51.3882 63.5508L49.3109 62.6595C49.053 63.2607 49.0681 63.9442 49.3525 64.5334C49.6369 65.1226 50.1627 65.5596 50.7939 65.7317L51.3882 63.5508ZM51.3895 63.5511L53.4699 64.435C53.7252 63.8342 53.7082 63.1523 53.4234 62.5649C53.1386 61.9775 52.6137 61.5419 51.9838 61.3702L51.3895 63.5511ZM48.2027 98.2752L46.0873 99.0719C46.3197 99.689 46.8099 100.174 47.4296 100.399L48.2027 98.2752ZM100.939 117.47L100.166 119.594C100.996 119.896 101.925 119.687 102.546 119.059C103.167 118.431 103.365 117.499 103.054 116.673L100.939 117.47ZM104.126 82.7455L106.206 83.6294C106.461 83.0284 106.444 82.3463 106.159 81.7587C105.874 81.1712 105.349 80.7356 104.719 80.5643L104.126 82.7455ZM104.124 82.7452L102.047 81.8539C101.789 82.4553 101.804 83.1391 102.089 83.7284C102.374 84.3177 102.9 84.7547 103.531 84.9264L104.124 82.7452ZM118.664 59.6332L119.5 57.533C118.606 57.1773 117.585 57.4262 116.955 58.1533L118.664 59.6332ZM105.766 126.06L104.993 128.185C105.916 128.521 106.95 128.222 107.552 127.445C108.154 126.669 108.186 125.592 107.63 124.782L105.766 126.06ZM100.938 117.47L103.005 116.554C102.756 115.993 102.289 115.556 101.712 115.346L100.938 117.47ZM53.0295 106.866L51.1655 108.145C51.4321 108.533 51.8135 108.829 52.2564 108.99L53.0295 106.866ZM48.2022 98.2758L48.9753 96.1517C48.1236 95.8417 47.1691 96.0704 46.5504 96.7328C45.9317 97.3951 45.7684 98.363 46.1356 99.1916L48.2022 98.2758ZM157.139 38.4234C160.417 38.0835 163.28 38.4029 165.777 39.3111L167.322 35.0625C164.08 33.8834 160.514 33.5283 156.673 33.9266L157.139 38.4234ZM156.132 38.2991L156.133 38.2993L157.678 34.0507L157.677 34.0504L156.132 38.2991ZM141.306 43.8824C147.078 40.5495 152.326 38.7808 157.072 38.429L156.738 33.9205C151.128 34.3363 145.222 36.4009 139.045 39.9672L141.306 43.8824ZM86.6661 24.8545L139.402 44.0489L140.948 39.8007L88.2123 20.6063L86.6661 24.8545ZM104.003 14.726C98.3926 15.1416 92.4864 17.2063 86.309 20.7728L88.5694 24.688C94.3425 21.3549 99.5901 19.5861 104.337 19.2345L104.003 14.726ZM104.944 14.8567L104.944 14.8565L103.396 19.1041L103.397 19.1043L104.944 14.8567ZM114.586 15.8681C111.345 14.6892 107.779 14.334 103.937 14.7321L104.403 19.2289C107.681 18.8892 110.544 19.2086 113.041 20.1167L114.586 15.8681ZM167.323 35.0627L114.587 15.8683L113.041 20.1165L165.777 39.3109L167.323 35.0627ZM139.047 39.968C130.73 44.7699 123.367 50.8319 116.965 58.1451L120.367 61.1228C126.447 54.1776 133.425 48.434 141.307 43.8831L139.047 39.968ZM86.6677 24.8553L139.404 44.0497L140.95 39.8015L88.2139 20.6071L86.6677 24.8553ZM67.6307 41.9284C73.7105 34.9832 80.6886 29.2396 88.571 24.6887L86.3106 20.7736C77.9933 25.5755 70.631 31.6375 64.2291 38.9507L67.6307 41.9284ZM65.0885 42.5375L65.0904 42.5383L66.7694 38.3408L66.7675 38.34L65.0885 42.5375ZM53.4655 64.4421C56.9564 56.3062 61.677 48.7998 67.6366 41.9186L64.2193 38.9589C57.9629 46.1828 52.9903 54.0844 49.3109 62.6595L53.4655 64.4421ZM51.9838 61.3702L51.9826 61.3699L50.7939 65.7317L50.7951 65.732L51.9838 61.3702ZM48.4714 87.4673C48.4714 79.9893 50.121 72.317 53.4699 64.435L49.3091 62.6672C45.7532 71.0362 43.9505 79.3081 43.9505 87.4673H48.4714ZM50.3181 97.4786C49.0838 94.2011 48.4714 90.8679 48.4714 87.4673H43.9505C43.9505 91.4253 44.6659 95.2975 46.0873 99.0719L50.3181 97.4786ZM101.712 115.346L48.9758 96.1512L47.4296 100.399L100.166 119.594L101.712 115.346ZM96.6867 106.662C96.6867 110.62 97.4021 114.492 98.8235 118.266L103.054 116.673C101.82 113.395 101.208 110.062 101.208 106.662H96.6867ZM102.045 81.8616C98.4894 90.2306 96.6867 98.5025 96.6867 106.662H101.208C101.208 99.1837 102.857 91.5114 106.206 83.6294L102.045 81.8616ZM103.531 84.9264L103.533 84.9267L104.719 80.5643L104.717 80.564L103.531 84.9264ZM116.955 58.1533C110.699 65.3772 105.727 73.2788 102.047 81.8539L106.202 83.6365C109.693 75.5006 114.413 67.9942 120.373 61.113L116.955 58.1533ZM119.502 57.5338L119.5 57.533L117.828 61.7333L117.83 61.7341L119.502 57.5338ZM107.63 124.782C105.781 122.086 104.241 119.344 103.005 116.554L98.8718 118.386C100.227 121.444 101.905 124.429 103.902 127.339L107.63 124.782ZM52.2564 108.99L104.993 128.185L106.539 123.936L53.8026 104.742L52.2564 108.99ZM46.1356 99.1916C47.4909 102.25 49.1693 105.234 51.1655 108.145L54.8936 105.588C53.0447 102.892 51.5048 100.149 50.2688 97.36L46.1356 99.1916ZM101.712 115.346L48.9753 96.1517L47.4291 100.4L100.165 119.594L101.712 115.346Z" fill="#6421A6" mask="url(#path-21-outside-8_1158_79704)"/>
<g filter="url(#filter2_ii_1158_79704)">
<path fill-rule="evenodd" clip-rule="evenodd" d="M166.72 176.147C167.391 175.118 168.382 174.601 168.979 174.991L179.531 181.885C179.837 182.085 180.265 182.052 180.713 181.793L203.017 168.916C204.427 168.102 205.164 165.741 204.212 165.091L181.73 149.755C181.232 149.415 181.165 148.519 181.554 147.572C184.202 141.124 186.476 134.499 188.376 127.697C190.954 118.841 192.794 109.82 193.896 100.637C194.04 99.4359 193.284 98.878 192.306 99.4429L177.205 108.162C176.411 108.62 175.736 109.674 175.597 110.657C174.391 119.17 172.543 127.38 170.052 135.287C169.84 135.99 169.623 136.689 169.4 137.384C168.928 138.856 167.553 139.863 166.791 139.322L144.757 123.676C142.765 122.22 140.442 120.495 137.786 118.502C135.13 116.509 132.541 114.172 130.018 111.489C127.495 108.806 125.371 105.97 123.645 102.981C122.051 99.7615 121.255 96.4655 121.255 93.0927C121.255 88.9534 121.985 85.0824 123.445 81.4796C124.906 77.8768 127.031 74.5805 129.819 71.5909C132.607 68.4479 136.06 65.6881 140.176 63.3116C145.62 60.1684 150.135 59.1716 153.72 60.3212C157.067 61.2871 159.93 64.0857 162.308 68.7171C162.728 69.5349 163.863 69.2942 164.713 68.1742L177.555 51.2547C178.18 50.4323 178.456 49.3784 178.197 48.7255C176.453 44.3252 173.804 41.0996 170.251 39.0488C166.534 36.5961 162.085 35.6382 156.907 36.1752C151.728 36.5588 146.151 38.4755 140.176 41.9253C132.076 46.6017 124.906 52.5045 118.665 59.6337C112.557 66.6862 107.711 74.3902 104.125 82.7457C100.673 90.8712 98.9469 98.8432 98.9469 106.662C98.9469 110.341 99.6109 113.944 100.939 117.47C102.032 119.936 103.348 122.36 104.887 124.741C105.348 125.454 104.989 126.892 104.112 127.864C95.5719 137.327 88.8708 147.163 84.0088 157.369C78.2992 169.557 75.4443 181.707 75.4443 193.818C75.4443 203.017 77.7016 210.222 82.2163 215.434C86.8637 220.416 93.0381 223.061 100.74 223.367C108.441 223.519 117.005 220.874 126.433 215.431C133.736 211.215 140.574 206.117 146.948 200.137C153.322 194.005 159.098 187.221 164.276 179.785C165.107 178.585 165.922 177.373 166.72 176.147ZM154.516 168.003C155.249 166.934 155.328 165.661 154.713 165.224L124.242 143.569C121.847 141.855 119.521 140.061 117.265 138.187C116.838 137.833 116.135 137.998 115.502 138.624C110.327 143.739 106.269 148.952 103.329 154.263C99.2125 161.546 97.1544 169.403 97.1544 177.835C97.1544 184.274 98.4822 189.179 101.138 192.552C103.794 195.924 107.578 197.572 112.491 197.495C117.537 197.342 123.512 195.272 130.417 191.285C136.392 187.835 141.836 183.389 146.749 177.946C149.495 174.859 152.084 171.544 154.516 168.003Z" fill="white"/>
</g>
<path d="M168.974 134.948L168.974 134.948L168.97 134.96C168.76 135.657 168.544 136.35 168.324 137.039C168.157 137.559 167.832 137.978 167.532 138.199C167.442 138.266 167.377 138.302 167.333 138.321L145.424 122.763C145.422 122.762 145.42 122.76 145.418 122.759C143.432 121.307 141.115 119.587 138.464 117.598C135.866 115.648 133.325 113.355 130.842 110.715C128.383 108.101 126.318 105.345 124.642 102.447C123.131 99.3838 122.385 96.2692 122.385 93.0927C122.385 89.0895 123.09 85.3636 124.493 81.9042C125.899 78.4359 127.946 75.2557 130.646 72.3617L130.655 72.3515L130.664 72.3409C133.363 69.2998 136.716 66.6141 140.741 64.2904C146.087 61.2042 150.245 60.3938 153.375 61.3974L153.391 61.4025L153.407 61.4071C156.333 62.2516 158.997 64.7423 161.303 69.2334C161.518 69.6528 161.859 69.9901 162.305 70.177C162.74 70.3594 163.192 70.3647 163.594 70.2758C164.376 70.1026 165.082 69.5567 165.613 68.8576L178.456 51.938C178.855 51.4119 179.149 50.8068 179.302 50.2072C179.451 49.6281 179.497 48.9372 179.248 48.309C177.43 43.7218 174.638 40.2849 170.846 38.0868C166.884 35.4833 162.179 34.4952 156.807 35.0493C151.417 35.4517 145.681 37.4419 139.611 40.9465C131.403 45.6857 124.136 51.6681 117.815 58.8892L117.811 58.8938C111.629 66.032 106.719 73.8348 103.087 82.3L103.085 82.3037C99.5812 90.551 97.8167 98.673 97.8167 106.662C97.8167 110.481 98.5064 114.218 99.881 117.868L99.8923 117.898L99.9054 117.928C101.024 120.451 102.368 122.927 103.938 125.355C103.936 125.351 103.936 125.352 103.938 125.358C103.947 125.392 103.996 125.567 103.905 125.932C103.807 126.325 103.586 126.76 103.273 127.107C94.6688 136.641 87.903 146.566 82.9885 156.883L82.9854 156.89C77.2133 169.211 74.3141 181.524 74.3141 193.818C74.3141 203.197 76.6173 210.696 81.362 216.174L81.3756 216.19L81.3898 216.205C86.2676 221.434 92.7381 224.18 100.695 224.496L100.706 224.496L100.717 224.497C108.693 224.655 117.462 221.916 126.998 216.41C134.379 212.149 141.287 206.998 147.721 200.962L147.727 200.957L147.732 200.952C154.16 194.767 159.984 187.926 165.204 180.431L165.205 180.429C166.042 179.22 166.863 177.999 167.667 176.764C167.919 176.378 168.198 176.143 168.395 176.041C168.425 176.026 168.449 176.015 168.469 176.007L178.913 182.831C179.718 183.357 180.635 183.143 181.278 182.772L203.582 169.894C204.592 169.312 205.276 168.25 205.579 167.279C205.734 166.783 205.815 166.232 205.746 165.701C205.675 165.166 205.432 164.556 204.848 164.158L182.445 148.875C182.442 148.857 182.438 148.833 182.436 148.802C182.422 148.631 182.456 148.349 182.599 148.002C185.263 141.514 187.551 134.849 189.463 128.008C192.057 119.093 193.909 110.014 195.018 100.771C195.115 99.9651 194.948 99.0313 194.198 98.472C193.41 97.8838 192.454 98.0522 191.741 98.4641L176.64 107.183C175.513 107.833 174.66 109.209 174.478 110.498C173.28 118.953 171.445 127.102 168.974 134.948ZM167.264 138.34C167.265 138.338 167.275 138.335 167.293 138.336C167.273 138.342 167.263 138.342 167.264 138.34ZM168.53 175.99C168.53 175.991 168.525 175.992 168.516 175.992C168.526 175.989 168.53 175.989 168.53 175.99ZM182.457 148.916C182.457 148.917 182.456 148.914 182.454 148.909C182.456 148.913 182.457 148.916 182.457 148.916ZM123.584 144.488L123.587 144.49L153.986 166.094C153.993 166.13 154 166.195 153.992 166.3C153.973 166.581 153.85 166.975 153.584 167.363C151.179 170.866 148.62 174.142 145.907 177.193C141.069 182.551 135.717 186.92 129.851 190.306C123.028 194.246 117.244 196.218 112.465 196.365C107.85 196.436 104.428 194.904 102.026 191.853C99.5885 188.757 98.2846 184.141 98.2846 177.835C98.2846 169.596 100.293 161.931 104.313 154.82L104.318 154.811C107.196 149.611 111.183 144.482 116.297 139.427C116.456 139.27 116.585 139.193 116.665 139.158C118.905 141.012 121.211 142.789 123.584 144.488ZM153.974 166.057C153.974 166.057 153.976 166.059 153.978 166.066C153.975 166.06 153.974 166.057 153.974 166.057Z" stroke="#6421A6" stroke-width="2.26042"/>
<defs>
<filter id="filter0_d_1158_79704" x="0.707031" y="0.836182" width="225.934" height="250.537" filterUnits="userSpaceOnUse" color-interpolation-filters="sRGB">
<feFlood flood-opacity="0" result="BackgroundImageFix"/>
<feColorMatrix in="SourceAlpha" type="matrix" values="0 0 0 0 0 0 0 0 0 0 0 0 0 0 0 0 0 0 127 0" result="hardAlpha"/>
<feOffset dy="6"/>
<feGaussianBlur stdDeviation="6"/>
<feComposite in2="hardAlpha" operator="out"/>
<feColorMatrix type="matrix" values="0 0 0 0 0 0 0 0 0 0 0 0 0 0 0 0 0 0 0.14 0"/>
<feBlend mode="normal" in2="BackgroundImageFix" result="effect1_dropShadow_1158_79704"/>
<feBlend mode="normal" in="SourceGraphic" in2="effect1_dropShadow_1158_79704" result="shape"/>
</filter>
<filter id="filter1_ii_1158_79704" x="65.4443" y="25.6571" width="149.196" height="208.09" filterUnits="userSpaceOnUse" color-interpolation-filters="sRGB">
<feFlood flood-opacity="0" result="BackgroundImageFix"/>
<feBlend mode="normal" in="SourceGraphic" in2="BackgroundImageFix" result="shape"/>
<feColorMatrix in="SourceAlpha" type="matrix" values="0 0 0 0 0 0 0 0 0 0 0 0 0 0 0 0 0 0 127 0" result="hardAlpha"/>
<feOffset dy="-0.748276"/>
<feGaussianBlur stdDeviation="0.187069"/>
<feComposite in2="hardAlpha" operator="arithmetic" k2="-1" k3="1"/>
<feColorMatrix type="matrix" values="0 0 0 0 0 0 0 0 0 0 0 0 0 0 0 0 0 0 0.25 0"/>
<feBlend mode="normal" in2="shape" result="effect1_innerShadow_1158_79704"/>
<feColorMatrix in="SourceAlpha" type="matrix" values="0 0 0 0 0 0 0 0 0 0 0 0 0 0 0 0 0 0 127 0" result="hardAlpha"/>
<feOffset dy="0.748276"/>
<feGaussianBlur stdDeviation="0.187069"/>
<feComposite in2="hardAlpha" operator="arithmetic" k2="-1" k3="1"/>
<feColorMatrix type="matrix" values="0 0 0 0 1 0 0 0 0 1 0 0 0 0 1 0 0 0 0.45 0"/>
<feBlend mode="normal" in2="effect1_innerShadow_1158_79704" result="effect2_innerShadow_1158_79704"/>
</filter>
<filter id="filter2_ii_1158_79704" x="73.1841" y="33.3961" width="133.717" height="192.611" filterUnits="userSpaceOnUse" color-interpolation-filters="sRGB">
<feFlood flood-opacity="0" result="BackgroundImageFix"/>
<feBlend mode="normal" in="SourceGraphic" in2="BackgroundImageFix" result="shape"/>
<feColorMatrix in="SourceAlpha" type="matrix" values="0 0 0 0 0 0 0 0 0 0 0 0 0 0 0 0 0 0 127 0" result="hardAlpha"/>
<feOffset dy="-0.748276"/>
<feGaussianBlur stdDeviation="0.187069"/>
<feComposite in2="hardAlpha" operator="arithmetic" k2="-1" k3="1"/>
<feColorMatrix type="matrix" values="0 0 0 0 0 0 0 0 0 0 0 0 0 0 0 0 0 0 0.25 0"/>
<feBlend mode="normal" in2="shape" result="effect1_innerShadow_1158_79704"/>
<feColorMatrix in="SourceAlpha" type="matrix" values="0 0 0 0 0 0 0 0 0 0 0 0 0 0 0 0 0 0 127 0" result="hardAlpha"/>
<feOffset dy="0.748276"/>
<feGaussianBlur stdDeviation="0.187069"/>
<feComposite in2="hardAlpha" operator="arithmetic" k2="-1" k3="1"/>
<feColorMatrix type="matrix" values="0 0 0 0 1 0 0 0 0 1 0 0 0 0 1 0 0 0 0.45 0"/>
<feBlend mode="normal" in2="effect1_innerShadow_1158_79704" result="effect2_innerShadow_1158_79704"/>
</filter>
</defs>
</svg>
