<svg width="433" height="492" viewBox="0 0 433 492" fill="none" xmlns="http://www.w3.org/2000/svg">
<path fill-rule="evenodd" clip-rule="evenodd" d="M197.302 0.107515C184.468 0.896141 173.575 3.95668 160.749 10.3777C157.179 12.1646 149.443 16.5037 147.119 18.023C146.475 18.4436 145.794 18.8687 145.604 18.9676C145.415 19.0665 144.919 19.3907 144.503 19.688C144.086 19.9853 142.971 20.7378 142.025 21.3602C138.293 23.8133 135.402 25.8865 130.611 29.5444C128.425 31.2129 128.023 31.5331 126.305 32.9734C125.751 33.4384 124.987 34.0525 124.608 34.3379C124.23 34.6235 123.455 35.2708 122.888 35.7766C122.32 36.2823 121.39 37.0988 120.822 37.5909C120.254 38.0831 119.601 38.6671 119.37 38.8889C119.14 39.1109 118.303 39.8813 117.512 40.6011C115.037 42.8513 109.537 48.2885 107.059 50.9343C106.279 51.7665 100.14 58.7403 98.9316 60.1664C98.5151 60.6578 98.0296 61.215 97.8526 61.4047C97.6757 61.5944 97.3778 61.9867 97.1905 62.2764C97.0034 62.5661 96.5907 63.063 96.2732 63.3807C95.9559 63.6982 95.3245 64.4779 94.8701 65.1132C94.4158 65.7483 93.87 66.4605 93.6575 66.6955C93.4449 66.9306 93.1668 67.2779 93.0397 67.4674C92.9125 67.6568 92.2811 68.5171 91.6365 69.3791C90.9919 70.2412 90.2341 71.2642 89.9526 71.6524C89.671 72.0407 89.3131 72.5223 89.1571 72.7227C88.6804 73.3348 88.2316 73.9817 87.834 74.6296C87.6255 74.9694 87.3421 75.3686 87.2042 75.5166C87.0664 75.6647 86.9537 75.8283 86.9537 75.8801C86.9537 75.9319 86.4736 76.6296 85.8867 77.4305C85.2999 78.2313 84.5718 79.2766 84.269 79.7532C83.3462 81.2049 82.4326 82.6656 82.1292 83.1737C81.9708 83.439 81.7061 83.8823 81.5407 84.1591C81.3754 84.4358 81.0002 85.0795 80.707 85.5892C80.4137 86.0991 80.0018 86.7717 79.7915 87.0839C79.5812 87.396 79.2962 87.8994 79.1581 88.2025C79.0201 88.5057 78.7372 89.0096 78.5296 89.3224C78.322 89.6353 77.7726 90.6273 77.3088 91.5268C76.845 92.4265 76.3759 93.2628 76.2664 93.3854C76.157 93.508 75.7964 94.1623 75.4652 94.8392C75.1339 95.5162 74.7644 96.152 74.6439 96.2521C74.5236 96.3521 74.425 96.5516 74.425 96.6953C74.425 96.8391 74.2693 97.2035 74.079 97.5051C73.8889 97.8067 73.766 98.0535 73.806 98.0535C73.9163 98.0535 73.2125 99.3983 73.0737 99.4527C73.0075 99.4788 72.4239 100.585 71.7769 101.911C66.6827 112.353 62.4959 123.292 59.8428 133.092C56.4557 145.603 54.8762 156.99 54.8752 168.902C54.8747 174.93 55.2127 178.74 56.1986 183.819C57.0892 188.407 58.8666 194.339 60.3402 197.642C62.3567 202.162 66.0702 208.979 68.9125 213.38C69.2183 213.853 69.4686 214.302 69.4686 214.376C69.4686 214.477 67.4589 216.787 66.9859 217.229C66.7967 217.406 62.8436 221.954 61.0573 224.049C48.2906 239.027 36.0698 256.557 27.5457 272.121C27.2586 272.645 26.5971 273.854 26.0757 274.808C25.0147 276.747 20.4866 285.757 19.7687 287.357C19.5135 287.925 19.0749 288.886 18.7939 289.492C13.8211 300.22 8.79066 314.536 5.81022 326.441C2.80981 338.426 1.24497 348.288 0.260986 361.411C-0.0863747 366.044 -0.0872012 379.164 0.259746 382.973C0.664518 387.418 1.06998 390.386 1.80311 394.27C4.34712 407.749 10.233 419.874 18.1803 428.007C22.5181 432.446 26.8809 435.738 32.5022 438.813C36.0759 440.767 37.813 441.459 52.4654 446.765C53.9042 447.286 56.2585 448.14 57.6972 448.664C59.1359 449.188 62.4815 450.403 65.1318 451.365C67.7821 452.327 70.188 453.206 70.4782 453.317C70.7684 453.429 73.4738 454.416 76.4902 455.511C79.5066 456.607 82.2119 457.594 82.5021 457.706C82.7924 457.817 85.4151 458.774 88.3304 459.831C91.2458 460.889 101.406 464.587 110.91 468.05C120.413 471.513 128.746 474.549 129.427 474.796C133.404 476.238 140.483 478.815 141.543 479.207C142.224 479.459 145.043 480.484 147.807 481.484C150.571 482.484 153.297 483.547 153.865 483.844C159.536 486.818 163.519 488.406 168.661 489.743C174.752 491.327 180.146 492.002 186.701 492C197.496 491.997 207.554 490.036 220.501 485.412C226.78 483.169 234.919 479.405 243.011 475C248.64 471.937 256.989 466.756 263.663 462.186C270.273 457.66 280.524 449.801 285.416 445.508C285.643 445.309 286.882 444.229 288.169 443.108C293.401 438.553 296.21 435.887 302.42 429.587C308.325 423.596 313.649 417.761 318.115 412.388C319.059 411.251 319.867 410.29 319.909 410.252C319.996 410.175 324.093 405.103 325.697 403.088C330.077 397.586 336.657 388.461 341.175 381.623C342.335 379.869 343.171 378.731 343.275 378.769C343.49 378.846 345.568 380.191 352.813 384.942C358.468 388.65 359.563 389.365 365.338 393.128C366.966 394.189 368.508 395.128 368.766 395.215C369.403 395.43 370.484 395.41 371.394 395.168C372.428 394.893 372.867 394.657 378.968 391.103C379.46 390.816 380.885 389.993 382.134 389.274C383.384 388.555 385.8 387.16 387.504 386.175C391.809 383.685 396.979 380.696 400.239 378.813C408.162 374.235 415.965 369.728 419.583 367.641C426.586 363.6 426.423 363.704 427.805 362.388C429.945 360.35 431.415 357.969 432.322 355.073C433.356 351.768 433.202 348.935 431.895 347.219C431.552 346.769 430.298 345.892 418.068 337.547C415.229 335.61 411.542 333.092 409.876 331.954C405.54 328.989 403.333 327.482 399.275 324.715C391.291 319.27 388.625 317.451 387.642 316.773C386.8 316.193 379.131 310.948 378.64 310.616C378.554 310.558 378.771 309.847 379.208 308.756C385.991 291.818 389.987 279.973 395.626 260.077C398.939 248.39 401.741 236.293 404.289 222.671C404.931 219.24 406.081 212.11 406.711 207.654C407.008 205.55 407.156 204.46 407.614 200.972C408.083 197.407 408.03 195.93 407.381 194.483C407.043 193.729 406.015 192.567 405.686 192.567C405.611 192.567 405.301 192.2 404.997 191.752C404.08 190.401 403.092 189.727 400.859 188.929C400.139 188.672 396.205 187.24 392.116 185.747C388.027 184.254 384.031 182.797 383.236 182.51C382.441 182.224 380.412 181.486 378.727 180.872C377.042 180.257 374.285 179.251 372.6 178.637C370.915 178.022 368.886 177.285 368.091 176.998C367.296 176.712 362.278 174.883 356.939 172.934C351.601 170.986 346.583 169.156 345.788 168.869C344.992 168.582 342.266 167.592 339.73 166.669C337.193 165.747 334.095 164.62 332.846 164.166C331.596 163.712 330.264 163.222 329.886 163.078C329.507 162.934 323.467 160.731 316.462 158.183C309.458 155.635 299.142 151.873 293.539 149.822L283.351 146.093L281.836 146.081C279.98 146.065 279.705 146.16 276.88 147.789C275.744 148.444 273.328 149.839 271.51 150.89C267.55 153.179 264.856 154.736 261.804 156.498C260.555 157.22 258.944 158.15 258.225 158.566C257.505 158.981 255.647 160.055 254.094 160.952C251.171 162.641 248.813 164.004 244.801 166.324C243.514 167.068 242.027 167.921 241.497 168.22C240.967 168.518 240.174 169.041 239.735 169.381C239.021 169.936 238.945 169.966 239.009 169.676C239.048 169.498 239.24 168.484 239.434 167.423C241.334 157.076 246.11 147.14 253.357 138.461C258.88 131.846 264.916 126.363 271.923 121.595C274.697 119.708 279.113 117.023 281.045 116.048L281.768 115.684L284.28 116.597C285.662 117.099 287.443 117.745 288.238 118.032C291.376 119.165 304.594 123.98 305.241 124.226C305.62 124.37 306.952 124.859 308.202 125.313C316.003 128.148 321.549 130.17 323.828 131.009C326.095 131.844 326.6 131.982 327.614 132.041C328.3 132.081 329.041 132.043 329.404 131.948C329.745 131.859 330.425 131.725 330.916 131.65C332.66 131.382 334.009 130.736 335.661 129.377C336.611 128.594 337.435 127.651 339.143 125.388C339.766 124.562 342.307 121.21 344.788 117.94C347.269 114.669 351.467 109.13 354.117 105.632C356.767 102.134 359.989 97.8854 361.276 96.1917C369.333 85.5912 369.08 85.9447 370.031 83.9308C370.683 82.5478 371.177 80.8515 371.395 79.2434C371.691 77.0641 371.332 75.7212 369.338 71.5317C365.251 62.9489 359.564 56.4991 352.052 51.9267C349.337 50.2743 348.701 49.9118 347.172 49.1442C343.447 47.2752 339.66 46.0153 335.386 45.2235C334.398 45.0406 333.159 44.7278 332.633 44.5286C332.106 44.3294 330.56 43.7623 329.197 43.2685C327.834 42.7746 325.48 41.9162 323.966 41.3609C322.451 40.8055 319.725 39.813 317.908 39.1552C316.09 38.4975 313.364 37.5045 311.85 36.9486C308.533 35.7307 301.244 33.0787 291.749 29.635C287.887 28.2342 284.48 26.9922 284.178 26.8748C283.708 26.6925 278.597 24.8265 276.467 24.0596C276.088 23.9232 273.889 23.1201 271.579 22.2747C269.27 21.4295 266.203 20.3152 264.764 19.7988C263.326 19.2823 261.901 18.765 261.598 18.6493C261.295 18.5337 260.025 18.0679 258.775 17.6143C257.526 17.1607 255.234 16.325 253.681 15.7573C252.129 15.1895 249.372 14.1868 247.555 13.529C245.737 12.8713 243.011 11.8786 241.497 11.3232C239.982 10.7677 237.008 9.68248 234.888 8.91149C232.768 8.14064 228.087 6.43664 224.487 5.12488C216.21 2.10925 214.56 1.59191 211.139 0.939265C206.798 0.111097 201.968 -0.179333 197.302 0.107515ZM207.284 4.70425C209.872 5.04593 212.568 5.60916 214.718 6.25739C215.362 6.45138 218.181 7.44267 220.983 8.46014C223.785 9.47775 226.387 10.4219 226.765 10.5586C228.455 11.1678 234.052 13.2086 234.514 13.3837C234.796 13.4903 236.048 13.9486 237.298 14.402C238.547 14.8554 240.53 15.5775 241.703 16.0065C242.877 16.4357 247.338 18.0559 251.616 19.6073C255.894 21.1586 259.642 22.5234 259.944 22.6402C260.598 22.8928 268.422 25.7412 277.844 29.1562C279.964 29.9248 281.915 30.6373 282.18 30.7396C282.446 30.8419 285.853 32.0831 289.753 33.4978C293.652 34.9126 297.09 36.1651 297.393 36.2812C297.695 36.3973 299.385 37.0152 301.149 37.6542C302.913 38.2932 304.586 38.9032 304.868 39.0099C305.149 39.1165 306.401 39.5755 307.651 40.0298C308.9 40.4842 311.224 41.3297 312.814 41.9088C314.404 42.4879 316.683 43.3138 317.878 43.7443C319.335 44.2689 319.97 44.5564 319.805 44.6169C319.67 44.6665 318.724 44.7795 317.701 44.8679C309.767 45.5541 300.087 48.2732 290.86 52.4073C280.061 57.2458 266.986 65.3339 255.402 74.3417C252.749 76.4049 247.914 80.4154 245.903 82.2217C237.934 89.3774 231.221 96.2011 225.446 103.016C206.136 125.805 191.899 151.564 184.35 177.374C182.457 183.847 180.658 192.215 179.883 198.147C179.814 198.678 179.697 199.577 179.623 200.145C178.424 209.39 178.318 219.74 179.346 227.08C180.104 232.489 181.964 239.587 183.679 243.613C184.857 246.379 188.058 252.591 189.98 255.841C190.327 256.428 190.595 256.908 190.576 256.908C190.556 256.908 186.362 255.385 181.255 253.523C176.148 251.66 171.133 249.836 170.111 249.468C169.089 249.101 167.664 248.585 166.944 248.322C166.225 248.059 163.902 247.214 161.781 246.445C159.661 245.675 157.617 244.927 157.238 244.782C156.613 244.542 136.435 237.192 127.362 233.9C117.63 230.368 109.761 227.501 108.638 227.078C107.956 226.822 106.253 226.199 104.852 225.694C103.451 225.19 102.088 224.693 101.823 224.59C101.558 224.488 99.6062 223.775 97.486 223.008C95.3658 222.24 93.0734 221.408 92.3919 221.16C91.7104 220.911 90.3474 220.418 89.363 220.063C88.3786 219.709 87.3564 219.336 87.0913 219.235C86.8263 219.134 84.4411 218.264 81.7908 217.303C79.1405 216.342 76.5331 215.391 75.9966 215.19L75.0213 214.825L73.6636 212.755C70.1153 207.344 66.6057 201.019 64.3345 195.943C62.3304 191.464 60.4551 184.404 59.7049 178.514C58.5772 169.662 59.1816 157.614 61.3397 145.93C63.9728 131.675 68.8104 117.664 76.2048 102.876C91.1007 73.0842 112.686 47.637 139.202 28.6076C151.212 19.9885 163.773 13.0235 174.007 9.30884C181.924 6.43471 188.074 5.137 197.027 4.45074C198.768 4.31738 205.64 4.48712 207.284 4.70425ZM329.06 49.433C336.433 50.1048 342.477 52.1975 349.195 56.405C353.457 59.0744 355.93 61.1241 358.864 64.4199C362.056 68.0054 365.31 73.3717 367.268 78.2827C367.678 79.3107 367.703 79.4686 367.639 80.6249C367.527 82.6277 367.137 83.3737 364.164 87.2818C363.145 88.6218 359.09 93.965 355.152 99.1557C351.215 104.346 346.676 110.328 345.066 112.448C341.353 117.338 337.532 122.385 336.668 123.542C334.791 126.053 333.109 127.116 331.637 126.719C330.937 126.53 330.55 126.08 329.679 124.437C325.378 116.329 320.033 110.527 314.135 107.567C311.332 106.159 308.317 105.342 304.872 105.057C299.761 104.633 293.294 106.034 286.551 109.026C276.407 113.528 264.724 121.654 257.33 129.351C249.841 137.146 245.544 143.068 241.7 150.89C237.983 158.455 235.87 165.872 234.87 174.863C234.516 178.049 234.509 186.259 234.858 188.71C235.682 194.484 237.148 199.502 239.435 204.367C241.256 208.244 245.978 215.158 250.477 220.536C254.353 225.168 258.218 229.164 263.938 234.449C267.235 237.495 271.925 241.194 281.148 248.022C282.359 248.919 284.032 250.158 284.865 250.775C288.35 253.359 289.385 254.107 294.571 257.789C302.69 263.551 310.607 269.177 317.082 273.784C320.262 276.047 325.497 279.766 328.716 282.049C331.934 284.332 335.966 287.196 337.675 288.414C339.385 289.632 340.925 290.704 341.098 290.797C341.634 291.084 342.69 290.993 343.414 290.599C344.526 289.993 345.742 288.689 346.377 287.422C347.013 286.154 350.858 273.449 352.671 266.622C356.273 253.065 358.981 239.855 361.134 225.341C361.583 222.315 361.953 221.254 363.078 219.766C364.087 218.43 364.077 218.437 369.33 215.404C371.11 214.377 374.579 212.374 377.04 210.954C379.501 209.533 382.893 207.574 384.578 206.6C388.501 204.333 392.896 201.793 397.072 199.382C401.189 197.005 401.25 196.976 402.071 196.976C402.914 196.976 403.58 197.393 403.934 198.141C404.358 199.038 404.317 199.648 403.338 206.965C401.936 217.454 399.063 233.017 396.714 242.847C394.871 250.56 393.226 256.845 391.283 263.59C390.628 265.864 389.951 268.22 389.778 268.826C389.278 270.577 388.33 273.753 388.196 274.13C388.129 274.32 387.756 275.498 387.367 276.748C384.39 286.332 379.873 298.934 376.207 307.885C375.002 310.827 374.834 311.405 374.821 312.645C374.803 314.317 375.057 314.647 377.729 316.429C378.448 316.909 380.214 318.106 381.653 319.091C386.817 322.624 390.774 325.328 392.768 326.687C393.885 327.447 395.34 328.441 396.004 328.895C399.622 331.371 406.247 335.892 407.742 336.907C408.689 337.549 410.3 338.645 411.322 339.344C416.816 343.099 426.279 349.559 427.318 350.265C428.927 351.358 429.22 351.819 429.22 353.254C429.22 355.206 428.422 357.117 426.963 358.661C426.165 359.504 425.219 360.125 421.77 362.065C421.438 362.252 420.423 362.836 419.514 363.363C418.605 363.89 416.592 365.055 415.039 365.951C410.208 368.743 402.721 373.069 397.589 376.036C394.882 377.601 391.892 379.327 390.946 379.873C388.406 381.335 384.872 383.375 383.305 384.284C382.547 384.723 381.153 385.529 380.207 386.075C379.26 386.621 377.495 387.641 376.283 388.342C372.336 390.625 372.651 390.477 371.74 390.479C370.937 390.482 370.867 390.451 369.262 389.39C367.712 388.366 358.051 382.041 354.392 379.655C353.484 379.063 351.129 377.522 349.161 376.231C345.675 373.945 345.562 373.884 344.854 373.882C343.948 373.879 342.997 374.335 342.033 375.234C341.598 375.64 340.341 377.38 338.632 379.942C333.651 387.407 329.035 393.789 323.632 400.677C322.006 402.75 316.551 409.419 315.666 410.417C315.443 410.667 314.404 411.864 313.356 413.077C312.308 414.289 311.224 415.529 310.949 415.832C310.673 416.135 309.804 417.096 309.017 417.968C304.94 422.485 297.748 429.853 293.608 433.753C291.695 435.554 288.132 438.731 285.319 441.142C265.862 457.821 243.752 471.781 224.7 479.417C222.38 480.347 221.709 480.596 218.78 481.618C215.307 482.829 209.555 484.484 206.802 485.062C205.156 485.408 203.973 485.646 203.36 485.754C202.981 485.821 202.145 485.968 201.501 486.081C196.345 486.99 189.711 487.424 185.213 487.148C178.076 486.709 172.502 485.677 166.531 483.688C158.224 480.921 150.095 475.809 144.157 469.618C139.979 465.263 135.916 458.725 133.221 452.019C130.289 444.725 128.615 437.187 127.75 427.374C127.45 423.978 127.407 411.73 127.681 407.91C128.166 401.143 128.79 395.055 129.354 391.584C130.257 386.034 130.58 384.204 131.168 381.319C131.831 378.066 132.211 376.381 133.082 372.846C136.575 358.664 142.364 343.012 149.234 329.172C152.654 322.283 156.136 316.01 160.59 308.712C169.153 294.682 181.256 278.506 192.682 265.819C193.751 264.632 194.87 263.311 195.169 262.883C196.242 261.351 196.877 258.979 196.573 257.643C196.501 257.327 195.761 255.963 194.929 254.612C190.653 247.666 187.552 241.486 185.992 236.803C183.416 229.069 182.366 222.361 182.369 213.647C182.372 202.451 183.853 191.733 187.091 179.479C188.493 174.17 191.139 166.396 193.514 160.603C195.611 155.491 199.78 146.697 202.266 142.142C206.348 134.663 210.499 127.944 214.851 121.771C215.725 120.532 216.532 119.382 216.646 119.217C216.76 119.051 217.013 118.701 217.208 118.439C217.404 118.177 218.021 117.342 218.58 116.584C220.519 113.953 225.087 108.217 227.192 105.769C240.217 90.6183 254.966 77.8343 271.648 67.2345C277.193 63.7112 281.698 61.1562 286.517 58.8005C290.629 56.7909 291.631 56.345 295.053 55.0019C303.15 51.8242 310.047 50.1854 318.252 49.4896C322.295 49.1468 325.721 49.1288 329.06 49.433ZM304.76 110.052C311.871 111.152 317.676 115.187 322.877 122.647C324.244 124.607 325.614 126.83 325.515 126.928C325.481 126.962 324.623 126.687 323.608 126.317C322.593 125.947 320.289 125.107 318.488 124.452C316.687 123.797 314.984 123.172 314.702 123.064C314.234 122.884 308.513 120.802 305.035 119.546C304.24 119.258 302.66 118.685 301.524 118.271C300.388 117.857 298.313 117.103 296.912 116.594C295.511 116.085 293.374 115.306 292.162 114.863C290.951 114.42 289.387 113.851 288.688 113.599C287.989 113.346 287.416 113.102 287.414 113.055C287.412 112.946 289.56 112.126 291.306 111.57C294.186 110.652 297.241 110.023 299.666 109.851C300.756 109.774 303.713 109.89 304.76 110.052ZM284.483 151.15C287.837 152.357 296.037 155.338 296.678 155.584C296.965 155.694 299.691 156.689 302.735 157.794C305.78 158.899 309.54 160.268 311.093 160.835C312.645 161.403 314.937 162.238 316.187 162.691C317.436 163.145 318.768 163.633 319.147 163.777C319.526 163.92 322.252 164.914 325.205 165.984C328.158 167.055 331.813 168.386 333.328 168.941C335.755 169.831 337.182 170.35 342.414 172.249C352.184 175.794 356.024 177.193 356.595 177.414C356.974 177.56 361.992 179.389 367.747 181.477C373.502 183.566 378.52 185.392 378.899 185.536C379.278 185.68 380.625 186.174 381.893 186.633C387.626 188.712 388.842 189.154 389.294 189.324C389.559 189.424 392.037 190.326 394.801 191.328C397.565 192.331 399.876 193.197 399.937 193.253C399.998 193.308 398.728 194.117 397.114 195.049C391.833 198.103 387.337 200.703 385.094 202.002C383.883 202.704 382.086 203.743 381.102 204.31C380.117 204.878 377.298 206.506 374.837 207.929C372.377 209.351 369.124 211.227 367.609 212.096C366.095 212.966 364.365 214.053 363.765 214.512L362.675 215.348L361.494 214.922C359.49 214.202 353.535 212.034 344.548 208.755C339.816 207.028 335.014 205.282 333.878 204.874C332.743 204.466 331.503 204.015 331.125 203.871C330.746 203.726 329.414 203.237 328.165 202.784C326.915 202.331 324.623 201.495 323.071 200.927C321.518 200.359 318.761 199.357 316.944 198.699C315.127 198.041 312.401 197.048 310.886 196.492C309.372 195.936 306.677 194.954 304.897 194.309C303.118 193.664 299.772 192.446 297.463 191.602C295.153 190.758 292.861 189.924 292.369 189.749C291.876 189.574 285.681 187.318 278.601 184.736C271.521 182.155 264.427 179.57 262.837 178.993C259.556 177.801 255.927 176.477 254.301 175.879C253.695 175.656 251.104 174.711 248.544 173.78C245.984 172.848 243.877 172.04 243.863 171.983C243.849 171.927 245.448 170.949 247.417 169.811C249.386 168.672 252.236 167.025 253.75 166.149C255.265 165.273 257.278 164.11 258.225 163.564C259.171 163.018 260.534 162.231 261.253 161.815C261.973 161.399 263.831 160.325 265.384 159.429C266.936 158.532 269.507 157.046 271.097 156.127C281.663 150.019 281.179 150.285 281.729 150.276C281.898 150.273 283.137 150.666 284.483 151.15ZM245.971 177.445C256.085 181.133 258.483 182.006 261.185 182.987C262.169 183.345 264.245 184.1 265.797 184.665C267.349 185.23 271.779 186.839 275.641 188.241C279.503 189.642 282.91 190.885 283.212 191.002C283.514 191.118 285.204 191.737 286.968 192.376C288.732 193.015 290.405 193.626 290.687 193.734C290.968 193.843 292.592 194.436 294.296 195.053C296 195.67 299.098 196.797 301.18 197.556C303.262 198.315 305.617 199.171 306.412 199.457C309.268 200.486 322.741 205.394 323.415 205.65C323.794 205.795 325.157 206.293 326.444 206.758C327.731 207.223 329.094 207.721 329.473 207.865C329.851 208.009 331.524 208.618 333.19 209.22C334.856 209.821 339.224 211.41 342.896 212.751C346.569 214.091 350.41 215.488 351.432 215.854C354.683 217.017 359.747 218.891 359.809 218.953C359.842 218.986 359.587 219.593 359.241 220.303C358.211 222.422 357.942 223.475 357.278 227.976C354.66 245.733 350.629 263.441 345.281 280.675C344.787 282.266 344.238 284.048 344.061 284.634C343.883 285.22 343.688 285.79 343.627 285.899C343.509 286.109 343.987 286.445 308.838 261.443C307.409 260.427 306.015 259.435 305.741 259.24C305.466 259.045 304.498 258.359 303.589 257.716C297.21 253.201 292.613 249.925 291.198 248.887C290.29 248.22 289.02 247.29 288.376 246.82C284.99 244.346 274.456 236.438 273.025 235.294C265.745 229.477 257.667 221.492 252.379 214.887C248.641 210.218 244.801 204.546 243.164 201.274C241.806 198.561 240.291 194.406 239.573 191.426C238.715 187.86 238.396 185.428 238.301 181.727C238.236 179.212 238.267 178.328 238.477 176.729C238.691 175.093 238.765 174.8 238.944 174.873C239.061 174.921 242.223 176.078 245.971 177.445ZM74.5089 219.246C75.2578 219.516 76.4282 219.94 77.1097 220.188C77.7912 220.436 80.8373 221.544 83.8789 222.651C86.9205 223.757 89.6465 224.752 89.9367 224.862C90.227 224.973 91.5177 225.443 92.805 225.909C94.0923 226.374 95.4553 226.872 95.8339 227.016C96.2125 227.159 101.231 228.986 106.986 231.075C112.741 233.164 117.759 234.992 118.138 235.138C118.516 235.283 119.612 235.682 120.573 236.026C121.534 236.37 122.556 236.741 122.845 236.85C123.133 236.959 124.392 237.421 125.641 237.875C126.89 238.33 129.988 239.456 132.525 240.379C135.062 241.301 139.522 242.921 142.438 243.978C145.353 245.035 148.048 246.019 148.427 246.165C148.995 246.383 161.781 251.046 164.879 252.165C165.371 252.342 166.951 252.915 168.39 253.438C169.829 253.961 173.174 255.177 175.825 256.14C178.475 257.103 181.108 258.064 181.676 258.276C182.244 258.489 184.737 259.399 187.217 260.3C189.696 261.2 191.725 261.99 191.725 262.055C191.726 262.12 191.211 262.74 190.58 263.433C189.95 264.126 188.321 265.995 186.961 267.586C170.169 287.229 156.956 306.906 146.581 327.72C143.184 334.534 140.587 340.423 137.8 347.631C130.399 366.772 125.903 385.894 124.338 404.879C123.856 410.722 123.793 412.45 123.793 419.69C123.794 427.268 123.881 429.136 124.471 434.156C125.865 446.028 129.152 456.237 134.387 464.952C136.108 467.816 138.782 471.416 140.697 473.446C141.292 474.077 141.715 474.593 141.638 474.593C141.511 474.593 137.268 473.074 135.485 472.39C135.106 472.245 133.093 471.51 131.01 470.756C125.33 468.701 120.332 466.882 112.286 463.941C110.734 463.373 108.318 462.497 106.917 461.994C105.516 461.49 104.06 460.959 103.681 460.813C102.895 460.511 97.3679 458.495 93.4934 457.099C92.0546 456.58 90.0411 455.849 89.0188 455.474C87.9966 455.099 86.014 454.377 84.6132 453.87C83.2123 453.363 81.8493 452.866 81.5842 452.764C81.3192 452.663 77.5847 451.301 73.2852 449.737C68.9858 448.174 65.2375 446.806 64.9557 446.698C64.674 446.59 63.2972 446.088 61.8963 445.584C60.4956 445.079 59.1326 444.583 58.8674 444.482C58.6024 444.38 56.6508 443.671 54.5306 442.907C52.4104 442.142 50.3659 441.398 49.9872 441.253C49.6086 441.108 47.5951 440.373 45.5127 439.618C40.0322 437.632 39.0891 437.25 36.4921 435.971C26.1261 430.862 18.5242 423.661 13.2162 413.921C8.32352 404.943 5.6048 394.952 4.53174 382.008C4.20793 378.102 4.21054 367.53 4.5367 362.582C5.14606 353.335 6.2289 345.016 7.87249 336.956C13.6997 308.38 25.4805 281.114 43.6543 254.141C51.6351 242.296 61.8969 229.199 70.8177 219.474L72.1078 218.067L72.6275 218.411C72.9133 218.601 73.7599 218.976 74.5089 219.246ZM222.946 287.841C222.038 288.175 221.307 288.791 218.918 291.236C209.583 300.792 202.152 310.066 196.214 319.573C190.152 329.278 186.003 338.216 182.972 348.094C180.66 355.631 179.386 362.46 178.484 372.157C178.236 374.82 178.237 386.28 178.485 388.622C179.111 394.533 179.769 398.121 180.964 402.147C183.066 409.227 186.968 415.531 191.703 419.496C203.181 429.109 220.405 429.016 242.152 419.221C263.171 409.755 281.814 395.48 297.681 376.704C303.717 369.562 311.73 358.843 312.821 356.451C313.628 354.682 313.772 353.2 313.244 352.095C312.992 351.566 313.027 351.592 302.006 343.752C296.698 339.976 288.816 334.368 280.253 328.275C277.413 326.255 271.094 321.761 266.21 318.288C261.326 314.815 255.44 310.63 253.13 308.987C250.821 307.344 246.856 304.524 244.319 302.722C240.629 300.099 234.865 295.834 231.747 293.419C230.525 292.473 227.704 290.207 226.405 289.128C224.515 287.56 224.116 287.411 222.946 287.841ZM223.332 293.394C225.421 295.148 229.288 298.191 232.754 300.809C236.442 303.594 237.607 304.433 250.996 313.946C255.086 316.852 259.515 320.004 260.84 320.951C262.166 321.899 264.923 323.859 266.967 325.309C270.69 327.948 282.117 336.074 293.608 344.255C296.977 346.655 301.984 350.217 304.733 352.172C307.809 354.359 309.707 355.794 309.666 355.901C309.527 356.264 306.812 360.044 303.928 363.891C294.755 376.128 286.081 385.406 275.916 393.858C261.682 405.692 243.785 415.545 229.037 419.667C212.773 424.212 199.397 421.457 191.433 411.921C186.645 406.189 183.855 399.094 182.568 389.379C181.741 383.145 181.769 373.453 182.635 365.889C182.822 364.249 183.291 360.946 183.466 360.033C183.914 357.693 184.326 355.652 184.496 354.936C185.254 351.733 185.545 350.622 186.286 348.116C191.099 331.839 201.403 314.745 215.81 299.142C218.404 296.332 222.058 292.592 222.21 292.592C222.302 292.592 222.807 292.953 223.332 293.394Z" fill="white"/>
</svg>
